<svg width="52" height="61" viewBox="0 0 52 61" fill="none" xmlns="http://www.w3.org/2000/svg">
<path d="M48.5311 20.0984C51.122 22.0882 52.3343 24.6842 51.9159 28.029C51.8232 28.7422 50.8368 29.5362 50.8534 30.7154C50.8653 31.5593 51.8565 32.8335 51.923 33.3684C52.3295 36.6562 51.1077 39.2046 48.5525 41.2277C47.1263 42.2119 48.3148 43.5836 47.9297 44.9458C47.3712 46.9593 46.2659 48.5117 44.3904 49.4769C43.5228 49.9262 42.2369 49.4769 41.5523 49.9523C40.3638 50.782 40.043 52.4841 39.9716 52.7337C39.1231 55.7148 35.6289 57.543 32.6648 56.5374C32.0777 56.3353 31.3052 56.4423 30.169 57.9638C28.8284 59.78 27.1645 61.1279 24.7495 60.6334C21.4218 59.9702 19.2421 57.6856 17.4427 55.0183C13.7964 49.61 10.2143 44.1589 6.6061 38.7268C6.25906 38.2038 5.90489 37.6855 5.28925 37.3147L10.0955 46.6146C7.74942 45.9442 5.47465 45.4521 3.34727 44.5939C2.63417 44.311 2.01379 43.1295 1.88306 42.2761C1.49323 39.6991 1.38151 37.0817 1.12717 34.4833C1.05824 33.7559 0.792022 33.057 0.763498 32.32C0.744576 31.302 0.78267 30.2837 0.877596 29.27C0.922758 28.6471 1.09152 28.0362 1.14382 27.4157C1.38151 24.6533 1.50036 21.8814 1.84027 19.1332C2.03755 17.5214 3.00974 16.561 4.77821 16.252C6.54667 15.9429 8.21293 15.2321 10.1335 14.6354L5.30827 23.9663C5.38433 24.0162 6.16873 23.2673 6.4611 22.8275C10.1343 17.3075 13.8036 11.7859 17.4689 6.26264C18.9164 4.08506 20.7182 2.27357 23.1189 1.18001C25.9546 -0.115602 28.9211 0.911383 30.3425 3.69042C30.5493 4.09456 31.02 4.42738 32.6363 4.87907C34.3002 5.35452 36.3373 3.80929 38.6382 6.34109C40.4803 9.63362 40.4328 10.5322 42.2393 11.0505C44.331 11.6519 46.1161 12.5791 47.1929 14.5451C47.4516 15.0717 47.6709 15.6168 47.8489 16.1759C48.3742 17.6237 47.6065 18.6768 48.5311 20.0984Z" fill="#080B35"/>
<path d="M31.1211 28.1798H34.0992C34.9571 28.1798 35.5821 28.2901 35.9743 28.5107C36.3665 28.7068 36.6238 29.0132 36.7464 29.4299C36.8934 29.8466 36.967 30.4104 36.967 31.1212C36.967 31.8075 36.9057 32.359 36.7831 32.7757C36.6606 33.1924 36.4522 33.4865 36.1581 33.6581C35.7169 33.8787 35.0919 33.989 34.283 33.989H31.1211V36.9671C31.1211 37.8249 31.0108 38.45 30.7902 38.8422C30.5941 39.2343 30.2877 39.504 29.871 39.651C29.4543 39.7736 28.8906 39.8349 28.1798 39.8349C27.4935 39.8349 26.942 39.7736 26.5253 39.651C26.1086 39.504 25.8144 39.2711 25.6429 38.9525C25.4223 38.4867 25.312 37.8127 25.312 36.9303V33.989H22.1133C21.3044 33.989 20.7161 33.8909 20.3485 33.6948C19.9808 33.4987 19.7357 33.1924 19.6132 32.7757C19.4906 32.3345 19.4293 31.7707 19.4293 31.0844C19.4293 30.3981 19.4906 29.8466 19.6132 29.4299C19.7602 28.9887 20.0053 28.6823 20.3485 28.5107C20.8142 28.2901 21.4882 28.1798 22.3706 28.1798H25.312V25.2018C25.312 24.3439 25.41 23.7188 25.6061 23.3267C25.8022 22.9345 26.1086 22.6771 26.5253 22.5546C26.9665 22.4075 27.5302 22.334 28.2165 22.334C28.9028 22.334 29.4543 22.4075 29.871 22.5546C30.3122 22.6771 30.6186 22.8977 30.7902 23.2164C31.0108 23.6821 31.1211 24.3561 31.1211 25.2385V28.1798Z" fill="white"/>
</svg>
