<svg width="1440" height="327" viewBox="0 0 1440 327" fill="none" xmlns="http://www.w3.org/2000/svg">
<path d="M-482.384 114.554C-529.693 115.381 -505.772 57.1211 -577.146 56.8114L-588 958.047L1935.9 969L1947.29 23.8651C1947.91 19.5637 1940.91 10.9251 1907.88 10.7817C1866.61 10.6026 1868.72 49.3489 1825.72 49.1623C1782.73 48.9757 1808.13 81.625 1741.06 81.3339C1673.98 81.0429 1691.84 26.372 1669.48 26.2749C1647.13 26.1779 1643.38 51.9863 1600.38 51.7997C1557.38 51.6131 1550.81 25.7599 1505.24 25.5621C1459.66 25.3643 1424.76 67.0489 1377.46 66.8436C1330.17 66.6384 1329.85 21.1855 1278.26 20.9616C1226.66 20.7377 1182.38 55.6671 1130.79 55.4432C1079.19 55.2193 1065.7 32.9515 1028.72 32.791C991.745 32.6305 967.082 81.074 919.786 80.8687C872.489 80.6634 884.098 45.0757 838.521 44.8779C792.945 44.6801 788.409 64.2872 742.832 64.0894C697.256 63.8916 695.816 40.6431 632.997 43.986C570.179 47.3288 548.332 76.1577 494.156 75.9225C439.981 75.6874 444.859 27.6746 386.383 27.4209C327.908 27.1671 309.233 78.219 261.937 78.0137C214.641 77.8085 195.403 32.79 151.547 32.5996C99.0909 32.372 79.7868 64.3108 25.611 64.0757C-28.5648 63.8406 -22.2094 35.9775 -66.066 35.7872C-100.56 35.6375 -105.373 86.233 -142.35 86.0725C-179.327 85.9121 -191.952 63.1315 -226.349 62.9823C-260.747 62.833 -280.786 84.4387 -328.955 85.2627C-377.124 86.0866 -380.352 68.5118 -410.45 68.3812C-440.547 68.2506 -435.075 113.726 -482.384 114.554Z" fill="#B4E4FE"/>
</svg>
