<svg width="41" height="72" viewBox="0 0 41 72" fill="none" xmlns="http://www.w3.org/2000/svg">
<path d="M37.2632 60.2578C38.8039 52.1287 39.0781 47.0647 36.3366 41.3344C33.5951 35.6041 34.8287 28.0081 35.9254 24.5432C37.022 21.0784 34.6917 10.1508 31.5389 6.68594C28.3862 3.22109 28.2135 16.2462 25.7639 20.4614C23.3144 24.6765 21.468 33.909 22.9388 38.5545C24.4096 43.2001 24.7674 59.7168 24.7674 59.7168" fill="#72B77A"/>
<path d="M37.2632 60.2578C38.8039 52.1287 39.0781 47.0647 36.3366 41.3344C33.5951 35.6041 34.8287 28.0081 35.9254 24.5432C37.022 21.0784 34.6917 10.1508 31.5389 6.68594C28.3862 3.22109 28.2135 16.2462 25.7639 20.4614C23.3144 24.6765 21.468 33.909 22.9388 38.5545C24.4096 43.2001 24.7674 59.7168 24.7674 59.7168" stroke="#230577" stroke-width="4" stroke-linecap="round" stroke-linejoin="round"/>
<path d="M17.2632 56.3582C18.8039 48.2291 19.0781 43.1651 16.3366 37.4348C13.5951 31.7044 14.8287 24.1084 15.9254 20.6436C17.022 17.1787 14.6917 6.25113 11.5389 2.78628C8.38619 -0.678572 8.21347 12.3466 5.76393 16.5617C3.31438 20.7768 1.46798 30.0093 2.9388 34.6549C4.40962 39.3005 4.76739 55.8171 4.76739 55.8171" fill="#72B77A"/>
<path d="M17.2632 56.3582C18.8039 48.2291 19.0781 43.1651 16.3366 37.4348C13.5951 31.7044 14.8287 24.1084 15.9254 20.6436C17.022 17.1787 14.6917 6.25113 11.5389 2.78628C8.38619 -0.678572 8.21347 12.3466 5.76393 16.5617C3.31438 20.7768 1.46798 30.0093 2.9388 34.6549C4.40962 39.3005 4.76739 55.8171 4.76739 55.8171" stroke="#230577" stroke-width="4" stroke-linecap="round" stroke-linejoin="round"/>
<path d="M11.5671 69.032C10.0264 60.9029 9.75222 55.8389 12.4937 50.1086C15.2353 44.3783 14.0016 36.7823 12.905 33.3174C11.8084 29.8526 14.1386 18.925 17.2914 15.4601C20.4441 11.9953 20.6168 25.0204 23.0664 29.2355C25.5159 33.4507 27.3623 42.6832 25.8915 47.3287C24.4207 51.9743 24.0629 68.491 24.0629 68.491" fill="#72B77A"/>
<path d="M11.5671 69.032C10.0264 60.9029 9.75222 55.8389 12.4937 50.1086C15.2353 44.3783 14.0016 36.7823 12.905 33.3174C11.8084 29.8526 14.1386 18.925 17.2914 15.4601C20.4441 11.9953 20.6168 25.0204 23.0664 29.2355C25.5159 33.4507 27.3623 42.6832 25.8915 47.3287C24.4207 51.9743 24.0629 68.491 24.0629 68.491" stroke="#230577" stroke-width="4" stroke-linecap="round" stroke-linejoin="round"/>
</svg>
