<svg width="52" height="61" viewBox="0 0 52 61" fill="none" xmlns="http://www.w3.org/2000/svg">
<path d="M3.60681 20.0001C1.01598 21.9898 -0.196242 24.5857 0.222093 27.9305C0.314794 28.6437 1.30122 29.4377 1.28458 30.6168C1.27269 31.4607 0.281526 32.7349 0.214971 33.2697C-0.191481 36.5574 1.03025 39.1058 3.58543 41.1288C5.01157 42.113 3.82312 43.4846 4.20818 44.8468C4.76675 46.8603 5.87202 48.4126 7.7474 49.3778C8.61498 49.8271 9.90087 49.3778 10.5854 49.8532C11.7739 50.6829 12.0948 52.385 12.1661 52.6346C13.0146 55.6156 16.5087 57.4437 19.4727 56.4381C20.0598 56.2361 20.8323 56.343 21.9684 57.8645C23.309 59.6807 24.9729 61.0285 27.3878 60.5341C30.7155 59.8708 32.8951 57.5863 34.6944 54.9191C38.3406 49.5109 41.9226 44.0599 45.5308 38.628C45.8778 38.105 46.232 37.5868 46.8476 37.2159L42.0415 46.5156C44.3875 45.8452 46.6622 45.3531 48.7895 44.495C49.5026 44.2121 50.123 43.0306 50.2537 42.1772C50.6435 39.6003 50.7552 36.983 51.0096 34.3846C51.0785 33.6572 51.3447 32.9583 51.3732 32.2214C51.3921 31.2034 51.354 30.1851 51.2591 29.1714C51.214 28.5486 51.0452 27.9376 50.9929 27.3172C50.7552 24.5548 50.6364 21.783 50.2965 19.0349C50.0992 17.4232 49.127 16.4628 47.3586 16.1537C45.5902 15.8447 43.924 15.1339 42.0034 14.5372L46.8286 23.8678C46.7525 23.9177 45.9681 23.1689 45.6758 22.7291C42.0026 17.2092 38.3335 11.6877 34.6683 6.16466C33.2208 3.98713 31.419 2.17569 29.0184 1.08216C26.1827 -0.213422 23.2163 0.813536 21.7949 3.59251C21.5882 3.99663 21.1175 4.32944 19.5012 4.78112C17.8374 5.25656 15.8004 3.71137 13.4995 6.24311C11.6574 9.53556 11.705 10.4341 9.8985 10.9524C7.80682 11.5538 6.02176 12.4809 4.94502 14.4469C4.6863 14.9735 4.46702 15.5186 4.28898 16.0777C3.76369 17.5254 4.53143 18.5785 3.60681 20.0001Z" fill="#080B35"/>
<path d="M19.5544 34.3288H28.3334C29.7105 34.3288 30.5343 33.9108 30.8048 33.0747C30.9278 32.632 30.9892 32.0664 30.9892 31.3779C30.9892 30.6893 30.9155 30.136 30.7679 29.718C30.6204 29.2999 30.3868 29.0049 30.0671 28.8327C29.6244 28.6114 29.0343 28.5007 28.2965 28.5007H19.5175C18.1404 28.5007 17.3289 28.9065 17.083 29.718C16.9354 30.1606 16.8617 30.7262 16.8617 31.4148C16.8617 32.1033 16.9354 32.6689 17.083 33.1116C17.206 33.5296 17.415 33.8247 17.7101 33.9968C18.1527 34.2182 18.7675 34.3288 19.5544 34.3288Z" fill="white"/>
</svg>
