<svg width="24" height="20" viewBox="0 0 24 20" fill="none" xmlns="http://www.w3.org/2000/svg">
<g clip-path="url(#clip0_0_7131)">
<path d="M11.5832 0H11.9362C12.0612 0.0296882 12.1897 0.0513716 12.3101 0.0907335C12.6129 0.189472 12.846 0.374272 13.0709 0.564243C14.0734 1.41252 15.075 2.26153 16.0757 3.11126C16.1018 3.13344 16.1288 3.15462 16.1696 3.18764C16.1696 2.9428 16.1681 2.7183 16.1696 2.49364C16.1718 2.16492 16.3262 1.85016 16.5994 1.61757C16.8726 1.38498 17.2426 1.25331 17.6292 1.25107C18.1289 1.24807 18.6295 1.24941 19.1283 1.25107C19.2197 1.25121 19.3109 1.25926 19.4004 1.27509C20.1031 1.40352 20.5782 1.90455 20.5786 2.51799C20.5796 3.96237 20.5793 5.4067 20.5774 6.85096C20.5762 6.87936 20.5822 6.90764 20.5953 6.93381C20.6083 6.95999 20.6279 6.9834 20.6527 7.00241C21.322 7.56832 21.9918 8.13389 22.6548 8.70531C22.8608 8.88277 23.0667 9.06507 23.237 9.26655C23.5888 9.68168 23.6202 10.1365 23.3482 10.5878C23.0779 11.0362 22.6173 11.2443 22.0297 11.2488C21.5823 11.2522 21.1349 11.2488 20.6873 11.2488H20.579V11.3681C20.579 13.8177 20.579 16.2675 20.579 18.7172C20.579 19.4484 19.9317 19.9985 19.0746 19.9987C17.6538 19.9987 16.2331 19.9987 14.8123 19.9987H14.6995V19.8831C14.6995 17.8499 14.6995 15.8168 14.6995 13.7837C14.6995 13.0498 14.0609 12.5011 13.2 12.4994C12.2397 12.4974 11.2794 12.4974 10.3192 12.4994C10.2115 12.4983 10.104 12.5066 9.99832 12.5244C9.29534 12.652 8.82145 13.1535 8.82027 13.767C8.81949 15.8085 8.81949 17.8499 8.82027 19.8914V19.9983H8.74633C7.29616 19.9983 5.84599 19.9979 4.39582 19.9972C4.3012 19.9968 4.20687 19.9882 4.11435 19.9713C3.41803 19.8454 2.94081 19.3385 2.94081 18.7251C2.94081 16.2696 2.94081 13.8143 2.94081 11.3591V11.2483H2.82312C2.35943 11.2483 1.89555 11.2515 1.43186 11.2471C1.12574 11.2451 0.828384 11.16 0.583162 11.0041C0.33794 10.8483 0.157676 10.6299 0.0686539 10.3809C0.0411935 10.3048 0.0237383 10.2259 0.00177002 10.1484V9.84814C0.00830284 9.83888 0.013256 9.82889 0.0164809 9.81845C0.0465227 9.59904 0.150997 9.3918 0.317169 9.22202C0.495661 9.03855 0.682592 8.85909 0.880502 8.69063C2.93833 6.93814 4.99786 5.1872 7.05908 3.43782C8.10742 2.54685 9.15581 1.65575 10.2043 0.764553C10.2712 0.707679 10.3404 0.652641 10.4071 0.5956C10.7378 0.312895 11.0928 0.0602103 11.5832 0Z" fill="#46248A"/>
</g>
<defs>
<clipPath id="clip0_0_7131">
<rect width="23.5294" height="20" fill="white"/>
</clipPath>
</defs>
</svg>
