<svg width="383" height="296" viewBox="0 0 383 296" fill="none" xmlns="http://www.w3.org/2000/svg">
<path d="M348.473 7.3717V131.002C348.473 139.218 353.875 139.281 353.875 131.066V7.44604C353.875 -0.780394 348.473 -0.844108 348.473 7.3717Z" fill="white"/>
<path d="M31.0886 6.84732C30.2537 47.4949 29.6825 88.1652 28.8525 128.813C28.6718 137.567 34.5307 137.589 34.7113 128.881C35.5462 88.2443 36.1125 47.5741 36.9474 6.92643C37.1281 -1.8274 31.2643 -1.84996 31.0886 6.84732Z" fill="white"/>
<path d="M14.5945 165.653L368.705 152.81C373.26 152.692 374.968 203.744 377.886 208.615C379.416 211.166 379.926 215.185 379.809 220.184L379.401 268.42C379.401 268.42 378.381 275.53 376.243 277.377C373.402 279.871 369.505 284.441 361.962 284.635L22.9187 292.362C6.08664 292.796 6.23455 274.658 5.91831 253.807L5.48477 225.626C5.42356 221.545 5.36745 216.843 5.95402 214.405C7.24958 209.054 9.18781 165.765 14.5945 165.653Z" fill="#E9BF98"/>
<path d="M14.5741 168.713L29.9321 168.152L70.385 166.688L127.277 164.648L192.397 162.287L257.685 159.92L314.434 157.88L354.132 156.441L365.109 156.043C366.042 156.008 366.981 156.008 367.909 155.941C369.403 155.829 368.128 155.824 367.154 155.294C367.664 155.569 366.603 154.942 367.032 155.13C367.159 155.186 367.312 155.64 367.358 155.763C367.047 154.962 367.705 156.916 367.817 157.329C368.327 159.155 368.628 161.027 368.929 162.893C369.776 168.101 370.311 173.355 370.847 178.598C371.413 184.153 371.923 189.712 372.53 195.257C372.969 199.307 373.305 203.469 374.264 207.442C374.647 209.029 375.509 210.375 375.978 211.915C376.825 214.675 376.784 217.608 376.753 220.459C376.723 223.31 376.708 226.105 376.682 228.926L376.391 259.861C376.391 262.565 376.034 265.472 376.32 268.165C376.396 268.869 376.595 266.966 376.345 268.099C376.06 269.384 375.835 270.649 375.488 271.94C374.683 274.781 373.086 276.255 370.827 278.091C367.368 280.896 363.599 281.508 359.416 281.605L332.419 282.222L283.29 283.344L220.874 284.773L154.525 286.303L93.6541 287.695L46.9732 288.761L23.9542 289.271C23.4033 289.271 22.8524 289.307 22.3015 289.302C16.6246 289.271 13.044 286.119 11.3556 280.82C9.15728 273.944 9.19809 266.431 9.06548 259.285C8.98897 255.276 8.93793 251.267 8.87673 247.258C8.72881 237.612 8.11166 227.814 8.58602 218.184C8.76964 214.41 9.57552 210.6 9.93766 206.83C10.4477 201.383 10.9578 195.935 11.5189 190.508C12.0697 185.408 12.6767 180.307 13.6815 175.288C14.0349 173.351 14.531 171.444 15.1658 169.58C15.3341 169.116 15.0536 169.713 15.3902 169.045C15.5126 168.805 15.6351 168.57 15.7728 168.341C16.0176 167.912 15.4973 168.341 15.8595 168.239C15.4649 168.479 15.026 168.637 14.569 168.703C18.471 168.356 18.5271 162.235 14.6047 162.582C10.6824 162.929 9.38682 167.137 8.52482 170.391C7.16295 175.548 6.52535 180.914 5.88777 186.203C5.19919 191.89 4.67384 197.598 4.14337 203.306C3.93425 205.54 3.73531 207.779 3.49559 210.013C3.41398 210.809 3.32728 211.609 3.22016 212.4C3.22016 212.4 3.27628 212.145 3.16406 212.757L3.02634 213.517C2.11333 218.577 2.39895 223.744 2.47546 228.87L2.71521 244.478C2.88353 255.745 2.27146 267.369 4.43922 278.453C5.57665 284.268 8.07593 290.399 13.5336 293.393C16.4868 295.015 19.8277 295.494 23.1584 295.433C25.2599 295.397 27.3665 295.336 29.4679 295.285L63.4992 294.51L118.3 293.24L183.777 291.745L250.483 290.215L308.793 288.879L349.088 287.961C357.004 287.777 366.43 288.761 373.163 283.967C375.437 282.35 378.263 280.274 379.712 277.846C381.16 275.418 381.818 272.424 382.262 269.685C382.619 267.553 382.471 265.35 382.492 263.197L382.752 232.308C382.823 224.019 384.027 214.456 380.406 206.84C380.916 207.917 380.314 206.427 380.217 206.055C380.013 205.274 379.87 204.474 379.732 203.678C379.401 201.77 379.156 199.847 378.931 197.925C378.289 192.457 377.784 186.968 377.238 181.49C376.667 175.747 376.08 170.004 375.279 164.286C374.769 160.491 374.331 156.344 372.729 152.825C371.403 149.938 369.317 149.703 366.644 149.8L340.738 150.739L292.206 152.498L229.861 154.758L162.533 157.201L98.7751 159.512L47.922 161.358L18.5373 162.424L14.6404 162.562C10.6773 162.705 10.6365 168.831 14.5741 168.713Z" fill="#46248A"/>
<path d="M43.1733 214.246L16.237 214.007C-0.59506 213.772 3.91388 196.664 4.0873 175.793L4.36783 154.788C4.40353 150.708 3.85777 140.92 6.76002 137.064C12.1106 129.969 15.6657 132.147 21.0723 132.223L365.563 135.937C370.118 136.003 373.78 137.003 375.983 141.134C377.92 144.959 378.827 149.221 378.615 153.503L377.315 196.221C377.034 204.3 371.949 210.681 365.736 210.757L344.655 211.558" fill="#E9BF98"/>
<path d="M43.1937 211.186C34.3339 211.11 25.4742 211.104 16.6195 210.946C11.0904 210.849 7.99945 208.62 6.95892 203.142C5.47464 195.323 6.88239 186.82 7.09151 178.945C7.34144 169.54 7.40268 160.119 7.40778 150.708C7.40778 147.138 7.15274 142.639 8.89715 139.395C10.7844 135.886 13.707 134.707 17.4254 135.024C18.9555 135.151 20.4501 135.274 21.9751 135.294C31.1562 135.411 40.3067 135.493 49.4725 135.59L105.875 136.197L177.794 136.972L252.365 137.778L316.801 138.472L357.652 138.915C360.202 138.941 362.752 138.951 365.303 138.997C365.751 138.997 366.2 138.997 366.649 139.033C371.122 139.273 373.367 141.583 374.637 145.781C375.932 150.071 375.565 154.452 375.432 158.879L374.412 192.298C374.27 196.93 374.219 201.76 370.735 205.331C367.465 208.682 361.783 207.85 357.473 208.013L344.691 208.493C340.753 208.641 340.713 214.762 344.655 214.614L358.651 214.104C364.145 213.895 369.643 214.318 374.132 210.533C378.906 206.494 380.253 200.332 380.451 194.369L380.911 179.2L381.472 160.802C381.589 156.926 381.951 152.912 381.472 149.071C380.936 144.547 379.431 139.242 375.861 136.151C372.979 133.672 369.271 133.009 365.573 132.922H363.936L332.577 132.581L271.706 131.928L196.391 131.117L120.524 130.295L57.9651 129.622L23.791 129.255C18.2925 129.194 12.5696 127.796 7.89742 131.494C0.838168 137.074 1.26662 145.776 1.26662 153.978C1.26662 158.599 1.15442 163.23 1.09322 167.851C1.01161 173.829 0.940184 179.797 0.66475 185.77C0.323009 193.079 -0.727727 201.418 2.05721 208.401C4.5004 214.522 10.055 217.001 16.3746 217.128C21.3018 217.23 26.2341 217.22 31.1664 217.261L43.1223 217.373C47.0701 217.404 47.0956 211.283 43.158 211.252L43.1937 211.186Z" fill="#46248A"/>
<path opacity="0.43" d="M28.0194 206.075C27.9327 205.917 27.8562 205.754 27.7746 205.565C26.6359 204.246 25.6975 202.766 24.9896 201.174C24.6071 200.485 24.2348 199.791 23.8879 199.087L23.7757 198.715C23.7757 198.205 23.7757 197.751 23.7757 197.266C23.5466 196.03 23.4406 194.775 23.4595 193.518C23.5438 191.269 23.8583 189.035 24.398 186.851C24.653 184.102 24.908 181.353 25.1376 178.603C25.7955 169.994 25.969 161.358 26.3413 152.738C26.5096 150.142 26.4943 147.536 26.7646 144.944C26.8718 144.22 26.984 143.496 27.1013 142.766C27.45 141.475 27.5393 140.127 27.3642 138.801C27.1892 137.474 26.7531 136.196 26.0812 135.039C24.7483 132.793 22.5993 131.148 20.0829 130.448L17.4152 130.091C15.2206 130.106 13.0897 130.831 11.3423 132.159C9.59497 133.487 8.3254 135.346 7.72408 137.457C5.77054 148.239 6.28568 159.226 5.53079 170.101C5.32166 180.006 3.49055 189.835 3.68947 199.745C3.9088 203.316 5.07684 206.478 6.71924 209.62C7.65635 211.548 8.81339 213.36 10.1673 215.022C9.7014 215.743 9.25936 216.469 8.84111 217.2C8.11364 218.727 7.47663 220.295 6.93346 221.897C6.32138 224.448 6.12246 227.08 5.76032 229.676C4.40866 238.474 4.33725 247.37 4.35765 256.245C4.43416 264.008 4.05674 271.894 4.95445 279.621C5.2078 279.839 5.44794 280.073 5.67362 280.32C9.75411 284.956 13.6459 289.771 17.354 294.719C17.8393 294.655 18.3286 294.628 18.8179 294.637C21.2807 294.692 23.7286 295.034 26.1118 295.657C26.9017 294.731 27.5045 293.661 27.8868 292.505C24.2705 287.527 22.7862 281.075 24.6479 274.979C24.3419 270.022 24.4133 265.038 24.4133 260.065C24.4133 251.904 24.3164 243.743 25.0917 235.582C24.947 232.863 25.1027 230.137 25.5558 227.452C26.1264 224.417 27.4311 221.568 29.3559 219.153C31.2808 216.738 33.7674 214.831 36.5986 213.599C32.9062 212.239 29.8493 209.559 28.0194 206.075Z" fill="#46248A"/>
<path d="M333.48 168.805C336.091 168.805 338.667 168.989 341.269 169.131C342.681 169.208 338.361 168.621 340.468 169.009C340.82 169.075 341.177 169.131 341.534 169.203C342.284 169.351 343.008 169.56 343.747 169.754C345.956 170.325 341.513 168.453 342.778 169.32C343.288 169.677 344.885 170.733 342.778 169.147C340.86 167.693 341.85 168.448 342.304 168.897C343.14 169.728 340.325 165.546 340.906 167.152C341.1 167.663 341.416 168.213 341.646 168.713C341.733 168.907 342.845 171.442 341.998 169.438C341.233 167.632 341.998 169.438 342.115 169.876C342.37 170.652 342.477 171.483 342.738 172.248C343.161 173.503 342.569 169.188 342.579 170.927C342.579 171.32 342.615 171.712 342.62 172.105C342.62 172.865 342.584 173.635 342.544 174.385C342.406 176.757 342.253 179.124 342.217 181.526C342.131 187.586 347.563 193.436 353.796 193.196C360.151 192.956 365.394 188.096 365.496 181.623C365.573 176.385 366.307 171.335 365.221 166.137C364.37 162.316 362.921 158.652 360.926 155.283C355.535 146.133 342.982 145.516 333.602 145.526C327.517 145.526 321.667 150.795 321.907 157.099C322.146 163.404 326.977 168.831 333.48 168.8V168.805Z" fill="white"/>
<path d="M26.2735 8.56497C25.5584 48.6681 25.0645 88.7936 24.3494 128.897C24.1951 137.533 30.3737 137.567 30.5229 128.964C31.2431 88.8605 31.7318 48.7463 32.4469 8.64315C32.6012 0.00659251 26.4278 -0.0269589 26.2735 8.56497Z" fill="#46248A"/>
<path d="M35.8392 18.8451C34.9116 55.6989 34.2769 92.5732 33.3546 129.427C33.1539 137.364 39.6638 137.384 39.8645 129.489C40.7921 92.645 41.4214 55.7706 42.3491 18.9168C42.5498 10.98 36.0345 10.9595 35.8392 18.8451Z" fill="#46248A"/>
<path d="M352.974 10.8108V131.166C352.974 139.164 358.376 139.226 358.376 131.228V10.8832C358.376 2.87464 352.974 2.81262 352.974 10.8108Z" fill="#46248A"/>
<path d="M342.17 12.6837V130.193C342.17 138.288 348.473 138.351 348.473 130.255V12.757C348.473 4.65145 342.17 4.58867 342.17 12.6837Z" fill="#46248A"/>
<g clip-path="url(#clip0_0_2284)">
<path d="M114.998 198.745C116.749 197.905 118.632 197.373 120.564 197.173C123.62 196.959 127.62 197.999 132.562 200.292L140.535 203.909L141.536 218.295C142.015 225.116 142.454 229.313 142.853 230.884C143.041 231.658 143.394 232.382 143.889 233.006C144.383 233.63 145.008 234.14 145.718 234.5C147.741 235.861 148.861 238.068 149.077 241.122C149.244 243.057 148.901 245.001 148.08 246.761C147.199 248.47 145.266 249.427 142.282 249.633C139.801 249.779 137.315 249.426 134.973 248.595C132.447 247.741 130.415 246.545 128.877 245.006C128.622 244.665 128.286 244.392 127.899 244.214C127.512 244.035 127.086 243.956 126.66 243.983C125.942 244.034 124.334 244.542 121.838 245.507C120.108 246.292 118.259 246.784 116.367 246.963C114.347 247.121 112.33 246.604 110.635 245.493C108.876 244.366 107.008 242.445 105.031 239.728C102.032 235.724 100.345 231.059 99.9689 225.731C99.6585 221.739 100.294 217.73 101.824 214.03C103.122 211.083 105.108 208.07 107.782 204.991C110.457 201.911 112.862 199.83 114.998 198.745ZM124.055 216.316C123.985 215.322 123.627 214.862 122.988 214.891C122.064 214.955 120.79 216.151 119.169 218.48C117.556 220.95 116.818 223.143 116.954 225.061C117.038 226.27 117.471 226.845 118.255 226.791C119.038 226.738 120.22 225.279 121.806 222.416C123.391 219.552 124.147 217.523 124.062 216.316L124.055 216.316Z" fill="#6C58A8"/>
<path d="M142.482 252.58C139.608 252.755 136.729 252.353 134.013 251.4C131.3 250.541 128.822 249.068 126.772 247.094L126.654 246.973C125.39 247.321 124.147 247.744 122.933 248.239C120.915 249.139 118.762 249.701 116.56 249.902C113.904 250.106 111.255 249.426 109.025 247.969C106.932 246.634 104.837 244.502 102.624 241.455C99.3157 237.046 97.4268 231.811 97.0052 225.926C96.6655 221.478 97.3752 217.013 99.0772 212.889C100.509 209.627 102.658 206.333 105.531 203.043C108.492 199.629 111.15 197.368 113.657 196.104L113.782 196.046C116.204 194.959 118.352 194.366 120.353 194.225C123.946 193.972 128.353 195.079 133.815 197.61L143.374 201.944L144.51 218.1C145.107 226.777 145.547 229.398 145.747 230.185C145.835 230.559 146.005 230.91 146.244 231.211C146.484 231.511 146.788 231.755 147.134 231.924L147.352 232.054C150.166 233.94 151.738 236.923 152.016 240.922C152.218 243.364 151.779 245.817 150.741 248.037L150.697 248.128C149.32 250.792 146.556 252.292 142.482 252.58ZM131.036 242.982C132.433 244.27 134.101 245.229 135.918 245.79C137.888 246.493 139.979 246.796 142.068 246.681C143.107 246.606 144.918 246.348 145.426 245.435C146.01 244.15 146.248 242.734 146.116 241.328C145.908 238.609 144.924 237.557 144.145 237.014C143.121 236.447 142.225 235.675 141.514 234.746C140.803 233.817 140.292 232.751 140.013 231.616C139.717 230.494 139.279 227.913 138.614 218.506L137.725 205.879L131.341 202.986C126.852 200.905 123.3 199.945 120.76 200.124C119.197 200.295 117.674 200.732 116.258 201.414C114.483 202.322 112.376 204.177 109.992 206.922C107.524 209.758 105.678 212.547 104.527 215.205C103.195 218.46 102.643 221.982 102.914 225.488C103.252 230.285 104.718 234.349 107.389 237.919C109.164 240.36 110.774 242.042 112.22 242.966C113.379 243.732 114.762 244.089 116.148 243.979C117.712 243.816 119.238 243.401 120.668 242.75L120.767 242.712C124.424 241.303 125.665 241.06 126.444 241.003C127.312 240.947 128.18 241.098 128.978 241.442C129.776 241.786 130.481 242.314 131.036 242.982ZM118.469 229.739C116.417 229.884 114.238 228.56 114.007 225.267C113.826 222.7 114.733 219.871 116.698 216.864L116.749 216.788C119.018 213.529 120.827 212.08 122.789 211.941C124.671 211.808 126.801 213.055 127.013 216.106C127.143 217.963 126.339 220.361 124.402 223.831C122.093 228 120.491 229.611 118.469 229.739Z" fill="#6C58A8"/>
<path d="M156.308 200.873C159.101 198.894 163.021 197.727 168.068 197.369C171.649 197.079 175.253 197.368 178.741 198.227C182.014 199.069 184.069 200.353 184.905 202.077C185.506 203.369 185.859 204.761 185.947 206.183C186.124 208.739 185.449 210.821 183.922 212.427C182.726 213.728 181.062 214.452 178.927 214.599C177.606 214.674 176.28 214.66 174.96 214.557C173.675 214.458 172.385 214.442 171.097 214.509C169.463 214.625 168.666 214.966 168.704 215.533C168.764 216.385 170.464 217.694 173.804 219.458C177.51 221.485 180.455 223.707 182.637 226.122C185.026 228.595 186.315 231.181 186.506 233.881C186.792 237.931 184.813 241.551 180.57 244.742C176.326 247.933 170.864 249.769 164.182 250.248C163.188 250.318 161.69 250.355 159.688 250.359C150.014 249.969 144.986 247.071 144.605 241.664C144.4 238.753 144.966 236.638 146.303 235.319C147.64 234 150.015 233.227 153.428 232.999L154.506 232.922L161.134 232.671L156.999 228.785C154.252 226.267 152.308 224.03 151.168 222.074C150.017 220.073 149.345 217.833 149.204 215.529C149.017 212.721 149.577 209.914 150.828 207.392C152.051 204.777 153.941 202.528 156.308 200.873Z" fill="#6C58A8"/>
<path d="M164.379 253.181C163.301 253.258 161.717 253.293 159.674 253.281L159.56 253.274C151.731 252.959 142.269 250.716 141.643 241.841C141.376 238.035 142.24 235.125 144.222 233.188C146.112 231.357 149.033 230.322 153.212 230.03L153.93 229.976C151.489 227.632 149.723 225.511 148.575 223.538C147.196 221.143 146.389 218.462 146.216 215.705C146.007 212.387 146.674 209.073 148.15 206.094C149.599 203.032 151.824 200.403 154.604 198.465C157.829 196.178 162.288 194.821 167.858 194.429C171.755 194.116 175.678 194.434 179.474 195.37C183.675 196.448 186.323 198.221 187.57 200.797C188.333 202.427 188.784 204.185 188.9 205.98C189.139 209.391 188.198 212.247 186.064 214.473C184.382 216.304 182.041 217.352 179.137 217.558C178.368 217.612 177.491 217.625 176.511 217.6C179.591 219.335 182.387 221.532 184.802 224.113C187.652 227.081 189.219 230.3 189.456 233.667C189.818 238.762 187.426 243.28 182.352 247.097C177.666 250.631 171.623 252.674 164.379 253.181ZM159.74 247.376C161.616 247.379 163.035 247.346 163.965 247.282C170.038 246.854 175.022 245.203 178.781 242.373C182.197 239.803 183.753 237.092 183.531 234.083C183.391 232.079 182.395 230.143 180.484 228.168L180.41 228.089C178.477 225.933 175.772 223.9 172.366 222.047C167.628 219.544 165.883 217.889 165.733 215.731C165.652 214.59 165.99 211.894 170.869 211.55C172.29 211.472 173.715 211.488 175.133 211.598C176.323 211.691 177.518 211.707 178.71 211.644C180.076 211.547 181.064 211.147 181.73 210.419C182.718 209.382 183.106 208.112 182.983 206.382C182.921 205.326 182.662 204.292 182.22 203.332C182.036 202.964 181.223 201.915 177.994 201.083C174.813 200.307 171.528 200.047 168.265 200.313C163.791 200.629 160.343 201.624 158.012 203.277C156.059 204.628 154.5 206.473 153.492 208.622C152.451 210.688 151.984 212.996 152.141 215.304C152.243 217.161 152.78 218.968 153.709 220.579C154.69 222.268 156.464 224.307 158.984 226.591L168.294 235.328L153.629 235.918C149.989 236.176 148.735 237.044 148.368 237.417C147.517 238.25 147.453 240.057 147.55 241.428C147.812 245.058 151.916 247.05 159.751 247.377L159.74 247.376Z" fill="#6C58A8"/>
<path d="M199.112 180.086C200.831 178.111 202.722 177.05 204.784 176.903C206.492 176.782 208.315 177.297 210.251 178.447C212.045 179.535 213.029 181.323 213.203 183.81C213.288 185.006 213.325 186.039 213.316 186.906L213.339 193.345L220.606 193.05C229.073 192.527 233.501 195.035 233.892 200.574C234.094 203.415 233.139 205.589 231.028 207.094C228.917 208.6 225.245 209.709 220.011 210.424L210.782 211.823L211.448 218.201C212.237 226.351 213.556 230.364 215.405 230.242C216.33 230.173 217.833 229.21 219.916 227.353C221.871 225.646 223.629 224.737 225.191 224.627C226.827 224.514 228.518 225.181 230.264 226.626C231.208 227.35 231.984 228.269 232.539 229.32C233.094 230.372 233.416 231.531 233.48 232.718C233.662 235.279 232.775 237.913 230.821 240.619C227.892 244.678 223.903 246.887 218.853 247.244C216.462 247.406 214.06 247.213 211.726 246.67C206.494 245.468 202.612 243.117 200.079 239.619C197.546 236.12 195.684 230.485 194.492 222.714L193.017 212.426L188.964 212.711C186.261 212.904 184.355 212.466 183.244 211.399C182.134 210.332 181.476 208.343 181.27 205.433C181.071 202.592 181.77 200.347 183.369 198.699C184.967 197.051 187.335 196.118 190.473 195.899C192.325 195.762 193.53 195.351 194.088 194.667C194.646 193.982 195.181 192.194 195.692 189.304C196.284 185.565 197.424 182.492 199.112 180.086Z" fill="#6C58A8"/>
<path d="M219.063 250.195C216.385 250.376 213.696 250.161 211.08 249.557C205.149 248.205 200.646 245.454 197.696 241.358C194.858 237.44 192.869 231.491 191.582 223.169L190.493 215.57L189.188 215.663C185.595 215.917 182.967 215.222 181.209 213.534C179.536 211.933 178.593 209.352 178.331 205.643C178.069 201.935 179.058 198.913 181.255 196.641C183.372 194.461 186.404 193.218 190.267 192.948C190.796 192.924 191.321 192.832 191.828 192.676C191.996 192.281 192.347 191.234 192.778 188.794C193.431 184.659 194.752 181.138 196.693 178.372L196.878 178.132C199.124 175.551 201.714 174.141 204.578 173.937C206.889 173.778 209.305 174.433 211.762 175.887C213.616 177.012 215.852 179.245 216.158 183.586C216.246 184.853 216.288 185.978 216.275 186.925L216.287 190.238L220.487 190.068C226.263 189.709 236.159 190.57 236.847 200.339C237.121 204.21 235.702 207.368 232.748 209.477C230.222 211.281 226.187 212.544 220.416 213.343L214.021 214.311L214.393 217.887C214.895 223.093 215.531 225.589 215.958 226.749C216.651 226.25 217.315 225.712 217.947 225.138C220.444 222.954 222.739 221.825 224.985 221.665C227.396 221.497 229.806 222.395 232.154 224.341C233.411 225.315 234.443 226.548 235.182 227.956C235.92 229.364 236.347 230.914 236.435 232.501C236.664 235.754 235.584 239.064 233.225 242.339C229.768 247.138 225.006 249.777 219.063 250.195ZM201.449 181.913C200.076 183.915 199.125 186.563 198.615 189.786C197.815 194.317 197.066 195.713 196.375 196.559C194.898 198.359 192.419 198.731 190.683 198.854C188.319 199.017 186.577 199.662 185.507 200.762C184.513 201.78 184.096 203.249 184.238 205.231C184.452 208.308 185.165 209.134 185.305 209.266C185.444 209.399 186.159 209.95 188.771 209.764L195.573 209.29L197.436 222.296C198.545 229.538 200.247 234.792 202.49 237.888C204.613 240.815 207.853 242.749 212.402 243.796C214.447 244.27 216.551 244.44 218.646 244.3C222.81 244.006 226.007 242.24 228.42 238.896C229.947 236.776 230.658 234.77 230.537 232.932C230.502 232.152 230.294 231.389 229.929 230.698C229.563 230.008 229.049 229.407 228.423 228.939C227.252 227.966 226.253 227.522 225.412 227.579C224.905 227.616 223.775 227.922 221.877 229.581C219.178 231.99 217.3 233.078 215.622 233.194C210.408 233.562 209.227 225.797 208.511 218.498L207.557 209.332L219.577 207.51C225.51 206.691 228.147 205.52 229.321 204.683C230.166 204.082 231.115 203.093 230.967 200.778C230.851 199.166 230.586 195.393 220.814 195.994L210.41 196.421L210.376 186.927C210.386 186.094 210.349 185.137 210.271 184.024C210.135 182.071 209.378 181.372 208.737 180.982C207.351 180.166 206.101 179.786 205.012 179.862C203.769 179.941 202.608 180.614 201.449 181.913Z" fill="#6C58A8"/>
<path d="M233.694 199.29C235.001 197.554 237.082 196.589 239.937 196.392C242.635 196.199 244.787 196.833 246.394 198.292C247.618 199.42 248.33 201.406 248.53 204.249C248.667 206.1 248.679 210.347 248.568 216.991C248.556 228.99 248.569 235.272 248.607 235.837C248.725 237.474 247.95 239.206 246.296 241.036C244.642 242.865 242.921 243.844 241.124 243.971C239.49 244.086 237.507 243.262 235.175 241.498C233.928 240.542 232.982 239.249 232.448 237.772C231.998 236.412 231.634 233.778 231.357 229.869C230.906 223.272 230.91 216.652 231.37 210.056C231.805 204.315 232.579 200.726 233.694 199.29ZM236.384 175.118C237.264 174.546 238.263 174.183 239.306 174.055C240.369 173.98 241.895 174.337 243.882 175.125C245.718 175.853 246.905 176.465 247.443 176.962C247.974 177.46 248.293 178.422 248.394 179.843C248.425 180.267 248.434 181.412 248.421 183.267C248.407 186.128 248.207 188.087 247.819 189.146C247.432 190.205 246.545 191.141 245.16 191.954C243.73 192.913 242.623 193.42 241.837 193.475C241.054 193.532 239.524 193.101 237.254 192.193C234.097 191.066 232.157 189.452 231.435 187.349C231.276 186.757 231.162 186.153 231.094 185.543C230.99 183.47 231.435 181.407 232.385 179.562C233.4 177.498 234.733 176.014 236.384 175.111L236.384 175.118Z" fill="#6C58A8"/>
<path d="M241.338 246.915C238.945 247.084 236.341 246.083 233.385 243.853L233.292 243.78C231.613 242.473 230.343 240.713 229.633 238.708C229.089 237.083 228.695 234.34 228.396 230.082C227.931 223.339 227.93 216.572 228.394 209.829C229.055 201.446 230.315 198.829 231.344 197.498C232.326 196.198 233.626 195.172 235.119 194.519C231.751 193.071 229.585 190.996 228.659 188.306L228.584 188.041C227.672 184.762 228.09 181.257 229.746 178.283C231.002 175.674 232.744 173.745 234.922 172.541C236.183 171.74 237.615 171.245 239.103 171.097C240.651 170.989 242.519 171.392 244.982 172.371C247.245 173.268 248.626 174.001 249.463 174.791C250.58 175.832 251.198 177.411 251.345 179.626C251.368 179.985 251.393 180.702 251.377 183.279C251.362 186.551 251.113 188.737 250.595 190.157C249.969 191.854 248.676 193.299 246.752 194.452C246.625 194.538 246.499 194.617 246.38 194.697C247.096 195.083 247.763 195.556 248.365 196.104C250.197 197.796 251.204 200.387 251.462 204.038C251.595 205.977 251.613 210.23 251.508 217.034C251.494 232.29 251.524 235.25 251.561 235.634C251.731 238.072 250.7 240.558 248.49 243.001C246.28 245.444 243.896 246.755 241.338 246.915ZM236.999 239.166C239.337 240.918 240.522 241.041 240.925 241.013C241.906 240.945 242.969 240.281 244.09 239.04C245.145 237.875 245.701 236.808 245.647 236.039C245.625 235.727 245.578 235.081 245.598 216.978C245.698 210.392 245.685 206.192 245.569 204.459C245.364 201.669 244.67 200.74 244.378 200.459C243.406 199.576 242.013 199.206 240.145 199.336C238.179 199.475 236.845 200.042 236.073 201.066L236.046 201.104C235.934 201.251 234.902 202.772 234.31 210.289C233.87 216.749 233.873 223.232 234.319 229.692C234.656 234.446 235.057 236.209 235.266 236.836C235.615 237.76 236.216 238.568 236.999 239.17L236.999 239.166ZM234.299 186.502C234.751 187.646 236.086 188.624 238.27 189.409L238.364 189.446C240.592 190.338 241.446 190.492 241.674 190.519C242.332 190.262 242.952 189.918 243.519 189.497L243.66 189.412C244.4 188.973 244.887 188.517 245.03 188.128C245.123 187.868 245.435 186.748 245.451 183.255C245.466 180.831 245.443 180.207 245.431 180.035C245.414 179.691 245.362 179.351 245.276 179.018C244.478 178.562 243.643 178.174 242.78 177.858C240.598 176.991 239.718 176.975 239.502 176.991C238.917 177.087 238.361 177.312 237.874 177.649L237.789 177.695C236.682 178.303 235.791 179.331 235.06 180.843C234.339 182.226 233.991 183.774 234.051 185.333C234.113 185.727 234.195 186.117 234.299 186.502Z" fill="#6C58A8"/>
<path d="M261.96 189.701C263.671 188.652 266.198 188.01 269.542 187.774C274.341 187.485 279.155 187.905 283.831 189.02C288.879 190.167 292.477 191.771 294.623 193.832C296.389 195.565 297.382 197.994 297.602 201.12C297.943 205.145 296.86 209.162 294.542 212.472C290.626 218.606 285.003 222.47 277.673 224.063C274.223 224.806 272.522 225.533 272.571 226.244C272.62 226.955 274.842 227.471 279.237 227.794C283.613 228.06 286.737 228.787 288.609 229.975C290.482 231.162 291.508 233.071 291.688 235.701C291.899 238.686 291.321 240.869 289.954 242.251C288.588 243.633 286.157 244.446 282.662 244.691C281.943 244.737 280.664 244.76 278.807 244.747C269.857 244.519 262.637 242.205 257.147 237.808C251.656 233.41 248.271 227.186 246.99 219.136C246.626 217.016 246.394 215.251 246.297 213.83C246.083 210.845 246.647 207.699 247.989 204.391C250.122 199.172 254.779 194.275 261.96 189.701ZM277.091 205.13C276.688 204.507 275.205 204.29 272.642 204.478C270.507 204.63 268.924 204.992 267.893 205.562C266.857 206.063 266.358 206.597 266.399 207.165C266.467 208.091 267.46 208.487 269.376 208.351C271.253 208.246 273.105 207.866 274.871 207.222C276.468 206.609 277.247 206.018 277.209 205.451C277.212 205.393 277.202 205.334 277.182 205.279C277.162 205.224 277.131 205.173 277.091 205.13Z" fill="#6C58A8"/>
<path d="M282.872 247.639C282.06 247.698 280.72 247.717 278.788 247.704C269.166 247.459 261.282 244.905 255.299 240.113C249.24 235.264 245.463 228.361 244.069 219.598C243.692 217.399 243.452 215.569 243.343 214.036C243.102 210.611 243.73 206.994 245.243 203.282C247.608 197.5 252.694 192.096 260.368 187.206L260.412 187.177C262.557 185.864 265.476 185.098 269.332 184.826C274.42 184.518 279.527 184.96 284.486 186.137C290.118 187.412 294.106 189.233 296.673 191.699C298.986 193.971 300.284 197.061 300.552 200.91C300.94 205.587 299.686 210.254 297.007 214.109C293.85 219.147 289.183 223.061 283.669 225.294C286.443 225.743 288.598 226.469 290.189 227.479C292.046 228.654 294.322 231.011 294.638 235.495C294.91 239.347 294.042 242.322 292.056 244.33C290.139 246.256 287.137 247.34 282.872 247.639ZM263.525 192.215C256.919 196.427 252.611 200.915 250.73 205.514C249.57 208.373 249.07 211.106 249.247 213.623C249.342 214.941 249.565 216.627 249.909 218.638C251.088 226.041 254.058 231.548 259.006 235.503C263.954 239.458 270.641 241.585 278.887 241.794C281.034 241.808 282.013 241.772 282.469 241.744C286.062 241.494 287.379 240.651 287.853 240.172C288.77 239.246 288.842 237.344 288.741 235.929C288.582 233.728 287.682 232.91 287.018 232.487C286.036 231.861 283.854 231.055 279.059 230.763C273.845 230.366 269.87 229.801 269.632 226.451C269.376 222.828 273.998 221.834 277.059 221.176C283.633 219.748 288.543 216.388 292.061 210.912L292.116 210.826C294.058 208.058 294.956 204.692 294.649 201.326C294.48 198.924 293.803 197.163 292.55 195.939C291.374 194.802 288.764 193.171 283.179 191.902C278.783 190.858 274.259 190.462 269.749 190.725C266.224 190.972 264.425 191.667 263.526 192.211L263.525 192.215ZM269.593 211.303C264.182 211.685 263.525 208.395 263.455 207.389C263.385 206.384 263.685 204.362 266.541 202.949C267.964 202.183 269.894 201.724 272.441 201.542C275.216 201.336 277.967 201.43 279.394 203.282C279.854 203.839 280.125 204.528 280.17 205.249C280.386 208.29 277.033 209.569 275.933 209.991C273.896 210.736 271.76 211.177 269.594 211.299L269.593 211.303Z" fill="#6C58A8"/>
<path d="M324.516 208.866C321.172 207.102 319.472 205.794 319.416 204.942C319.376 204.371 320.182 204.033 321.806 203.914C323.093 203.847 324.384 203.864 325.669 203.966C326.99 204.067 328.316 204.081 329.639 204.008C331.731 203.861 333.372 203.159 334.562 201.904C333.605 201.127 332.885 200.097 332.485 198.932C332.084 197.767 332.019 196.513 332.296 195.313C330.731 195.238 329.242 194.609 328.098 193.539C326.953 192.468 326.227 191.026 326.049 189.47C325.946 189.464 325.843 189.501 325.736 189.506C324.601 189.586 323.465 189.371 322.438 188.883C321.41 188.395 320.526 187.65 319.872 186.72C319.513 186.736 319.154 186.752 318.777 186.778C313.73 187.133 309.811 188.301 307.02 190.281C304.652 191.929 302.758 194.168 301.527 196.775C300.278 199.297 299.718 202.104 299.903 204.912C300.043 207.216 300.715 209.456 301.867 211.457C303.005 213.411 304.95 215.649 307.701 218.172L311.833 222.058L305.205 222.309L304.127 222.382C300.714 222.624 298.338 223.399 297.002 224.706C295.666 226.013 295.1 228.128 295.305 231.05C295.683 236.45 300.711 239.349 310.387 239.746C312.388 239.753 313.886 239.716 314.881 239.635C321.564 239.165 327.034 237.336 331.289 234.148C335.545 230.96 337.522 227.34 337.222 223.286C337.034 220.587 335.744 217.999 333.353 215.524C331.175 213.111 328.23 210.892 324.516 208.866Z" fill="#6C58A8"/>
<path d="M100.478 216.26C102.586 214.756 103.541 212.583 103.341 209.74C102.951 204.196 98.5215 201.688 90.0525 202.215L82.7884 202.507L82.7624 196.068C82.7737 195.21 82.7372 194.178 82.6531 192.972C82.477 190.485 81.4929 188.697 79.7009 187.609C77.7644 186.459 75.9422 185.944 74.2342 186.065C72.1694 186.209 70.2785 187.27 68.5617 189.248C66.874 191.651 65.7338 194.73 65.1412 198.484C64.627 201.376 64.091 203.164 63.5334 203.846C62.9757 204.528 61.772 204.939 59.9222 205.079C56.7939 205.296 54.4304 206.229 52.8318 207.88C51.2331 209.53 50.5337 211.775 50.7334 214.613C50.9379 217.541 51.5947 219.529 52.7039 220.58C53.8131 221.63 55.7196 222.067 58.4233 221.891L62.4764 221.606L63.952 231.894C64.3378 234.505 64.8722 237.092 65.5527 239.643C67.1657 239.655 68.7187 240.256 69.9189 241.333C71.1191 242.41 71.8836 243.889 72.0682 245.49L72.3816 245.454C73.4134 245.38 74.4479 245.55 75.4022 245.949C76.3564 246.347 77.2038 246.964 77.8761 247.75C78.5484 248.535 79.0269 249.467 79.2731 250.471C79.5194 251.475 79.5265 252.522 79.294 253.53C80.3069 253.578 81.2951 253.858 82.1819 254.35C83.0687 254.841 83.8302 255.53 84.4072 256.364C85.7004 256.489 87.0017 256.509 88.2982 256.423C93.3454 256.069 97.3346 253.86 100.266 249.799C102.219 247.09 103.105 244.456 102.926 241.898C102.861 240.711 102.54 239.552 101.985 238.5C101.43 237.449 100.653 236.529 99.7095 235.806C97.9587 234.358 96.2677 233.691 94.6363 233.807C93.0697 233.916 91.3113 234.825 89.3612 236.532C87.2762 238.392 85.7725 239.355 84.8502 239.421C83.0005 239.558 81.6805 235.545 80.8901 227.38L80.2414 221.004L89.4705 219.604C94.6979 218.88 98.367 217.765 100.478 216.26Z" fill="#6C58A8"/>
<path d="M94.4332 230.856C92.1838 231.015 89.8919 232.145 87.3953 234.329C86.7622 234.903 86.0969 235.441 85.4027 235.94C84.9797 234.779 84.3435 232.284 83.8382 227.077L83.4688 223.502L89.8645 222.533C95.6353 221.734 99.6705 220.471 102.196 218.664C105.15 216.559 106.566 213.4 106.277 209.529C105.586 199.752 95.6895 198.898 89.9142 199.257L85.7206 199.427L85.7092 196.115C85.718 195.171 85.6795 194.046 85.5882 192.775C85.2824 188.434 83.0463 186.198 81.1965 185.077C78.7386 183.623 76.3191 182.968 74.0088 183.127C71.1344 183.327 68.5513 184.741 66.3122 187.322L66.1236 187.562C64.1828 190.316 62.8614 193.849 62.2086 197.983C61.7774 200.427 61.4265 201.474 61.2797 201.866C60.7729 202.023 60.2483 202.114 59.7185 202.138C55.8558 202.409 52.8347 203.652 50.7071 205.832C48.5064 208.104 47.5205 211.132 47.7827 214.834C48.0448 218.536 48.9874 221.123 50.6605 222.724C52.4184 224.412 55.0288 225.11 58.6365 224.854L59.9445 224.761L61.0323 232.331C61.4307 235.011 61.9755 237.668 62.6645 240.289C63.65 239.816 64.7378 239.597 65.8296 239.649C66.9215 239.701 67.9832 240.025 68.919 240.589C68.01 237.608 67.3312 234.561 66.8885 231.476L65.0218 218.466L58.2235 218.944C55.6111 219.13 54.8796 218.568 54.7574 218.446C54.6352 218.325 53.9044 217.488 53.6867 214.411C53.5485 212.429 53.9652 210.967 54.9592 209.942C56.029 208.842 57.7681 208.197 60.1323 208.033C61.8678 207.911 64.3502 207.55 65.8278 205.735C66.5183 204.893 67.2643 203.497 68.0641 198.966C68.5739 195.743 69.5281 193.095 70.9015 191.093C72.0466 189.793 73.2218 189.121 74.4435 189.034C75.5215 188.957 76.7927 189.338 78.1654 190.154C78.8096 190.547 79.566 191.243 79.7022 193.196C79.7809 194.305 79.8141 195.266 79.8078 196.099L79.8415 205.592L90.245 205.165C100.017 204.564 100.283 208.338 100.395 209.95C100.557 212.266 99.6084 213.254 98.7486 213.854C97.5752 214.691 94.941 215.863 89.0081 216.682L76.9889 218.504L77.9428 227.669C78.6478 234.975 79.8395 242.741 85.0537 242.365C86.7316 242.25 88.6096 241.162 91.3081 238.753C93.1889 237.093 94.3375 236.773 94.8398 236.751C95.6806 236.693 96.6834 237.138 97.8542 238.111C98.4802 238.579 98.9946 239.179 99.3602 239.87C99.7259 240.56 99.9337 241.323 99.9687 242.104C100.097 243.938 99.4 245.946 97.8518 248.067C95.442 251.411 92.2453 253.178 88.0808 253.472C85.9862 253.612 83.8825 253.442 81.8374 252.968C81.0297 252.781 80.2322 252.552 79.4483 252.283C79.4328 252.702 79.3775 253.12 79.2832 253.529C80.8533 253.604 82.3453 254.235 83.4914 255.31C84.6375 256.385 85.3626 257.833 85.5366 259.394C86.5222 259.442 87.5097 259.434 88.4944 259.37C94.4375 258.953 99.2032 256.314 102.655 251.525C105.015 248.253 106.094 244.947 105.865 241.687C105.78 240.099 105.354 238.549 104.615 237.141C103.876 235.733 102.843 234.5 101.585 233.527C99.2538 231.585 96.8441 230.688 94.4332 230.856Z" fill="#6C58A8"/>
<path d="M327.22 206.998C328.2 207.026 329.081 207.01 329.846 206.956C332.749 206.757 335.094 205.702 336.777 203.874C336.971 203.67 337.14 203.458 337.316 203.246C336.314 203.022 335.378 202.569 334.581 201.922C333.784 201.275 333.149 200.452 332.724 199.517C332.636 199.623 332.548 199.733 332.453 199.835C331.783 200.56 330.795 200.96 329.433 201.057C328.241 201.121 327.046 201.107 325.856 201.015C324.437 200.904 323.013 200.888 321.592 200.966C316.713 201.307 316.375 204.003 316.455 205.148C316.605 207.302 318.351 208.961 323.092 211.463C326.494 213.317 329.2 215.35 331.136 217.502L331.207 217.581C333.117 219.56 334.113 221.496 334.254 223.496C334.468 226.504 332.909 229.216 329.504 231.786C325.748 234.613 320.761 236.263 314.688 236.695C313.761 236.762 312.338 236.795 310.463 236.792C302.628 236.466 298.524 234.467 298.261 230.855C298.164 229.483 298.228 227.674 299.075 226.844C299.453 226.482 300.696 225.613 304.34 225.345L319.001 224.754L309.699 216.007C307.181 213.702 305.405 211.677 304.424 209.995C303.496 208.384 302.959 206.577 302.856 204.72C302.701 202.42 303.163 200.121 304.195 198.059C305.204 195.905 306.767 194.057 308.723 192.703C311.051 191.043 314.499 190.052 318.972 189.739C321.356 189.56 323.752 189.643 326.117 189.988C326.087 189.822 326.064 189.653 326.045 189.48C325.941 189.474 325.839 189.512 325.732 189.517C324.059 189.634 322.405 189.113 321.103 188.057C319.801 187.001 318.949 185.491 318.72 183.832L318.567 183.823C312.996 184.233 308.538 185.572 305.309 187.863C302.532 189.801 300.307 192.429 298.856 195.488C297.381 198.476 296.722 201.801 296.946 205.125C297.119 207.883 297.927 210.564 299.308 212.958C300.456 214.931 302.222 217.053 304.681 219.398L303.962 219.451C299.787 219.744 296.849 220.778 294.973 222.609C292.995 224.543 292.126 227.46 292.394 231.259C293.02 240.138 302.482 242.377 310.311 242.692L310.425 242.699C312.468 242.704 314.053 242.665 315.134 242.599C322.363 242.091 328.406 240.045 333.092 236.522C338.169 232.705 340.557 228.187 340.2 223.092C339.96 219.71 338.393 216.491 335.545 213.538C333.122 210.944 330.314 208.738 327.22 206.998Z" fill="#6C58A8"/>
<path d="M334.88 179.146L333.716 180.795C333.576 180.952 333.496 181.153 333.492 181.363C333.537 181.571 333.653 181.757 333.821 181.888L335.72 183.666C335.855 183.85 336.056 183.973 336.281 184.011C336.505 184.049 336.735 183.997 336.923 183.868L339.276 182.849C339.44 182.798 339.583 182.699 339.689 182.565C339.768 182.406 339.789 182.225 339.75 182.053C339.575 180.99 339.016 180.028 338.18 179.35C337.343 178.671 336.286 178.323 335.209 178.37L334.88 179.146Z" fill="#6C58A8"/>
<path d="M319.912 176.394L321.093 177.649L322.867 176.688L322.557 174.7L319.912 175.22L319.912 176.394Z" fill="#6C58A8"/>
<path d="M61.7052 258.748C60.8772 260.269 60.0509 262.151 60.9393 263.638C61.6407 264.814 63.2292 265.219 64.5705 264.91C65.9118 264.601 67.0527 263.769 68.1166 262.905C68.9587 262.236 69.8559 261.345 69.7757 260.264C69.6923 259.736 69.487 259.235 69.1759 258.8C68.5933 257.85 67.9873 256.913 67.3579 255.99L61.7052 258.748Z" fill="#6C58A8"/>
<path d="M52.2065 248.753L50.9697 248.527L48.9841 250.142L49.681 252.77C49.7378 252.983 49.8742 253.167 50.0622 253.283C50.2502 253.399 50.4755 253.439 50.6919 253.394L51.5718 253.21C51.8138 253.157 52.0423 253.055 52.2427 252.91C52.4431 252.764 52.611 252.579 52.7358 252.365C52.8606 252.151 52.9396 251.914 52.9677 251.668C52.9959 251.422 52.9725 251.173 52.8992 250.936L52.2065 248.753Z" fill="#6C58A8"/>
<path d="M112.294 194.205C114.045 193.361 115.93 192.828 117.864 192.629C120.92 192.413 124.92 193.453 129.862 195.748L137.832 199.362L138.832 213.751C139.312 220.572 139.751 224.769 140.149 226.341C140.335 227.108 140.684 227.827 141.171 228.448C141.659 229.07 142.274 229.58 142.976 229.943C145.001 231.299 146.122 233.507 146.338 236.566C146.506 238.5 146.162 240.445 145.342 242.205C144.461 243.909 142.527 244.866 139.54 245.076C137.059 245.224 134.574 244.869 132.234 244.035C129.709 243.181 127.677 241.985 126.139 240.446C125.883 240.106 125.546 239.834 125.159 239.656C124.772 239.478 124.347 239.399 123.922 239.427C123.203 239.478 121.595 239.986 119.099 240.95C117.367 241.733 115.517 242.224 113.625 242.406C111.605 242.561 109.591 242.043 107.897 240.933C106.138 239.811 104.268 237.891 102.289 235.171C99.2899 231.168 97.6035 226.502 97.2302 221.174C96.9351 217.182 97.5853 213.177 99.1281 209.483C100.421 206.54 102.406 203.527 105.083 200.443C107.76 197.36 110.164 195.28 112.294 194.205ZM121.352 211.776C121.284 210.781 120.927 210.322 120.288 210.351C119.363 210.415 118.09 211.611 116.469 213.94C114.856 216.41 114.118 218.604 114.253 220.524C114.337 221.73 114.771 222.309 115.554 222.251C116.338 222.194 117.517 220.739 119.105 217.879C120.694 215.019 121.443 212.986 121.355 211.776L121.352 211.776Z" fill="#FCDC97"/>
<path d="M139.778 248.04C136.903 248.216 134.023 247.815 131.306 246.86C128.361 245.858 125.928 244.419 124.072 242.561L123.957 242.44C122.693 242.79 121.45 243.214 120.236 243.709C118.217 244.607 116.064 245.169 113.863 245.373C111.206 245.572 108.557 244.893 106.324 243.44C104.25 242.103 102.14 239.97 99.9238 236.923C96.6186 232.514 94.7262 227.278 94.3044 221.396C93.9659 216.947 94.6768 212.481 96.3802 208.356C97.812 205.094 99.9614 201.8 102.834 198.51C105.791 195.096 108.449 192.839 110.96 191.574L111.081 191.513C113.503 190.43 115.655 189.833 117.656 189.692C121.249 189.439 125.656 190.546 131.118 193.078L140.677 197.415L141.813 213.571C142.41 222.248 142.85 224.865 143.047 225.656C143.135 226.03 143.306 226.38 143.546 226.68C143.786 226.98 144.091 227.223 144.437 227.391L144.651 227.525C147.465 229.41 149.037 232.393 149.315 236.393C149.519 238.835 149.08 241.288 148.041 243.508L147.997 243.595C146.616 246.252 143.849 247.756 139.778 248.04ZM128.321 238.442C129.72 239.728 131.387 240.688 133.203 241.252C135.174 241.954 137.265 242.256 139.354 242.141C140.395 242.069 142.203 241.807 142.715 240.895C143.298 239.609 143.536 238.193 143.406 236.787C143.197 234.072 142.209 233.02 141.434 232.477C140.41 231.91 139.514 231.138 138.802 230.209C138.091 229.28 137.579 228.214 137.299 227.078C137.003 225.953 136.564 223.376 135.903 213.966L135.011 201.335L128.644 198.446C124.151 196.368 120.6 195.408 118.063 195.587C116.5 195.758 114.978 196.194 113.561 196.874C111.789 197.786 109.683 199.637 107.296 202.382C104.828 205.222 102.985 208.01 101.83 210.665C100.491 213.932 99.9363 217.467 100.211 220.987C100.549 225.784 102.012 229.852 104.687 233.421C106.461 235.858 108.079 237.542 109.518 238.465C110.677 239.231 112.06 239.588 113.446 239.478C115.005 239.312 116.528 238.893 117.952 238.237L118.051 238.196C121.708 236.791 122.945 236.544 123.728 236.491C124.594 236.431 125.461 236.577 126.259 236.916C127.057 237.255 127.764 237.778 128.321 238.442ZM115.765 225.203C113.709 225.348 111.535 224.019 111.303 220.731C111.122 218.163 112.025 215.334 113.995 212.323L114.042 212.251C116.315 208.989 118.123 207.539 120.085 207.4C121.968 207.268 124.093 208.518 124.309 211.566C124.44 213.422 123.635 215.821 121.698 219.291C119.396 223.471 117.788 225.06 115.765 225.203Z" fill="#3F270E"/>
<path d="M153.604 196.336C156.394 194.358 160.313 193.19 165.361 192.833C168.941 192.54 172.546 192.83 176.034 193.69C179.309 194.528 181.365 195.811 182.201 197.541C182.8 198.832 183.153 200.223 183.243 201.643C183.42 204.204 182.745 206.286 181.218 207.891C180.022 209.191 178.358 209.915 176.223 210.063C174.902 210.136 173.576 210.122 172.256 210.02C170.971 209.918 169.681 209.901 168.393 209.969C166.755 210.087 165.96 210.426 166 210.997C166.06 211.849 167.76 213.157 171.1 214.921C174.807 216.946 177.75 219.166 179.929 221.582C182.316 224.059 183.605 226.646 183.799 229.344C184.085 233.394 182.107 237.015 177.866 240.206C173.625 243.397 168.162 245.226 161.479 245.694C160.48 245.763 158.981 245.8 156.981 245.805C147.307 245.412 142.28 242.514 141.899 237.109C141.694 234.198 142.259 232.083 143.597 230.764C144.934 229.445 147.31 228.671 150.725 228.441L151.803 228.368L158.417 228.116L154.284 224.241C151.533 221.722 149.589 219.485 148.453 217.53C147.299 215.53 146.626 213.289 146.49 210.985C146.303 208.177 146.862 205.37 148.11 202.848C149.339 200.234 151.233 197.988 153.604 196.336Z" fill="#FCDC97"/>
<path d="M161.686 248.645C160.608 248.718 159.024 248.757 156.977 248.744L156.863 248.738C149.038 248.423 139.575 246.183 138.95 237.305C138.679 233.502 139.547 230.589 141.529 228.652C143.419 226.821 146.339 225.79 150.515 225.493L151.251 225.444C148.806 223.1 147.044 220.979 145.895 219.006C144.514 216.611 143.707 213.929 143.537 211.169C143.315 207.846 143.973 204.524 145.444 201.535C146.893 198.482 149.111 195.858 151.882 193.92C155.111 191.63 159.57 190.272 165.14 189.881C169.038 189.57 172.96 189.888 176.757 190.822C180.957 191.9 183.601 193.676 184.849 196.248C185.611 197.88 186.062 199.639 186.179 201.435C186.421 204.843 185.477 207.702 183.347 209.928C181.686 211.757 179.337 212.812 176.43 213.01C175.665 213.065 174.787 213.081 173.808 213.052C177.207 215.027 179.986 217.225 182.097 219.587C184.948 222.555 186.514 225.774 186.752 229.141C187.109 234.236 184.721 238.754 179.647 242.571C174.962 246.09 168.919 248.134 161.686 248.645ZM157.047 242.84C158.919 242.839 160.342 242.81 161.269 242.743C167.345 242.318 172.328 240.667 176.085 237.833C179.501 235.263 181.06 232.552 180.835 229.543C180.694 227.543 179.694 225.607 177.788 223.628L177.713 223.549C175.78 221.397 173.072 219.36 169.669 217.51C164.945 215.016 163.2 213.357 163.046 211.203C162.966 210.058 163.307 207.362 168.183 207.021C169.604 206.943 171.028 206.959 172.447 207.069C173.637 207.162 174.832 207.176 176.024 207.112C177.386 207.015 178.374 206.615 179.044 205.89C180.031 204.853 180.416 203.58 180.296 201.849C180.232 200.794 179.972 199.76 179.53 198.8C179.346 198.432 178.534 197.382 175.304 196.554C172.125 195.776 168.84 195.517 165.578 195.784C161.105 196.097 157.653 197.095 155.326 198.748C153.365 200.097 151.798 201.941 150.784 204.092C149.751 206.154 149.288 208.453 149.441 210.753C149.548 212.616 150.091 214.428 151.026 216.044C152.007 217.732 153.785 219.772 156.301 222.056L165.606 230.817L150.945 231.407C147.306 231.662 146.052 232.53 145.68 232.907C144.833 233.736 144.769 235.546 144.866 236.918C145.109 240.515 149.216 242.514 157.047 242.84Z" fill="#3F270E"/>
<path d="M196.408 175.549C198.127 173.571 200.018 172.51 202.08 172.366C203.788 172.245 205.611 172.759 207.547 173.907C209.337 174.997 210.321 176.785 210.499 179.269C210.583 180.48 210.62 181.514 210.609 182.369L210.631 188.808L217.9 188.491C226.369 187.969 230.798 190.477 231.189 196.016C231.388 198.859 230.434 201.033 228.325 202.536C226.217 204.039 222.543 205.155 217.304 205.883L208.078 207.279L208.741 213.66C209.532 221.81 210.853 225.817 212.702 225.68C213.627 225.616 215.13 224.655 217.213 222.795C219.163 221.085 220.922 220.175 222.488 220.066C224.124 219.95 225.814 220.618 227.558 222.068C228.503 222.791 229.279 223.71 229.835 224.762C230.391 225.813 230.713 226.972 230.778 228.16C230.955 230.716 230.068 233.348 228.118 236.057C225.188 240.136 221.195 242.352 216.138 242.707C213.747 242.87 211.345 242.678 209.011 242.137C203.784 240.934 199.903 238.582 197.368 235.081C194.833 231.58 192.97 225.946 191.781 218.177L190.305 207.892L186.273 208.186C183.571 208.374 181.665 207.936 180.554 206.874C179.443 205.812 178.785 203.823 178.58 200.908C178.378 198.069 179.077 195.824 180.678 194.174C182.279 192.524 184.643 191.59 187.769 191.373C189.616 191.236 190.82 190.825 191.38 190.14C191.94 189.456 192.476 187.668 192.988 184.778C193.58 181.029 194.72 177.953 196.408 175.549Z" fill="#FCDC97"/>
<path d="M216.356 245.658C213.679 245.839 210.99 245.624 208.377 245.02C202.445 243.657 197.944 240.896 194.989 236.814C192.151 232.9 190.162 226.947 188.875 218.625L187.787 211.055L186.48 211.144C182.886 211.401 180.262 210.703 178.504 209.018C176.83 207.417 175.888 204.833 175.626 201.125C175.364 197.416 176.353 194.398 178.55 192.126C180.667 189.946 183.699 188.703 187.558 188.432C188.089 188.406 188.614 188.315 189.123 188.16C189.288 187.762 189.638 186.719 190.069 184.278C190.722 180.144 192.043 176.618 193.984 173.857L194.173 173.617C196.416 171.032 199.006 169.622 201.87 169.422C204.18 169.259 206.6 169.914 209.057 171.372C210.907 172.497 213.143 174.729 213.449 179.07C213.541 180.338 213.579 181.463 213.57 182.41L213.582 185.719L217.779 185.549C223.554 185.193 233.45 186.051 234.141 195.824C234.412 199.694 232.997 202.853 230.043 204.959C227.514 206.762 223.482 208.028 217.711 208.827L211.315 209.796L211.685 213.368C212.19 218.578 212.826 221.073 213.249 222.23C213.945 221.734 214.609 221.196 215.239 220.619C217.735 218.435 220.031 217.306 222.28 217.15C224.687 216.978 227.1 217.88 229.446 219.822C230.703 220.797 231.736 222.03 232.474 223.439C233.213 224.847 233.64 226.398 233.726 227.985C233.955 231.238 232.875 234.548 230.516 237.823C227.064 242.612 222.299 245.241 216.356 245.658ZM198.742 177.372C197.372 179.379 196.417 182.027 195.908 185.246C195.108 189.78 194.362 191.177 193.671 192.019C192.191 193.822 189.712 194.19 187.976 194.313C185.612 194.48 183.873 195.122 182.803 196.225C181.809 197.244 181.392 198.712 181.53 200.694C181.748 203.771 182.461 204.597 182.601 204.73C182.74 204.863 183.455 205.41 186.067 205.228L192.865 204.749L194.732 217.759C195.842 224.998 197.543 230.252 199.786 233.347C201.905 236.278 205.146 238.209 209.699 239.256C211.744 239.728 213.847 239.898 215.942 239.76C220.107 239.466 223.303 237.696 225.713 234.355C227.243 232.236 227.951 230.229 227.83 228.392C227.793 227.612 227.585 226.849 227.219 226.159C226.854 225.469 226.34 224.868 225.715 224.399C224.544 223.43 223.542 222.985 222.701 223.042C222.198 223.079 221.064 223.385 219.169 225.044C216.471 227.453 214.593 228.538 212.915 228.657C207.701 229.021 206.52 221.26 205.804 213.961L204.85 204.796L216.869 202.973C222.802 202.151 225.436 200.983 226.61 200.146C227.455 199.541 228.404 198.553 228.256 196.241C228.144 194.629 227.878 190.856 218.106 191.457L207.703 191.88L207.637 182.378C207.647 181.545 207.614 180.588 207.535 179.479C207.399 177.526 206.643 176.826 205.998 176.433C204.611 175.62 203.362 175.237 202.277 175.313C201.066 175.401 199.905 176.074 198.742 177.372Z" fill="#3F270E"/>
<path d="M230.99 194.753C232.295 193.02 234.376 192.053 237.234 191.852C239.936 191.664 242.089 192.299 243.694 193.755C244.913 194.886 245.624 196.87 245.826 199.709C245.963 201.557 245.977 205.806 245.867 212.454C245.856 224.449 245.869 230.731 245.907 231.301C246.023 232.933 245.251 234.665 243.592 236.495C241.934 238.326 240.217 239.305 238.442 239.431C236.803 239.549 234.82 238.725 232.493 236.959C231.244 236.005 230.297 234.711 229.766 233.233C229.311 231.87 228.946 229.236 228.671 225.33C228.22 218.733 228.224 212.113 228.684 205.517C229.107 199.777 229.875 196.189 230.99 194.753ZM233.68 170.581C234.56 170.009 235.559 169.646 236.602 169.518C237.668 169.443 239.193 169.801 241.178 170.592C243.018 171.32 244.205 171.932 244.739 172.429C245.272 172.926 245.591 173.885 245.694 175.307C245.724 175.734 245.73 176.875 245.721 178.731C245.707 181.591 245.505 183.552 245.115 184.613C244.725 185.674 243.845 186.611 242.473 187.422C241.039 188.381 239.932 188.888 239.151 188.942C238.37 188.997 236.842 188.569 234.568 187.657C231.416 186.531 229.476 184.917 228.749 182.817C228.592 182.224 228.478 181.62 228.408 181.01C228.306 178.937 228.752 176.873 229.703 175.027C230.704 172.962 232.036 171.477 233.698 170.571L233.68 170.581Z" fill="#FCDC97"/>
<path d="M238.634 242.378C236.238 242.547 233.637 241.546 230.681 239.317L230.588 239.244C228.907 237.937 227.637 236.175 226.93 234.168C226.385 232.543 225.992 229.8 225.692 225.542C225.233 218.799 225.238 212.032 225.708 205.289C226.368 196.91 227.624 194.308 228.654 192.958C229.639 191.66 230.94 190.635 232.433 189.979C229.065 188.536 226.899 186.457 225.973 183.767L225.895 183.501C224.99 180.222 225.407 176.719 227.056 173.744C228.316 171.138 230.054 169.206 232.232 168.002C233.496 167.204 234.929 166.711 236.417 166.561C237.965 166.453 239.833 166.856 242.296 167.832C244.555 168.728 245.94 169.462 246.777 170.252C247.894 171.293 248.512 172.876 248.659 175.09C248.682 175.449 248.711 176.166 248.695 178.74C248.68 182.012 248.431 184.201 247.909 185.618C247.286 187.318 245.994 188.764 244.065 189.917C243.939 189.999 243.817 190.082 243.694 190.157C244.412 190.545 245.08 191.018 245.682 191.568C247.511 193.26 248.518 195.851 248.776 199.503C248.913 201.441 248.93 205.691 248.825 212.498C248.807 227.755 248.842 230.714 248.878 231.099C249.052 233.537 248.017 236.019 245.807 238.462C243.597 240.905 241.193 242.2 238.634 242.378ZM234.295 234.63C236.63 236.378 237.815 236.504 238.217 236.476C239.198 236.404 240.265 235.744 241.386 234.504C242.441 233.335 242.994 232.267 242.94 231.499C242.917 231.19 242.874 230.54 242.89 212.441C242.994 205.855 242.981 201.652 242.861 199.922C242.657 197.128 241.963 196.2 241.671 195.922C240.699 195.039 239.306 194.666 237.437 194.8C235.468 194.938 234.138 195.502 233.365 196.529L233.339 196.563C233.223 196.711 232.195 198.231 231.603 205.749C231.16 212.209 231.163 218.692 231.612 225.151C231.949 229.905 232.35 231.672 232.559 232.299C232.91 233.223 233.511 234.031 234.295 234.633L234.295 234.63ZM231.595 181.954C232.044 183.102 233.383 184.08 235.563 184.865L235.661 184.903C237.888 185.79 238.743 185.944 238.97 185.971C239.628 185.716 240.249 185.373 240.816 184.953L240.953 184.864C241.693 184.429 242.18 183.973 242.323 183.58C242.419 183.324 242.731 182.204 242.744 178.707C242.762 176.287 242.736 175.66 242.728 175.487C242.71 175.144 242.658 174.803 242.572 174.47C241.774 174.017 240.939 173.63 240.076 173.314C237.891 172.447 237.015 172.431 236.795 172.444C236.212 172.543 235.658 172.768 235.17 173.102L235.085 173.151C233.978 173.755 233.084 174.787 232.357 176.295C231.633 177.679 231.285 179.229 231.348 180.789C231.404 181.183 231.487 181.572 231.595 181.954Z" fill="#3F270E"/>
<path d="M259.256 185.16C260.967 184.112 263.493 183.471 266.835 183.237C271.634 182.949 276.45 183.367 281.127 184.479C286.175 185.624 289.772 187.228 291.916 189.292C293.682 191.027 294.675 193.456 294.895 196.579C295.235 200.605 294.154 204.623 291.838 207.935C287.922 214.065 282.298 217.923 274.967 219.509C271.518 220.252 269.819 220.979 269.868 221.689C269.917 222.4 272.134 222.923 276.518 223.256C280.895 223.522 284.019 224.248 285.891 225.434C287.764 226.619 288.791 228.529 288.974 231.164C289.182 234.146 288.603 236.328 287.236 237.71C285.87 239.092 283.439 239.905 279.944 240.15C279.225 240.2 277.95 240.219 276.089 240.206C267.139 239.98 259.92 237.667 254.432 233.267C248.945 228.867 245.563 222.641 244.286 214.588C243.925 212.473 243.693 210.704 243.59 209.282C243.381 206.3 243.946 203.155 245.285 199.847C247.416 194.633 252.073 189.737 259.256 185.16ZM274.383 200.593C273.983 199.977 272.503 199.76 269.945 199.942C267.811 200.089 266.227 200.453 265.197 201.022C264.16 201.528 263.661 202.063 263.702 202.628C263.766 203.55 264.758 203.944 266.679 203.811C268.556 203.708 270.406 203.327 272.171 202.682C273.772 202.071 274.553 201.481 274.513 200.911C274.514 200.852 274.503 200.794 274.48 200.739C274.458 200.684 274.425 200.635 274.383 200.593Z" fill="#FCDC97"/>
<path d="M280.186 243.103C279.374 243.158 278.035 243.178 276.102 243.165C266.477 242.919 258.592 240.369 252.613 235.578C246.554 230.728 242.777 223.826 241.383 215.062C241.048 213.221 240.805 211.365 240.657 209.5C240.415 206.075 241.044 202.454 242.557 198.743C244.918 192.964 250.008 187.557 257.682 182.667L257.726 182.641C259.871 181.328 262.787 180.558 266.646 180.287C271.725 179.985 276.821 180.426 281.772 181.596C287.404 182.875 291.392 184.692 293.959 187.158C296.268 189.43 297.566 192.52 297.838 196.373C298.223 201.05 296.97 205.716 294.293 209.572C291.132 214.61 286.46 218.524 280.944 220.756C283.718 221.205 285.89 221.929 287.467 222.938C289.325 224.113 291.597 226.469 291.913 230.953C292.185 234.809 291.317 237.78 289.334 239.789C287.421 241.719 284.434 242.799 280.186 243.103ZM260.839 187.679C254.23 191.894 249.924 196.379 248.04 200.979C246.881 203.84 246.384 206.571 246.56 209.091C246.653 210.409 246.875 212.095 247.219 214.106C248.399 221.509 251.372 227.012 256.316 230.971C261.26 234.929 267.955 237.049 276.201 237.258C278.348 237.276 279.327 237.24 279.783 237.208C283.376 236.958 284.693 236.119 285.167 235.64C286.08 234.714 286.152 232.812 286.052 231.379C285.897 229.178 284.993 228.36 284.329 227.937C283.347 227.315 281.186 226.509 276.37 226.216C271.156 225.819 267.185 225.251 266.943 221.904C266.687 218.282 271.313 217.284 274.391 216.627C280.966 215.199 285.875 211.842 289.39 206.363L289.448 206.277C291.386 203.519 292.287 200.166 291.99 196.81C291.821 194.408 291.145 192.647 289.887 191.426C288.711 190.289 286.102 188.658 280.516 187.389C276.123 186.343 271.599 185.945 267.091 186.209C263.524 186.435 261.718 187.127 260.822 187.671L260.839 187.679ZM266.904 206.77C261.492 207.149 260.839 203.863 260.765 202.857C260.691 201.852 260.996 199.83 263.851 198.42C265.274 197.65 267.208 197.174 269.751 197.013C272.529 196.808 275.28 196.901 276.704 198.75C277.165 199.308 277.438 199.998 277.483 200.72C277.696 203.761 274.347 205.04 273.247 205.459C271.202 206.204 269.059 206.643 266.886 206.762L266.904 206.77Z" fill="#3F270E"/>
<path d="M321.808 204.326C318.469 202.564 316.769 201.256 316.708 200.402C316.668 199.834 317.466 199.493 319.102 199.378C320.389 199.31 321.68 199.327 322.965 199.429C324.285 199.529 325.61 199.542 326.932 199.468C329.028 199.32 330.669 198.62 331.854 197.367C330.9 196.588 330.181 195.557 329.781 194.392C329.381 193.227 329.314 191.973 329.589 190.773C328.027 190.697 326.542 190.071 325.398 189.005C324.253 187.939 323.525 186.503 323.341 184.951C323.236 184.963 323.135 184.979 323.031 184.987C321.896 185.063 320.761 184.844 319.735 184.353C318.709 183.862 317.827 183.115 317.175 182.184C316.816 182.196 316.457 182.216 316.098 182.239C311.046 182.596 307.126 183.765 304.337 185.746C301.969 187.392 300.076 189.631 298.848 192.24C297.598 194.761 297.037 197.569 297.224 200.377C297.364 202.681 298.036 204.921 299.188 206.922C300.326 208.878 302.27 211.115 305.019 213.633L309.155 217.519L302.5 217.783L301.422 217.86C298.009 218.099 295.634 218.873 294.297 220.18C292.961 221.487 292.395 223.602 292.6 226.524C292.979 231.924 298.006 234.823 307.682 235.22C309.684 235.223 311.182 235.186 312.177 235.109C318.86 234.644 324.322 232.814 328.563 229.621C332.805 226.427 334.782 222.804 334.496 218.752C334.306 216.052 333.016 213.465 330.627 210.99C328.465 208.561 325.525 206.34 321.808 204.326Z" fill="#FCDC97"/>
<path d="M306.793 238.122C301.797 237.848 298.003 236.924 295.189 235.3C291.816 233.366 289.918 230.4 289.675 226.736C289.408 222.93 290.276 220.02 292.254 218.083C294.127 216.251 297.065 215.217 301.243 214.924L301.962 214.871C299.511 212.515 297.751 210.402 296.589 208.432C295.21 206.037 294.403 203.356 294.23 200.599C294.013 197.275 294.677 193.954 296.155 190.969C297.607 187.905 299.834 185.274 302.616 183.334C305.826 181.057 310.289 179.696 315.862 179.304C316.257 179.276 316.648 179.258 317.036 179.24C317.531 179.218 318.023 179.32 318.468 179.538C318.913 179.757 319.295 180.083 319.58 180.488C319.937 181 320.42 181.412 320.983 181.683C321.546 181.953 322.169 182.075 322.792 182.034L322.82 182.036L322.997 182.013C323.384 181.968 323.775 181.999 324.15 182.105C324.525 182.211 324.874 182.39 325.18 182.631C325.485 182.872 325.74 183.171 325.929 183.511C326.118 183.851 326.239 184.225 326.284 184.611C326.377 185.464 326.771 186.256 327.394 186.846C328.017 187.436 328.829 187.786 329.686 187.834L329.75 187.838C330.181 187.861 330.602 187.978 330.983 188.181C331.363 188.383 331.695 188.667 331.955 189.011C332.214 189.356 332.395 189.753 332.484 190.175C332.574 190.597 332.57 191.033 332.472 191.453C332.322 192.117 332.36 192.81 332.582 193.454C332.804 194.098 333.201 194.668 333.729 195.098C334.042 195.356 334.298 195.674 334.482 196.034C334.667 196.394 334.775 196.788 334.801 197.192C334.827 197.596 334.77 198.001 334.633 198.381C334.496 198.762 334.282 199.11 334.005 199.405C332.292 201.207 329.984 202.225 327.142 202.423C326.377 202.477 325.496 202.49 324.516 202.464C327.597 204.199 330.393 206.396 332.806 208.978C335.657 211.945 337.224 215.164 337.461 218.532C337.807 223.655 335.429 228.174 330.356 231.972C325.671 235.499 319.628 237.542 312.395 238.05C311.317 238.127 309.733 238.161 307.689 238.149L307.575 238.143L306.793 238.122ZM302.661 220.728L301.641 220.797C298.001 221.055 296.747 221.923 296.379 222.297C295.528 223.13 295.465 224.936 295.561 226.308C295.682 228.024 296.475 229.219 298.144 230.176C300.227 231.363 303.456 232.066 307.756 232.245C309.631 232.248 311.05 232.215 311.981 232.151C318.054 231.723 323.037 230.076 326.797 227.242C330.213 224.672 331.768 221.961 331.547 218.951C331.406 216.948 330.41 215.016 328.5 213.037C328.476 213.011 328.449 212.984 328.429 212.958C326.496 210.806 323.794 208.769 320.399 206.924C315.64 204.409 313.898 202.754 313.748 200.6C313.668 199.459 314.005 196.763 318.885 196.419C320.306 196.34 321.73 196.356 323.149 196.467C324.339 196.56 325.534 196.576 326.726 196.513C326.974 196.494 327.211 196.468 327.446 196.431C326.937 195.391 326.621 194.267 326.515 193.114C325.292 192.651 324.179 191.941 323.243 191.028C322.308 190.115 321.571 189.019 321.079 187.809C319.123 187.504 317.313 186.593 315.903 185.204C311.621 185.548 308.314 186.533 306.05 188.136C304.091 189.491 302.526 191.34 301.514 193.495C300.481 195.556 300.019 197.856 300.175 200.156C300.277 202.013 300.814 203.82 301.743 205.431C302.724 207.12 304.498 209.159 307.018 211.443L307.045 211.47L311.154 215.397C311.579 215.796 311.877 216.312 312.009 216.88C312.142 217.448 312.103 218.043 311.898 218.589C311.693 219.135 311.332 219.609 310.858 219.95C310.385 220.291 309.821 220.484 309.238 220.506L302.661 220.728Z" fill="#3F270E"/>
<path d="M97.7706 211.719C99.8788 210.218 100.833 208.045 100.634 205.199C100.243 199.66 95.8151 197.152 87.3488 197.675L80.0797 197.991L80.0572 191.552C80.0685 190.695 80.031 189.661 79.9446 188.453C79.7683 185.968 78.7855 184.181 76.996 183.091C75.0545 181.944 73.231 181.431 71.5255 181.549C69.463 181.694 67.5734 182.755 65.8565 184.732C64.1688 187.136 63.0275 190.215 62.4325 193.968C61.923 196.861 61.3882 198.649 60.8282 199.331C60.2682 200.013 59.0648 200.418 57.218 200.545C54.0847 200.767 51.72 201.702 50.1238 203.35C48.5277 204.998 47.8282 207.243 48.0255 210.084C48.2308 212.994 48.8901 214.983 50.0031 216.05C51.1162 217.118 53.0226 217.555 55.7225 217.362L59.7756 217.077L61.2514 227.361C61.6356 229.973 62.1688 232.562 62.8483 235.113C64.4623 235.124 66.0166 235.724 67.2177 236.802C68.4188 237.879 69.1835 239.359 69.3675 240.961C69.4709 240.966 69.5732 240.929 69.6773 240.924C70.5444 240.863 71.415 240.973 72.2395 241.248C73.064 241.523 73.8262 241.958 74.4827 242.527C75.1391 243.097 75.6769 243.79 76.0653 244.567C76.4537 245.344 76.6851 246.189 76.7464 247.056C76.7905 247.707 76.7389 248.361 76.5934 248.997C77.6061 249.045 78.594 249.326 79.4807 249.818C80.3674 250.309 81.129 250.998 81.7066 251.831C82.9997 251.958 84.3012 251.978 85.5976 251.891C90.6471 251.538 94.6351 249.33 97.5617 245.265C99.5144 242.557 100.401 239.924 100.221 237.368C100.157 236.181 99.8362 235.022 99.281 233.97C98.7258 232.919 97.9494 231.999 97.0051 231.276C95.2591 229.828 93.5693 229.161 91.9357 229.274C90.369 229.386 88.6105 230.296 86.6604 232.003C84.5754 233.863 83.0706 234.825 82.146 234.888C80.2963 235.025 78.9771 231.019 78.1883 222.869L77.5255 216.488L86.7509 215.091C91.9888 214.349 95.662 213.225 97.7706 211.719Z" fill="#FCDC97"/>
<path d="M82.5644 254.854C82.1861 254.833 81.8078 254.812 81.4272 254.77C80.9987 254.729 80.5844 254.595 80.2131 254.377C79.8417 254.16 79.5223 253.864 79.2771 253.511C78.9611 253.059 78.5475 252.683 78.0667 252.412C77.5859 252.141 77.0503 251.982 76.4995 251.946L76.4496 251.943C76.0193 251.919 75.5993 251.802 75.2191 251.599C74.8389 251.397 74.5076 251.113 74.2483 250.769C73.989 250.425 73.808 250.029 73.7179 249.608C73.6279 249.187 73.631 248.751 73.727 248.331C73.8057 247.981 73.8339 247.621 73.8107 247.263C73.7417 246.302 73.2964 245.407 72.5714 244.772C71.8464 244.138 70.9002 243.814 69.9379 243.871L69.7359 243.899C69.3491 243.945 68.9569 243.915 68.5819 243.809C68.207 243.703 67.8566 243.524 67.5509 243.283C67.2453 243.042 66.9903 242.742 66.8007 242.402C66.611 242.062 66.4905 241.688 66.4459 241.301C66.3444 240.415 65.9215 239.596 65.2573 238.999C64.5931 238.403 63.7333 238.07 62.8403 238.063C62.1935 238.06 61.5655 237.845 61.0525 237.451C60.5396 237.058 60.1698 236.507 59.9998 235.883C59.2927 233.223 58.7357 230.525 58.3315 227.802L57.2447 220.214L55.9369 220.303C52.3435 220.56 49.7188 219.862 47.9607 218.177C46.2876 216.576 45.327 213.991 45.0831 210.283C44.8391 206.576 45.8103 203.553 48.0073 201.285C50.1241 199.105 53.1525 197.862 57.0151 197.591C57.5456 197.563 58.071 197.472 58.5798 197.319C58.7449 196.921 59.0917 195.885 59.5076 193.457C60.1697 189.284 61.4903 185.766 63.4276 183.011C63.4845 182.927 63.5475 182.847 63.6161 182.771C65.859 180.187 68.4491 178.777 71.3128 178.576C73.6197 178.413 76.0391 179.068 78.4968 180.526C80.3501 181.651 82.5863 183.884 82.8921 188.225C82.9807 189.481 83.0195 190.599 83.0109 191.539L83.0248 194.873L87.1896 194.705C92.0379 194.409 95.7305 195.02 98.4727 196.576C101.552 198.318 103.318 201.223 103.581 204.978C103.855 208.849 102.436 212.007 99.5004 214.114C96.9748 215.914 92.9466 217.18 87.1867 217.977L80.7692 218.951L81.1423 222.523C81.6474 227.733 82.2836 230.229 82.7067 231.389C83.4003 230.89 84.0645 230.35 84.6959 229.774C87.1924 227.59 89.4879 226.461 91.7335 226.305C94.1409 226.137 96.5437 227.031 98.8824 228.961C100.144 229.937 101.181 231.173 101.923 232.584C102.665 233.995 103.095 235.549 103.183 237.141C103.413 240.394 102.333 243.703 99.9732 246.979C96.5212 251.768 91.7561 254.396 85.8124 254.824C84.7314 254.902 83.6466 254.912 82.5644 254.854ZM79.6819 246.655C80.9987 247.161 82.1892 247.948 83.1705 248.961C83.9095 248.992 84.6497 248.983 85.3877 248.932C89.5556 248.642 92.7524 246.872 95.1621 243.532C96.6887 241.412 97.4001 239.406 97.279 237.568C97.2391 236.789 97.0283 236.029 96.6616 235.34C96.2948 234.652 95.7811 234.053 95.1567 233.585L95.1155 233.554C93.9822 232.616 92.9829 232.171 92.1422 232.229C91.6355 232.265 90.5055 232.572 88.6105 234.231C85.9119 236.64 84.0341 237.724 82.3561 237.843C80.678 237.962 78.3719 237.199 76.9578 232.898C76.2251 230.661 75.6634 227.462 75.2416 223.147L74.5812 216.788C74.5018 216.031 74.7174 215.274 75.1832 214.672C75.6489 214.071 76.3288 213.672 77.0813 213.559L86.3069 212.159L86.3461 212.162C92.2396 211.344 94.8772 210.176 96.0506 209.34C96.8963 208.735 97.8454 207.746 97.6968 205.431C97.5811 203.823 97.3123 200.046 87.5434 200.65L87.4827 200.647L80.201 200.934C79.8023 200.948 79.4048 200.881 79.0326 200.738C78.6603 200.595 78.3209 200.378 78.0347 200.1C77.7482 199.824 77.5198 199.494 77.3628 199.128C77.2058 198.763 77.1235 198.37 77.1207 197.972L77.0982 191.533L77.1005 191.49C77.1079 190.704 77.0713 189.74 76.9966 188.623C76.857 186.667 76.1006 185.971 75.46 185.578C74.0729 184.765 72.8232 184.382 71.7381 184.458C70.5128 184.545 69.352 185.218 68.1926 186.517C66.8225 188.523 65.8683 191.171 65.3587 194.39C65.3595 194.408 65.3585 194.426 65.3558 194.444C64.5658 198.924 63.8199 200.321 63.1294 201.163C61.6488 202.967 59.1696 203.335 57.434 203.458C55.0697 203.625 53.3271 204.266 52.2572 205.37C51.2635 206.388 50.8501 207.857 50.9883 209.839C51.206 212.916 51.9161 213.738 52.0589 213.874C52.2018 214.011 52.9093 214.554 55.5215 214.372L59.5663 214.107C60.3132 214.054 61.0524 214.286 61.6351 214.756C62.2177 215.226 62.6004 215.9 62.7059 216.64L64.1817 226.925C64.4817 228.894 64.8381 230.748 65.2352 232.447C66.6637 232.825 67.9856 233.527 69.0982 234.499C70.2107 235.471 71.0839 236.686 71.6497 238.05C73.7552 238.388 75.6877 239.418 77.1422 240.977C78.5967 242.535 79.4903 244.533 79.6819 246.655Z" fill="#3F270E"/>
<path d="M91.7256 226.319C89.48 226.475 87.1845 227.604 84.688 229.788C84.0577 230.364 83.3935 230.902 82.699 231.399C82.2721 230.242 81.6385 227.765 81.1344 222.537L80.7613 218.965L87.1606 217.997C92.9313 217.197 96.9631 215.931 99.4925 214.128C102.443 212.022 103.862 208.863 103.573 204.992C102.886 195.216 92.9892 194.358 87.214 194.717L83.0169 194.887L83.0016 191.578C83.0142 190.631 82.972 189.509 82.8842 188.238C82.5784 183.898 80.3423 181.661 78.4889 180.54C76.0312 179.082 73.6153 178.427 71.3049 178.59C68.4304 178.79 65.8475 180.201 63.6082 182.785L63.4196 183.025C61.4788 185.78 60.1575 189.312 59.5046 193.447C59.0734 195.891 58.7227 196.934 58.5757 197.33C58.0668 197.482 57.5415 197.573 57.0109 197.601C53.1483 197.872 50.1271 199.116 48.0031 201.295C45.799 203.563 44.8167 206.592 45.0789 210.294C45.3411 213.996 46.2798 216.586 47.9566 218.188C49.7146 219.872 52.3213 220.573 55.9327 220.313L57.2405 220.224L58.3274 227.812C58.7227 230.493 59.2676 233.15 59.9595 235.77C60.9438 235.295 62.0313 235.074 63.1231 235.127C64.2148 235.179 65.2761 235.503 66.2104 236.07C65.2961 233.082 64.6129 230.028 64.1669 226.935L62.3002 213.925L55.4983 214.403C52.8861 214.585 52.1582 214.023 52.0358 213.905C51.9134 213.788 51.183 212.943 50.9651 209.869C50.8269 207.888 51.24 206.426 52.234 205.401C53.304 204.297 55.0465 203.656 57.4109 203.489C59.1464 203.366 61.6252 203.005 63.1062 201.194C63.7967 200.352 64.5427 198.955 65.3427 194.421C65.8523 191.202 66.8065 188.554 68.1765 186.548C69.3216 185.248 70.4968 184.576 71.7221 184.489C72.8001 184.413 74.0675 184.797 75.4439 185.609C76.0846 186.002 76.841 186.698 76.9805 188.655C77.0557 189.764 77.0925 190.724 77.0827 191.554L77.1201 201.048L87.5234 200.624C97.2958 200.02 97.561 203.797 97.6766 205.409C97.8396 207.721 96.8905 208.71 96.0306 209.313C94.8572 210.15 92.2196 211.318 86.2864 212.14L74.2673 213.963L75.2211 223.128C75.9298 230.434 77.1216 238.196 82.3356 237.824C84.0137 237.705 85.8915 236.621 88.5901 234.212C90.4708 232.552 91.6159 232.232 92.1218 232.21C92.9625 232.152 93.9618 232.597 95.1363 233.566C95.7605 234.036 96.2736 234.637 96.639 235.327C97.0045 236.017 97.2134 236.779 97.2509 237.559C97.3791 239.397 96.6819 241.405 95.1339 243.523C92.7243 246.863 89.5274 248.634 85.3593 248.927C83.2648 249.065 81.1613 248.895 79.116 248.423C78.2713 248.227 77.4869 247.976 76.727 247.734C76.7148 248.154 76.6607 248.572 76.5656 248.981C78.135 249.056 79.6261 249.688 80.7715 250.763C81.9168 251.838 82.6414 253.285 82.8153 254.846C83.802 254.895 84.7906 254.888 85.7765 254.826C91.7196 254.408 96.4818 251.769 99.9373 246.98C102.297 243.709 103.377 240.399 103.147 237.142C103.06 235.555 102.633 234.004 101.895 232.596C101.156 231.188 100.124 229.954 98.8672 228.979C96.5499 227.049 94.1367 226.147 91.7256 226.319Z" fill="#3F270E"/>
<path d="M324.517 202.461C325.496 202.486 326.374 202.474 327.142 202.419C330.045 202.221 332.387 201.166 334.069 199.337C334.263 199.133 334.45 198.918 334.609 198.705C333.607 198.482 332.67 198.029 331.873 197.382C331.076 196.735 330.441 195.912 330.017 194.977C329.933 195.088 329.842 195.194 329.745 195.295C329.079 196.023 328.091 196.423 326.725 196.52C325.533 196.583 324.338 196.568 323.148 196.474C321.73 196.364 320.305 196.348 318.885 196.426C314.005 196.77 313.664 199.466 313.748 200.608C313.898 202.762 315.643 204.42 320.381 206.923C323.787 208.78 326.492 210.81 328.425 212.965L328.499 213.044C330.41 215.019 331.406 216.955 331.546 218.959C331.739 221.966 330.202 224.679 326.796 227.249C323.037 230.076 318.054 231.723 311.981 232.158C311.05 232.222 309.631 232.255 307.755 232.252C299.899 231.925 295.817 229.93 295.554 226.314C295.457 224.943 295.52 223.137 296.368 222.303C296.746 221.945 297.992 221.076 301.633 220.804L316.298 220.218L306.989 211.463C304.47 209.154 302.695 207.129 301.713 205.451C300.785 203.84 300.247 202.033 300.145 200.176C299.989 197.876 300.452 195.576 301.484 193.515C302.492 191.365 304.052 189.521 306.005 188.169C308.337 186.509 311.784 185.522 316.257 185.206C318.641 185.025 321.037 185.11 323.402 185.458C323.369 185.288 323.346 185.119 323.326 184.95C323.222 184.962 323.121 184.978 323.017 184.986C321.344 185.103 319.689 184.581 318.388 183.524C317.086 182.468 316.234 180.958 316.005 179.298L315.847 179.307C310.282 179.699 305.819 181.056 302.594 183.344C299.821 185.283 297.601 187.911 296.155 190.969C294.682 193.957 294.024 197.28 294.244 200.603C294.415 203.361 295.222 206.042 296.603 208.436C297.751 210.409 299.514 212.53 301.976 214.875L301.258 214.929C297.082 215.222 294.141 216.255 292.268 218.087C290.29 220.024 289.421 222.938 289.689 226.74C290.315 235.615 299.777 237.858 307.606 238.174L307.72 238.18C309.764 238.185 311.348 238.146 312.425 238.08C319.658 237.573 325.701 235.529 330.387 232.003C335.429 228.174 337.807 223.655 337.461 218.543C337.224 215.161 335.675 211.943 332.806 208.989C330.393 206.402 327.597 204.201 324.517 202.461Z" fill="#3F270E"/>
<path d="M333.558 181.33C333.452 181.325 333.346 181.312 333.241 181.292C332.684 181.174 332.174 180.898 331.771 180.496L329.871 178.718C329.615 178.514 329.401 178.261 329.243 177.974C329.086 177.687 328.986 177.371 328.952 177.045C328.917 176.72 328.947 176.39 329.041 176.077C329.135 175.763 329.29 175.471 329.498 175.217L330.558 173.705L330.839 173.084C330.977 172.784 331.192 172.526 331.463 172.337C331.734 172.148 332.05 172.035 332.38 172.01C332.628 171.989 332.877 171.986 333.125 172.001C334.549 172.096 335.898 172.672 336.951 173.635C338.003 174.597 338.698 175.889 338.919 177.297C339.024 177.866 338.923 178.454 338.633 178.955C338.343 179.455 337.883 179.836 337.337 180.029L334.984 181.047C334.542 181.257 334.057 181.359 333.568 181.345L333.558 181.33Z" fill="#FCDC97"/>
<path d="M333.024 173.83C334.014 173.904 334.95 174.308 335.683 174.976C336.416 175.645 336.903 176.539 337.067 177.517C337.105 177.69 337.084 177.87 337.007 178.029C336.902 178.165 336.758 178.266 336.594 178.318L334.24 179.333C334.061 179.428 333.862 179.479 333.659 179.483L333.581 179.479C333.37 179.418 333.182 179.299 333.038 179.135L331.138 177.36C330.968 177.228 330.852 177.041 330.809 176.831C330.817 176.623 330.896 176.424 331.033 176.267L332.198 174.614L332.548 173.843C332.714 173.828 332.882 173.825 333.049 173.835L333.024 173.83ZM333.252 170.144C332.921 170.125 332.59 170.13 332.26 170.158C331.601 170.209 330.968 170.436 330.427 170.814C329.885 171.193 329.455 171.709 329.181 172.31L328.97 172.774L328.927 172.833L327.996 174.144C327.32 175.02 327.007 176.123 327.123 177.224C327.239 178.325 327.776 179.338 328.62 180.054L329.005 180.415L330.52 181.832C331.176 182.48 332.006 182.924 332.909 183.108C333.093 183.144 333.28 183.167 333.467 183.178C334.243 183.21 335.014 183.056 335.718 182.729L336.895 182.218L338.072 181.71C338.931 181.364 339.661 180.759 340.161 179.98C340.696 179.1 340.904 178.061 340.748 177.043C340.481 175.208 339.591 173.52 338.226 172.263C336.861 171.006 335.104 170.257 333.252 170.141L333.252 170.144Z" fill="#3F270E"/>
<path d="M318.328 174.222C318.041 174.206 317.773 174.079 317.578 173.869L316.397 172.613C316.198 172.41 316.085 172.137 316.081 171.852L316.081 170.679C316.081 170.422 316.17 170.173 316.334 169.975C316.498 169.778 316.726 169.643 316.978 169.595L319.623 169.075C319.713 169.055 319.805 169.048 319.896 169.054C320.104 169.065 320.305 169.134 320.476 169.254C320.599 169.339 320.702 169.449 320.781 169.577C320.86 169.704 320.911 169.846 320.933 169.994L321.242 171.985C321.277 172.211 321.241 172.441 321.139 172.646C321.038 172.85 320.875 173.018 320.675 173.127L318.896 174.103C318.72 174.191 318.524 174.232 318.328 174.222Z" fill="#FCDC97"/>
<path d="M319.857 170.16L320.163 172.151L318.388 173.127L317.208 171.871L317.208 170.698L319.856 170.175L319.857 170.16ZM319.978 167.96C319.792 167.951 319.606 167.965 319.424 168.001L316.781 168.497C316.277 168.596 315.823 168.866 315.496 169.263C315.17 169.659 314.991 170.156 314.99 170.669L314.99 171.842C314.989 172.406 315.204 172.949 315.59 173.36L316.767 174.619C317.103 174.976 317.548 175.213 318.032 175.291C318.517 175.369 319.014 175.285 319.446 175.052L321.224 174.076C321.626 173.858 321.951 173.52 322.154 173.11C322.357 172.7 322.429 172.238 322.359 171.785L322.05 169.798C321.972 169.295 321.724 168.835 321.348 168.493C320.971 168.151 320.488 167.95 319.98 167.921L319.978 167.96Z" fill="#3F270E"/>
<path d="M60.6788 262.318C59.8713 262.298 59.081 262.081 58.377 261.685C57.673 261.289 57.0769 260.727 56.6407 260.047C55.1134 257.485 56.6943 254.571 57.3674 253.328C57.5504 252.989 57.836 252.717 58.1832 252.55L63.8322 249.795C64.2311 249.601 64.6862 249.557 65.1148 249.671C65.5434 249.784 65.9171 250.048 66.1678 250.413C66.8318 251.358 67.4479 252.329 68.0419 253.309C68.5116 253.992 68.8075 254.779 68.904 255.602C69.0669 257.786 67.2715 259.261 66.5717 259.816C65.4029 260.764 64.0134 261.822 62.2534 262.193C61.7353 262.305 61.2045 262.347 60.6753 262.318L60.6788 262.318Z" fill="#FCDC97"/>
<path d="M64.6464 251.46C65.2784 252.379 65.8856 253.316 66.468 254.271C66.7801 254.704 66.9845 255.206 67.0641 255.734C67.1446 256.811 66.2408 257.691 65.4087 258.375C64.3447 259.24 63.1995 260.085 61.859 260.38C61.5051 260.458 61.1422 260.488 60.7804 260.468C60.2757 260.463 59.7797 260.336 59.3356 260.097C58.8914 259.857 58.5126 259.513 58.2321 259.094C57.3433 257.614 58.17 255.725 58.9944 254.204L64.6468 251.453L64.6464 251.46ZM64.8496 247.758C64.2247 247.727 63.6021 247.854 63.0396 248.128L57.3908 250.879C56.6966 251.217 56.1259 251.763 55.7588 252.442C55.0025 253.831 52.9995 257.523 55.0679 260.987C55.6598 261.926 56.4729 262.705 57.436 263.257C58.3992 263.808 59.483 264.116 60.5925 264.152C61.2885 264.19 61.9864 264.133 62.667 263.983C64.7211 263.534 66.3334 262.396 67.7572 261.237C68.559 260.583 71.0016 258.6 70.7698 255.454C70.6527 254.337 70.2656 253.265 69.6419 252.331C69.0276 251.328 68.3812 250.323 67.7108 249.364C67.389 248.9 66.9649 248.515 66.4712 248.24C65.9775 247.965 65.4273 247.807 64.8628 247.777L64.8496 247.758Z" fill="#3F270E"/>
<path d="M47.6811 250.339C47.187 250.313 46.7139 250.131 46.3302 249.818C45.9465 249.506 45.6721 249.08 45.5465 248.602L44.8674 245.975C44.7913 245.701 44.7958 245.41 44.8806 245.138C44.9653 244.866 45.1267 244.625 45.3453 244.442L47.3274 242.827C47.6134 242.594 47.9759 242.477 48.3442 242.497C48.4062 242.495 48.4683 242.498 48.5297 242.507L49.7701 242.732C50.0348 242.78 50.2812 242.9 50.4828 243.078C50.6844 243.256 50.8334 243.486 50.9137 243.743L51.6064 245.927C51.7437 246.359 51.7886 246.816 51.7382 247.267C51.6879 247.718 51.5434 248.154 51.3141 248.546C51.0848 248.938 50.7758 249.277 50.4071 249.542C50.0383 249.807 49.618 249.992 49.1733 250.085L48.2899 250.269C48.0903 250.311 47.8861 250.326 47.6825 250.314L47.6811 250.339Z" fill="#FCDC97"/>
<path d="M48.2628 243.98L49.503 244.209L50.1956 246.393C50.2672 246.628 50.2893 246.876 50.2603 247.121C50.2314 247.366 50.1521 247.602 50.0275 247.814C49.9029 248.027 49.7356 248.211 49.5362 248.356C49.3368 248.501 49.1096 248.603 48.8688 248.655L47.9889 248.839C47.9146 248.855 47.8384 248.861 47.7625 248.856C47.5808 248.845 47.4071 248.778 47.2661 248.663C47.1252 248.548 47.0243 248.391 46.978 248.215L46.2811 245.588L48.2632 243.973L48.2628 243.98ZM48.4252 241.02C47.6896 240.98 46.9654 241.215 46.3952 241.681L44.412 243.318C43.9705 243.676 43.6419 244.154 43.4656 244.695C43.2892 245.235 43.2727 245.815 43.418 246.364L44.1147 248.995C44.3651 249.94 44.9696 250.753 45.8031 251.264C46.6366 251.776 47.6351 251.948 48.5919 251.744L49.4718 251.56C50.1195 251.426 50.732 251.158 51.2695 250.773C51.8071 250.388 52.2578 249.894 52.5927 249.324C52.9275 248.754 53.139 248.12 53.2135 247.463C53.288 246.806 53.2238 246.141 53.0251 245.511L52.3325 243.327C52.1692 242.815 51.8699 242.357 51.4664 242.001C51.0629 241.646 50.5704 241.407 50.0415 241.309L48.8011 241.084C48.6838 241.061 48.565 241.046 48.4456 241.039L48.4252 241.02Z" fill="#3F270E"/>
<path opacity="0.8" d="M71.3228 192.743C70.3478 192.823 69.4425 193.28 68.8002 194.017C68.1579 194.754 67.8294 195.713 67.8849 196.689L68.3527 203.295C68.387 203.779 68.5164 204.252 68.7336 204.686C68.9507 205.121 69.2513 205.508 69.6182 205.826C70.3593 206.469 71.3254 206.791 72.3041 206.722C72.7887 206.688 73.2619 206.558 73.6965 206.342C74.1311 206.125 74.5186 205.824 74.837 205.458C75.1555 205.091 75.3985 204.665 75.5523 204.205C75.706 203.744 75.7675 203.258 75.7332 202.774L75.2652 196.171C75.182 195.2 74.7241 194.3 73.9883 193.66C73.2526 193.02 72.2967 192.691 71.3228 192.743Z" fill="white"/>
<path opacity="0.8" d="M88.476 200.483C85.9272 200.798 83.4207 201.392 81.0018 202.255C76.5322 203.869 78.9732 210.849 83.4826 209.229C85.262 208.564 87.1113 208.103 88.995 207.854C90.9773 207.605 92.5734 205.98 92.4331 203.905C92.2904 202.005 90.4657 200.231 88.476 200.483Z" fill="white"/>
<path opacity="0.8" d="M125.925 199.735C121.24 198.87 119.776 206.117 124.453 206.982C127.018 207.459 126.532 211.559 126.387 213.415C126.228 215.405 127.159 217.345 129.284 217.773C131.054 218.127 133.485 216.88 133.641 214.875C134.137 208.769 133.259 201.092 125.925 199.735Z" fill="white"/>
<path opacity="0.8" d="M118.348 228.345C117.356 229.414 115.745 230.126 114.54 230.042C112.547 229.904 110.607 230.803 110.179 232.936C109.828 234.705 111.072 237.152 113.079 237.294C117.265 237.584 121.04 236.3 123.934 233.194C127.179 229.699 121.586 224.857 118.348 228.345Z" fill="white"/>
<path opacity="0.8" d="M168.923 197.263L163.727 197.628C161.797 197.762 160.069 199.573 160.289 201.574C160.373 202.546 160.832 203.448 161.568 204.089C162.305 204.73 163.262 205.06 164.238 205.009L169.434 204.644C171.363 204.506 173.091 202.699 172.872 200.698C172.789 199.725 172.33 198.823 171.593 198.182C170.856 197.54 169.898 197.211 168.923 197.263Z" fill="white"/>
<path opacity="0.8" d="M173.465 223.799C171.698 222.868 169.375 223.721 168.509 225.479C168.171 226.182 168.064 226.974 168.204 227.741C168.344 228.508 168.723 229.211 169.287 229.749C167.793 230.308 166.649 231.844 166.838 233.478C166.922 234.45 167.381 235.352 168.118 235.993C168.855 236.634 169.812 236.964 170.788 236.913C173.855 236.724 176.63 234.487 177.256 231.424C177.882 228.361 176.206 225.244 173.465 223.799Z" fill="white"/>
<path opacity="0.8" d="M201.616 183.109C200.642 183.192 199.739 183.65 199.098 184.387C198.456 185.123 198.126 186.08 198.178 187.055L198.381 189.888C198.518 191.816 200.345 193.544 202.33 193.323C203.303 193.24 204.206 192.782 204.848 192.046C205.49 191.31 205.819 190.353 205.768 189.378L205.565 186.545C205.432 184.61 203.601 182.882 201.616 183.109Z" fill="white"/>
<path opacity="0.8" d="M213.18 192.256L209.404 192.521C207.474 192.658 205.745 194.484 205.966 196.466C206.049 197.439 206.507 198.342 207.244 198.983C207.981 199.624 208.939 199.954 209.915 199.902L213.695 199.637C215.624 199.5 217.353 197.674 217.133 195.692C217.05 194.718 216.591 193.815 215.853 193.174C215.115 192.532 214.156 192.203 213.18 192.256Z" fill="white"/>
<path opacity="0.8" d="M241.008 224.827C240.755 222.91 239.119 221.147 237.055 221.391C235.153 221.608 233.372 223.281 233.617 225.337C233.873 226.931 233.713 228.564 233.153 230.079C232.565 231.927 234.225 234.154 236.049 234.436C238.214 234.77 239.779 233.518 240.41 231.539C241.087 229.37 241.291 227.081 241.008 224.827Z" fill="white"/>
<path opacity="0.8" d="M237.855 174.927C233.105 175.26 233.616 182.637 238.373 182.301C243.131 181.965 242.612 174.591 237.855 174.927Z" fill="white"/>
<path opacity="0.8" d="M240.39 200.602C240.465 200.107 240.406 199.601 240.22 199.137C240.058 198.678 239.808 198.256 239.483 197.895C239.159 197.533 238.766 197.239 238.327 197.029C237.889 196.819 237.413 196.698 236.927 196.672C236.442 196.646 235.956 196.716 235.497 196.878C234.666 197.215 233.726 197.854 233.413 198.731C233.241 199.163 233.098 199.605 232.982 200.056C232.899 200.525 232.856 201.002 232.854 201.479C232.856 202.144 232.949 202.805 233.133 203.444C233.319 204.284 234.245 205.164 234.983 205.526C235.863 205.96 236.88 206.027 237.809 205.713C238.738 205.398 239.505 204.728 239.94 203.849L240.247 202.943C240.341 202.48 240.342 202.003 240.253 201.538C240.255 201.524 240.256 201.51 240.255 201.495C240.35 201.207 240.396 200.905 240.39 200.602Z" fill="white"/>
<path opacity="0.8" d="M277.299 189.409C276.326 189.494 275.425 189.953 274.783 190.689C274.142 191.424 273.812 192.38 273.861 193.354C273.995 195.279 275.807 197.016 277.81 196.79C277.91 196.775 278.008 196.746 278.101 196.706C278.201 196.711 278.326 196.718 278.347 196.719C278.428 196.737 278.504 196.771 278.572 196.819C278.639 196.867 278.696 196.928 278.74 196.998C278.754 197.078 278.774 197.157 278.798 197.234C278.77 197.342 278.764 197.455 278.78 197.565C278.702 197.69 278.441 198.144 278.387 198.202C277.293 199.876 278.428 202.346 280.066 203.154C282.039 204.128 283.925 203.155 285.023 201.477C288.655 195.954 283.653 188.663 277.299 189.409Z" fill="white"/>
<path opacity="0.8" d="M273.822 226.338L268.543 225.622C266.628 225.363 264.502 226.474 264.182 228.52C263.893 230.392 265.032 232.597 267.082 232.874L272.361 233.589C274.273 233.848 276.399 232.738 276.719 230.695C277.008 228.819 275.872 226.618 273.822 226.338Z" fill="white"/>
<path opacity="0.8" d="M325.205 214.952C324.233 215.038 323.331 215.498 322.69 216.234C322.049 216.971 321.718 217.926 321.767 218.901C321.766 218.93 321.765 218.951 321.763 218.972L321.753 219.161C321.712 219.225 321.675 219.291 321.642 219.359L321.614 219.411C321.526 219.514 321.394 219.7 321.364 219.734C321.323 219.767 321.267 219.807 321.206 219.861C321.067 219.917 320.924 219.965 320.78 220.006C318.93 220.584 317.792 222.921 318.52 224.724C318.864 225.636 319.548 226.38 320.428 226.8C321.308 227.22 322.316 227.284 323.243 226.979C326.946 225.827 329.283 222.175 329.156 218.362C329.089 216.445 327.14 214.729 325.205 214.952Z" fill="white"/>
<path opacity="0.8" d="M313.989 186.308C311.266 186.23 308.597 187.069 306.409 188.689C304.854 189.834 304.216 192.191 305.444 193.829C306.607 195.384 308.903 196.021 310.584 194.797C311.875 193.849 312.65 193.602 314.511 193.682C316.45 193.767 318.153 191.565 317.949 189.737C317.689 187.555 316.07 186.397 313.989 186.308Z" fill="white"/>
</g>
<defs>
<clipPath id="clip0_0_2284">
<rect width="295.586" height="110.974" fill="white" transform="translate(48.0893 153.025) rotate(3.14119)"/>
</clipPath>
</defs>
</svg>
