<svg width="110" height="59" viewBox="0 0 110 59" fill="none" xmlns="http://www.w3.org/2000/svg">
<g clip-path="url(#clip0_0_652)">
<path d="M13.993 53.4233C12.3448 53.4237 10.7419 52.8843 9.42926 51.8876C7.89836 50.7792 6.86944 49.109 6.56814 47.2431C6.47654 46.7635 6.40642 46.2193 6.35792 45.6751L6.23401 44.2527V44.1772C6.15498 41.8388 6.08499 39.5039 6.02393 37.1727C5.96466 34.845 5.93237 32.4581 5.93237 30.0819C5.93237 25.7714 6.05626 21.4232 6.29873 17.0911C6.39026 15.5802 6.6783 14.0877 7.15549 12.6513C7.59773 11.1541 8.55108 9.85945 9.84955 8.99277C10.9948 8.24673 12.2999 7.78151 13.6589 7.63495C15.4459 7.40674 17.2455 7.29156 19.047 7.2901C19.9414 7.2901 20.852 7.32245 21.7411 7.37633C24.3856 7.54729 27.019 7.86207 29.6294 8.31925C31.4431 8.61778 33.0964 9.53783 34.3062 10.9217C35.486 12.2617 36.1372 13.9857 36.1381 15.771C36.1513 16.9925 35.8448 18.1961 35.2491 19.2625C34.7079 20.2414 33.9558 21.0876 33.0472 21.7399C32.1386 22.3922 31.0962 22.8344 29.9957 23.0342C29.527 23.1247 29.0507 23.1698 28.5733 23.1689C27.8896 23.1661 27.209 23.0774 26.5474 22.9049C25.4872 22.6327 24.4056 22.4524 23.3145 22.3661C22.7002 22.3176 22.0751 22.2799 21.4447 22.2583C21.4447 23.0073 21.3963 23.7508 21.3747 24.4836L21.3423 25.5936C21.7813 25.529 22.2241 25.4948 22.6678 25.4912C22.9264 25.4912 23.2067 25.4912 23.4222 25.5289C24.3591 25.6333 25.2653 25.9257 26.0866 26.3886C26.9078 26.8515 27.6271 27.4754 28.2014 28.223C29.1787 29.4157 29.7436 30.8926 29.8115 32.433C29.8795 33.9734 29.4471 35.4944 28.5787 36.7686C28.0662 37.5786 27.3937 38.2755 26.6025 38.8166C25.8113 39.3576 24.918 39.7315 23.9772 39.9152C23.5469 39.9924 23.1104 40.0303 22.6732 40.0284C22.3131 40.0271 21.9533 40.0055 21.5956 39.9637C21.5956 40.8689 21.5956 41.7903 21.6279 42.7063V42.8087C21.6279 43.3098 21.628 43.8108 21.6819 44.3011C21.7297 45.02 21.708 45.7417 21.6171 46.4564C21.4975 48.2557 20.7186 49.9478 19.4295 51.2087C18.1148 52.4721 16.3989 53.2347 14.5802 53.364H14.5048C14.3432 53.4035 14.1726 53.4233 13.993 53.4233Z" fill="#6C58A8"/>
<path d="M19.0524 10.0004C19.8929 10.0004 20.7388 10.0004 21.5794 10.0812C24.1264 10.2446 26.6626 10.5468 29.1767 10.9864C30.3797 11.1809 31.4772 11.7887 32.2803 12.7052C33.0429 13.5585 33.4614 14.6645 33.4549 15.8088C33.4644 16.5617 33.2788 17.3042 32.916 17.9641C32.5669 18.5995 32.0833 19.1512 31.499 19.5805C30.9061 20.008 30.2249 20.2971 29.5054 20.4264C29.2018 20.4847 28.8931 20.5136 28.584 20.5126C28.1327 20.5115 27.6835 20.4518 27.2477 20.3348C26.0322 20.0195 24.7921 19.8086 23.5407 19.7044C22.3123 19.6038 21.055 19.5535 19.7691 19.5535H19.3757C19.1947 19.5563 19.0143 19.5761 18.8369 19.6128C18.7579 21.2616 18.6968 22.869 18.6537 24.4352C18.6106 26.0013 18.5514 27.6178 18.476 29.2845C19.7829 28.663 21.1966 28.2972 22.641 28.2069C22.7994 28.2073 22.9576 28.2163 23.1151 28.2338C23.6969 28.2963 24.2596 28.4783 24.7677 28.7686C25.2758 29.0588 25.7184 29.4509 26.0677 29.9203C26.6966 30.666 27.0613 31.5987 27.1051 32.5731C27.149 33.5476 26.8695 34.5092 26.3102 35.3084C26.0009 35.8177 25.5894 36.2574 25.1015 36.5996C24.6137 36.9418 24.0602 37.1791 23.476 37.2966C23.2019 37.3432 22.9244 37.3666 22.6464 37.3667C21.354 37.3132 20.0794 37.0456 18.8747 36.5746C18.8747 37.6199 18.8746 38.6652 18.8423 39.7051C18.81 40.7451 18.8423 41.7957 18.8747 42.841C18.8747 43.4068 18.8746 43.9672 18.9339 44.5275C18.9761 45.092 18.9563 45.6593 18.8747 46.2194C18.8249 47.3924 18.3297 48.5024 17.4899 49.3229C16.6233 50.1544 15.4928 50.6558 14.2948 50.74H13.9391C12.867 50.741 11.8249 50.3866 10.9756 49.7324C10.4955 49.3903 10.0886 48.9558 9.77865 48.4543C9.4687 47.9528 9.26202 47.3945 9.17065 46.8121C9.08983 46.3703 9.03051 45.9176 8.9874 45.4543C8.9443 44.9909 8.9066 44.5383 8.86888 44.0965C8.78986 41.7688 8.71974 39.4483 8.65867 37.135C8.59761 34.8217 8.56711 32.4868 8.56711 30.1304C8.56711 25.8666 8.68741 21.5867 8.92808 17.2905C9.00701 16.0182 9.24973 14.7614 9.65013 13.5512C9.91174 12.633 10.4828 11.8334 11.2666 11.2882C12.0667 10.7735 12.9766 10.4541 13.9229 10.356C15.6026 10.1408 17.2944 10.0328 18.9878 10.0327L19.0524 10.0004ZM18.9878 4.64459C17.071 4.64587 15.1561 4.76824 13.2548 5.01098C11.4898 5.20937 9.79583 5.81831 8.3085 6.78906C6.50439 8.00101 5.17253 9.79712 4.53681 11.8755C3.99138 13.5177 3.6617 15.2239 3.55613 16.9511V16.9888C3.30827 21.3693 3.18438 25.793 3.18438 30.1304C3.18438 32.5335 3.21667 34.9421 3.27594 37.2913C3.33521 39.6405 3.41071 42.0382 3.48615 44.2958V44.4413V44.5868L3.51311 44.8723L3.60467 45.95C3.65855 46.5588 3.73935 47.1731 3.84711 47.7658C4.26594 50.3077 5.67189 52.5812 7.7589 54.0915C9.53757 55.4255 11.6995 56.1493 13.9229 56.1551C14.16 56.1551 14.4025 56.1551 14.6395 56.1282H14.7095H14.7796C17.2095 55.9341 19.4957 54.8996 21.2454 53.2024C22.9892 51.5074 24.0512 49.2319 24.2304 46.8067C24.3417 45.9348 24.3669 45.0541 24.3058 44.1773C24.2735 43.7391 24.2574 43.3026 24.2574 42.868V42.6578H24.4082C25.7008 42.4177 26.9306 41.9152 28.0213 41.1812C29.1121 40.4472 30.0407 39.4974 30.75 38.3904V38.3904C31.937 36.643 32.5285 34.5591 32.4363 32.4487C32.3441 30.3382 31.5731 28.3139 30.2382 26.6767C30.0388 26.4234 29.8287 26.1863 29.6132 25.96C29.888 25.96 30.152 25.89 30.4376 25.8361C31.9227 25.5632 33.3291 24.9652 34.5559 24.0849C35.7827 23.2046 36.7996 22.0638 37.5337 20.7443C38.3557 19.2748 38.781 17.6165 38.7676 15.9327C38.7735 13.4924 37.8883 11.1338 36.2782 9.29994C34.6746 7.46608 32.4919 6.23593 30.0927 5.81381H30.0281C27.3214 5.34021 24.5909 5.01464 21.8488 4.83856C20.8951 4.77929 19.9253 4.74697 18.977 4.74697L18.9878 4.64459Z" fill="#6C58A8"/>
<path d="M61.2738 55.7671C60.318 55.7626 59.3715 55.5798 58.4827 55.2283C56.8052 54.6381 55.4083 53.4429 54.5656 51.8769C53.7428 50.3715 53.4577 48.6306 53.7573 46.9414L53.8273 46.4026L52.5665 46.4888L50.7022 46.6073C50.5882 47.632 50.2478 48.6185 49.7055 49.4953C48.7806 50.9716 47.3855 52.0933 45.7451 52.6797H45.6644C44.8345 52.9691 43.9623 53.1184 43.0834 53.1216C42.1644 53.1143 41.2533 52.9503 40.3894 52.6366C38.6965 52.0455 37.2696 50.8707 36.3645 49.3229C35.8688 48.5548 35.5249 47.6988 35.3514 46.8013V46.7258C34.7708 43.3403 34.4108 39.9206 34.2738 36.4884C34.1427 32.9139 34.5054 29.3384 35.3514 25.863C35.7595 24.2124 36.2817 22.5921 36.9141 21.0137C37.5647 19.3909 38.3486 17.8248 39.2578 16.3314C40.1609 14.8529 41.198 13.4605 42.356 12.1718C43.5453 10.8385 44.9166 9.67938 46.4294 8.72878C47.9986 7.70187 49.7543 6.99338 51.5967 6.64358C52.3883 6.50307 53.1904 6.43095 53.9944 6.42804C54.9706 6.42761 55.9434 6.54154 56.8931 6.7675C58.6233 7.18892 60.2471 7.96502 61.6617 9.04666C63.148 10.1996 64.4021 11.6239 65.3579 13.244C66.2209 14.6894 66.8996 16.237 67.3784 17.8509C67.7933 19.2626 68.1759 20.712 68.5046 22.1614V22.2476V22.3338C69.2557 26.8564 69.6592 31.43 69.7115 36.0143C69.7327 40.1741 69.5368 44.3322 69.1243 48.4716V48.5524C68.9766 49.8066 68.5473 51.0112 67.8688 52.0763C67.2439 53.0646 66.4056 53.9004 65.4154 54.5223C64.4251 55.1443 63.3082 55.5365 62.1466 55.6702C61.8578 55.7198 61.5664 55.7522 61.2738 55.7671V55.7671ZM52.8036 23.6C52.2753 24.3815 51.8224 25.2114 51.4512 26.0786C51.0414 27.0224 50.701 27.9948 50.4328 28.9881C50.1869 29.9063 50.0068 30.8408 49.894 31.7846L51.9199 31.6607L54.2584 31.526C54.2584 31.3697 54.2584 31.208 54.2314 31.0464C54.1452 30.4483 54.059 29.6616 53.9566 28.6433C53.8543 27.6249 53.7303 26.6605 53.5579 25.6206C53.4232 24.7854 53.2508 24.0041 53.0515 23.2336C52.976 23.3306 52.8036 23.6 52.8036 23.6V23.6Z" fill="#6C58A8"/>
<path d="M53.9999 9.1598C54.7655 9.15824 55.5287 9.24685 56.2737 9.42381C57.643 9.7587 58.9275 10.3753 60.0453 11.2342C61.2611 12.1757 62.2839 13.3429 63.0574 14.6718C63.8058 15.9185 64.3942 17.2545 64.8085 18.6483C65.2072 20.0169 65.5664 21.4034 65.8861 22.8079C66.6183 27.1912 67.011 31.6244 67.0607 36.0681C67.082 40.1343 66.8913 44.1989 66.4895 48.2453C66.3931 49.1034 66.1039 49.9286 65.6435 50.6592C65.228 51.3086 64.6765 51.8601 64.0271 52.2756C63.3724 52.6805 62.6365 52.9361 61.8719 53.0245C61.6808 53.0505 61.4882 53.0631 61.2954 53.0623C60.6653 53.0579 60.0416 52.9335 59.458 52.6959C58.3844 52.3388 57.4893 51.5826 56.958 50.5837C56.4178 49.598 56.2369 48.4552 56.4461 47.3509C56.5215 46.7474 56.6023 46.1385 56.6832 45.5135C56.764 44.8885 56.8448 44.2365 56.9256 43.5522C55.3576 43.633 53.8544 43.7247 52.405 43.827C50.9556 43.9294 49.4899 44.0156 48.0028 44.0964C48.0025 44.2083 47.9936 44.32 47.976 44.4305C47.9562 44.5405 47.9653 44.6538 48.0028 44.7592C48.2303 45.9068 48.0271 47.098 47.4318 48.1052C46.8179 49.0756 45.8927 49.8089 44.8077 50.185C44.2605 50.3773 43.6851 50.4774 43.1051 50.4814C42.4939 50.48 41.8879 50.3687 41.3162 50.1527C40.1913 49.7701 39.2461 48.9878 38.6599 47.9543C38.3352 47.4641 38.1101 46.9149 37.9972 46.3379C37.4374 43.0684 37.0954 39.7654 36.9733 36.4507C36.8574 33.1235 37.202 29.7963 37.9972 26.5634C38.3738 25.035 38.8581 23.5352 39.4465 22.0751C40.0428 20.5907 40.7638 19.1596 41.6018 17.797C42.4201 16.4578 43.3578 15.1954 44.4036 14.0253C45.4253 12.8823 46.6025 11.8884 47.9005 11.0726C49.1788 10.2253 50.613 9.64099 52.1194 9.35376C52.7526 9.24099 53.3945 9.18329 54.0376 9.18134L53.9999 9.1598ZM47.2971 34.6456C48.9135 34.5648 50.5299 34.4732 52.1194 34.3708C53.7089 34.2685 55.3954 34.1823 57.125 34.1014C57.0819 33.498 57.0549 32.9376 57.0333 32.4149C57.0118 31.8923 56.9795 31.3373 56.9418 30.7985C56.9041 30.2597 56.7694 29.4407 56.6724 28.417C56.5754 27.3932 56.4299 26.3264 56.2467 25.2218C56.0807 24.1741 55.8503 23.1376 55.557 22.1182C55.3715 21.3254 55.0024 20.5871 54.4794 19.963C54.36 19.8269 54.2134 19.7173 54.0492 19.6413C53.885 19.5652 53.7066 19.5243 53.5257 19.5212C53.3042 19.5252 53.086 19.5747 52.8845 19.6666C52.2595 19.9253 51.5052 20.7389 50.6215 22.1075C49.9943 23.0293 49.4532 24.0069 49.0051 25.0278C48.5418 26.0935 48.1581 27.1921 47.8573 28.3146C47.5631 29.4015 47.3523 30.5093 47.227 31.6283C47.1051 32.6319 47.1251 33.6476 47.2863 34.6456H47.2971ZM54.0268 3.79321C53.0638 3.79421 52.1027 3.88078 51.1549 4.05187C48.9604 4.46102 46.869 5.30162 45.0017 6.525C43.2875 7.60488 41.7331 8.91981 40.3841 10.4314C39.1167 11.8416 37.9822 13.3657 36.9949 14.9844C36.0026 16.6044 35.15 18.306 34.4463 20.0708C33.7655 21.7695 33.2054 23.5142 32.7706 25.2919C31.8547 29.0052 31.4594 32.8278 31.596 36.65C31.7221 40.2009 32.0821 43.7396 32.6736 47.2431V47.3185V47.394C32.9113 48.606 33.3736 49.7627 34.0368 50.8046C35.2629 52.8628 37.1684 54.4291 39.425 55.2337C40.5872 55.6572 41.8141 55.876 43.0512 55.8803C44.2293 55.8778 45.3986 55.6775 46.5103 55.2876H46.5912L46.6666 55.2606C48.5853 54.555 50.2596 53.3109 51.4889 51.6775C51.9703 53.0807 52.7598 54.3583 53.7994 55.4166C54.839 56.4748 56.1023 57.2868 57.4968 57.793C58.6981 58.2659 59.9775 58.509 61.2685 58.5097C63.0417 58.5109 64.7867 58.0646 66.3417 57.2123C67.8967 56.3599 69.2114 55.1289 70.1643 53.6334C71.0587 52.2287 71.6275 50.6418 71.8291 48.9888V48.908V48.7949C72.2507 44.5624 72.4503 40.3107 72.4272 36.0573C72.373 31.3358 71.9568 26.6253 71.1826 21.9674L71.1556 21.795L71.118 21.6171C70.7731 20.1085 70.3797 18.6052 69.9487 17.145C69.4063 15.3202 68.6388 13.57 67.6641 11.9347V11.9347C66.534 10.0193 65.0492 8.33688 63.289 6.97761C61.5764 5.67082 59.6115 4.73332 57.5183 4.22429C56.362 3.94936 55.1776 3.81011 53.9891 3.80939L54.0268 3.79321Z" fill="#6C58A8"/>
<path d="M94.4646 56.306C93.591 56.3208 92.7234 56.1595 91.9134 55.8318C91.1034 55.5041 90.3676 55.0167 89.75 54.3986C88.9625 53.5748 88.3227 52.6215 87.8587 51.5806L87.0937 51.6937C86.335 51.8006 85.5699 51.8564 84.8037 51.8608V51.8608C82.6103 51.8799 80.4469 51.3502 78.5104 50.3198C75.9135 48.8612 73.7337 46.7612 72.1794 44.2204C70.4967 41.6536 69.3765 38.7595 68.8926 35.7287C68.4487 32.6749 68.6025 29.564 69.3452 26.5689C70.0107 23.4385 71.1576 20.4303 72.7452 17.6515C74.2484 14.9823 76.2972 12.6598 78.7583 10.8355C81.2053 9.04579 84.0798 7.9309 87.0937 7.60266C87.6874 7.53304 88.2848 7.49885 88.8826 7.50029C91.7014 7.55568 94.4799 8.18068 97.0509 9.33766L97.1049 9.36459C99.7751 10.5515 102.05 12.4771 103.662 14.9144C105.289 17.4686 106.283 20.3743 106.561 23.3899C107.084 27.0042 106.839 30.6882 105.842 34.2014C104.845 37.7146 103.118 40.978 100.774 43.7786C100.762 43.8013 100.747 43.823 100.731 43.8432C101.12 44.4334 101.44 45.0661 101.685 45.7291C102.268 47.4225 102.268 49.2622 101.685 50.9556C101.224 52.4945 100.279 53.8437 98.9907 54.8027C97.7559 55.7572 96.2409 56.278 94.6802 56.2844L94.4646 56.306ZM83.8338 32.6952C83.8314 32.7185 83.8314 32.7419 83.8338 32.7652V32.8676V32.97C83.9362 33.8051 84.1895 34.8989 84.8145 35.3731C84.9644 35.5007 85.1565 35.568 85.3533 35.5617C85.6538 35.5472 85.9493 35.4798 86.2263 35.3623C87.2746 34.9813 88.2153 34.3528 88.9687 33.5303C89.8283 32.5516 90.5169 31.435 91.0055 30.2274C91.2757 29.4367 91.4652 28.6208 91.5712 27.792C91.6557 27.0156 91.6231 26.231 91.4743 25.4643V25.3889C91.4529 25.0532 91.2999 24.7396 91.0486 24.516C90.6725 24.1901 90.2172 23.9689 89.7285 23.8748C89.4203 23.8093 89.1062 23.775 88.791 23.7724C88.3788 23.7598 87.9702 23.8545 87.6055 24.0472C86.8647 24.4591 86.2373 25.0477 85.779 25.7607C85.1834 26.6861 84.7259 27.6935 84.4212 28.7511C84.1056 29.7897 83.9014 30.859 83.8123 31.9408L83.8338 32.6952Z" fill="#6C58A8"/>
<path d="M88.8611 10.2159C91.3153 10.2663 93.7334 10.8163 95.968 11.8323C98.1767 12.8097 100.06 14.399 101.394 16.4122C102.784 18.6137 103.63 21.1145 103.862 23.7077C104.347 26.978 104.13 30.314 103.226 33.494C102.322 36.674 100.752 39.6252 98.619 42.1513C98.419 42.4302 98.1856 42.6835 97.9239 42.9057L97.051 43.66C97.9646 44.4925 98.676 45.5227 99.1309 46.6719C99.5138 47.808 99.5023 49.04 99.0985 50.1688C98.812 51.1652 98.211 52.0422 97.3851 52.6689C96.6018 53.2798 95.6359 53.61 94.6425 53.6065H94.4647C93.9454 53.6218 93.4286 53.5307 92.9458 53.3389C92.4631 53.1471 92.0246 52.8586 91.6575 52.4911C90.8708 51.7045 90.1812 50.4113 89.5777 48.6009C89.1359 48.6835 88.6725 48.7536 88.1876 48.811C87.708 48.8703 87.2069 48.9457 86.6843 49.0212C86.0615 49.112 85.4331 49.1588 84.8038 49.1613C83.054 49.1794 81.3275 48.7589 79.782 47.9381C77.5875 46.6982 75.7502 44.9128 74.4478 42.7548C72.9653 40.5064 71.9789 37.9679 71.5543 35.3084C71.1567 32.5844 71.2995 29.8088 71.9746 27.14C72.5756 24.2716 73.6229 21.5153 75.0782 18.9716C76.3874 16.6372 78.1737 14.6048 80.3208 13.0069C82.3951 11.5063 84.8275 10.5773 87.3739 10.3129C87.8678 10.2588 88.3643 10.2318 88.8611 10.232V10.2159ZM85.3858 38.2503C86.016 38.2369 86.6385 38.1091 87.2231 37.8731C88.6631 37.3395 89.9557 36.4716 90.9948 35.3407C92.0817 34.1124 92.9476 32.705 93.5541 31.1811C93.9049 30.1845 94.147 29.153 94.2762 28.1044C94.3968 27.061 94.3569 26.0053 94.1576 24.9739C94.0366 24.0049 93.5652 23.1137 92.8322 22.4685C92.1081 21.8464 91.2358 21.4215 90.2997 21.2346C89.8107 21.1304 89.3124 21.0763 88.8125 21.0729C87.9437 21.0598 87.0863 21.2714 86.3233 21.6872C85.1988 22.309 84.2454 23.1994 83.5483 24.2789C82.8065 25.4247 82.2383 26.6739 81.8619 27.9859C81.4776 29.2408 81.2353 30.5349 81.1398 31.8438V32.6897C81.1385 32.8924 81.1584 33.0947 81.1992 33.2932C81.4363 35.2581 82.108 36.6644 83.2143 37.5121C83.8304 37.9915 84.589 38.2513 85.3696 38.2503H85.3858ZM88.8449 4.84391C88.1445 4.84249 87.4447 4.88209 86.749 4.96246C83.2791 5.33221 79.9667 6.60475 77.1419 8.65332C74.3844 10.6973 72.0878 13.2987 70.4013 16.2883C68.6792 19.2985 67.434 22.5575 66.7104 25.9492C65.8859 29.283 65.7176 32.7454 66.2148 36.1436C66.7621 39.5464 68.0197 42.7958 69.9057 45.6805C71.707 48.6034 74.2282 51.0152 77.2281 52.6851C79.5494 53.9208 82.1417 54.5597 84.7714 54.544C85.3103 54.544 85.8492 54.517 86.3556 54.4739C86.7768 55.1293 87.2643 55.7396 87.8104 56.2951C88.6772 57.1652 89.7101 57.8521 90.8477 58.3149C91.9853 58.7777 93.2044 59.007 94.4324 58.9892H94.6965C96.8394 58.9737 98.9193 58.2627 100.623 56.9633C102.352 55.6538 103.62 53.8293 104.244 51.7529C105.002 49.5001 104.981 47.058 104.185 44.8184C104.099 44.5814 104.002 44.3443 103.899 44.1072C105.87 41.4167 107.368 38.4102 108.328 35.2168C109.455 31.2723 109.754 27.1375 109.207 23.072C108.879 19.6421 107.74 16.3396 105.882 13.438C103.993 10.5794 101.328 8.31946 98.1987 6.92372H98.1394H98.0802C95.1772 5.61808 92.0384 4.91774 88.8557 4.86545L88.8449 4.84391ZM86.5118 32.0647C86.5918 31.2039 86.7598 30.3535 87.013 29.5269C87.2449 28.7218 87.5915 27.9542 88.0421 27.2478C88.2378 26.9377 88.5012 26.6762 88.8125 26.4826H88.915C88.9501 26.814 88.9501 27.1481 88.915 27.4794C88.8352 28.0931 88.6963 28.6975 88.5001 29.2844C88.135 30.1756 87.6253 31.0003 86.9914 31.7253C86.8463 31.8911 86.6857 32.0426 86.5118 32.1779V32.0593V32.0647Z" fill="#6C58A8"/>
<path d="M10.7601 49.6516C9.11196 49.6521 7.50903 49.1127 6.19639 48.116C4.66429 47.0063 3.63522 45.3339 3.33526 43.466C3.24367 42.9919 3.17355 42.4477 3.12505 41.9035L3.00114 40.481V40.4056C2.92211 38.0671 2.85212 35.7323 2.79106 33.401C2.73179 31.0733 2.6995 28.6864 2.6995 26.3048C2.6995 22.0213 2.82339 17.6515 3.06586 13.3194C3.15738 11.8086 3.44543 10.3161 3.92262 8.87963C4.3661 7.38305 5.31917 6.08879 6.61668 5.2211C7.76512 4.47653 9.07116 4.00978 10.4314 3.85789C12.2187 3.63414 14.0182 3.52078 15.8195 3.51843C16.7139 3.51843 17.6245 3.55078 18.5136 3.60466C21.1578 3.77615 23.7911 4.0891 26.4019 4.54219C28.2153 4.84515 29.8678 5.76664 31.0787 7.15006C32.2585 8.49008 32.9097 10.214 32.9106 11.9994C32.9238 13.2208 32.6174 14.4245 32.0217 15.4909C31.4804 16.4697 30.7282 17.3159 29.8196 17.9682C28.911 18.6206 27.8687 19.0627 26.7682 19.2626C26.2995 19.353 25.8232 19.3981 25.3458 19.3973C24.6617 19.3952 23.9807 19.3047 23.3199 19.1279C22.2592 18.8581 21.1778 18.6779 20.087 18.589C19.4728 18.5406 18.8476 18.5028 18.2172 18.4759C18.2172 19.2302 18.1688 19.9738 18.1472 20.7012L18.1149 21.8165C18.5538 21.7519 18.9967 21.7177 19.4403 21.7142C19.6936 21.7142 19.9469 21.7142 20.1947 21.7519C21.1317 21.8562 22.0378 22.1486 22.8591 22.6115C23.6803 23.0745 24.3996 23.6984 24.9739 24.4459C25.9512 25.6386 26.5161 27.1156 26.5841 28.656C26.6521 30.1964 26.2195 31.7174 25.3511 32.9915C24.8386 33.8015 24.1662 34.4984 23.375 35.0395C22.5838 35.5806 21.6905 35.9544 20.7497 36.1382C20.3194 36.2151 19.8829 36.253 19.4457 36.2513C19.0856 36.2501 18.7258 36.2285 18.3681 36.1867C18.3681 37.0919 18.3681 38.0132 18.4005 38.9292V39.0316C18.4005 39.5327 18.4005 40.0338 18.4544 40.5241C18.5023 41.2429 18.4805 41.9647 18.3897 42.6794C18.2701 44.4787 17.4911 46.1707 16.2021 47.4317C14.8897 48.6985 13.1725 49.4617 11.3527 49.5869H11.2828C11.1139 49.63 10.9397 49.6516 10.7601 49.6516Z" fill="white"/>
<path d="M15.8195 6.2287C16.6601 6.2287 17.506 6.22871 18.3465 6.30953C20.8935 6.47291 23.4297 6.77509 25.9438 7.21473C27.1464 7.41045 28.2435 8.01806 29.0474 8.93355C29.81 9.78678 30.2285 10.8928 30.222 12.0371C30.2338 12.7903 30.048 13.5334 29.6832 14.1924C29.3341 14.8279 28.847 15.3771 28.2577 15.7995C27.6684 16.2219 26.9919 16.5068 26.278 16.6332C25.9743 16.6912 25.6656 16.7201 25.3565 16.7194C24.9052 16.7183 24.4561 16.6585 24.0202 16.5416C22.8053 16.2236 21.565 16.0127 20.3133 15.9111C19.0848 15.8106 17.8275 15.7603 16.5416 15.7603H16.1482C15.9672 15.763 15.7868 15.7829 15.6094 15.8196C15.5304 17.4683 15.4693 19.0758 15.4262 20.6419C15.3831 22.2081 15.3238 23.8245 15.2483 25.4913C16.5553 24.8697 17.9691 24.504 19.4135 24.4136C19.5719 24.4141 19.7301 24.4231 19.8876 24.4406C20.4694 24.503 21.0321 24.6851 21.5402 24.9753C22.0483 25.2655 22.4909 25.6576 22.8403 26.127C23.4657 26.8744 23.8283 27.8066 23.8721 28.7801C23.9159 29.7537 23.6385 30.7147 23.0827 31.5152C22.7734 32.0245 22.3619 32.4641 21.8741 32.8063C21.3862 33.1485 20.8327 33.3859 20.2485 33.5034C19.9744 33.55 19.6969 33.5734 19.4189 33.5734C18.1264 33.521 16.8516 33.2533 15.6472 32.7814C15.6472 33.8267 15.6472 34.8666 15.6148 35.9119C15.5825 36.9572 15.6149 38.0025 15.6472 39.0478C15.6472 39.6135 15.6471 40.1739 15.7064 40.7343C15.7486 41.2987 15.7288 41.866 15.6472 42.4261C15.5975 43.5992 15.1022 44.7091 14.2624 45.5297C13.3958 46.3612 12.2653 46.8626 11.0673 46.9468H10.7116C9.63954 46.9477 8.5974 46.5934 7.74811 45.9392C7.26722 45.5967 6.85972 45.1613 6.54972 44.6588C6.23972 44.1564 6.03356 43.5969 5.94316 43.0135C5.86234 42.5716 5.80302 42.1244 5.75992 41.661C5.71681 41.1977 5.67911 40.745 5.6414 40.3032C5.56237 37.9755 5.49225 35.6551 5.43119 33.3418C5.37012 31.0285 5.33963 28.6936 5.33963 26.3372C5.33963 22.0806 5.45992 17.8024 5.70059 13.5027C5.77953 12.2304 6.02225 10.9735 6.42265 9.76331C6.68426 8.84508 7.25534 8.04556 8.03909 7.50029C8.83921 6.9856 9.74911 6.6663 10.6954 6.56815C12.3751 6.35294 14.0669 6.24498 15.7603 6.24488L15.8195 6.2287ZM15.7603 0.85675C13.8435 0.858023 11.9286 0.980394 10.0273 1.22314C8.2623 1.42152 6.56834 2.03047 5.08101 3.00121C3.2769 4.21316 1.94504 6.00927 1.30932 8.08761C0.763897 9.72984 0.434219 11.436 0.328643 13.1632V13.2009C0.0807893 17.5815 -0.0431061 22.0051 -0.0431061 26.3372C-0.0431061 28.7403 -0.0108194 31.1542 0.04845 33.5034C0.107719 35.8526 0.183227 38.2503 0.258661 40.508V40.6535V40.7989L0.285628 41.0845L0.377184 42.1621C0.431065 42.771 0.511861 43.3852 0.619623 43.9779C1.03846 46.5198 2.44441 48.7933 4.53141 50.3036C6.31009 51.6376 8.47205 52.3614 10.6954 52.3672C10.9325 52.3672 11.175 52.3672 11.4121 52.3403H11.5522C13.982 52.1463 16.2683 51.1117 18.0179 49.4146C19.7609 47.7189 20.8227 45.4438 21.003 43.0188C21.1115 42.1468 21.1367 41.2663 21.0783 40.3894C21.046 39.9512 21.0299 39.5147 21.0299 39.0801V38.87H21.1753C22.4689 38.6306 23.6996 38.1283 24.7914 37.3943C25.8831 36.6603 26.8126 35.7101 27.5225 34.6026V34.6026C28.7096 32.8551 29.301 30.7713 29.2088 28.6608C29.1166 26.5504 28.3456 24.526 27.0107 22.8888C26.8059 22.6355 26.6012 22.3985 26.3857 22.1722C26.6605 22.1722 26.9245 22.1021 27.2101 22.0482C28.6952 21.7754 30.1016 21.1774 31.3284 20.2971C32.5552 19.4168 33.5721 18.276 34.3062 16.9564C35.1282 15.4869 35.5535 13.8286 35.5401 12.1449C35.546 9.7045 34.6608 7.34594 33.0507 5.51207C31.4463 3.67923 29.264 2.44933 26.8652 2.02596H26.8006C24.0939 1.55269 21.3634 1.22712 18.6213 1.05072C17.6676 0.991446 16.6978 0.959093 15.7495 0.959093L15.7603 0.85675Z" fill="#46248A"/>
<path d="M58.0409 51.9954C57.0852 51.9909 56.1387 51.8081 55.2499 51.4566C53.5723 50.8664 52.1754 49.6712 51.3327 48.1052C50.5099 46.5998 50.2248 44.8589 50.5245 43.1697L50.5945 42.6309L49.3336 42.7117L47.4693 42.8356C47.3529 43.8581 47.0126 44.8423 46.4726 45.7182C45.5496 47.1962 44.1539 48.3185 42.5123 48.9026L42.4315 48.935C40.7168 49.5402 38.8437 49.523 37.1403 48.8865C35.4484 48.2967 34.0216 47.124 33.1154 45.5782C32.6198 44.8101 32.2759 43.954 32.1024 43.0565V42.9811C31.519 39.5959 31.1591 36.1761 31.0248 32.7437C30.894 29.1709 31.2566 25.5973 32.1024 22.1236C32.5097 20.4728 33.0319 18.8524 33.665 17.2743C34.3157 15.6515 35.0995 14.0854 36.0088 12.592C36.9119 11.1135 37.949 9.72111 39.107 8.43243C40.2948 7.09757 41.6663 5.9383 43.1804 4.9894C44.7486 3.96074 46.5047 3.2521 48.3477 2.9042C49.1371 2.76126 49.9377 2.68912 50.74 2.68866C51.718 2.68791 52.6926 2.80185 53.6441 3.02812C55.3743 3.44954 56.9981 4.22564 58.4127 5.30729C59.8989 6.46023 61.1532 7.88452 62.109 9.50466C62.972 10.95 63.6508 12.4976 64.1295 14.1115C64.5444 15.5178 64.9215 16.9726 65.2556 18.422V18.5082V18.5944C66.0064 23.1153 66.4099 27.687 66.4625 32.2695C66.4837 36.4311 66.2877 40.591 65.8753 44.7322V44.813C65.7275 46.0672 65.2983 47.2718 64.6198 48.3369C63.9958 49.3256 63.1576 50.1613 62.1671 50.7824C61.1767 51.4036 60.0593 51.7942 58.8975 51.9254C58.6136 51.9652 58.3276 51.9886 58.0409 51.9954V51.9954ZM49.5708 19.8283C49.0424 20.6097 48.5896 21.4397 48.2184 22.3069C47.8086 23.2506 47.4681 24.2231 47.1999 25.2164C46.954 26.1346 46.774 27.0691 46.6611 28.0129L48.6871 27.8889L51.0256 27.7542C51.0256 27.598 51.0255 27.4363 50.9986 27.2747C50.9124 26.6766 50.8208 25.8899 50.7238 24.8716C50.6268 23.8532 50.4921 22.8888 50.3251 21.8488C50.185 21.0137 50.018 20.2324 49.8132 19.4619L49.5708 19.8283Z" fill="white"/>
<path d="M50.74 5.38815C51.5075 5.38627 52.2725 5.47488 53.0192 5.65216C54.3885 5.98705 55.6731 6.60362 56.7909 7.46257C58.0066 8.40192 59.0294 9.56736 59.8029 10.8948C60.5505 12.1438 61.1388 13.4815 61.554 14.8766C61.9528 16.2398 62.3138 17.63 62.6317 19.0363C63.3639 23.4195 63.7565 27.8528 63.8062 32.2965C63.8276 36.3627 63.6369 40.4272 63.2351 44.4736C63.1397 45.3303 62.8505 46.154 62.3892 46.8821C61.9819 47.5388 61.4308 48.0943 60.7774 48.5069C60.124 48.9194 59.3855 49.1782 58.6175 49.2637C58.4283 49.2898 58.2374 49.3024 58.0464 49.3014C57.4162 49.297 56.7926 49.1727 56.2089 48.935C55.1354 48.5779 54.2403 47.8217 53.7089 46.8229C53.1687 45.8371 52.9878 44.6944 53.197 43.59C53.2725 42.9865 53.3533 42.3776 53.4341 41.7526C53.5149 41.1276 53.5957 40.4756 53.6765 39.7913C52.1104 39.8704 50.6036 39.962 49.1559 40.0661C47.7119 40.1631 46.2409 40.2547 44.7538 40.3355C44.7537 40.4456 44.7448 40.5556 44.7269 40.6642C44.7069 40.776 44.7161 40.8911 44.7538 40.9983C44.9813 42.1459 44.778 43.3371 44.1827 44.3443C43.5688 45.3147 42.6436 46.048 41.5586 46.4241C40.4264 46.8303 39.1863 46.8188 38.0617 46.3918C36.9389 46.008 35.9958 45.2259 35.4108 44.1935C35.0872 43.7027 34.8621 43.1537 34.7481 42.577C34.1887 39.3075 33.8466 36.0045 33.7243 32.6898C33.6083 29.3626 33.9529 26.0354 34.7481 22.8026C35.1248 21.2742 35.6091 19.7743 36.1975 18.3143C36.7937 16.8299 37.5147 15.3987 38.3527 14.0361C39.171 12.6969 40.1088 11.4346 41.1545 10.2644C42.1749 9.11998 43.3522 8.12588 44.6514 7.31172C45.9297 6.46442 47.3639 5.88012 48.8704 5.5929C49.5018 5.48038 50.1418 5.42269 50.7832 5.42048L50.74 5.38815ZM44.048 30.8848C45.6645 30.804 47.2809 30.7124 48.8704 30.61C50.4599 30.5076 52.1464 30.4214 53.876 30.3406C53.8328 29.7371 53.8058 29.1767 53.7843 28.6541C53.7627 28.1314 53.7304 27.5765 53.6927 27.0376C53.655 26.4988 53.5203 25.6798 53.4233 24.6561C53.3263 23.6324 53.1808 22.5655 52.9976 21.4609C52.8316 20.4133 52.6012 19.3768 52.3079 18.3574C52.1202 17.5653 51.7513 16.8276 51.2303 16.2021C51.1101 16.0657 50.9627 15.9559 50.7975 15.8798C50.6323 15.8037 50.453 15.763 50.2712 15.7603C50.0522 15.7657 49.8364 15.8132 49.6354 15.9004C49.0104 16.1662 48.2561 16.9816 47.3724 18.3466C46.7452 19.2684 46.2041 20.246 45.756 21.2669C45.2927 22.3327 44.9092 23.4313 44.6084 24.5537C44.3141 25.6406 44.1033 26.7484 43.9779 27.8674C43.856 28.871 43.876 29.8868 44.0372 30.8848H44.048ZM50.7724 0.0323486C49.8111 0.0335807 48.8518 0.12012 47.9059 0.290968C45.7114 0.700124 43.6199 1.54076 41.7527 2.76413C40.0378 3.84532 38.4818 5.16008 37.1296 6.67053C35.8657 8.0822 34.7331 9.60617 33.7459 11.2235C32.7535 12.8436 31.9009 14.5452 31.1973 16.3099C30.5156 18.0083 29.9557 19.7531 29.5216 21.531C28.6057 25.2443 28.2103 29.0669 28.3469 32.8891C28.473 36.44 28.833 39.9787 29.4246 43.4822V43.5577V43.6331C29.6622 44.8451 30.1246 46.0019 30.7878 47.0438C32.0153 49.1008 33.9202 50.6666 36.1759 51.4728C37.3382 51.8963 38.5651 52.1151 39.8021 52.1194C40.9802 52.1169 42.1496 51.9166 43.2614 51.5267H43.3421L43.4175 51.4998C45.3352 50.7923 47.0092 49.5485 48.24 47.9166C48.7213 49.3198 49.5107 50.5975 50.5503 51.6557C51.5899 52.714 52.8533 53.5259 54.2477 54.0322C55.449 54.505 56.7284 54.7481 58.0194 54.7488C58.4318 54.748 58.8438 54.7228 59.2533 54.6733C60.8069 54.4928 62.3008 53.9683 63.6261 53.1378C64.9515 52.3073 66.0751 51.1919 66.9152 49.8725C67.8086 48.4674 68.3775 46.8807 68.5802 45.228V45.1471V45.0663C69.0017 40.8338 69.2013 36.5822 69.1782 32.3288C69.1239 27.6072 68.7078 22.8968 67.9335 18.2388L67.9067 18.061L67.8689 17.8886C67.5241 16.3799 67.1308 14.8767 66.6997 13.4165C66.1573 11.5916 65.3898 9.84139 64.415 8.20613V8.20613C63.285 6.29071 61.8001 4.60831 60.0399 3.24905C58.3267 1.9401 56.3596 1.00241 54.2639 0.49572C53.1077 0.220206 51.9232 0.0809859 50.7346 0.0808563L50.7724 0.0323486Z" fill="#46248A"/>
<path d="M91.2318 52.5342C90.3581 52.549 89.4906 52.3878 88.6806 52.0601C87.8706 51.7324 87.1347 51.245 86.5172 50.6268C85.7296 49.8031 85.0899 48.8498 84.6259 47.8088L83.8555 47.922C83.0986 48.0291 82.3353 48.0849 81.5709 48.089C79.3778 48.1055 77.215 47.5759 75.2776 46.548C72.6806 45.0894 70.5009 42.9895 68.9465 40.4487C67.2639 37.8818 66.1437 34.9878 65.6597 31.957C65.213 28.9033 65.3668 25.7919 66.1124 22.7972C66.7769 19.6665 67.9239 16.6582 69.5123 13.8798C71.0141 11.2095 73.0632 8.88676 75.5254 7.06381C77.9713 5.27205 80.8464 4.15693 83.8608 3.83093C84.4546 3.76131 85.0519 3.72712 85.6497 3.72856C88.4669 3.78334 91.2437 4.40838 93.8127 5.56593L93.872 5.59286C96.5413 6.78127 98.816 8.70654 100.429 11.1426C102.053 13.6964 103.047 16.5996 103.328 19.6128C103.852 23.2279 103.607 26.9129 102.61 30.427C101.613 33.9411 99.8857 37.2055 97.5414 40.0068C97.5302 40.0287 97.5156 40.0487 97.4982 40.0661C97.8863 40.6578 98.2045 41.2924 98.4465 41.9573C99.0324 43.6502 99.0324 45.4909 98.4465 47.1838C97.9846 48.7221 97.04 50.0709 95.7525 51.031C94.5177 51.9854 93.0027 52.5062 91.442 52.5127L91.2318 52.5342ZM80.5956 28.9235C80.5934 28.9467 80.5934 28.9702 80.5956 28.9935V29.0959V29.1983C80.698 30.028 80.9513 31.1272 81.5763 31.6014C81.7262 31.729 81.9183 31.7962 82.1151 31.7899C82.4155 31.7755 82.7111 31.708 82.988 31.5906C84.0363 31.2096 84.9771 30.5811 85.7305 29.7586C86.589 28.7801 87.2759 27.6633 87.7618 26.4557C88.0358 25.6658 88.2272 24.8496 88.333 24.0203C88.4175 23.2439 88.3849 22.4592 88.2361 21.6926V21.6172C88.2147 21.2815 88.0617 20.9678 87.8104 20.7443C87.4343 20.4184 86.979 20.1972 86.4903 20.1031C86.1804 20.0357 85.8645 19.9995 85.5474 19.9953C85.1364 19.9851 84.7298 20.0816 84.3673 20.2755C83.6265 20.6873 82.9991 21.2759 82.5408 21.9889C81.9452 22.9144 81.4877 23.9218 81.183 24.9793C80.8683 26.0185 80.6625 27.0874 80.5688 28.1691L80.5956 28.9235Z" fill="white"/>
<path d="M85.6282 6.44422C88.0824 6.49462 90.5005 7.04463 92.7351 8.06066C94.9433 9.0366 96.8247 10.6263 98.1556 12.6406C99.5499 14.8404 100.398 17.3418 100.629 19.9361C101.11 23.2063 100.892 26.5414 99.9882 29.7209C99.0844 32.9004 97.5158 35.8517 95.3861 38.3796C95.1861 38.6585 94.9527 38.9119 94.6911 39.134L93.8181 39.8883C94.7317 40.7208 95.4432 41.751 95.898 42.9003C96.2809 44.0364 96.2695 45.2684 95.8656 46.3972C95.5791 47.3935 94.9781 48.2705 94.1522 48.8973C93.3672 49.5089 92.3994 49.8391 91.4042 49.8348H91.2318C90.7126 49.8501 90.1957 49.7591 89.713 49.5673C89.2302 49.3755 88.7917 49.0869 88.4246 48.7194C87.6379 47.9328 86.9483 46.6396 86.3449 44.8292C85.903 44.9119 85.4396 44.9819 84.9547 45.0394C84.4751 45.0987 83.974 45.1741 83.4514 45.2495C82.8286 45.3403 82.2002 45.3871 81.5709 45.3896C79.8211 45.4078 78.0946 44.9872 76.5491 44.1665C74.3546 42.9265 72.5173 41.1412 71.2149 38.9831C69.7324 36.7347 68.746 34.1962 68.3215 31.5367C67.9238 28.8127 68.0666 26.0371 68.7417 23.3683C69.3427 20.5 70.39 17.7437 71.8453 15.1999C73.1531 12.8645 74.9396 10.8319 77.088 9.23527C79.1619 7.734 81.5944 6.80488 84.1411 6.5412C84.6349 6.48713 85.1314 6.46014 85.6282 6.46037V6.44422ZM82.1529 34.4786C82.7831 34.4652 83.4056 34.3374 83.9902 34.1015C85.4302 33.5678 86.7229 32.6999 87.7619 31.5691C88.8488 30.3407 89.7147 28.9333 90.3212 27.4094C90.672 26.4129 90.9141 25.3813 91.0433 24.3328C91.1639 23.2894 91.124 22.2336 90.9248 21.2023C90.8038 20.2333 90.3323 19.3421 89.5993 18.6968C88.8752 18.0748 88.0029 17.6498 87.0668 17.4629C86.5762 17.3568 86.0761 17.3008 85.5743 17.2959C84.7068 17.2853 83.8513 17.4988 83.0904 17.9155C81.9659 18.5374 81.0125 19.4277 80.3154 20.5072C79.5726 21.6525 79.0043 22.9018 78.629 24.2143C78.2457 25.4696 78.0017 26.7634 77.9016 28.0721V28.9181C77.9018 29.1192 77.9235 29.3197 77.9663 29.5162C78.2034 31.4882 78.8751 32.8963 79.9814 33.7405C80.5975 34.2198 81.3561 34.4796 82.1367 34.4786H82.1529ZM85.612 1.07224C84.9116 1.07082 84.2118 1.11042 83.5161 1.1908C80.0459 1.55906 76.7331 2.83175 73.909 4.88165C71.1515 6.92566 68.8549 9.52699 67.1685 12.5166C65.4454 15.5264 64.2002 18.7856 63.4775 22.1775C62.653 25.5095 62.4847 28.9702 62.9819 32.3665C63.5267 35.7716 64.7845 39.0233 66.6728 41.9088C68.4741 44.8317 70.9953 47.2435 73.9952 48.9134C76.3165 50.1492 78.9088 50.788 81.5386 50.7723C82.0774 50.7723 82.6163 50.7454 83.1228 50.7023C83.5439 51.3576 84.0314 51.9679 84.5775 52.5235C85.4443 53.3935 86.4772 54.0804 87.6148 54.5432C88.7524 55.006 89.9715 55.2353 91.1996 55.2175H91.4636C93.6065 55.202 95.6865 54.491 97.3905 53.1916C99.1188 51.8821 100.387 50.0577 101.011 47.9813C101.769 45.7285 101.748 43.2863 100.952 41.0468C100.866 40.8097 100.769 40.5726 100.666 40.3355C102.637 37.645 104.135 34.6386 105.095 31.4451C106.222 27.5007 106.521 23.3658 105.974 19.3003C105.647 15.8705 104.507 12.568 102.649 9.66631C100.761 6.80776 98.0949 4.54779 94.9659 3.15205H94.9065H94.8473C91.9431 1.85056 88.8049 1.15217 85.6228 1.09918L85.612 1.07224ZM83.2735 28.2931C83.3582 27.4325 83.5279 26.5824 83.7801 25.7553C84.012 24.9501 84.3586 24.1825 84.8092 23.4761C85.0049 23.1661 85.2683 22.9045 85.5796 22.711H85.6821C85.72 23.0422 85.72 23.3766 85.6821 23.7078C85.6069 24.3217 85.4697 24.9265 85.2726 25.5128C84.9076 26.4039 84.3978 27.2286 83.7639 27.9536C83.6182 28.1207 83.4556 28.2724 83.2789 28.4062V28.2877L83.2735 28.2931Z" fill="#46248A"/>
</g>
<defs>
<clipPath id="clip0_0_652">
<rect width="109.465" height="59" fill="white"/>
</clipPath>
</defs>
</svg>
