<svg width="335" height="52" viewBox="0 0 335 52" fill="none" xmlns="http://www.w3.org/2000/svg">
<path d="M5.33993 14.871L331.508 11.2613C332.629 11.2257 333.05 25.5863 333.766 26.9248C334.16 27.6368 334.266 28.7689 334.238 30.1786L334.14 43.7489C334.14 43.7489 333.88 45.7496 333.353 46.2693C332.652 46.9813 331.692 48.2557 329.835 48.3056L7.38601 50.4913C3.2348 50.6124 3.2702 45.5075 3.1915 39.6408L3.0853 31.7164C3.03653 30.6603 3.0763 29.597 3.20332 28.5624C3.5299 27.0886 4.00604 14.9138 5.33993 14.871Z" fill="#6C58A8"/>
<path d="M5.33575 16.3449L14.8383 16.2453L40.446 15.9605L78.043 15.5404L123.687 15.0349L173.116 14.4867L221.97 13.9455L266.315 13.4543L302.158 13.0627L325.086 12.8064L330.492 12.7423C330.806 12.6498 331.126 12.6498 331.44 12.7423C331.594 12.8847 331.09 12.2795 331.33 12.6996C331.373 12.7708 331.696 15.9961 331.779 16.8291C332.109 20.0686 332.172 23.6499 332.79 26.7968C333.054 28.0784 333.384 28.9327 333.404 30.435C333.404 31.6098 333.404 32.7988 333.376 33.9949C333.376 36.9852 333.62 40.4953 333.309 43.4357C333.026 46.0843 331.011 46.839 329.524 46.9315C328.159 47.017 326.77 46.9315 325.424 46.9315L304.392 47.074L270.006 47.3089L226.42 47.6008L177.629 47.9355L128.082 48.2701L82.1903 48.5762L43.9715 48.8396L17.5572 49.0176C14.1694 49.0176 10.7618 49.2526 7.37395 49.0817C5.03668 48.9678 4.22612 47.0027 4.04118 42.9587C3.91921 40.0111 3.94282 37.0137 3.90348 34.059C3.89018 31.3874 4.00737 28.719 4.25368 26.0848C4.36385 24.789 4.67468 16.644 5.50886 16.3378C6.53978 15.9534 6.12269 13.1054 5.11538 13.4899C3.73426 13.9954 3.43128 17.7618 3.19913 19.7767C2.845 22.8951 2.52237 26.1845 2.29022 29.3101C2.05806 32.4357 2.31379 35.7179 2.35314 38.8292C2.39249 41.9406 2.27052 45.3296 3.04961 48.0849C4.2025 52.2287 6.7326 52.0079 8.92429 51.9937L25.8675 51.8798L57.9008 51.6662L100.554 51.3743L149.346 51.0468L199.857 50.705L247.598 50.3775L288.106 50.107L316.917 49.9147C321.135 49.9147 325.357 50.0144 329.571 49.8293C331.145 49.7581 333.298 49.0319 334.293 46.5756C335.08 44.6675 334.911 42.3037 334.927 40.0681C334.95 36.8926 335.013 33.703 334.997 30.5204C334.997 27.8078 334.21 25.7359 333.959 23.0945C333.608 19.6058 333.498 15.8964 332.861 12.5287C332.542 10.8342 332.121 9.92289 331.181 9.79474C326.97 9.21091 322.587 9.88726 318.373 9.9371L289.598 10.2575L249.215 10.706L201.604 11.2329L151.108 11.7883L102.281 12.3294L59.093 12.8064L26.1075 13.1766L7.68875 13.376H5.30035C4.29304 13.4116 4.28516 16.3591 5.33575 16.3449Z" fill="#6C58A8"/>
<path d="M10.0969 28.5484L5.7686 28.4844C1.61738 28.4132 2.73093 23.6002 2.77028 17.7335L2.84113 11.824C2.84113 10.6778 2.71128 7.92239 3.43135 6.84019C4.7495 4.83952 5.62697 5.41624 6.97267 5.4732L330.768 6.51979C331.889 6.51979 332.794 6.81882 333.337 7.98646C333.792 8.95101 334.024 10.1949 333.986 11.4609L333.664 23.4791C333.593 25.7503 332.341 27.5445 330.811 27.5659L324.586 27.7937" fill="#6C58A8"/>
<path d="M10.097 27.0746C8.66078 27.0746 7.21277 27.1316 5.7687 27.0106C4.2656 26.8824 3.44717 26.2986 3.40782 23.4507C3.37241 21.5283 3.54162 19.5704 3.5731 17.6409C3.61245 15.2059 3.13633 9.04733 4.36006 7.40978C5.08406 6.44149 6.20939 6.92567 7.04357 6.95415C8.22401 6.98975 9.44775 6.95415 10.6479 6.95415L31.7266 7.02533L67.2028 7.13923L112.484 7.28163L162.937 7.44537L214.089 7.60916L260.941 7.76577L299.029 7.88684L323.72 7.96515H329.591C329.937 7.96515 330.303 7.90819 330.653 7.96515H330.713C331.362 8.0933 332.373 8.43505 332.853 9.3891C333.333 10.3432 333.093 11.1192 333.105 12.0376C333.152 15.2772 332.932 18.5879 332.845 21.8274C332.782 24.2552 332.365 25.7219 330.768 26.0992C330.231 26.1716 329.692 26.1906 329.154 26.1562L324.543 26.3271C323.492 26.3271 323.484 29.3103 324.543 29.2747C327.148 29.1821 332.53 30.8268 334.073 25.8145C334.777 23.5219 334.533 19.9762 334.6 17.4843C334.671 14.8215 335.072 11.3186 334.49 8.76969C333.522 4.49781 330.834 5.05313 328.725 5.04601L309.48 4.98195L274.193 4.86801L227.959 4.71852L175.717 4.55474L122.805 4.38387L74.5766 4.22726L35.8502 4.0991L12.0604 4.02788C10.4865 4.02788 8.88507 4.02788 7.29934 4.02788C5.71362 4.02788 4.04526 3.55088 2.82154 5.82921C1.59781 8.10754 1.9952 12.237 1.95979 15.1419C1.92044 18.4384 1.48372 22.162 1.84965 25.4015C2.55792 31.6171 7.5118 30.0151 10.0812 30.0507C11.1318 30.0507 11.1397 27.1174 10.0812 27.1032L10.097 27.0746Z" fill="#6C58A8"/>
<path opacity="0.43" d="M8.645 26.2487L8.58596 26.1134C8.32202 25.7734 8.09072 25.3573 7.90131 24.8817C7.80294 24.6895 7.71241 24.4901 7.62585 24.2907C7.61907 24.2555 7.60983 24.222 7.59832 24.1911C7.59832 24.0558 7.59832 23.9134 7.59832 23.7781C7.54193 23.4364 7.51535 23.0809 7.5196 22.7244C7.54345 22.0824 7.62178 21.4508 7.75179 20.8519C7.81474 20.0758 7.88556 19.3069 7.93671 18.5308C8.09804 16.1101 8.14132 13.6823 8.23182 11.2544C8.2751 10.5424 8.27118 9.78771 8.33807 9.0615C8.36168 8.85502 8.39314 8.65568 8.42068 8.4492C8.50125 8.08834 8.52032 7.69212 8.47544 7.31149C8.43056 6.93086 8.32379 6.58322 8.16885 6.31327C7.76493 5.60908 7.24862 5.15317 6.6933 5.01033L6.03228 4.91064C4.95021 4.91064 3.92714 5.79352 3.64777 6.98253C3.16772 10.0156 3.29364 13.1126 3.1087 16.1742C3.05755 18.958 2.60503 21.7276 2.65225 24.5115C2.74091 25.5523 3.00154 26.5203 3.39987 27.2882C3.64268 27.8558 3.9243 28.3653 4.23799 28.8047C4.12388 29.004 4.01372 29.2105 3.91142 29.417C3.73584 29.8338 3.57796 30.2741 3.43921 30.7341C3.31291 31.4509 3.21689 32.184 3.15198 32.9271C2.86833 35.3841 2.75204 37.8947 2.80571 40.4028C2.80571 42.5815 2.73095 44.8029 2.9513 46.9744C3.01226 47.035 3.0714 47.1016 3.1284 47.1738C4.13964 48.4767 5.09577 49.8294 6.00865 51.2249C6.12919 51.2106 6.25013 51.2106 6.37067 51.2249C6.97317 51.238 7.57426 51.3331 8.16885 51.5097C8.35055 51.2812 8.50013 50.9788 8.60561 50.6268C7.71634 49.2029 7.34647 47.4087 7.81865 45.6928C7.74389 44.2689 7.76356 42.9019 7.76356 41.4993C7.7242 39.2024 7.77946 36.9035 7.92883 34.6216C7.89387 33.8535 7.93249 33.0803 8.04296 32.3361C8.32233 30.5348 9.40438 29.118 10.7737 28.4202C9.95473 28.1235 9.20922 27.363 8.645 26.2487Z" fill="#6C58A8"/>
<path d="M323.846 17.5411C324.409 17.5411 324.968 17.5411 325.526 17.6123C325.743 17.6123 325.955 17.6621 326.168 17.6906C326.38 17.7191 326.652 17.8259 326.302 17.6906C326.526 17.8227 326.757 17.918 326.99 17.9754C327.258 17.9754 326.495 17.4699 326.892 17.9754C326.614 17.722 326.388 17.3156 326.247 16.8149C326.377 17.219 326.524 17.6045 326.687 17.9683C326.864 18.4026 326.687 17.3987 326.727 18.0751C326.656 17.0356 326.707 17.7832 326.683 18.0253C326.624 18.7728 326.594 19.527 326.593 20.2822C326.494 25.6007 331.051 25.6221 331.149 20.3249C331.189 18.189 331.338 16.3806 330.791 14.3728C330.504 13.3195 330.124 12.3577 329.666 11.5249C328.218 9.08992 325.688 9.3391 323.874 9.33198C320.935 9.33198 320.915 17.5696 323.846 17.5767V17.5411Z" fill="#6C58A8"/>
<g clip-path="url(#clip0_0_5316)">
<path d="M3.63187 10.9218L329.799 7.31208C330.921 7.27648 331.342 21.6371 332.058 22.9756C332.451 23.6876 332.558 24.8197 332.53 26.2294L332.432 39.7997C332.432 39.7997 332.172 41.8003 331.645 42.3201C330.944 43.0321 329.984 44.3065 328.127 44.3563L5.67794 46.5421C1.52673 46.6632 1.56213 41.5583 1.48343 35.6916L1.37723 27.7672C1.32846 26.7111 1.36823 25.6477 1.49525 24.6132C1.82184 23.1394 2.29797 10.9645 3.63187 10.9218Z" fill="#EDC9A9"/>
<path d="M3.62786 12.3956L13.1304 12.2959L38.7381 12.0111L76.3352 11.5911L121.979 11.0856L171.408 10.5373L220.262 9.9962L264.608 9.50493L300.45 9.11335L323.378 8.85705L328.784 8.79296C329.098 8.70046 329.418 8.70046 329.732 8.79296C329.886 8.93535 329.382 8.33017 329.622 8.75024C329.666 8.82144 329.988 12.0467 330.071 12.8798C330.401 16.1193 330.464 19.7005 331.082 22.8475C331.346 24.129 331.676 24.9834 331.696 26.4857C331.696 27.6604 331.696 28.8494 331.668 30.0456C331.668 33.0359 331.912 36.5459 331.601 39.4864C331.318 42.135 329.304 42.8896 327.816 42.9822C326.451 43.0676 325.062 42.9822 323.716 42.9822L302.685 43.1246L268.298 43.3596L224.713 43.6515L175.921 43.9861L126.374 44.3207L80.4824 44.6269L42.2637 44.8903L15.8493 45.0683C12.4615 45.0683 9.05393 45.3033 5.66606 45.1324C3.32879 45.0185 2.51823 43.0534 2.3333 39.0093C2.21132 36.0618 2.23494 33.0643 2.19559 30.1096C2.18229 27.4381 2.29949 24.7697 2.54579 22.1355C2.65597 20.8397 2.96679 12.6946 3.80097 12.3885C4.83189 12.004 4.4148 9.1561 3.40749 9.54057C2.02638 10.0461 1.7234 13.8124 1.49125 15.8273C1.13711 18.9458 0.814484 22.2351 0.582331 25.3607C0.350177 28.4863 0.605905 31.7685 0.645253 34.8799C0.684601 37.9912 0.56263 41.3802 1.34172 44.1356C2.49462 48.2793 5.02472 48.0586 7.2164 48.0444L24.1596 47.9305L56.1929 47.7169L98.8461 47.4249L147.638 47.0975L198.149 46.7557L245.89 46.4282L286.399 46.1576L315.209 45.9654C319.427 45.9654 323.649 46.0651 327.863 45.88C329.437 45.8088 331.59 45.0825 332.585 42.6262C333.372 40.7181 333.203 38.3543 333.219 36.1187C333.242 32.9433 333.305 29.7536 333.29 26.5711C333.29 23.8585 332.503 21.7866 332.251 19.1452C331.901 15.6565 331.79 11.947 331.153 8.57937C330.834 6.88486 330.413 5.97355 329.473 5.84539C325.263 5.26157 320.879 5.93792 316.665 5.98776L287.89 6.30816L247.507 6.75671L199.896 7.28356L149.4 7.83893L100.574 8.38004L57.3851 8.85705L24.3997 9.2273L5.98087 9.42663H3.59246C2.58515 9.46223 2.57727 12.4098 3.62786 12.3956Z" fill="#46248A" stroke="#46248A"/>
<path d="M8.38899 24.5988L4.06071 24.5348C-0.090507 24.4636 1.02304 19.6506 1.06239 13.7839L1.13324 7.87445C1.13324 6.72817 1.00339 3.97281 1.72346 2.8906C3.04162 0.88994 3.91908 1.46665 5.26478 1.52361L329.06 2.5702C330.181 2.5702 331.086 2.86923 331.629 4.03688C332.084 5.00142 332.316 6.24536 332.278 7.51134L331.956 19.5296C331.885 21.8008 330.634 23.5949 329.103 23.6163L322.878 23.8441" fill="#EDC9A9"/>
<path d="M8.3891 23.1251C6.95289 23.1251 5.50489 23.182 4.06081 23.061C2.55772 22.9328 1.73928 22.349 1.69993 19.5011C1.66452 17.5788 1.83373 15.6208 1.86521 13.6913C1.90456 11.2564 1.42845 5.09775 2.65217 3.4602C3.37618 2.4919 4.50151 2.97608 5.33569 3.00456C6.51613 3.04016 7.73986 3.00456 8.93998 3.00456L30.0187 3.07574L65.4949 3.18964L110.777 3.33205L161.229 3.49579L212.381 3.65957L259.233 3.81619L297.322 3.93725L322.013 4.01556H327.883C328.229 4.01556 328.595 3.9586 328.946 4.01556H329.005C329.654 4.14372 330.665 4.48547 331.145 5.43952C331.625 6.39357 331.385 7.16961 331.397 8.08806C331.444 11.3276 331.224 14.6383 331.137 17.8778C331.074 20.3056 330.657 21.7723 329.06 22.1497C328.523 22.222 327.984 22.241 327.447 22.2066L322.835 22.3775C321.784 22.3775 321.776 25.3607 322.835 25.3251C325.44 25.2325 330.823 26.8772 332.365 21.8649C333.069 19.5723 332.825 16.0266 332.892 13.5347C332.963 10.8719 333.364 7.36899 332.782 4.8201C331.814 0.548226 329.127 1.10354 327.018 1.09642L307.773 1.03237L272.485 0.918426L226.251 0.768938L174.009 0.605153L121.098 0.434285L72.8687 0.27767L34.1424 0.149519L10.3526 0.0782954C8.77864 0.0782954 7.17718 0.0782954 5.59146 0.0782954C4.00573 0.0782954 2.33737 -0.39871 1.11365 1.87962C-0.110072 4.15796 0.287318 8.28745 0.251905 11.1923C0.212557 14.4888 -0.22417 18.2124 0.141767 21.4519C0.850031 27.6675 5.80392 26.0655 8.37334 26.1011C9.42393 26.1011 9.4318 23.1678 8.37334 23.1536L8.3891 23.1251Z" fill="#46248A" stroke="#46248A"/>
<path opacity="0.43" d="M6.93705 22.2992L6.87802 22.1639C6.61407 21.824 6.38278 21.4079 6.19337 20.9322C6.095 20.74 6.00447 20.5406 5.9179 20.3413C5.91112 20.306 5.90189 20.2725 5.89038 20.2416C5.89038 20.1063 5.89038 19.9639 5.89038 19.8286C5.83399 19.4869 5.80741 19.1314 5.81165 18.7749C5.8355 18.1329 5.91383 17.5013 6.04384 16.9024C6.1068 16.1263 6.17761 15.3574 6.22877 14.5813C6.39009 12.1606 6.43338 9.73279 6.52388 7.30494C6.56716 6.59296 6.56323 5.83825 6.63012 5.11203C6.65373 4.90556 6.68519 4.70621 6.71274 4.49974C6.7933 4.13888 6.81237 3.74266 6.7675 3.36203C6.72262 2.9814 6.61584 2.63376 6.46091 2.3638C6.05698 1.65962 5.54067 1.2037 4.98535 1.06087L4.32433 0.961182C3.24226 0.961182 2.21919 1.84406 1.93982 3.03307C1.45978 6.0661 1.58569 9.16319 1.40076 12.2247C1.3496 15.0085 0.897087 17.7782 0.944305 20.562C1.03296 21.6029 1.29359 22.5708 1.69193 23.3387C1.93473 23.9063 2.21635 24.4159 2.53004 24.8552C2.41593 25.0546 2.30578 25.2611 2.20347 25.4675C2.02789 25.8843 1.87002 26.3246 1.73127 26.7847C1.60496 27.5014 1.50895 28.2345 1.44403 28.9776C1.16038 31.4346 1.0441 33.9452 1.09777 36.4534C1.09777 38.632 1.023 40.8534 1.24335 43.0249C1.30431 43.0856 1.36345 43.1521 1.42045 43.2243C2.43169 44.5272 3.38783 45.88 4.3007 47.2755C4.42124 47.2611 4.54219 47.2611 4.66272 47.2755C5.26523 47.2885 5.86631 47.3837 6.46091 47.5602C6.6426 47.3317 6.79218 47.0294 6.89766 46.6774C6.0084 45.2534 5.63853 43.4592 6.1107 41.7434C6.03594 40.3194 6.05561 38.9524 6.05561 37.5498C6.01625 35.253 6.07151 32.9541 6.22089 30.6721C6.18592 29.9041 6.22454 29.1309 6.33501 28.3866C6.61438 26.5853 7.69643 25.1685 9.06574 24.4707C8.24678 24.174 7.50127 23.4135 6.93705 22.2992Z" fill="#46248A" stroke="#46248A"/>
<path d="M322.138 13.5917C322.701 13.5917 323.26 13.5916 323.819 13.6628C324.035 13.6628 324.248 13.7127 324.46 13.7411C324.672 13.7696 324.944 13.8764 324.594 13.7411C324.818 13.8732 325.049 13.9686 325.282 14.026C325.55 14.026 324.787 13.5205 325.184 14.026C324.906 13.7726 324.68 13.3662 324.539 12.8654C324.669 13.2695 324.817 13.6551 324.979 14.0188C325.156 14.4531 324.979 13.4493 325.019 14.1256C324.948 13.0862 324.999 13.8337 324.975 14.0758C324.916 14.8233 324.886 15.5775 324.885 16.3328C324.787 21.6512 329.343 21.6726 329.441 16.3755C329.481 14.2395 329.63 12.4311 329.083 10.4233C328.796 9.37007 328.416 8.40825 327.958 7.57543C326.51 5.14046 323.98 5.38964 322.166 5.38252C319.227 5.38252 319.207 13.6201 322.138 13.6272V13.5917Z" fill="white"/>
<path d="M296.778 21L303.82 28L310.862 21" stroke="#46248A" stroke-width="4" stroke-linecap="round" stroke-linejoin="round"/>
</g>
<defs>
<clipPath id="clip0_0_5316">
<rect width="333.349" height="48.0515" fill="white"/>
</clipPath>
</defs>
</svg>
