<svg width="596" height="52" viewBox="0 0 596 52" fill="none" xmlns="http://www.w3.org/2000/svg">
<path d="M9.50007 14.871L589.786 11.2613C591.781 11.2257 592.53 25.5863 593.804 26.9248C594.505 27.6368 594.693 28.7689 594.644 30.1786L594.469 43.7489C594.469 43.7489 594.007 45.7496 593.069 46.2693C591.823 46.9813 590.115 48.2557 586.811 48.3056L13.1403 50.4913C5.75481 50.6124 5.81779 45.5075 5.67778 39.6408L5.48884 31.7164C5.40207 30.6603 5.47282 29.597 5.6988 28.5624C6.27983 27.0886 7.12692 14.9138 9.50007 14.871Z" fill="#6C58A8"/>
<path d="M9.49312 16.3449L26.3992 16.2453L71.9579 15.9605L138.847 15.5404L220.052 15.0349L307.991 14.4867L394.908 13.9455L473.803 13.4543L537.57 13.0627L578.362 12.8064L587.98 12.7423C588.539 12.6498 589.108 12.6498 589.667 12.7423C589.94 12.8847 589.044 12.2795 589.471 12.6996C589.548 12.7708 590.122 15.9961 590.269 16.8291C590.857 20.0686 590.969 23.6499 592.068 26.7968C592.537 28.0784 593.125 28.9327 593.16 30.435C593.16 31.6098 593.161 32.7988 593.112 33.9949C593.112 36.9852 593.545 40.4953 592.992 43.4357C592.488 46.0843 588.904 46.839 586.258 46.9315C583.829 47.017 581.358 46.9315 578.964 46.9315L541.546 47.074L480.37 47.3089L402.826 47.6008L316.021 47.9355L227.871 48.2701L146.225 48.5762L78.2302 48.8396L31.2364 49.0176C25.209 49.0176 19.1467 49.2526 13.1193 49.0817C8.96104 48.9678 7.51897 47.0027 7.18995 42.9587C6.97294 40.0111 7.01496 37.0137 6.94495 34.059C6.9213 31.3874 7.1298 28.719 7.568 26.0848C7.76401 24.789 8.31701 16.644 9.8011 16.3378C11.6352 15.9534 10.8932 13.1054 9.10105 13.4899C6.6439 13.9954 6.10488 17.7618 5.69185 19.7767C5.06181 22.8951 4.48782 26.1845 4.0748 29.3101C3.66177 32.4357 4.11674 35.7179 4.18674 38.8292C4.25675 41.9406 4.03975 45.3296 5.42583 48.0849C7.47696 52.2287 11.9783 52.0079 15.8775 51.9937L46.0213 51.8798L103.012 51.6662L178.896 51.3743L265.702 51.0468L355.566 50.705L440.502 50.3775L512.572 50.107L563.829 49.9147C571.333 49.9147 578.845 50.0144 586.342 49.8293C589.142 49.7581 592.971 49.0319 594.742 46.5756C596.143 44.6675 595.842 42.3037 595.87 40.0681C595.912 36.8926 596.024 33.703 595.996 30.5204C595.996 27.8078 594.596 25.7359 594.148 23.0945C593.525 19.6058 593.328 15.8964 592.194 12.5287C591.627 10.8342 590.878 9.92289 589.205 9.79474C581.715 9.21091 573.916 9.88726 566.419 9.9371L515.225 10.2575L443.379 10.706L358.674 11.2329L268.838 11.7883L181.97 12.3294L105.133 12.8064L46.4483 13.1766L13.6794 13.376H9.43014C7.63803 13.4116 7.62401 16.3591 9.49312 16.3449Z" fill="#6C58A8"/>
<path d="M17.9636 28.5484L10.2632 28.4844C2.87772 28.4132 4.85884 23.6002 4.92884 17.7335L5.05489 11.824C5.05489 10.6778 4.82387 7.92239 6.10495 6.84019C8.45009 4.83952 10.0112 5.41624 12.4053 5.4732L588.47 6.51979C590.465 6.51979 592.075 6.81882 593.041 7.98646C593.851 8.95101 594.264 10.1949 594.196 11.4609L593.623 23.4791C593.497 25.7503 591.27 27.5445 588.547 27.5659L577.473 27.7937" fill="#6C58A8"/>
<path d="M17.9635 27.0746C15.4083 27.0746 12.8321 27.1316 10.263 27.0106C7.58883 26.8824 6.13274 26.2986 6.06274 23.4507C5.99974 21.5283 6.30079 19.5704 6.35679 17.6409C6.42679 15.2059 5.57974 9.04733 7.75687 7.40978C9.04495 6.44149 11.047 6.92567 12.5311 6.95415C14.6313 6.98975 16.8084 6.95415 18.9435 6.95415L56.4448 7.02533L119.561 7.13923L200.121 7.28163L289.881 7.44537L380.886 7.60916L464.24 7.76577L532.005 7.88684L575.932 7.96515H586.377C586.993 7.96515 587.644 7.90819 588.267 7.96515H588.372C589.527 8.0933 591.326 8.43505 592.18 9.3891C593.034 10.3432 592.607 11.1192 592.628 12.0376C592.712 15.2772 592.32 18.5879 592.166 21.8274C592.054 24.2552 591.312 25.7219 588.47 26.0992C587.515 26.1716 586.557 26.1906 585.6 26.1562L577.395 26.3271C575.526 26.3271 575.512 29.3103 577.395 29.2747C582.029 29.1821 591.606 30.8268 594.35 25.8145C595.603 23.5219 595.169 19.9762 595.288 17.4843C595.414 14.8215 596.128 11.3186 595.092 8.76969C593.37 4.49781 588.589 5.05313 584.837 5.04601L550.598 4.98195L487.818 4.86801L405.563 4.71852L312.618 4.55474L218.484 4.38387L132.679 4.22726L63.7812 4.0991L21.4567 4.02788C18.6565 4.02788 15.8073 4.02788 12.9862 4.02788C10.165 4.02788 7.19682 3.55088 5.01968 5.82921C2.84255 8.10754 3.54955 12.237 3.48655 15.1419C3.41654 18.4384 2.63956 22.162 3.2906 25.4015C4.55068 31.6171 13.3642 30.0151 17.9354 30.0507C19.8045 30.0507 19.8185 27.1174 17.9354 27.1032L17.9635 27.0746Z" fill="#6C58A8"/>
<path opacity="0.43" d="M15.3804 26.2487L15.2754 26.1134C14.8058 25.7734 14.3943 25.3573 14.0574 24.8817C13.8823 24.6895 13.7213 24.4901 13.5673 24.2907C13.5552 24.2555 13.5388 24.222 13.5183 24.1911C13.5183 24.0558 13.5183 23.9134 13.5183 23.7781C13.418 23.4364 13.3707 23.0809 13.3782 22.7244C13.4207 22.0824 13.56 21.4508 13.7913 20.8519C13.9033 20.0758 14.0293 19.3069 14.1203 18.5308C14.4073 16.1101 14.4844 13.6823 14.6454 11.2544C14.7224 10.5424 14.7154 9.78771 14.8344 9.0615C14.8764 8.85502 14.9324 8.65568 14.9814 8.4492C15.1247 8.08834 15.1586 7.69212 15.0788 7.31149C14.9989 6.93086 14.809 6.58322 14.5333 6.31327C13.8147 5.60908 12.8961 5.15317 11.9082 5.01033L10.7322 4.91064C8.80703 4.91064 6.98688 5.79352 6.48985 6.98253C5.6358 10.0156 5.85982 13.1126 5.5308 16.1742C5.43979 18.958 4.63472 21.7276 4.71872 24.5115C4.87646 25.5523 5.34015 26.5203 6.04882 27.2882C6.4808 27.8558 6.98183 28.3653 7.53992 28.8047C7.3369 29.004 7.14092 29.2105 6.95891 29.417C6.64654 29.8338 6.36566 30.2741 6.11881 30.7341C5.8941 31.4509 5.72328 32.184 5.60779 32.9271C5.10315 35.3841 4.89626 37.8947 4.99175 40.4028C4.99175 42.5815 4.85874 44.8029 5.25076 46.9744C5.35922 47.035 5.46443 47.1016 5.56583 47.1738C7.36494 48.4767 9.06601 49.8294 10.6901 51.2249C10.9046 51.2106 11.1197 51.2106 11.3342 51.2249C12.4061 51.238 13.4755 51.3331 14.5333 51.5097C14.8566 51.2812 15.1227 50.9788 15.3104 50.6268C13.7283 49.2029 13.0702 47.4087 13.9103 45.6928C13.7773 44.2689 13.8123 42.9019 13.8123 41.4993C13.7422 39.2024 13.8406 36.9035 14.1063 34.6216C14.0441 33.8535 14.1128 33.0803 14.3094 32.3361C14.8064 30.5348 16.7315 29.118 19.1676 28.4202C17.7106 28.1235 16.3843 27.363 15.3804 26.2487Z" fill="#6C58A8"/>
<path d="M576.156 17.5411C577.158 17.5411 578.151 17.5411 579.145 17.6123C579.53 17.6123 579.909 17.6621 580.287 17.6906C580.665 17.7191 581.148 17.8259 580.525 17.6906C580.924 17.8227 581.334 17.918 581.75 17.9754C582.226 17.9754 580.868 17.4699 581.575 17.9754C581.081 17.722 580.679 17.3156 580.427 16.8149C580.659 17.219 580.921 17.6045 581.211 17.9683C581.526 18.4026 581.211 17.3987 581.281 18.0751C581.155 17.0356 581.246 17.7832 581.204 18.0253C581.098 18.7728 581.044 19.527 581.043 20.2822C580.868 25.6007 588.974 25.6221 589.149 20.3249C589.219 18.189 589.485 16.3806 588.512 14.3728C588.001 13.3195 587.324 12.3577 586.51 11.5249C583.934 9.08992 579.433 9.3391 576.205 9.33198C570.976 9.33198 570.941 17.5696 576.156 17.5767V17.5411Z" fill="#6C58A8"/>
<g clip-path="url(#clip0_0_1832)">
<path d="M6.46142 10.9218L586.748 7.31202C588.743 7.27642 589.492 21.637 590.766 22.9756C591.466 23.6875 591.655 24.8196 591.606 26.2293L591.431 39.7996C591.431 39.7996 590.969 41.8003 590.031 42.32C588.785 43.032 587.077 44.3064 583.773 44.3563L10.1016 46.5421C2.71616 46.6631 2.77914 41.5582 2.63913 35.6915L2.45019 27.7672C2.36342 26.7111 2.43417 25.6477 2.66015 24.6131C3.24119 23.1393 4.08828 10.9645 6.46142 10.9218Z" fill="#EDC9A9"/>
<path d="M6.45439 12.3956L23.3604 12.2959L68.9192 12.0111L135.808 11.5911L217.013 11.0856L304.952 10.5373L391.87 9.9962L470.764 9.50493L534.531 9.11335L575.323 8.85705L584.941 8.79296C585.5 8.70046 586.07 8.70046 586.629 8.79296C586.902 8.93535 586.005 8.33017 586.432 8.75024C586.509 8.82144 587.084 12.0467 587.231 12.8798C587.819 16.1193 587.931 19.7005 589.03 22.8475C589.499 24.129 590.087 24.9834 590.122 26.4857C590.122 27.6604 590.122 28.8494 590.073 30.0456C590.073 33.0359 590.507 36.5459 589.954 39.4864C589.45 42.135 585.866 42.8896 583.219 42.9822C580.79 43.0676 578.319 42.9822 575.925 42.9822L538.508 43.1246L477.331 43.3596L399.787 43.6515L312.982 43.9861L224.833 44.3207L143.187 44.6269L75.1915 44.8903L28.1977 45.0683C22.1703 45.0683 16.1079 45.3033 10.0806 45.1324C5.92231 45.0185 4.48024 43.0534 4.15122 39.0093C3.93421 36.0618 3.97623 33.0643 3.90623 30.1096C3.88257 27.4381 4.09107 24.7697 4.52927 22.1355C4.72529 20.8397 5.27828 12.6946 6.76237 12.3885C8.59648 12.004 7.85443 9.1561 6.06233 9.54057C3.60518 10.0461 3.06615 13.8124 2.65312 15.8273C2.02308 18.9458 1.44909 22.2351 1.03607 25.3607C0.623044 28.4863 1.07801 31.7685 1.14801 34.8799C1.21802 37.9912 1.00102 41.3802 2.3871 44.1356C4.43823 48.2793 8.93954 48.0586 12.8388 48.0444L42.9826 47.9305L99.973 47.7169L175.858 47.4249L262.663 47.0975L352.527 46.7557L437.464 46.4282L509.533 46.1576L560.79 45.9654C568.294 45.9654 575.806 46.0651 583.303 45.88C586.103 45.8088 589.933 45.0825 591.704 42.6262C593.104 40.7181 592.803 38.3543 592.831 36.1187C592.873 32.9433 592.985 29.7536 592.957 26.5711C592.957 23.8585 591.557 21.7866 591.109 19.1452C590.486 15.6565 590.29 11.947 589.156 8.57937C588.589 6.88486 587.84 5.97355 586.167 5.84539C578.676 5.26157 570.878 5.93792 563.38 5.98776L512.186 6.30816L440.341 6.75671L355.635 7.28356L265.799 7.83893L178.931 8.38004L102.094 8.85705L43.4096 9.2273L10.6406 9.42663H6.39141C4.5993 9.46223 4.58528 12.4098 6.45439 12.3956Z" fill="#46248A" stroke="#46248A"/>
<path d="M14.9249 24.5989L7.2244 24.5348C-0.161044 24.4636 1.82008 19.6506 1.89008 13.7839L2.01613 7.87452C2.01613 6.72823 1.78512 3.97287 3.06619 2.89066C5.41134 0.890001 6.97243 1.46672 9.36658 1.52367L585.431 2.57026C587.427 2.57026 589.037 2.86929 590.003 4.03694C590.812 5.00148 591.225 6.24542 591.158 7.5114L590.584 19.5296C590.458 21.8008 588.232 23.595 585.509 23.6164L574.434 23.8442" fill="#EDC9A9"/>
<path d="M14.925 23.1251C12.3699 23.1251 9.7937 23.182 7.22454 23.061C4.55038 22.9328 3.09429 22.349 3.02429 19.5011C2.96128 17.5788 3.26233 15.6208 3.31834 13.6913C3.38834 11.2564 2.54129 5.09775 4.71842 3.4602C6.0065 2.4919 8.00858 2.97608 9.49267 3.00456C11.5928 3.04016 13.77 3.00456 15.9051 3.00456L53.4063 3.07574L116.522 3.18964L197.083 3.33205L286.843 3.49579L377.848 3.65957L461.202 3.81619L528.966 3.93725L572.894 4.01556H583.338C583.954 4.01556 584.605 3.9586 585.229 4.01556H585.334C586.489 4.14372 588.288 4.48547 589.142 5.43952C589.996 6.39357 589.569 7.16961 589.59 8.08806C589.674 11.3276 589.282 14.6383 589.128 17.8778C589.016 20.3056 588.274 21.7723 585.432 22.1497C584.477 22.222 583.519 22.241 582.562 22.2066L574.357 22.3775C572.488 22.3775 572.474 25.3607 574.357 25.3251C578.991 25.2325 588.568 26.8772 591.312 21.8649C592.565 19.5723 592.131 16.0266 592.25 13.5347C592.376 10.8719 593.09 7.36899 592.054 4.8201C590.332 0.548226 585.551 1.10354 581.798 1.09642L547.559 1.03237L484.779 0.918426L402.524 0.768938L309.58 0.605153L215.445 0.434285L129.641 0.27767L60.7428 0.149519L18.4182 0.0782954C15.618 0.0782954 12.7689 0.0782954 9.94772 0.0782954C7.12655 0.0782954 4.15836 -0.39871 1.98123 1.87962C-0.1959 4.15796 0.511098 8.28745 0.448095 11.1923C0.37809 14.4888 -0.398892 18.2124 0.252148 21.4519C1.51222 27.6675 10.3257 26.0655 14.897 26.1011C16.7661 26.1011 16.7801 23.1678 14.897 23.1536L14.925 23.1251Z" fill="#46248A" stroke="#46248A"/>
<path opacity="0.43" d="M12.3418 22.2992L12.2367 22.1639C11.7672 21.824 11.3557 21.4079 11.0187 20.9322C10.8437 20.74 10.6826 20.5406 10.5286 20.3413C10.5165 20.306 10.5001 20.2725 10.4796 20.2416C10.4796 20.1063 10.4796 19.9639 10.4796 19.8286C10.3793 19.4869 10.332 19.1314 10.3396 18.7749C10.382 18.1329 10.5214 17.5013 10.7527 16.9024C10.8647 16.1263 10.9907 15.3574 11.0817 14.5813C11.3687 12.1606 11.4457 9.73279 11.6067 7.30494C11.6837 6.59296 11.6767 5.83825 11.7957 5.11203C11.8377 4.90556 11.8937 4.70621 11.9427 4.49974C12.086 4.13888 12.12 3.74266 12.0401 3.36203C11.9603 2.9814 11.7703 2.63376 11.4947 2.3638C10.776 1.65962 9.85747 1.2037 8.8695 1.06087L7.69348 0.961182C5.76836 0.961182 3.94821 1.84406 3.45118 3.03307C2.59713 6.0661 2.82114 9.16319 2.49212 12.2247C2.40112 15.0085 1.59605 17.7782 1.68005 20.562C1.83778 21.6029 2.30147 22.5708 3.01015 23.3387C3.44213 23.9063 3.94316 24.4159 4.50124 24.8552C4.29823 25.0546 4.10225 25.2611 3.92024 25.4675C3.60787 25.8843 3.32699 26.3246 3.08014 26.7847C2.85543 27.5014 2.68461 28.2345 2.56912 28.9776C2.06448 31.4346 1.85759 33.9452 1.95308 36.4534C1.95308 38.632 1.82007 40.8534 2.21209 43.0249C2.32054 43.0856 2.42575 43.1521 2.52716 43.2243C4.32627 44.5272 6.02734 45.88 7.65143 47.2755C7.86588 47.2611 8.08106 47.2611 8.2955 47.2755C9.36742 47.2885 10.4368 47.3837 11.4947 47.5602C11.8179 47.3317 12.084 47.0294 12.2717 46.6774C10.6896 45.2534 10.0316 43.4592 10.8716 41.7434C10.7386 40.3194 10.7736 38.9524 10.7736 37.5498C10.7036 35.253 10.8019 32.9541 11.0676 30.6721C11.0054 29.9041 11.0741 29.1309 11.2707 28.3866C11.7677 26.5853 13.6928 25.1685 16.1289 24.4707C14.6719 24.174 13.3456 23.4135 12.3418 22.2992Z" fill="#46248A" stroke="#46248A"/>
<path d="M573.118 13.5917C574.119 13.5917 575.113 13.5917 576.107 13.6629C576.492 13.6629 576.87 13.7127 577.248 13.7412C577.626 13.7697 578.109 13.8765 577.486 13.7412C577.885 13.8733 578.295 13.9686 578.711 14.026C579.187 14.026 577.829 13.5205 578.536 14.026C578.042 13.7726 577.64 13.3662 577.388 12.8655C577.62 13.2696 577.883 13.6551 578.172 14.0189C578.487 14.4532 578.172 13.4493 578.242 14.1257C578.116 13.0862 578.207 13.8338 578.165 14.0759C578.059 14.8234 578.005 15.5776 578.004 16.3328C577.829 21.6513 585.936 21.6727 586.111 16.3755C586.181 14.2396 586.447 12.4312 585.474 10.4234C584.962 9.37013 584.286 8.40831 583.471 7.57549C580.895 5.14052 576.394 5.3897 573.167 5.38258C567.938 5.38258 567.903 13.6202 573.118 13.6273V13.5917Z" fill="white"/>
<path d="M541.642 21L548.436 28L555.231 21" stroke="#46248A" stroke-width="4" stroke-linecap="round" stroke-linejoin="round"/>
</g>
<defs>
<clipPath id="clip0_0_1832">
<rect width="593.062" height="48.0515" fill="white"/>
</clipPath>
</defs>
</svg>
