<svg width="1177" height="79" viewBox="0 0 1177 79" fill="none" xmlns="http://www.w3.org/2000/svg">
<path d="M18.7581 22.5924L1164.53 17.1085C1168.47 17.0544 1169.95 38.8711 1172.47 40.9046C1173.85 41.9863 1174.22 43.7061 1174.13 45.8477L1173.78 66.4638C1173.78 66.4638 1172.87 69.5032 1171.02 70.2928C1168.55 71.3745 1165.18 73.3106 1158.66 73.3863L25.9457 76.7069C11.3631 76.8908 11.4875 69.1355 11.211 60.2227L10.838 48.184C10.6666 46.5796 10.8063 44.9641 11.2525 43.3924C12.3998 41.1534 14.0724 22.6573 18.7581 22.5924Z" fill="#6C58A8"/>
<path d="M18.7441 24.8314L52.125 24.68L142.081 24.2473L274.153 23.6092L434.492 22.8412L608.128 22.0083L779.746 21.1863L935.524 20.4399L1061.43 19.8451L1141.97 19.4557L1160.97 19.3583C1162.07 19.2178 1163.19 19.2178 1164.3 19.3583C1164.84 19.5746 1163.07 18.6552 1163.91 19.2934C1164.06 19.4016 1165.2 24.3015 1165.49 25.567C1166.65 30.4884 1166.87 35.9291 1169.04 40.71C1169.96 42.6569 1171.13 43.9549 1171.19 46.2371C1171.19 48.0218 1171.19 49.8282 1171.1 51.6453C1171.1 56.1882 1171.95 61.5207 1170.86 65.9879C1169.87 70.0116 1162.79 71.1581 1157.57 71.2988C1152.77 71.4286 1147.89 71.2988 1143.16 71.2988L1069.28 71.5151L948.489 71.8721L795.379 72.3155L623.982 72.8239L449.932 73.3322L288.722 73.7973L154.465 74.1975L61.6761 74.468C49.7751 74.468 37.805 74.8249 25.904 74.5653C17.6935 74.3923 14.8461 71.4069 14.1965 65.2632C13.768 60.7852 13.851 56.2315 13.7127 51.7427C13.666 47.6841 14.0777 43.6302 14.9429 39.6283C15.33 37.6597 16.4219 25.2857 19.3522 24.8206C22.9736 24.2366 21.5085 19.91 17.97 20.4941C13.1183 21.262 12.054 26.9839 11.2385 30.0449C9.99448 34.7825 8.86114 39.7797 8.04562 44.5281C7.2301 49.2765 8.12843 54.2629 8.26665 58.9897C8.40488 63.7164 7.97641 68.8651 10.7132 73.051C14.7632 79.3462 23.651 79.0108 31.35 78.9892L90.8689 78.8162L203.397 78.4917L353.231 78.0482L524.627 77.5507L702.065 77.0314L869.771 76.5339L1012.07 76.1229L1113.28 75.8308C1128.1 75.8308 1142.93 75.9823 1157.73 75.701C1163.26 75.5929 1170.82 74.4896 1174.32 70.7579C1177.08 67.8591 1176.49 64.2681 1176.54 60.8717C1176.63 56.0476 1176.85 51.2019 1176.79 46.3669C1176.79 42.2459 1174.03 39.0983 1173.14 35.0854C1171.91 29.7854 1171.53 24.15 1169.29 19.0338C1168.17 16.4595 1166.69 15.075 1163.38 14.8804C1148.59 13.9934 1133.2 15.0209 1118.39 15.0966L1017.31 15.5834L875.452 16.2648L708.202 17.0652L530.82 17.9089L359.299 18.731L207.585 19.4557L91.712 20.0182L27.0098 20.321H18.6197C15.0812 20.3751 15.0535 24.853 18.7441 24.8314Z" fill="#6C58A8"/>
<path d="M35.4691 43.3707L20.2646 43.2734C5.68201 43.1653 9.59374 35.8533 9.73196 26.9406L9.98083 17.963C9.98083 16.2215 9.5247 12.0356 12.0542 10.3915C16.6847 7.35209 19.767 8.22823 24.4943 8.31477L1161.93 9.90475C1165.87 9.90475 1169.05 10.359 1170.96 12.1329C1172.56 13.5983 1173.37 15.4881 1173.24 17.4113L1172.11 35.6695C1171.86 39.1199 1167.46 41.8456 1162.09 41.8781L1140.22 42.2242" fill="#6C58A8"/>
<path d="M35.4691 41.1318C30.424 41.1318 25.3374 41.2183 20.2646 41.0345C14.9844 40.8398 12.1094 39.9528 11.9712 35.6263C11.8468 32.7058 12.4412 29.7313 12.5518 26.8C12.69 23.1008 11.0175 13.7446 15.3162 11.2568C17.8595 9.7858 21.8127 10.5214 24.743 10.5646C28.8897 10.6187 33.1885 10.5646 37.4043 10.5646L111.45 10.6728L236.073 10.8458L395.14 11.0621L572.37 11.3109L752.06 11.5597L916.642 11.7977L1050.44 11.9816L1137.18 12.1005H1157.8C1159.02 12.1005 1160.3 12.014 1161.53 12.1005H1161.74C1164.02 12.2952 1167.57 12.8144 1169.26 14.2638C1170.95 15.7132 1170.1 16.8922 1170.14 18.2875C1170.31 23.209 1169.54 28.2386 1169.23 33.1601C1169.01 36.8485 1167.55 39.0767 1161.93 39.6499C1160.05 39.7598 1158.16 39.7888 1156.27 39.7365L1140.07 39.9961C1136.38 39.9961 1136.35 44.5282 1140.07 44.4741C1149.22 44.3335 1168.13 46.8321 1173.54 39.2173C1176.02 35.7344 1175.16 30.3478 1175.4 26.5621C1175.65 22.5167 1177.06 17.1951 1175.01 13.3228C1171.61 6.83295 1162.17 7.67659 1154.76 7.66577L1087.15 7.56846L963.196 7.39536L800.784 7.16826L617.265 6.91944L431.396 6.65986L261.976 6.42193L125.936 6.22724L42.3665 6.11903C36.8375 6.11903 31.2119 6.11903 25.6415 6.11903C20.0711 6.11903 14.2104 5.39437 9.91166 8.85562C5.61292 12.3169 7.00889 18.5904 6.88449 23.0035C6.74626 28.0115 5.21211 33.6685 6.49759 38.5899C8.98561 48.0327 26.3878 45.5989 35.4138 45.653C39.1043 45.653 39.132 41.1967 35.4138 41.1751L35.4691 41.1318Z" fill="#6C58A8"/>
<path opacity="0.43" d="M30.3688 39.877L30.1615 39.6715C29.2343 39.155 28.4218 38.5229 27.7564 37.8003C27.4108 37.5083 27.0928 37.2054 26.7887 36.9025C26.7649 36.849 26.7325 36.7981 26.692 36.7511C26.692 36.5456 26.692 36.3292 26.692 36.1237C26.494 35.6046 26.4006 35.0645 26.4155 34.5229C26.4993 33.5475 26.7744 32.5881 27.2311 31.6782C27.4523 30.4992 27.7011 29.331 27.8807 28.152C28.4475 24.4744 28.5995 20.7861 28.9174 17.0977C29.0695 16.016 29.0557 14.8695 29.2907 13.7662C29.3736 13.4525 29.4841 13.1497 29.5809 12.836C29.8639 12.2878 29.9309 11.6858 29.7732 11.1076C29.6156 10.5293 29.2405 10.0012 28.6962 9.59107C27.2773 8.52128 25.4636 7.82865 23.5128 7.61165L21.1908 7.46021C17.3896 7.46021 13.7958 8.80148 12.8144 10.6078C11.1281 15.2156 11.5704 19.9207 10.9207 24.5718C10.741 28.801 9.15142 33.0086 9.31729 37.2378C9.62873 38.8191 10.5443 40.2897 11.9436 41.4563C12.7965 42.3186 13.7858 43.0926 14.8877 43.7601C14.4869 44.063 14.0999 44.3767 13.7405 44.6904C13.1238 45.3236 12.5692 45.9925 12.0818 46.6914C11.6381 47.7803 11.3008 48.894 11.0727 50.0228C10.0763 53.7555 9.66784 57.5697 9.85638 61.3801C9.85638 64.6899 9.59375 68.0646 10.3678 71.3636C10.5819 71.4557 10.7897 71.5569 10.9899 71.6665C14.5422 73.6459 17.901 75.701 21.1078 77.8211C21.5312 77.7992 21.9561 77.7992 22.3795 77.8211C24.496 77.8409 26.6075 77.9854 28.6962 78.2537C29.3345 77.9065 29.8599 77.4472 30.2305 76.9124C27.1066 74.7492 25.8073 72.0234 27.466 69.4167C27.2034 67.2534 27.2725 65.1766 27.2725 63.0458C27.1342 59.5565 27.3283 56.0639 27.8531 52.5972C27.7302 51.4304 27.8659 50.2557 28.254 49.1251C29.2354 46.3885 33.0364 44.236 37.8466 43.176C34.9697 42.7253 32.3509 41.5699 30.3688 39.877Z" fill="#6C58A8"/>
<path d="M1137.62 26.6486C1139.6 26.6486 1141.56 26.6485 1143.52 26.7567C1144.28 26.7567 1145.03 26.8324 1145.78 26.8757C1146.52 26.9189 1147.48 27.0812 1146.25 26.8757C1147.03 27.0763 1147.84 27.2212 1148.66 27.3083C1149.6 27.3083 1146.92 26.5404 1148.32 27.3083C1147.34 26.9234 1146.55 26.306 1146.05 25.5453C1146.51 26.1591 1147.03 26.7449 1147.6 27.2975C1148.22 27.9573 1147.6 26.4322 1147.74 27.4598C1147.49 25.8806 1147.67 27.0163 1147.59 27.3841C1147.38 28.5197 1147.27 29.6655 1147.27 30.8128C1146.92 38.8927 1162.93 38.9252 1163.27 30.8777C1163.41 27.6328 1163.94 24.8855 1162.02 21.8352C1161.01 20.2351 1159.67 18.7739 1158.06 17.5087C1152.98 13.8095 1144.09 14.188 1137.72 14.1772C1127.39 14.1772 1127.32 26.6918 1137.62 26.7026V26.6486Z" fill="#6C58A8"/>
<g clip-path="url(#clip0_0_2666)">
<path d="M12.7581 16.5924L1158.53 11.1085C1162.47 11.0544 1163.95 32.8711 1166.47 34.9046C1167.85 35.9863 1168.22 37.7061 1168.13 39.8477L1167.78 60.4638C1167.78 60.4638 1166.87 63.5032 1165.02 64.2928C1162.55 65.3745 1159.18 67.3106 1152.66 67.3863L19.9456 70.7069C5.36306 70.8908 5.48741 63.1355 5.21097 54.2227L4.8379 42.184C4.66658 40.5796 4.80628 38.9641 5.25247 37.3924C6.39973 35.1534 8.0723 16.6573 12.7581 16.5924Z" fill="#EDC9A9"/>
<path d="M12.7442 18.8314L46.1252 18.68L136.081 18.2473L268.153 17.6092L428.492 16.8412L602.128 16.0083L773.746 15.1863L929.524 14.4399L1055.43 13.8451L1135.97 13.4557L1154.97 13.3583C1156.07 13.2178 1157.19 13.2178 1158.3 13.3583C1158.84 13.5746 1157.07 12.6552 1157.91 13.2934C1158.06 13.4016 1159.2 18.3015 1159.49 19.567C1160.65 24.4884 1160.87 29.9291 1163.04 34.71C1163.96 36.6569 1165.13 37.9549 1165.19 40.2371C1165.19 42.0218 1165.19 43.8282 1165.1 45.6453C1165.1 50.1882 1165.95 55.5207 1164.86 59.9879C1163.87 64.0116 1156.79 65.1581 1151.57 65.2988C1146.77 65.4286 1141.89 65.2988 1137.16 65.2988L1063.28 65.5151L942.489 65.8721L789.379 66.3155L617.982 66.8239L443.932 67.3322L282.722 67.7973L148.466 68.1975L55.6763 68.468C43.7752 68.468 31.8051 68.8249 19.9041 68.5653C11.6936 68.3923 8.84626 65.4069 8.19661 59.2632C7.76812 54.7852 7.85108 50.2315 7.71286 45.7427C7.66615 41.6841 8.07783 37.6302 8.94307 33.6283C9.33009 31.6597 10.422 19.2857 13.3523 18.8206C16.9738 18.2366 15.5086 13.91 11.9701 14.4941C7.11844 15.262 6.05413 20.9839 5.23861 24.0449C3.9946 28.7825 2.86126 33.7797 2.04574 38.5281C1.23022 43.2765 2.12855 48.2629 2.26678 52.9897C2.405 57.7164 1.97653 62.8651 4.71336 67.051C8.7633 73.3462 17.6511 73.0108 25.3502 72.9892L84.869 72.8162L197.397 72.4917L347.231 72.0482L518.628 71.5507L696.065 71.0314L863.771 70.5339L1006.07 70.1229L1107.28 69.8308C1122.1 69.8308 1136.93 69.9823 1151.73 69.701C1157.26 69.5929 1164.82 68.4896 1168.32 64.7579C1171.08 61.8591 1170.49 58.2681 1170.54 54.8717C1170.63 50.0476 1170.85 45.2019 1170.79 40.3669C1170.79 36.2459 1168.03 33.0983 1167.14 29.0854C1165.91 23.7854 1165.53 18.15 1163.29 13.0338C1162.17 10.4595 1160.69 9.07505 1157.39 8.88035C1142.6 7.99341 1127.2 9.02092 1112.39 9.09663L1011.31 9.58338L869.452 10.2648L702.202 11.0652L524.82 11.9089L353.299 12.731L201.585 13.4557L85.7122 14.0182L21.0099 14.321H12.6199C9.08134 14.3751 9.05365 18.853 12.7442 18.8314Z" fill="#46248A" stroke="#46248A"/>
<path d="M29.4691 37.3707L14.2646 37.2734C-0.317991 37.1653 3.59374 29.8533 3.73196 20.9406L3.98083 11.963C3.98083 10.2215 3.5247 6.03559 6.05418 4.3915C10.6847 1.35209 13.767 2.22823 18.4943 2.31477L1155.93 3.90475C1159.87 3.90475 1163.05 4.35903 1164.96 6.13293C1166.56 7.59827 1167.37 9.48806 1167.24 11.4113L1166.11 29.6695C1165.86 33.1199 1161.46 35.8456 1156.09 35.8781L1134.22 36.2242" fill="#EDC9A9"/>
<path d="M29.4692 35.1318C24.424 35.1318 19.3374 35.2183 14.2646 35.0345C8.9845 34.8398 6.10946 33.9528 5.97124 29.6263C5.84684 26.7058 6.44126 23.7313 6.55184 20.8C6.69006 17.1008 5.01756 7.74461 9.3163 5.25683C11.8596 3.7858 15.8127 4.52137 18.7431 4.56463C22.8898 4.61871 27.1885 4.56463 31.4044 4.56463L105.45 4.67277L230.073 4.8458L389.14 5.06214L566.37 5.3109L746.06 5.55972L910.643 5.79765L1044.44 5.98158L1131.18 6.10054H1151.8C1153.02 6.10054 1154.3 6.01401 1155.53 6.10054H1155.74C1158.02 6.29524 1161.57 6.81443 1163.26 8.26383C1164.95 9.71323 1164.1 10.8922 1164.14 12.2875C1164.31 17.209 1163.54 22.2386 1163.23 27.1601C1163.01 30.8485 1161.55 33.0767 1155.93 33.6499C1154.05 33.7598 1152.16 33.7888 1150.27 33.7365L1134.07 33.9961C1130.38 33.9961 1130.35 38.5282 1134.07 38.4741C1143.22 38.3335 1162.13 40.8321 1167.54 33.2173C1170.02 29.7344 1169.16 24.3478 1169.4 20.5621C1169.65 16.5167 1171.06 11.1951 1169.01 7.3228C1165.61 0.832955 1156.17 1.67659 1148.76 1.66577L1081.15 1.56846L957.196 1.39536L794.784 1.16826L611.265 0.919439L425.396 0.659855L255.976 0.421926L119.936 0.227238L36.3665 0.119035C30.8376 0.119035 25.2119 0.119035 19.6415 0.119035C14.0711 0.119035 8.21047 -0.605634 3.91172 2.85562C-0.387019 6.31687 1.00895 12.5904 0.884547 17.0035C0.746324 22.0115 -0.787826 27.6685 0.49765 32.5899C2.98567 42.0327 20.3879 39.5989 29.4138 39.653C33.1044 39.653 33.1321 35.1967 29.4138 35.1751L29.4692 35.1318Z" fill="#46248A" stroke="#46248A"/>
<path opacity="0.43" d="M24.3688 33.877L24.1615 33.6715C23.2343 33.155 22.4218 32.5229 21.7564 31.8003C21.4108 31.5083 21.0928 31.2054 20.7887 30.9025C20.7649 30.849 20.7325 30.7981 20.692 30.7511C20.692 30.5456 20.692 30.3292 20.692 30.1237C20.494 29.6046 20.4006 29.0645 20.4155 28.5229C20.4993 27.5475 20.7744 26.5881 21.2311 25.6782C21.4523 24.4992 21.7011 23.331 21.8807 22.152C22.4475 18.4744 22.5995 14.7861 22.9174 11.0977C23.0695 10.016 23.0557 8.86947 23.2907 7.76619C23.3736 7.45252 23.4841 7.14967 23.5809 6.836C23.8639 6.28777 23.9309 5.68583 23.7732 5.10758C23.6156 4.52932 23.2405 4.00119 22.6962 3.59107C21.2773 2.52128 19.4636 1.82865 17.5128 1.61165L15.1908 1.46021C11.3896 1.46021 7.79576 2.80148 6.81438 4.60782C5.12805 9.21561 5.57037 13.9207 4.92072 18.5718C4.74103 22.801 3.15142 27.0086 3.31729 31.2378C3.62873 32.8191 4.54428 34.2897 5.94356 35.4563C6.7965 36.3186 7.78579 37.0926 8.88773 37.7601C8.48688 38.063 8.09991 38.3767 7.74053 38.6904C7.12375 39.3236 6.56917 39.9925 6.08175 40.6914C5.63807 41.7803 5.30078 42.894 5.07275 44.0228C4.07634 47.7555 3.66784 51.5697 3.85638 55.3801C3.85638 58.6899 3.59375 62.0646 4.3678 65.3636C4.58194 65.4557 4.78967 65.5569 4.9899 65.6665C8.54224 67.6459 11.901 69.701 15.1078 71.8211C15.5312 71.7992 15.9561 71.7992 16.3795 71.8211C18.496 71.8409 20.6075 71.9854 22.6962 72.2537C23.3345 71.9065 23.8599 71.4472 24.2305 70.9124C21.1066 68.7492 19.8073 66.0234 21.466 63.4167C21.2034 61.2534 21.2725 59.1766 21.2725 57.0458C21.1342 53.5565 21.3283 50.0639 21.8531 46.5972C21.7302 45.4304 21.8659 44.2557 22.254 43.1251C23.2354 40.3885 27.0364 38.236 31.8466 37.176C28.9697 36.7253 26.3509 35.5699 24.3688 33.877Z" fill="#46248A" stroke="#46248A"/>
<path d="M1131.62 20.6486C1133.6 20.6486 1135.56 20.6485 1137.52 20.7567C1138.28 20.7567 1139.03 20.8324 1139.78 20.8757C1140.52 20.9189 1141.48 21.0812 1140.25 20.8757C1141.03 21.0763 1141.84 21.2212 1142.66 21.3083C1143.6 21.3083 1140.92 20.5404 1142.32 21.3083C1141.34 20.9234 1140.55 20.306 1140.05 19.5453C1140.51 20.1591 1141.03 20.7449 1141.6 21.2975C1142.22 21.9573 1141.6 20.4322 1141.74 21.4598C1141.49 19.8806 1141.67 21.0163 1141.59 21.3841C1141.38 22.5197 1141.27 23.6655 1141.27 24.8128C1140.92 32.8927 1156.93 32.9252 1157.27 24.8777C1157.41 21.6328 1157.94 18.8855 1156.02 15.8352C1155.01 14.2351 1153.67 12.7739 1152.06 11.5087C1146.98 7.80945 1138.09 8.18801 1131.72 8.17719C1121.39 8.17719 1121.32 20.6918 1131.62 20.7026V20.6486Z" fill="white"/>
</g>
<defs>
<clipPath id="clip0_0_2666">
<rect width="1171" height="73" fill="white"/>
</clipPath>
</defs>
</svg>
