<svg width="343" height="305" viewBox="0 0 343 305" fill="none" xmlns="http://www.w3.org/2000/svg">
<path d="M63.0612 1.49999C62.7301 7.71874 62.0241 23.5512 61.6982 29.7699Z" fill="#6C58A8"/>
<path d="M69.298 1.47411C68.967 7.69287 68.2609 23.5253 67.935 29.744Z" fill="#6C58A8"/>
<path d="M282.384 0.586172C282.053 6.80493 281.347 22.6374 281.021 28.8561Z" fill="#6C58A8"/>
<path d="M341.479 285.044C341.533 284.907 341.579 284.77 341.627 284.634C341.824 277.95 341.757 271.259 341.486 264.576C341.273 263.8 341.057 263.02 340.848 262.24C340.402 260.44 340.186 258.553 339.527 256.852C339.5 256.741 339.463 256.63 339.431 256.522C339.557 256.294 339.688 256.065 339.805 255.82C340.319 254.893 340.57 253.718 340.733 252.544C340.831 251.328 340.995 250.118 341.04 248.896C341.052 247.586 341.004 246.276 340.899 244.974C340.473 240.234 340.528 235.471 340.497 230.71C340.25 222.959 340.307 215.191 339.764 207.464C339.477 203.564 339.301 199.649 339.071 195.742C338.62 189.968 338.21 184.191 337.891 178.403C337.65 173.647 337.629 168.882 337.567 164.121C337.427 159.305 337.5 154.487 337.466 149.673C337.456 148.277 337.431 146.881 337.413 145.506C337.55 145.061 337.667 144.613 337.799 144.155C338.149 141.471 338.267 138.742 338.152 136.021C338.059 131.25 337.825 126.487 337.643 121.713C337.578 119.825 337.536 117.937 337.502 116.049C337.604 115.699 337.703 115.349 337.794 114.999C338.013 113.424 338.165 111.834 338.249 110.236C338.386 107.341 338.395 104.437 338.276 101.54C338.128 98.5638 338.06 95.5658 337.639 92.6305L337.495 92.1815C337.518 91.2597 337.545 90.3379 337.572 89.4195C337.607 88.152 337.64 86.8844 337.691 85.6168C337.8 84.544 337.889 83.4645 337.964 82.3886C337.913 81.3418 337.747 80.3205 337.654 79.2846C337.532 78.9088 337.412 78.5329 337.29 78.1535C337.104 77.2093 337.944 74.611 337.561 73.742C336.843 72.1465 334.764 72.5713 333.567 71.6367L332.711 71.0898L332.73 70.4927C332.738 68.6983 332.72 66.8972 332.599 65.1075C332.235 61.4106 332.533 57.697 332.52 53.9897C332.408 51.4244 332.147 48.8742 331.739 46.3626C331.472 45.2752 331.147 44.2144 330.768 43.1882C330.483 42.2344 330.173 41.2878 329.852 40.3693C329.13 38.6657 328.375 36.8925 327.099 35.8574C326.332 34.9262 325.397 34.2783 324.388 33.9773C323.454 33.5857 322.463 33.5053 321.502 33.7431C320.454 33.3443 319.388 33.0328 318.312 32.8101C318.178 32.6752 318.05 32.5403 317.917 32.3985C317.252 32.0557 316.612 31.636 315.926 31.3144C315.073 31.1934 314.222 30.9816 313.364 30.92C312.444 30.9287 311.525 31.0737 310.608 31.1732C308.115 31.4588 305.631 31.8561 303.135 32.1139C298.72 32.5261 294.284 32.8443 289.851 32.8971C288.182 32.8467 286.522 32.6008 284.855 32.491C283.064 32.3546 281.268 32.3578 279.479 32.1933C274.768 31.9277 270.114 30.8097 265.386 30.7781C263.123 30.734 260.861 30.8593 258.609 31.1536C256.84 31.2996 255.064 31.2328 253.295 31.2043C244.654 30.9064 236.013 30.5841 227.373 30.3071C223.17 30.1832 218.974 29.574 214.768 29.8132C211.06 29.8905 207.401 30.6551 203.748 31.4231C197.327 32.3572 190.843 31.9165 184.396 32.0549C182.78 32.0982 181.166 32.0648 179.552 32.0523C177.775 31.8075 175.999 31.5626 174.22 31.3737C171.211 31.1232 168.196 31.0228 165.181 30.9329C160.993 30.7495 156.8 31.0689 152.611 31.0286C148.634 30.9061 144.672 31.4536 140.702 31.5509C137.534 31.6021 134.374 31.2309 131.204 31.317C128.085 31.2456 124.969 31.614 121.852 31.7555C119.409 31.8347 116.968 32.0047 114.522 32.0455C112.404 32.0169 110.287 31.7927 108.173 31.6279C103.937 31.2739 99.6947 31.4437 95.4557 31.4004C93.322 31.3859 91.1897 31.5668 89.056 31.5488C86.779 31.4903 84.5037 31.2921 82.2256 31.4466C79.2149 31.6254 76.2071 31.8532 73.2055 32.2309C70.6631 32.4822 68.1326 32.9532 65.5811 33.0299C63.7621 33.0473 61.9701 32.8515 60.1637 32.8059C57.629 32.687 55.093 32.7497 52.5561 32.6796C50.6198 32.6458 48.6847 32.4234 46.7464 32.4873C44.8835 32.5401 43.0355 32.8719 41.1754 32.9665C38.7799 33.0522 36.3817 32.747 33.9876 32.6512C31.7661 32.7178 29.5407 32.6064 27.3249 32.7463C25.2476 33.0292 23.184 33.4685 21.1439 34.0621C20.9884 34.1194 20.8354 34.1802 20.6826 34.2445C20.4584 34.1118 20.2284 33.9974 19.994 33.902C19.3846 33.431 18.693 33.1869 17.9906 33.1951C16.9406 32.887 15.849 32.9625 14.8294 33.4138L12.9452 34.507L11.3536 36.1874C10.6017 37.1257 10.0449 38.3112 9.73793 39.6274C9.25056 40.8966 9.02458 42.3184 9.08339 43.7459C9.18891 44.7084 9.28929 45.6744 9.39481 46.6369C9.46451 46.9399 9.52383 47.2466 9.57796 47.5533C9.67438 50.1775 9.35495 52.7917 9.46186 55.4298C9.38865 59.4311 9.27403 63.4607 9.77489 67.4251C9.91582 68.6176 9.98935 69.8352 10.19 71.0167C10.4806 72.0612 10.815 73.0529 11.1468 74.0412C11.5848 75.0925 12.157 76.0324 12.8374 76.8177C12.7899 77.0905 12.1026 76.549 12.0578 76.8252C11.8841 78.3663 10.8334 81.204 10.5066 84.2512C10.4481 84.7998 10.7149 90.5957 10.6642 91.1442C10.3344 94.5021 11.3408 96.814 11.0422 100.179C10.7436 103.543 10.4038 106.964 10.2251 110.376C9.97104 113.786 9.57662 117.193 9.54101 120.629C9.58973 123.491 9.53716 126.368 9.76514 129.221C9.99311 132.074 10.418 134.849 10.7886 137.652C10.3037 138.448 9.84903 139.276 9.42612 140.133C9.00458 141.303 8.6482 142.513 8.36003 143.753C8.10204 145.567 7.94991 147.406 7.90496 149.252C8.03246 153.709 8.56768 158.127 8.88476 162.564C9.17688 167.148 9.35742 171.751 9.343 176.352C9.38277 182.007 8.71031 187.637 9.01779 193.297C9.12919 195.834 9.40412 198.348 9.68168 200.862C9.7911 202.01 9.84861 203.165 9.90608 204.316C10.0737 207.77 10.4218 211.204 10.9477 214.594C11.2926 216.336 11.8994 217.995 12.2548 219.751C12.2555 219.842 12.2561 219.933 12.2567 220.024C12.1573 223.62 11.7745 227.212 11.9194 230.814C12.0213 232.897 12.2182 234.97 12.5088 237.022C12.7116 238.137 12.9506 239.241 13.1352 240.36C12.8481 241.13 12.6992 241.981 12.7005 242.843C12.5927 243.606 12.5494 244.382 12.5712 245.159C12.565 246.325 12.6201 247.491 12.7361 248.648C12.2048 249.495 11.7981 250.47 11.5375 251.522C11.3649 252.02 11.2158 252.532 11.0909 253.055C10.9808 253.664 10.9592 254.292 10.8908 254.911C10.7407 256.022 10.7137 257.157 10.8106 258.28C10.9037 261.54 11.298 264.769 11.6741 267.991C11.9487 270.083 12.2233 272.174 12.6041 274.223C12.5186 276.106 12.4435 277.992 12.475 279.873C12.6712 283.386 12.5459 286.641 13.0405 290.085C13.2459 291.197 13.6922 292.202 13.9985 293.267C14.3953 294.255 14.9961 295.073 15.4988 295.965C15.6974 296.287 15.9217 296.579 16.1676 296.835C16.589 297.264 17.0053 297.703 17.4293 298.128C19.8987 298.58 22.3536 299.174 24.7959 299.845C25.5368 299.554 26.2362 299.099 26.8655 298.499C27.0816 298.549 27.3027 298.586 27.5264 298.608C30.3448 299.164 33.1922 298.309 35.9714 297.714C36.5706 297.558 37.1617 297.353 37.7502 297.156C37.8104 297.208 37.8653 297.263 37.9254 297.311C38.4142 297.96 39.0204 298.426 39.6839 298.663L40.6518 299.202C40.9912 299.388 41.3606 299.453 41.7239 299.39C42.0857 299.471 42.4473 299.53 42.8089 299.575C43.9564 299.418 45.0929 299.17 46.2265 298.876C47.6571 298.669 49.0988 298.633 50.5346 298.768C52.6908 299.031 54.8422 299.335 56.9985 299.607C59.9466 300.124 62.9047 300.598 65.8786 300.727C67.1912 300.746 68.5041 300.827 69.8162 300.783C71.7601 300.641 73.7098 300.706 75.6467 300.979L76.4999 301.093L76.8563 301.149C78.7791 301.48 80.707 301.786 82.6462 301.865C85.3393 301.972 88.0301 301.744 90.7224 301.739C91.4219 301.799 92.1214 301.862 92.8185 301.953C93.7163 302.119 94.6166 302.285 95.5145 302.461C97.5542 302.791 99.5974 303.236 101.658 303.233C104.357 303.082 107.052 302.62 109.758 302.831C110.574 302.824 111.391 302.903 112.202 302.993C114.502 302.789 116.802 302.612 119.104 302.459C132.798 301.61 146.517 301.701 160.208 302.73C166.424 301.948 172.668 301.622 178.912 301.751C191.756 300.026 204.677 299.53 217.577 300.268L219.256 299.938C219.752 299.85 220.248 299.768 220.744 299.686C222.631 299.4 224.507 298.984 226.403 298.809C228.971 298.543 231.55 298.724 234.125 298.64C236.307 298.504 238.48 298.173 240.662 298.002C243.535 297.821 246.372 297.012 249.23 296.841C251.391 296.699 253.546 296.451 255.707 296.315L255.741 296.315C256.568 296.419 257.397 296.68 258.223 296.686C259.324 296.605 260.423 296.473 261.518 296.305C266.41 296.112 271.31 296.288 276.187 295.673C278.025 295.406 279.857 295.074 281.684 294.678C282.859 294.733 284.039 294.725 285.214 294.787C288.17 295.007 291.125 295.397 294.084 295.282C296.833 295.168 299.573 294.838 302.292 294.296C304.71 294.402 307.127 294.406 309.548 294.275C310.686 294.306 311.826 294.449 312.966 294.375C314.694 294.31 316.415 294.01 318.143 293.977C319.413 293.982 320.673 294.221 321.939 294.289C324.486 294.298 327.029 294.026 329.543 293.477C331.172 293.112 332.801 292.705 334.395 292.139C335.313 291.746 336.208 291.172 337.072 290.664C337.376 290.491 337.659 290.26 337.915 289.979C338.701 289.116 339.531 288.441 340.165 287.392C340.568 286.648 341.051 285.872 341.479 285.044Z" fill="#6C58A8" stroke="#6C58A8" stroke-miterlimit="10"/>
<path opacity="0.33" d="M32.1013 74.1096C31.2006 73.5178 30.1605 73.43 29.1644 73.3209C29.0102 73.2783 28.858 73.2238 28.7085 73.1577C27.6642 72.4869 26.6204 71.858 25.6072 71.1661C24.9946 70.7549 24.4035 70.2882 23.838 69.7692L23.5549 69.4228C23.0774 68.8797 22.6382 68.2785 22.2429 67.627C21.7692 66.7833 21.3109 65.9184 20.8837 65.0288C20.8282 64.9002 20.7727 64.7716 20.7224 64.6394C20.7064 64.5802 20.6877 64.514 20.6664 64.4305C19.5932 59.6372 19.8705 58.4198 19.8435 52.7334C19.8435 50.5166 19.9474 48.3059 20.0203 46.099C20.0512 43.1 20.108 40.1007 20.3001 37.1142L20.4054 35.455C20.3993 34.5754 20.1335 33.7342 19.6665 33.1162C18.1346 31.0956 15.4473 32.5386 15.4681 35.5022L15.4689 35.6139C14.1633 34.7187 12.4994 34.6194 11.3773 35.8171C9.40784 38.084 9.28943 41.9391 9.03933 45.1776C8.83639 48.468 8.67513 51.7684 8.69318 55.0741C8.71123 58.3798 9.09822 61.6785 9.37868 64.9747C9.58796 67.3884 9.6573 69.8593 10.1286 72.2147C10.4078 73.3556 10.8029 74.4396 11.3026 75.436C11.0231 76.301 10.8437 77.2186 10.7708 78.157C10.2898 83.6737 10.329 89.2518 10.1549 94.797C10.1407 99.0491 10.433 103.291 10.4577 107.543C10.5117 113.002 10.506 118.472 10.8328 123.922C10.9702 126.103 11.0378 128.312 11.4219 130.451C11.5294 131.058 11.6629 131.656 11.8217 132.242C11.5944 133.19 11.6139 133.008 11.3376 133.992C10.5253 136.747 10.5547 136.859 10.1298 138.154C9.28824 140.428 9.42367 143.048 9.78127 145.488C9.83364 146.654 9.9613 147.815 10.0111 148.977C10.0808 151.874 9.81784 154.756 9.83819 157.65C9.93147 164.631 9.83249 171.614 10.0869 178.593C10.3185 181.97 10.3086 185.367 10.5455 188.744C10.5945 190.809 10.7244 192.869 10.9345 194.916C11.4374 200.28 12.0326 203.245 12.2822 206.953C12.4401 209.821 12.1015 212.677 11.9475 215.534C11.9082 216.232 11.9341 216.951 11.8975 217.66C11.7494 219.088 11.6623 220.526 11.6367 221.967C11.6375 222.079 11.6201 222.187 11.6132 222.316C11.4572 223.791 11.3741 225.272 11.2494 226.753C11.2759 226.46 11.3024 226.163 11.3315 225.869C11.1047 228.36 10.8287 230.866 10.8645 233.379C10.8764 235.068 11.013 236.75 11.1288 238.431C11.1382 239.863 11.2457 241.291 11.4498 242.698C11.7358 244.189 12.2187 245.598 12.6031 247.047C12.7616 247.653 12.9114 248.264 13.0526 248.882C13.0295 248.928 13.0039 248.966 12.9834 249.012C12.7682 249.524 12.6567 250.102 12.6599 250.691V250.691C12.6494 251.04 12.6646 251.354 12.6669 251.682C12.6863 252.219 12.7264 252.753 12.7691 253.287C12.8989 255.323 12.9419 257.367 12.898 259.409C12.8574 263.249 12.5701 262.676 12.4439 266.904C12.6626 271.758 13.0158 272.097 13.2948 277.041C13.675 281.205 14.0098 284.1 14.3928 287.573C14.3622 287.28 14.3289 286.987 14.2982 286.694C14.6803 290.028 14.831 293.709 16.5131 296.399C16.9194 296.92 17.3815 297.357 17.8839 297.695C18.1563 297.883 18.436 298.051 18.7217 298.2C19.3872 298.602 20.0277 299.147 20.7766 299.206C21.2357 299.294 21.703 299.258 22.1512 299.1C22.5994 298.942 23.0195 298.666 23.3871 298.288C24.003 297.617 24.4562 296.715 24.6889 295.696C25.0366 294.132 24.6175 292.554 24.5986 290.98C24.558 287.797 24.5771 284.596 24.2716 281.429C24.0232 278.638 23.4737 275.886 23.1111 273.104C22.6731 269.568 22.6702 270.259 22.5052 267.873C22.4439 265.43 22.3329 262.953 22.2273 260.496C22.2049 258.798 22.2476 257.1 22.3552 255.408C22.3544 255.29 22.3769 255.174 22.3943 255.059C22.5403 253.872 22.775 252.709 23.0949 251.586C24.7224 251.682 24.1368 251.925 26.4265 251.955C27.4131 251.824 28.4016 251.587 29.2778 250.909C30.0943 250.238 30.7797 249.034 30.7416 247.69C30.7301 246.726 30.4447 245.803 29.9439 245.111C29.5526 244.535 28.9926 244.352 28.4685 244.099C27.2555 243.444 25.9191 243.362 24.6336 243.109L24.2824 243.057L24.1938 243.037C23.3215 242.787 22.4114 242.705 21.5642 242.339C21.2487 242.155 20.9409 241.947 20.6425 241.716L20.5195 241.599C20.4284 241.198 20.3139 240.812 20.2512 240.4C20.1706 239.643 20.0094 238.905 19.8794 238.159C19.823 237.161 19.7121 236.167 19.6453 235.17C19.6368 233.958 19.6151 232.726 19.5366 231.537C19.4581 230.347 19.3301 229.144 19.1918 227.951L19.191 227.84C19.0718 225.609 19.0655 223.371 19.1724 221.141C19.2048 220.945 19.2425 220.756 19.2853 220.567C20.5707 220.609 21.8553 220.458 23.1153 220.119C25.0312 219.468 26.9324 217.838 26.3446 214.817C26.2104 214.236 25.973 213.707 25.6531 213.277C25.3331 212.846 24.9402 212.526 24.5081 212.345C23.6626 212.113 22.8322 211.791 22.0247 211.381C21.8629 211.265 21.7066 211.136 21.5568 210.994C21.4075 210.828 21.2582 210.648 21.1166 210.475L21.0563 210.392C21.0465 210.372 21.0377 210.351 21.0299 210.329C20.4356 207.863 20.6086 208.448 20.4296 207.015C20.4289 206.921 20.4283 206.83 20.4276 206.736C20.404 205.459 20.3205 204.186 20.1774 202.923C20.1358 201.446 20.1279 199.963 20.011 198.491C19.5561 193.29 19.6465 188.046 19.3447 182.83C18.6933 173.711 18.6964 164.547 18.6451 155.398C18.6458 151.803 18.5502 148.197 18.7563 144.614C18.8605 143.76 19.0109 142.917 19.2064 142.093C19.3507 141.667 19.5217 141.259 19.7175 140.873C19.787 140.767 19.8564 140.666 19.9311 140.567L20.174 140.373C21.2984 139.887 22.5317 139.729 23.4967 138.739C24.8481 137.64 25.5508 135.197 24.641 133.31C23.9581 131.92 22.7658 131.265 21.6598 130.671L21.4277 130.548C21.0641 129.106 20.8715 127.593 20.4587 126.169C20.4124 125.94 20.3778 125.707 20.3551 125.472C20.2935 124.848 20.3021 124.219 20.2587 123.595C19.9769 120.48 20.023 120.752 19.8229 116.683C19.7226 109.444 19.7054 102.201 19.6701 94.9574C19.6993 90.6075 19.5874 88.0148 20.1703 85.5272C20.725 83.4762 20.2954 84.4788 21.4667 82.1566C21.5104 82.0898 21.5568 82.0231 21.6031 81.9598L21.7039 81.882L21.7531 81.8606C22.1411 81.6874 22.5379 81.5517 22.9405 81.4548L23.2597 81.3959C23.7786 81.2757 23.5819 81.3928 25.2504 81.0278C25.7483 80.8799 26.2354 80.6693 26.736 80.5423C26.9151 80.5127 27.0942 80.4865 27.2707 80.4534C28.3029 80.2602 29.3465 80.1977 30.3879 80.2665C30.5676 80.3061 30.7494 80.3265 30.9315 80.3277C31.3708 80.3097 31.8002 80.1499 32.1834 79.8619C32.5521 79.5588 32.8552 79.1315 33.0628 78.6222C33.2704 78.1129 33.3753 77.5392 33.367 76.9581C33.3587 76.3769 33.2376 75.8084 33.0156 75.3088C32.7936 74.8092 32.4784 74.3958 32.1013 74.1096V74.1096ZM16.55 79.9589C16.5673 79.8226 16.5819 79.6863 16.5965 79.5466L16.7704 79.5065C16.7012 79.6538 16.6269 79.8046 16.5552 79.9589L16.55 79.9589ZM18.3473 249.767C18.293 249.443 18.2336 249.122 18.1663 248.798C18.0583 248.22 17.9347 247.645 17.8058 247.056C18.1619 247.388 18.5338 247.688 18.9192 247.953C18.6975 248.538 18.5081 249.145 18.3525 249.767L18.3473 249.767Z" fill="#6C58A8" stroke="#6C58A8" stroke-miterlimit="10"/>
<path opacity="0.61" d="M323.932 43.313C323.74 42.0032 323.239 40.8108 322.502 39.9137C321.765 39.0167 320.832 38.4631 319.843 38.3357C317.499 37.8883 315.138 37.6288 312.771 37.5585C310.022 37.501 307.274 37.7611 304.526 37.564C297.869 37.1074 291.207 36.8395 284.547 36.5261C280.707 36.322 276.866 36.0061 273.022 35.987C268.467 36.0305 269.599 36.3164 264.39 36.1777C263.423 36.1346 262.456 36.0705 261.489 36.0344C260.522 35.9982 259.564 35.7526 258.687 36.3055C256.95 36.8702 255.69 39.1967 255.551 41.5404C255.573 42.0883 255.592 42.6327 255.612 43.1771C255.803 44.4874 256.304 45.6804 257.041 46.5777C257.778 47.4749 258.711 48.028 259.701 48.1544C260.699 48.2112 261.7 48.2435 262.698 48.3038C266.819 48.5646 270.753 48.1116 271.627 48.1661C275.836 48.1259 280.041 48.5186 284.248 48.7192C288.272 48.9216 292.306 49.0471 296.318 49.302C299.632 49.396 302.94 49.7659 306.254 49.8075C308.517 49.7859 310.783 49.6455 313.047 49.7426C315.064 49.8455 317.075 50.1334 319.079 50.4878C320.827 50.705 322.741 49.43 323.456 47.2309C324.053 46.1011 324.022 44.6631 323.932 43.313Z" fill="#6C58A8" stroke="#6C58A8" stroke-miterlimit="10"/>
<path opacity="0.61" d="M334.058 87.8369C334.013 87.2858 333.97 86.7346 333.927 86.1835C333.949 85.3649 333.808 84.5528 333.518 83.831C333.331 83.0797 333.002 82.4057 332.563 81.8748C332.161 81.2942 331.654 80.8635 331.092 80.6251C330.55 80.2491 329.944 80.0741 329.336 80.1183L328.13 80.3462C327.177 80.7217 326.341 81.5018 325.747 82.5697C325.153 83.6375 324.833 84.9359 324.834 86.2704C325.035 88.939 325.314 91.6034 325.379 94.2942C325.44 96.3079 325.286 98.3166 325.3 100.331C325.324 103.776 325.247 107.229 325.05 110.663C324.889 111.82 324.736 112.977 324.628 114.158C324.444 114.95 324.422 115.794 324.564 116.602C324.596 117.409 324.787 118.19 325.118 118.866C325.399 119.559 325.806 120.145 326.302 120.568C326.743 121.102 327.278 121.474 327.856 121.65C329.056 121.966 330.298 121.902 331.357 120.998C333.622 118.945 333.365 117.111 333.839 113.892C334.291 110.546 334.267 107.14 334.399 103.763C334.379 100.876 334.431 97.9919 334.489 95.1078C334.44 92.6761 334.296 90.2491 334.058 87.8369V87.8369Z" fill="#6C58A8" stroke="#6C58A8" stroke-miterlimit="10"/>
<path opacity="0.61" d="M334.242 185.674C334.225 183.318 333.106 180.871 331.406 180.116C330.497 179.427 329.436 179.597 328.442 179.837C327.49 180.212 326.654 180.992 326.06 182.059C325.466 183.126 325.146 184.424 325.147 185.758C324.871 189.696 324.791 193.655 324.908 197.608C324.915 198.634 324.79 199.655 324.787 200.681C324.764 201.498 324.819 202.315 324.84 203.124C324.641 203.217 324.439 203.299 324.234 203.375C323.556 203.409 322.878 203.423 322.283 203.92C320.594 204.705 319.502 207.176 319.527 209.532C319.616 211.144 319.983 212.712 320.89 213.841C321.444 214.546 322.114 215.066 322.846 215.357C323.577 215.649 324.349 215.704 325.099 215.518C326.545 215.375 327.902 214.688 329.206 213.87C330.212 213.278 331.134 212.457 331.931 211.442C332.839 210.096 333.308 208.458 333.613 206.706C333.885 205.246 333.982 203.737 333.901 202.235C333.8 200.463 334.035 198.701 333.994 196.931C333.892 193.175 333.975 189.415 334.242 185.674V185.674Z" fill="#6C58A8" stroke="#6C58A8" stroke-miterlimit="10"/>
<path opacity="0.61" d="M332.274 228.042C331.367 226.975 330.279 226.228 329.047 226.282C326.754 226.457 324.469 226.734 322.178 226.923C320.06 227.022 317.94 226.969 315.825 226.764C314.634 226.65 313.441 226.599 312.248 226.579C311.302 226.588 310.299 226.485 309.459 227.136C307.77 227.92 306.675 230.391 306.702 232.748C306.833 235.169 307.475 236.667 308.992 238C309.949 238.791 311.048 238.86 312.139 238.798C314.06 238.779 315.974 239.012 317.89 239.141C321.647 239.391 325.385 238.8 329.133 238.503C329.741 238.535 330.345 238.349 330.881 237.962C331.44 237.713 331.941 237.273 332.335 236.685C332.766 236.145 333.085 235.465 333.262 234.71C333.54 233.983 333.67 233.168 333.638 232.35C333.546 230.739 333.181 229.171 332.274 228.042Z" fill="#6C58A8" stroke="#6C58A8" stroke-miterlimit="10"/>
<path opacity="0.61" d="M335.69 270.738C335.517 269.388 335.649 267.924 335.142 266.707C334.554 264.437 332.712 262.96 330.958 262.991C329.758 263.107 328.595 263.597 327.756 264.809C326.964 266.028 326.411 267.489 326.453 269.143C326.622 270.819 326.721 272.505 326.749 274.195C326.749 274.248 326.729 274.304 326.714 274.356C326.257 276.651 326.871 279.437 328.388 280.76C329.125 281.734 330.166 281.923 331.154 282.046C332.147 282.024 333.108 281.572 333.892 280.756C334.677 279.94 335.243 278.804 335.506 277.519C336.003 275.322 335.846 272.991 335.69 270.738Z" fill="#6C58A8" stroke="#6C58A8" stroke-miterlimit="10"/>
<path d="M336.96 258.406C336.96 258.406 339.742 258.903 340.424 257.326C341.107 255.748 341.067 253.741 341.004 251.864C340.707 242.79 340.407 233.711 340.106 224.626C340.06 223.296 339.943 221.762 339.202 221.022C338.747 220.572 338.159 220.546 337.624 220.534L313.32 220.044" fill="#6C58A8"/>
<path d="M336.975 260.5C339.658 260.949 341.959 259.646 342.459 255.802C342.814 253.079 342.518 250.188 342.426 247.445L342.123 238.253L341.819 229.06C341.736 226.544 341.985 223.421 341.152 221.087C340.208 218.435 338.244 218.461 336.334 218.424L329.352 218.281L313.321 217.956C311.309 217.916 311.328 222.105 313.335 222.145L328.332 222.448L335.57 222.592C336.35 222.609 338.007 222.139 338.417 223.151C338.867 224.261 338.615 226.476 338.654 227.687L339.311 247.094C339.4 249.865 339.873 253.114 339.263 255.797C339.109 256.497 339.265 256.111 338.837 256.269C338.627 256.333 338.412 256.364 338.196 256.362C337.788 256.387 337.379 256.364 336.974 256.294C334.984 255.964 335.021 260.152 336.988 260.483L336.975 260.5Z" fill="#6C58A8"/>
<path d="M339.484 221.148C339.845 220.394 339.846 219.399 339.837 218.463L338.884 139.48C338.873 138.011 338.791 136.339 338.049 135.39C337.509 134.697 336.744 134.547 336.042 134.474C334.035 134.27 332.017 134.382 330.031 134.807" fill="#6C58A8"/>
<path d="M340.846 222.172C341.846 219.446 341.366 215.883 341.329 212.916L341.204 202.525L340.949 181.394C340.781 167.432 340.708 153.444 340.444 139.476C340.39 136.663 339.907 133.728 337.668 132.751C335.207 131.675 332.121 132.284 329.612 132.783C327.627 133.179 328.463 137.22 330.42 136.828C331.53 136.609 332.65 136.491 333.772 136.475C334.539 136.468 336.179 136.162 336.826 136.795C337.373 137.345 337.291 138.634 337.304 139.468C337.333 140.969 337.341 142.473 337.359 143.974L337.585 162.68L338.03 199.4L338.155 209.791L338.218 214.988C338.228 216.468 338.603 218.751 338.105 220.11C337.223 222.517 339.94 224.586 340.828 222.158L340.846 222.172Z" fill="#6C58A8"/>
<path d="M336.346 134.031C337.66 133.205 337.902 130.62 337.944 128.486C338.272 111.908 338.324 95.3261 338.098 78.7395C338.083 76.6451 337.994 74.3489 337.092 72.7308C335.984 70.7411 334.046 70.4629 332.319 70.3328L318.799 69.3484" fill="#6C58A8"/>
<path d="M337.138 135.835C338.689 134.644 339.232 132.408 339.418 130.134C339.657 127.084 339.588 123.946 339.634 120.884C339.732 114.09 339.785 107.296 339.795 100.503C339.8 93.8213 339.761 87.1413 339.68 80.4628C339.661 77.8134 339.729 74.9676 338.821 72.5327C337.971 70.2578 336.283 68.9718 334.466 68.5458C332.123 67.9957 329.673 68.0506 327.304 67.8812L318.792 67.2644C316.782 67.116 316.806 71.3084 318.803 71.4533L331.574 72.3785C332.911 72.4775 334.807 72.3476 335.777 73.8569C336.828 75.4841 336.537 78.496 336.561 80.4821C336.705 92.1171 336.714 103.753 336.586 115.391C336.55 118.731 336.502 122.07 336.441 125.408C336.413 127.024 336.84 131.269 335.553 132.251C333.808 133.584 335.393 137.196 337.138 135.863L337.138 135.835Z" fill="#6C58A8"/>
<path d="M26.3304 76.6749C18.6618 76.7482 12.8457 77.4775 10.9051 74.6196C8.17409 70.5962 8.45941 63.8665 8.39313 58.1386C8.34408 53.8732 8.29496 49.6078 8.2459 45.3424C8.22646 42.5778 8.25175 39.523 9.49005 37.4864C10.5536 35.7308 12.2237 35.2226 13.7829 34.8517C23.4836 32.5492 33.3529 32.413 43.1781 32.2946C130.249 31.2529 217.325 31.1747 304.404 32.0599C311.294 32.1302 318.202 32.2108 325.041 33.4964C326.649 33.7987 328.357 34.2397 329.551 35.897C330.601 37.3461 331.974 40.7297 331.988 42.8555C332.059 52.8667 332.268 57.0608 331.911 68.818" fill="#6C58A8"/>
<path d="M26.3229 74.5805C23.4878 74.6076 20.6484 74.7674 17.8127 74.7037C16.1622 74.6706 13.8921 74.8424 12.428 73.5997C10.6738 72.1154 10.2696 68.2164 10.1064 65.7115C9.8703 62.0693 9.95613 58.382 9.91221 54.724C9.86544 50.661 9.59424 46.4711 9.84641 42.4192C9.95407 40.7286 10.2589 38.9977 11.3748 38.027C12.4906 37.0563 14.1111 36.8803 15.4188 36.592C21.7891 35.1976 28.2543 34.7448 34.7005 34.5436C61.2023 33.7177 87.7737 33.9071 114.296 33.7479C140.913 33.5912 167.532 33.5241 194.153 33.5466C220.773 33.5691 247.392 33.6813 274.008 33.883C287.263 33.9832 300.551 33.741 313.796 34.365C317.069 34.5222 320.343 34.7946 323.595 35.3186C324.896 35.5331 326.404 35.6583 327.585 36.5058C328.646 37.2706 329.295 38.734 329.807 40.1534C330.803 42.9366 330.448 46.3192 330.484 49.3246C330.518 52.2112 330.551 55.1014 330.545 57.9919C330.529 61.5981 330.448 65.2015 330.338 68.8156C330.256 71.5184 333.374 71.4956 333.457 68.8103C333.668 61.9172 333.677 55.0401 333.597 48.1428C333.559 44.8443 333.736 41.6798 332.696 38.6073C331.656 35.5348 330.079 33.0853 327.603 32.0547C324.642 30.8263 321.24 30.7401 318.174 30.4657C314.838 30.1659 311.495 30.0617 308.155 30.0064C301.083 29.889 294.009 29.8553 286.937 29.7938C258.915 29.5519 230.895 29.4078 202.876 29.3615C174.635 29.3172 146.401 29.3741 118.172 29.5322C90.2519 29.6909 62.2976 29.4519 34.3826 30.361C27.5597 30.5833 20.7262 31.1373 13.9932 32.6783C11.4868 33.2539 8.91037 34.2175 7.63379 37.4623C6.35722 40.7071 6.67425 44.771 6.71483 48.3243C6.76626 52.6805 6.81167 57.0378 6.85099 61.3964C6.87473 64.7719 6.95436 68.3354 7.81895 71.5457C8.51273 74.1189 9.6318 76.5623 11.5653 77.6644C13.4335 78.7322 15.5859 78.8268 17.5848 78.881C20.4986 78.9649 23.4159 78.7974 26.3315 78.7625C28.3403 78.7433 28.3263 74.5544 26.3176 74.5736L26.3229 74.5805Z" fill="#6C58A8"/>
<path d="M11.7916 74.3631C10.4775 78.9138 10.4379 84.0039 10.4181 88.9507L10.254 131.021C10.2454 133.116 10.3431 135.558 11.4798 136.815C12.1241 137.524 12.9619 137.663 13.7553 137.777C15.696 138.063 19.211 137.54 21.1517 137.825" fill="#6C58A8"/>
<path d="M10.2934 73.8365C8.92737 78.7717 8.88948 84.0957 8.86891 89.3008L8.80012 107.231L8.73149 124.815C8.722 127.531 8.57521 130.311 8.75797 133.018C8.89449 135.063 9.30684 137.157 10.5687 138.478C11.993 139.98 14.0226 139.985 15.7506 139.958C17.554 139.941 19.3689 139.7 21.1686 139.906C23.1714 140.152 23.1419 135.96 21.1573 135.717C19.3548 135.497 17.54 135.727 15.7367 135.769C14.9419 135.821 14.145 135.767 13.3578 135.607C12.2565 135.32 11.9928 134.415 11.8764 133.01C11.6324 130.097 11.8344 127.047 11.8528 124.118L11.8945 113.775L11.972 93.7744C11.9954 87.4906 11.6553 80.8856 13.3128 74.8898C14.0123 72.3662 10.9878 71.3304 10.2934 73.8365V73.8365Z" fill="#6C58A8"/>
<path d="M10.7769 137.087C9.36288 138.148 9.15411 140.977 9.13957 143.344C9.00729 166.658 9.74573 189.991 11.3434 213.19C11.4012 214.02 11.483 214.934 11.8793 215.496C12.8324 216.883 14.5934 215.264 15.6746 216.399" fill="#6C58A8"/>
<path d="M9.98469 135.283C6.75872 138.106 7.56226 144.829 7.56725 149.235C7.57115 155.7 7.64174 162.163 7.779 168.624C8.04151 181.315 8.5638 193.994 9.34589 206.66C9.46103 208.498 9.5805 210.336 9.70432 212.176C9.79428 213.512 9.81249 214.992 10.3251 216.188C10.5682 216.741 10.9064 217.207 11.3113 217.548C11.7162 217.89 12.1758 218.095 12.6517 218.149C13.3333 218.254 14.3304 217.759 14.9107 218.239C16.6228 219.65 18.1433 215.998 16.4286 214.583C15.6288 213.924 14.7914 213.848 13.8773 213.934C13.6746 213.936 12.9288 213.943 13.0128 214.068C12.7505 213.721 12.8287 212.272 12.7995 211.822C12.5536 208.145 12.3277 204.466 12.1216 200.787C11.725 193.653 11.4096 186.51 11.1757 179.358C10.9417 172.206 10.7901 165.054 10.7207 157.9C10.6843 154.203 10.6696 150.508 10.6765 146.817C10.679 144.946 10.1256 140.158 11.5591 138.909C13.2354 137.447 11.6611 133.825 9.97445 135.297L9.98469 135.283Z" fill="#6C58A8"/>
<path d="M12.6319 214.906C11.3086 215.187 11.0257 217.832 11.0788 219.836C11.2803 227.798 11.4836 235.759 11.6886 243.718C11.7462 246.008 11.9838 248.742 13.363 249.748C14.0239 250.231 23.4778 250.559 29.4417 249.801" fill="#6C58A8"/>
<path d="M12.2255 212.882C8.72593 214.126 9.54144 220.709 9.6315 224.276C9.77716 229.96 9.92289 235.647 10.0686 241.336C10.1547 244.707 9.97778 250.601 13.0789 251.828C14.864 252.534 17.0712 252.289 18.9036 252.324C22.4214 252.433 25.9406 252.29 29.4462 251.895C31.4325 251.649 31.4343 247.46 29.435 247.706C26.1583 248.076 22.8696 248.224 19.5811 248.15C18.2166 248.135 16.852 248.095 15.4896 247.99C15.0475 247.956 14.6029 247.928 14.1658 247.856C13.7704 247.79 14.3561 247.931 13.9837 247.816C13.7492 247.741 14.1584 248.278 13.9546 247.76C13.2005 245.833 13.2514 243.832 13.1946 241.672L12.9507 232.12L12.7246 223.248C12.6998 222.313 12.2326 217.221 13.0388 216.934C14.9804 216.241 14.1645 212.196 12.2307 212.885L12.2255 212.882Z" fill="#6C58A8"/>
<path d="M13.098 250.892C11.6261 254.073 11.7362 258.278 11.9038 262.148C12.2952 271.249 12.6875 280.349 13.0807 289.45L13.0811 289.505C13.2115 292.527 14.3999 295.225 16.2002 296.608L16.2524 296.645C16.8778 297.165 17.5851 297.48 18.3172 297.565C125.606 305.043 220.927 301.594 334.518 292.148C336.754 291.962 339.326 291.404 340.507 288.558C341.273 286.693 341.212 284.334 341.119 282.136L340.353 264.112C340.278 262.368 340.142 260.439 339.261 259.291C338.456 258.252 337.286 258.204 336.223 258.221L323.914 258.401" fill="#6C58A8"/>
<path d="M11.7423 249.865C10.2418 253.409 10.1714 257.445 10.3189 261.423C10.4982 266.218 10.732 271.009 10.9398 275.803C11.1415 280.469 11.2111 285.181 11.5582 289.831C11.805 293.145 12.9703 296.248 15.0807 298.116C17.6069 300.357 21.0181 299.847 23.9119 300.039C27.2971 300.265 30.684 300.48 34.0726 300.685C40.8842 301.086 47.6965 301.456 54.5094 301.796C81.1994 303.081 107.904 303.724 134.623 303.725C161.235 303.733 187.842 303.164 214.446 302.016C241.905 300.874 269.355 299.27 296.794 297.204C303.95 296.67 311.106 296.124 318.261 295.567L329.313 294.676C332.17 294.443 335.378 294.681 338.14 293.464C340.625 292.372 342.273 289.874 342.648 286.363C343.109 281.946 342.495 277.131 342.305 272.692L342.013 265.828C341.928 263.794 341.939 261.64 341.328 259.743C340.111 255.953 337.251 256.11 334.627 256.149L323.936 256.307C321.925 256.326 321.941 260.515 323.948 260.496L334.316 260.344C335.391 260.334 337.617 259.768 338.352 261.098C339.141 262.536 338.879 265.446 338.95 267.121C339.143 271.699 339.338 276.276 339.533 280.852C339.694 284.614 339.982 288.563 336.707 289.659C333.739 290.647 330.385 290.417 327.343 290.646C323.991 290.91 320.637 291.175 317.281 291.44C310.554 291.97 303.827 292.482 297.102 292.977C271.172 294.872 245.228 296.415 219.269 297.606C194.225 298.704 169.171 299.335 144.107 299.497C118.975 299.626 93.8447 299.198 68.7178 298.214C55.9351 297.708 43.1575 297.054 30.3849 296.252C27.1956 296.05 24.0072 295.848 20.8196 295.645C19.439 295.55 17.9977 295.697 16.8 294.637C16.2546 294.127 15.7908 293.477 15.4359 292.723C15.081 291.969 14.8424 291.127 14.7343 290.247C14.1858 286.168 14.3312 281.709 14.154 277.57C13.9477 272.874 13.7414 268.177 13.5351 263.48C13.3703 259.624 12.9976 255.421 14.4752 251.93C15.467 249.589 12.7473 247.534 11.7528 249.879L11.7423 249.865Z" fill="#6C58A8"/>
<path d="M334.929 277.427C334.983 277.29 335.029 277.153 335.077 277.017C335.275 270.333 335.207 263.642 334.936 256.959C334.723 256.183 334.507 255.403 334.299 254.623C333.852 252.822 333.636 250.936 332.977 249.235C332.95 249.124 332.913 249.012 332.881 248.904C333.007 248.676 333.138 248.448 333.256 248.203C333.769 247.276 334.02 246.101 334.184 244.926C334.282 243.711 334.445 242.501 334.491 241.279C334.502 239.969 334.454 238.659 334.349 237.356C333.923 232.616 333.978 227.854 333.947 223.093C333.7 215.342 333.757 207.574 333.214 199.847C332.927 195.947 332.751 192.032 332.521 188.124C332.07 182.351 331.66 176.574 331.342 170.786C331.1 166.03 331.08 161.265 331.018 156.504C330.877 151.688 330.95 146.87 330.916 142.056C330.906 140.66 330.881 139.264 330.863 137.889C331 137.444 331.117 136.996 331.249 136.537C331.599 133.854 331.717 131.125 331.602 128.404C331.509 123.633 331.275 118.87 331.094 114.096C331.028 112.208 330.986 110.32 330.952 108.432C331.054 108.081 331.153 107.731 331.244 107.382C331.463 105.807 331.615 104.217 331.699 102.619C331.837 99.7241 331.846 96.8202 331.726 93.923C331.578 90.9466 331.51 87.9486 331.089 85.0133L330.946 84.5643C330.968 83.6425 330.995 82.7207 331.022 81.8023C331.058 80.5348 331.09 79.2673 331.141 77.9996C331.251 76.9268 331.339 75.8473 331.415 74.7714C331.363 73.7246 331.197 72.7033 331.104 71.6674C330.982 71.2916 330.863 70.9157 330.74 70.5364C330.554 69.5921 331.394 66.9939 331.011 66.1248C330.293 64.5293 328.214 64.9541 327.017 64.0195L326.161 63.4727L326.18 62.8755C326.188 61.0811 326.17 59.28 326.049 57.4903C325.685 53.7934 325.984 50.0798 325.971 46.3726C325.859 43.8072 325.597 41.257 325.189 38.7454C324.922 37.658 324.597 36.5972 324.218 35.571C323.934 34.6172 323.623 33.6707 323.302 32.7521C322.581 31.0485 321.825 29.2753 320.549 28.2403C319.782 27.309 318.848 26.6611 317.839 26.3602C316.904 25.9685 315.914 25.8882 314.952 26.1259C313.904 25.7272 312.839 25.4156 311.762 25.1929C311.629 25.0581 311.5 24.9231 311.367 24.7813C310.702 24.4385 310.062 24.0188 309.376 23.6972C308.523 23.5762 307.672 23.3644 306.814 23.3028C305.894 23.3116 304.975 23.4565 304.058 23.556C301.565 23.8416 299.081 24.2389 296.586 24.4967C292.17 24.9089 287.734 25.2271 283.301 25.2799C281.632 25.2295 279.972 24.9836 278.306 24.8739C276.514 24.7374 274.718 24.7406 272.929 24.5762C268.218 24.3105 263.564 23.1925 258.836 23.1609C256.574 23.1168 254.311 23.2421 252.059 23.5364C250.29 23.6824 248.515 23.6156 246.745 23.5872C238.104 23.2892 229.464 22.9669 220.823 22.6899C216.62 22.566 212.424 21.9568 208.218 22.196C204.51 22.2733 200.851 23.0379 197.198 23.8059C190.777 24.74 184.293 24.2993 177.846 24.4377C176.23 24.4811 174.616 24.4476 173.002 24.4351C171.226 24.1903 169.449 23.9454 167.67 23.7565C164.661 23.506 161.646 23.4056 158.631 23.3158C154.443 23.1324 150.251 23.4517 146.061 23.4115C142.084 23.2889 138.122 23.8364 134.152 23.9337C130.984 23.985 127.824 23.6137 124.654 23.6998C121.535 23.6284 118.419 23.9968 115.302 24.1383C112.859 24.2175 110.418 24.3875 107.973 24.4283C105.854 24.3997 103.737 24.1755 101.623 24.0107C97.3875 23.6567 93.1449 23.8265 88.9059 23.7832C86.7722 23.7687 84.6399 23.9496 82.5062 23.9316C80.2292 23.8731 77.9539 23.6749 75.6758 23.8294C72.6651 24.0083 69.6573 24.236 66.6557 24.6138C64.1133 24.865 61.5828 25.336 59.0313 25.4127C57.2123 25.4301 55.4203 25.2343 53.6139 25.1887C51.0792 25.0698 48.5432 25.1325 46.0063 25.0625C44.07 25.0286 42.1349 24.8062 40.1966 24.8702C38.3337 24.9229 36.4857 25.2547 34.6256 25.3493C32.2301 25.435 29.8319 25.1298 27.4378 25.034C25.2163 25.1006 22.9909 24.9892 20.7751 25.1291C18.6978 25.412 16.6342 25.8513 14.5941 26.4449C14.4385 26.5022 14.2856 26.563 14.1328 26.6273C13.9086 26.4946 13.6786 26.3803 13.4442 26.2848C12.8348 25.8138 12.1432 25.5697 11.4408 25.5779C10.3908 25.2698 9.29921 25.3453 8.27964 25.7966L6.3954 26.8898L4.80379 28.5702C4.05188 29.5085 3.49508 30.694 3.18813 32.0102C2.70076 33.2794 2.47477 34.7012 2.53358 36.1287C2.63911 37.0912 2.73949 38.0572 2.84501 39.0197C2.91471 39.3228 2.97402 39.6294 3.02816 39.9361C3.12458 42.5603 2.80514 45.1746 2.91206 47.8126C2.83885 51.8139 2.72422 55.8435 3.22509 59.8079C3.36601 61.0004 3.43954 62.218 3.64017 63.3995C3.93078 64.444 4.26523 65.4357 4.59703 66.424C5.03499 67.4753 5.60724 68.4152 6.28756 69.2006C6.2401 69.4733 5.55281 68.9318 5.50798 69.208C5.3343 70.7492 4.28358 73.5868 3.95677 76.634C3.89826 77.1826 4.1651 82.9785 4.11438 83.527C3.78456 86.8849 4.79095 89.1968 4.49236 92.5614C4.19378 95.926 3.85403 99.3468 3.67532 102.759C3.42123 106.169 3.02682 109.576 2.9912 113.011C3.03992 115.874 2.98736 118.751 3.21533 121.604C3.4433 124.457 3.86822 127.232 4.23877 130.035C3.75392 130.831 3.29923 131.659 2.87631 132.516C2.45477 133.686 2.0984 134.895 1.81023 136.136C1.55224 137.95 1.4001 139.789 1.35516 141.635C1.48266 146.092 2.01787 150.51 2.33495 154.947C2.62707 159.531 2.80761 164.134 2.79319 168.735C2.83297 174.39 2.16051 180.02 2.46799 185.68C2.57939 188.216 2.85431 190.731 3.13187 193.245C3.2413 194.392 3.2988 195.547 3.35628 196.699C3.52388 200.153 3.87195 203.587 4.39791 206.977C4.74281 208.719 5.34964 210.378 5.70503 212.134C5.70567 212.225 5.7063 212.316 5.70694 212.406C5.6075 216.003 5.22473 219.595 5.3696 223.196C5.47154 225.28 5.6684 227.353 5.95904 229.405C6.16179 230.52 6.4008 231.624 6.58539 232.743C6.29828 233.513 6.14941 234.363 6.15066 235.226C6.04294 235.988 5.99957 236.765 6.0214 237.541C6.01516 238.708 6.07027 239.874 6.18629 241.031C5.65502 241.878 5.24832 242.853 4.98769 243.905C4.81511 244.403 4.66595 244.915 4.54108 245.438C4.43101 246.046 4.40943 246.675 4.34101 247.294C4.19092 248.405 4.1639 249.54 4.26078 250.663C4.35388 253.923 4.74823 257.151 5.12433 260.373C5.39892 262.465 5.67349 264.557 6.05433 266.606C5.96881 268.489 5.89374 270.374 5.92517 272.256C6.1214 275.769 5.99613 279.024 6.49074 282.468C6.69607 283.58 7.14235 284.584 7.44871 285.65C7.84547 286.637 8.44634 287.456 8.94898 288.348C9.14763 288.67 9.37192 288.961 9.6178 289.218C10.0392 289.647 10.4555 290.086 10.8795 290.511C13.3489 290.962 15.8038 291.557 18.2461 292.228C18.987 291.937 19.6864 291.482 20.3157 290.882C20.5318 290.932 20.7529 290.968 20.9766 290.991C23.795 291.547 26.6424 290.692 29.4216 290.097C30.0208 289.941 30.6119 289.736 31.2004 289.539C31.2606 289.59 31.3155 289.646 31.3756 289.694C31.8644 290.342 32.4706 290.808 33.1341 291.046L34.102 291.584C34.4414 291.771 34.8108 291.836 35.1741 291.773C35.5359 291.853 35.8975 291.913 36.2591 291.958C37.4066 291.801 38.5431 291.552 39.6767 291.259C41.1073 291.052 42.5489 291.016 43.9848 291.151C46.141 291.413 48.2924 291.718 50.4487 291.99C53.3968 292.507 56.3549 292.981 59.3288 293.11C60.6414 293.129 61.9543 293.21 63.2664 293.166C65.2103 293.024 67.1599 293.089 69.0969 293.362L69.9501 293.476L70.3065 293.532C72.2293 293.863 74.1572 294.169 76.0964 294.248C78.7895 294.355 81.4803 294.127 84.1726 294.122C84.8721 294.182 85.5716 294.245 86.2687 294.336C87.1665 294.502 88.0668 294.668 88.9646 294.844C91.0044 295.174 93.0476 295.618 95.1084 295.616C97.8075 295.465 100.502 295.003 103.209 295.214C104.025 295.206 104.841 295.286 105.653 295.376C107.952 295.172 110.252 294.994 112.554 294.842C126.248 293.993 139.967 294.083 153.658 295.112C159.874 294.331 166.118 294.004 172.363 294.134C185.206 292.409 198.127 291.913 211.027 292.651L212.707 292.321C213.202 292.232 213.698 292.151 214.194 292.069C216.081 291.782 217.957 291.367 219.853 291.191C222.421 290.926 225.001 291.107 227.575 291.023C229.757 290.887 231.93 290.556 234.112 290.385C236.985 290.204 239.823 289.395 242.68 289.224C244.841 289.081 246.996 288.834 249.158 288.698L249.191 288.698C250.019 288.802 250.847 289.062 251.673 289.068C252.775 288.988 253.873 288.855 254.968 288.688C259.861 288.495 264.761 288.671 269.637 288.055C271.475 287.789 273.307 287.457 275.134 287.06C276.309 287.115 277.489 287.108 278.664 287.17C281.62 287.389 284.575 287.78 287.535 287.664C290.283 287.551 293.023 287.221 295.742 286.678C298.16 286.784 300.577 286.789 302.998 286.658C304.137 286.689 305.276 286.832 306.416 286.758C308.144 286.693 309.865 286.393 311.593 286.359C312.864 286.365 314.123 286.604 315.389 286.672C317.936 286.681 320.48 286.409 322.993 285.859C324.622 285.495 326.251 285.088 327.846 284.521C328.763 284.129 329.658 283.555 330.522 283.047C330.826 282.873 331.11 282.643 331.365 282.362C332.151 281.499 332.981 280.824 333.615 279.774C334.018 279.031 334.501 278.254 334.929 277.427Z" fill="#EDC9A9"/>
<path opacity="0.33" d="M25.5511 66.4922C24.6504 65.9004 23.6103 65.8126 22.6142 65.7034C22.46 65.6609 22.3078 65.6064 22.1582 65.5402C21.114 64.8695 20.0701 64.2406 19.0569 63.5486C18.4444 63.1374 17.8533 62.6707 17.2878 62.1517L17.0046 61.8053C16.5271 61.2622 16.0879 60.6611 15.6926 60.0096C15.2189 59.1658 14.7607 58.301 14.3334 57.4114C14.278 57.2828 14.2224 57.1541 14.1721 57.022C14.1561 56.9628 14.1375 56.8966 14.1161 56.813C13.0429 52.0198 13.3202 50.8023 13.2932 45.1159C13.2932 42.8992 13.3972 40.6885 13.47 38.4815C13.5009 35.4825 13.5578 32.4833 13.7499 29.4967L13.8552 27.8376C13.849 26.958 13.5833 26.1168 13.1162 25.4987C11.5844 23.4782 8.89702 24.9212 8.91786 27.8848L8.91865 27.9965C7.61298 27.1013 5.94908 27.002 4.82705 28.1996C2.85755 30.4666 2.73913 34.3217 2.48904 37.5602C2.28609 40.8505 2.12483 44.1509 2.14289 47.4567C2.16094 50.7624 2.54793 54.0611 2.82839 57.3573C3.03767 59.771 3.10701 62.2419 3.57836 64.5972C3.85755 65.7381 4.25262 66.8221 4.75231 67.8186C4.4728 68.6836 4.29343 69.6012 4.22048 70.5396C3.73953 76.0563 3.77875 81.6344 3.60465 87.1796C3.59038 91.4317 3.8827 95.6738 3.90741 99.9255C3.9614 105.385 3.95569 110.855 4.28248 116.305C4.41996 118.485 4.4875 120.694 4.87157 122.834C4.97912 123.441 5.11261 124.038 5.27137 124.625C5.04415 125.573 5.06363 125.391 4.78728 126.375C3.97506 129.13 4.00443 129.241 3.57955 130.537C2.73795 132.81 2.87338 135.431 3.23098 137.871C3.28335 139.037 3.41101 140.198 3.46076 141.36C3.53051 144.257 3.26755 147.139 3.2879 150.033C3.38118 157.014 3.2822 163.996 3.53658 170.976C3.76824 174.353 3.75834 177.75 3.99519 181.126C4.04425 183.191 4.17406 185.251 4.38419 187.298C4.88709 192.662 5.48229 195.627 5.73187 199.336C5.88977 202.204 5.55122 205.059 5.3972 207.916C5.35794 208.615 5.38378 209.334 5.34719 210.043C5.19913 211.47 5.11204 212.908 5.08639 214.349C5.08718 214.461 5.06979 214.569 5.0629 214.699C4.90695 216.173 4.82381 217.654 4.69909 219.136C4.72561 218.842 4.75207 218.545 4.78119 218.252C4.55443 220.743 4.27839 223.248 4.31426 225.762C4.32614 227.451 4.46274 229.132 4.57852 230.814C4.58794 232.246 4.69538 233.674 4.89955 235.08C5.18551 236.572 5.66841 237.981 6.05281 239.429C6.21127 240.035 6.36108 240.647 6.50229 241.265C6.47923 241.31 6.45357 241.349 6.4331 241.394C6.21795 241.906 6.10643 242.485 6.10966 243.073V243.073C6.09912 243.422 6.11432 243.736 6.11663 244.065C6.136 244.602 6.1761 245.136 6.21884 245.669C6.34857 247.705 6.3916 249.749 6.34767 251.791C6.30711 255.632 6.01983 255.058 5.89365 259.287C6.1123 264.141 6.46551 264.48 6.74457 269.423C7.12469 273.588 7.45948 276.482 7.84253 279.955C7.81189 279.663 7.77862 279.37 7.74797 279.077C8.13004 282.41 8.28068 286.092 9.96279 288.781C10.3691 289.303 10.8312 289.739 11.3336 290.077C11.6061 290.265 11.8858 290.434 12.1715 290.582C12.837 290.984 13.4775 291.53 14.2263 291.589C14.6855 291.676 15.1528 291.64 15.601 291.482C16.0491 291.325 16.4693 291.049 16.8368 290.67C17.4528 289.999 17.9059 289.097 18.1387 288.078C18.4863 286.514 18.0672 284.937 18.0484 283.363C18.0078 280.179 18.0269 276.978 17.7213 273.811C17.473 271.021 16.9235 268.268 16.5609 265.486C16.1228 261.951 16.1199 262.642 15.955 260.256C15.8936 257.813 15.7827 255.335 15.6771 252.878C15.6546 251.181 15.6973 249.483 15.805 247.791C15.8041 247.672 15.8267 247.557 15.8441 247.442C15.99 246.255 16.2247 245.091 16.5447 243.968C18.1722 244.065 17.5866 244.308 19.8763 244.338C20.8629 244.206 21.8514 243.97 22.7276 243.291C23.5441 242.62 24.2294 241.416 24.1914 240.073C24.1798 239.109 23.8945 238.186 23.3936 237.494C23.0024 236.918 22.4424 236.735 21.9183 236.481C20.7052 235.826 19.3689 235.745 18.0833 235.492L17.7321 235.439L17.6436 235.419C16.7713 235.169 15.8612 235.087 15.014 234.722C14.6984 234.537 14.3907 234.329 14.0923 234.099L13.9693 233.981C13.8781 233.581 13.7637 233.194 13.701 232.783C13.6203 232.026 13.4592 231.288 13.3292 230.542C13.2728 229.544 13.1619 228.55 13.0951 227.552C13.0866 226.341 13.0649 225.109 12.9864 223.919C12.9078 222.73 12.7798 221.526 12.6415 220.334L12.6407 220.222C12.5215 217.992 12.5153 215.754 12.6222 213.523C12.6546 213.328 12.6922 213.139 12.735 212.95C14.0205 212.991 15.305 212.841 16.565 212.501C18.4809 211.851 20.3822 210.22 19.7944 207.199C19.6601 206.618 19.4228 206.09 19.1029 205.659C18.7829 205.229 18.3899 204.909 17.9579 204.728C17.1124 204.496 16.2819 204.173 15.4745 203.763C15.3126 203.648 15.1564 203.519 15.0066 203.377C14.8573 203.211 14.7079 203.031 14.5664 202.858L14.506 202.774C14.4962 202.754 14.4874 202.733 14.4796 202.712C13.8854 200.246 14.0583 200.831 13.8793 199.398C13.8787 199.303 13.878 199.213 13.8774 199.118C13.8538 197.842 13.7702 196.568 13.6271 195.305C13.5855 193.829 13.5777 192.345 13.4608 190.873C13.0058 185.673 13.0962 180.429 12.7945 175.213C12.143 166.094 12.1462 156.93 12.0948 147.781C12.0955 144.185 12 140.58 12.206 136.996C12.3102 136.142 12.4606 135.3 12.6561 134.475C12.8004 134.05 12.9714 133.642 13.1673 133.255C13.2367 133.15 13.3062 133.048 13.3808 132.95L13.6237 132.755C14.7482 132.27 15.9815 132.111 16.9465 131.121C18.2979 130.023 19.0006 127.579 18.0907 125.692C17.4079 124.303 16.2156 123.647 15.1096 123.054L14.8774 122.93C14.5139 121.489 14.3213 119.975 13.9085 118.552C13.8622 118.323 13.8276 118.09 13.8048 117.854C13.7433 117.23 13.7518 116.602 13.7084 115.977C13.4267 112.863 13.4728 113.134 13.2726 109.066C13.1723 101.827 13.1552 94.5833 13.1198 87.34C13.149 82.9901 13.0372 80.3974 13.62 77.9098C14.1747 75.8588 13.7452 76.8613 14.9165 74.5392C14.9602 74.4724 15.0065 74.4056 15.0528 74.3424L15.1536 74.2646L15.2028 74.2432C15.5908 74.0699 15.9876 73.9343 16.3902 73.8374L16.7094 73.7784C17.2284 73.6583 17.0317 73.7754 18.7001 73.4103C19.1981 73.2624 19.6851 73.0518 20.1858 72.9249C20.3649 72.8952 20.544 72.8691 20.7205 72.836C21.7527 72.6428 22.7963 72.5802 23.8377 72.6491C24.0174 72.6887 24.1992 72.7091 24.3812 72.7102C24.8206 72.6922 25.25 72.5325 25.6332 72.2444C26.0019 71.9414 26.305 71.5141 26.5126 71.0047C26.7202 70.4954 26.8251 69.9218 26.8168 69.3407C26.8085 68.7595 26.6874 68.191 26.4654 67.6914C26.2434 67.1918 25.9282 66.7784 25.5511 66.4922V66.4922ZM9.99976 72.3415C10.017 72.2052 10.0317 72.0689 10.0463 71.9291L10.2201 71.8891C10.151 72.0364 10.0766 72.1872 10.005 72.3414L9.99976 72.3415ZM11.797 242.15C11.7427 241.826 11.6833 241.505 11.6161 241.181C11.5081 240.602 11.3845 240.028 11.2556 239.439C11.6116 239.77 11.9836 240.07 12.369 240.336C12.1473 240.921 11.9578 241.527 11.8022 242.15L11.797 242.15Z" fill="#46248A"/>
<path opacity="0.61" d="M317.382 35.6956C317.191 34.3858 316.689 33.1933 315.952 32.2963C315.215 31.3993 314.282 30.8457 313.293 30.7182C310.949 30.2709 308.588 30.0114 306.222 29.941C303.472 29.8835 300.724 30.1437 297.976 29.9465C291.32 29.49 284.657 29.2221 277.997 28.9087C274.157 28.7045 270.316 28.3887 266.473 28.3695C261.917 28.4131 263.05 28.699 257.841 28.5603C256.874 28.5171 255.906 28.4531 254.939 28.4169C253.972 28.3808 253.014 28.1351 252.137 28.6881C250.4 29.2528 249.14 31.5793 249.001 33.923C249.023 34.4709 249.042 35.0153 249.062 35.5597C249.253 36.87 249.754 38.063 250.491 38.9602C251.229 39.8575 252.162 40.4106 253.151 40.537C254.149 40.5938 255.15 40.6261 256.148 40.6864C260.269 40.9472 264.203 40.4942 265.077 40.5487C269.287 40.5085 273.492 40.9011 277.698 41.1018C281.722 41.3042 285.756 41.4297 289.768 41.6846C293.082 41.7786 296.391 42.1484 299.704 42.1901C301.968 42.1685 304.233 42.0281 306.497 42.1252C308.514 42.2281 310.525 42.516 312.529 42.8704C314.277 43.0876 316.191 41.8126 316.906 39.6135C317.503 38.4837 317.472 37.0457 317.382 35.6956Z" fill="white"/>
<path opacity="0.61" d="M327.508 80.2195C327.463 79.6683 327.42 79.1172 327.377 78.566C327.399 77.7475 327.258 76.9353 326.968 76.2136C326.781 75.4622 326.452 74.7883 326.014 74.2573C325.612 73.6767 325.104 73.2461 324.542 73.0077C324 72.6317 323.394 72.4567 322.787 72.5008L321.58 72.7288C320.627 73.1043 319.791 73.8844 319.197 74.9522C318.603 76.0201 318.283 77.3184 318.285 78.6529C318.485 81.3216 318.764 83.9859 318.83 86.6768C318.891 88.6905 318.736 90.6992 318.75 92.7133C318.774 96.1586 318.697 99.6118 318.5 103.045C318.34 104.202 318.187 105.359 318.078 106.54C317.894 107.332 317.872 108.176 318.015 108.984C318.046 109.791 318.237 110.573 318.568 111.248C318.849 111.942 319.256 112.528 319.752 112.951C320.197 113.487 320.737 113.859 321.319 114.032C322.52 114.349 323.761 114.285 324.82 113.381C327.085 111.327 326.828 109.494 327.302 106.274C327.754 102.929 327.73 99.522 327.862 96.1451C327.842 93.2583 327.894 90.3743 327.952 87.4903C327.898 85.0582 327.75 82.6313 327.508 80.2195Z" fill="white"/>
<path opacity="0.61" d="M327.691 178.057C327.675 175.701 326.556 173.254 324.856 172.499C323.947 171.809 322.885 171.98 321.892 172.22C320.939 172.595 320.104 173.375 319.51 174.442C318.916 175.509 318.595 176.807 318.596 178.141C318.321 182.079 318.241 186.038 318.358 189.991C318.365 191.017 318.239 192.038 318.236 193.064C318.213 193.881 318.268 194.698 318.29 195.507C318.09 195.6 317.888 195.682 317.683 195.757C317.005 195.792 316.327 195.805 315.733 196.303C314.044 197.087 312.952 199.559 312.976 201.915C313.066 203.527 313.433 205.094 314.34 206.224C314.894 206.929 315.564 207.448 316.296 207.74C317.027 208.031 317.799 208.087 318.548 207.901C319.995 207.758 321.352 207.071 322.656 206.252C323.662 205.661 324.584 204.839 325.38 203.825C326.288 202.479 326.758 200.841 327.062 199.089C327.334 197.629 327.432 196.12 327.35 194.618C327.25 192.845 327.484 191.084 327.443 189.314C327.341 185.558 327.424 181.798 327.691 178.057V178.057Z" fill="white"/>
<path opacity="0.61" d="M325.723 220.424C324.816 219.357 323.727 218.61 322.496 218.664C320.202 218.839 317.917 219.116 315.627 219.306C313.509 219.404 311.388 219.351 309.274 219.146C308.083 219.032 306.89 218.981 305.697 218.961C304.751 218.97 303.747 218.868 302.907 219.518C301.218 220.302 300.124 222.774 300.15 225.13C300.282 227.551 300.924 229.05 302.441 230.383C303.397 231.173 304.497 231.243 305.588 231.18C307.508 231.161 309.423 231.394 311.339 231.523C315.096 231.773 318.834 231.182 322.582 230.885C323.19 230.917 323.793 230.731 324.329 230.344C324.889 230.095 325.39 229.655 325.783 229.067C326.214 228.527 326.534 227.847 326.71 227.093C326.989 226.365 327.118 225.55 327.086 224.733C326.994 223.121 326.63 221.553 325.723 220.424Z" fill="white"/>
<path opacity="0.61" d="M329.14 263.12C328.967 261.771 329.099 260.307 328.592 259.09C328.004 256.819 326.161 255.343 324.408 255.374C323.208 255.49 322.044 255.979 321.206 257.192C320.414 258.41 319.86 259.871 319.903 261.526C320.072 263.201 320.17 264.888 320.198 266.578C320.199 266.63 320.178 266.686 320.163 266.739C319.706 269.033 320.321 271.82 321.838 273.142C322.575 274.116 323.616 274.305 324.604 274.429C325.597 274.407 326.558 273.954 327.342 273.138C328.126 272.322 328.693 271.187 328.956 269.901C329.453 267.704 329.296 265.374 329.14 263.12Z" fill="white"/>
<path d="M330.424 252.883C333.106 253.332 335.407 252.029 335.908 248.184C336.263 245.461 335.967 242.57 335.875 239.827L335.571 230.635L335.268 221.443C335.185 218.927 335.433 215.804 334.601 213.469C333.657 210.818 331.693 210.844 329.782 210.806L322.801 210.663L306.77 210.338C304.758 210.298 304.777 214.487 306.784 214.527L321.78 214.831L329.019 214.975C329.799 214.992 331.456 214.522 331.866 215.534C332.315 216.643 332.063 218.859 332.103 220.07L332.759 239.476C332.849 242.247 333.321 245.496 332.711 248.18C332.558 248.879 332.714 248.494 332.286 248.652C332.076 248.716 331.86 248.747 331.645 248.745C331.237 248.769 330.828 248.746 330.423 248.676C328.432 248.346 328.47 252.535 330.437 252.865L330.424 252.883Z" fill="#46248A"/>
<path d="M334.295 214.554C335.294 211.829 334.814 208.266 334.778 205.299L334.653 194.908L334.398 173.776C334.229 159.814 334.157 145.827 333.892 131.859C333.839 129.046 333.356 126.111 331.117 125.134C328.656 124.058 325.57 124.667 323.074 125.165C321.088 125.561 321.925 129.603 323.882 129.211C324.992 128.992 326.112 128.874 327.234 128.857C328.001 128.85 329.641 128.545 330.287 129.177C330.834 129.727 330.752 131.016 330.766 131.85C330.795 133.351 330.803 134.856 330.821 136.357L331.046 155.062L331.492 191.782L331.617 202.173L331.679 207.371C331.69 208.851 332.064 211.134 331.567 212.493C330.685 214.9 333.402 216.968 334.289 214.541L334.295 214.554Z" fill="#46248A"/>
<path d="M330.587 128.218C332.138 127.026 332.681 124.791 332.867 122.516C333.106 119.466 333.037 116.329 333.083 113.267C333.181 106.472 333.234 99.6787 333.244 92.8853C333.249 86.2037 333.21 79.5236 333.129 72.8451C333.11 70.1957 333.178 67.35 332.27 64.915C331.42 62.6401 329.732 61.3541 327.915 60.9281C325.572 60.378 323.122 60.4329 320.753 60.2635L312.241 59.6467C310.231 59.4983 310.255 63.6907 312.252 63.8357L325.024 64.7609C326.36 64.8598 328.256 64.73 329.226 66.2392C330.277 67.8664 329.986 70.8784 330.01 72.8645C330.155 84.4994 330.163 96.1357 330.035 107.773C330 111.113 329.951 114.452 329.89 117.79C329.862 119.407 330.29 123.651 329.002 124.634C327.258 125.966 328.842 129.578 330.587 128.246L330.587 128.218Z" fill="#46248A"/>
<path d="M19.7726 66.963C16.9375 66.9901 14.0981 67.1499 11.2624 67.0863C9.61193 67.0532 7.34181 67.225 5.87774 65.9822C4.12352 64.4979 3.71928 60.5989 3.55613 58.094C3.32001 54.4518 3.40583 50.7646 3.36191 47.1066C3.31515 43.0436 3.04395 38.8536 3.29612 34.8018C3.40377 33.1111 3.70865 31.3802 4.8245 30.4096C5.94035 29.4389 7.56079 29.2628 8.86855 28.9745C15.2388 27.5801 21.704 27.1274 28.1502 26.9261C54.652 26.1003 81.2234 26.2897 107.746 26.1304C134.363 25.9738 160.982 25.9067 187.602 25.9292C214.223 25.9517 240.841 26.0638 267.458 26.2656C280.712 26.3658 294.001 26.1236 307.246 26.7475C310.519 26.9048 313.793 27.1772 317.045 27.7011C318.346 27.9156 319.854 28.0408 321.035 28.8883C322.095 29.6532 322.745 31.1166 323.256 32.536C324.253 35.3192 323.898 38.7018 323.934 41.7071C323.968 44.5938 324.001 47.4839 323.995 50.3744C323.979 53.9807 323.898 57.5841 323.788 61.1982C323.706 63.9009 326.824 63.8781 326.907 61.1928C327.118 54.2998 327.127 47.4226 327.047 40.5254C327.008 37.2268 327.186 34.0624 326.146 30.9899C325.105 27.9173 323.529 25.4678 321.053 24.4373C318.092 23.2088 314.69 23.1227 311.624 22.8483C308.287 22.5485 304.945 22.4443 301.605 22.389C294.533 22.2715 287.458 22.2379 280.387 22.1763C252.365 21.9345 224.344 21.7904 196.326 21.744C168.085 21.6998 139.851 21.7567 111.622 21.9148C83.7016 22.0734 55.7473 21.8344 27.8323 22.7436C21.0095 22.9659 14.1759 23.5199 7.4429 25.0609C4.93652 25.6364 2.36007 26.6001 1.0835 29.8449C-0.193076 33.0897 0.123952 37.1535 0.164537 40.7069C0.215965 45.063 0.261381 49.4204 0.300699 53.779C0.32444 57.1545 0.404065 60.7179 1.26865 63.9283C1.96244 66.5014 3.08151 68.9448 5.01496 70.0469C6.88321 71.1147 9.03564 71.2093 11.0345 71.2635C13.9483 71.3474 16.8656 71.1799 19.7812 71.145C21.79 71.1258 21.776 66.9369 19.7673 66.9561L19.7726 66.963Z" fill="#46248A"/>
<path d="M3.74259 66.2191C2.37659 71.1543 2.33869 76.4783 2.31813 81.6834L2.24933 99.6133L2.18071 117.198C2.17122 119.914 2.02443 122.694 2.20719 125.401C2.34371 127.445 2.75606 129.539 4.01794 130.861C5.44221 132.362 7.47183 132.367 9.1998 132.34C11.0032 132.323 12.818 132.082 14.6178 132.289C16.6206 132.535 16.591 128.343 14.6065 128.1C12.804 127.88 10.9892 128.11 9.18594 128.151C8.39109 128.204 7.59415 128.15 6.80699 127.989C5.70571 127.703 5.44204 126.798 5.3256 125.392C5.08163 122.48 5.28364 119.43 5.30202 116.501L5.34366 106.157L5.42125 86.157C5.44462 79.8731 5.10455 73.2681 6.76195 67.2724C7.46145 64.7487 4.43702 63.7129 3.74259 66.2191V66.2191Z" fill="#46248A"/>
<path d="M3.43437 127.665C0.208436 130.489 1.01196 137.212 1.01696 141.617C1.02085 148.082 1.09144 154.546 1.22871 161.007C1.49121 173.697 2.0135 186.376 2.79558 199.043C2.91072 200.88 3.03019 202.719 3.15401 204.559C3.24397 205.895 3.26218 207.375 3.77474 208.571C4.0179 209.123 4.35613 209.59 4.76099 209.931C5.16585 210.272 5.62549 210.478 6.10136 210.531C6.78297 210.636 7.78004 210.142 8.36033 210.621C10.0724 212.033 11.5929 208.381 9.87824 206.966C9.07839 206.307 8.24106 206.231 7.32692 206.316C7.12423 206.318 6.37843 206.326 6.46247 206.45C6.20016 206.104 6.27832 204.654 6.24917 204.204C6.00328 200.527 5.77736 196.849 5.5713 193.169C5.17463 186.035 4.85931 178.892 4.62536 171.74C4.39142 164.589 4.23978 157.436 4.17042 150.283C4.13401 146.585 4.11926 142.891 4.12622 139.2C4.12865 137.328 3.57526 132.541 5.00876 131.291C6.68505 129.83 5.11074 126.208 3.42413 127.679L3.43437 127.665Z" fill="#46248A"/>
<path d="M5.67419 205.264C2.17466 206.509 2.99017 213.092 3.08023 216.659C3.22589 222.343 3.37162 228.029 3.51731 233.718C3.6034 237.09 3.42651 242.984 6.52763 244.211C8.31272 244.917 10.52 244.672 12.3523 244.707C15.8701 244.815 19.3893 244.672 22.8949 244.278C24.8812 244.032 24.883 239.843 22.8837 240.089C19.607 240.458 16.3183 240.606 13.0298 240.532C11.6654 240.517 10.3008 240.478 8.93827 240.372C8.49625 240.338 8.05165 240.311 7.61455 240.238C7.21908 240.172 7.8048 240.313 7.43237 240.198C7.19796 240.124 7.60712 240.661 7.40337 240.143C6.64918 238.216 6.70014 236.215 6.64336 234.055L6.39942 224.503L6.17333 215.631C6.14856 214.696 5.68133 209.603 6.48751 209.316C8.4291 208.624 7.61323 204.579 5.67942 205.268L5.67419 205.264Z" fill="#46248A"/>
<path d="M5.19106 242.248C3.69049 245.792 3.62012 249.828 3.76764 253.806C3.9469 258.601 4.1807 263.392 4.38854 268.186C4.59027 272.852 4.6598 277.564 5.00696 282.214C5.25376 285.528 6.41907 288.63 8.52944 290.499C11.0556 292.74 14.4668 292.229 17.3606 292.422C20.7459 292.648 24.1328 292.863 27.5213 293.068C34.3329 293.468 41.1452 293.839 47.9582 294.178C74.6481 295.464 101.353 296.107 128.072 296.108C154.683 296.116 181.291 295.547 207.895 294.399C235.354 293.256 262.803 291.652 290.242 289.587C297.399 289.053 304.555 288.507 311.71 287.95L322.761 287.059C325.619 286.826 328.827 287.064 331.589 285.847C334.073 284.755 335.722 282.257 336.097 278.745C336.557 274.328 335.944 269.513 335.754 265.075L335.462 258.211C335.377 256.177 335.388 254.023 334.777 252.126C333.56 248.336 330.7 248.492 328.075 248.531L317.385 248.69C315.374 248.709 315.39 252.898 317.396 252.878L327.764 252.727C328.84 252.717 331.066 252.151 331.8 253.481C332.59 254.919 332.327 257.829 332.399 259.504C332.592 264.082 332.786 268.659 332.981 273.235C333.143 276.997 333.431 280.946 330.156 282.042C327.187 283.03 323.833 282.8 320.792 283.028C317.44 283.293 314.085 283.558 310.73 283.823C304.003 284.352 297.276 284.865 290.55 285.36C264.621 287.255 238.677 288.798 212.718 289.989C187.673 291.087 162.619 291.717 137.556 291.88C112.423 292.009 87.2934 291.581 62.1666 290.597C49.3839 290.091 36.6062 289.437 23.8336 288.635C20.6443 288.433 17.4559 288.23 14.2684 288.028C12.8877 287.933 11.4464 288.08 10.2487 287.019C9.70337 286.51 9.23949 285.859 8.88462 285.105C8.52976 284.351 8.29114 283.51 8.183 282.63C7.63455 278.551 7.77994 274.092 7.6027 269.953C7.39641 265.256 7.19012 260.56 6.98384 255.863C6.81898 252.007 6.44636 247.804 7.92391 244.313C8.91577 241.972 6.196 239.917 5.20156 242.262L5.19106 242.248Z" fill="#46248A"/>
</svg>
