<svg width="335" height="54" viewBox="0 0 335 54" fill="none" xmlns="http://www.w3.org/2000/svg">
<path d="M5.33987 15.2817L331.507 11.5723C332.629 11.5358 333.05 26.2928 333.766 27.6683C334.16 28.3999 334.266 29.5632 334.238 31.0118L334.14 44.9568C334.14 44.9568 333.88 47.0126 333.353 47.5467C332.652 48.2784 331.692 49.588 329.835 49.6392L7.38595 51.8853C3.23474 52.0097 3.27014 46.7639 3.19144 40.7352L3.08524 32.5921C3.03647 31.5069 3.07624 30.4141 3.20325 29.351C3.52984 27.8365 4.00598 15.3256 5.33987 15.2817Z" fill="#6C58A8"/>
<path d="M5.33587 16.7962L14.8384 16.6938L40.4461 16.4011L78.0432 15.9695L123.687 15.45L173.116 14.8866L221.97 14.3306L266.316 13.8257L302.158 13.4233L325.086 13.16L330.492 13.0941C330.806 12.999 331.126 12.999 331.44 13.0941C331.594 13.2404 331.09 12.6185 331.33 13.0502C331.374 13.1234 331.696 16.4377 331.779 17.2937C332.109 20.6226 332.172 24.3028 332.79 27.5366C333.054 28.8535 333.384 29.7315 333.404 31.2752C333.404 32.4824 333.404 33.7042 333.376 34.9334C333.376 38.0062 333.62 41.6132 333.309 44.6348C333.026 47.3565 331.012 48.132 329.524 48.2271C328.159 48.3149 326.77 48.2271 325.424 48.2271L304.393 48.3735L270.006 48.6149L226.421 48.9149L177.629 49.2588L128.082 49.6026L82.1904 49.9172L43.9717 50.1879L17.5573 50.3708C14.1695 50.3708 10.7619 50.6123 7.37407 50.4367C5.0368 50.3196 4.22624 48.3003 4.04131 44.1446C3.91933 41.1157 3.94295 38.0355 3.9036 34.9992C3.8903 32.2539 4.00749 29.5119 4.2538 26.8049C4.36398 25.4734 4.6748 17.1035 5.50898 16.7889C6.5399 16.3938 6.12281 13.4673 5.1155 13.8623C3.73438 14.3818 3.43141 18.2521 3.19925 20.3226C2.84512 23.5272 2.52249 26.9073 2.29034 30.1192C2.05819 33.3311 2.31391 36.7039 2.35326 39.9011C2.39261 43.0984 2.27064 46.581 3.04973 49.4124C4.20263 53.6705 6.73272 53.4437 8.92441 53.429L25.8676 53.312L57.9009 53.0925L100.554 52.7925L149.346 52.456L199.857 52.1048L247.598 51.7683L288.107 51.4902L316.917 51.2927C321.135 51.2927 325.357 51.3951 329.571 51.2049C331.145 51.1317 333.298 50.3855 334.293 47.8613C335.08 45.9005 334.911 43.4715 334.927 41.1742C334.95 37.9111 335.013 34.6334 334.998 31.363C334.998 28.5755 334.211 26.4464 333.959 23.7321C333.609 20.1471 333.498 16.3352 332.861 12.8746C332.542 11.1333 332.121 10.1969 331.181 10.0652C326.971 9.46523 322.587 10.1602 318.373 10.2115L289.598 10.5407L249.215 11.0016L201.604 11.543L151.108 12.1137L102.282 12.6698L59.0931 13.16L26.1077 13.5404L7.68888 13.7453H5.30047C4.29316 13.7818 4.28528 16.8108 5.33587 16.7962Z" fill="#6C58A8"/>
<path d="M10.0971 29.3364L5.76878 29.2706C1.61756 29.1974 2.73111 24.2516 2.77046 18.2229L2.84131 12.1504C2.84131 10.9724 2.71146 8.14103 3.43153 7.02894C4.74969 4.97305 5.62715 5.56569 6.97285 5.62422L330.768 6.6997C331.889 6.6997 332.794 7.00698 333.337 8.20686C333.792 9.19803 334.024 10.4763 333.986 11.7772L333.664 24.1272C333.593 26.4611 332.342 28.3048 330.811 28.3268L324.586 28.5609" fill="#6C58A8"/>
<path d="M10.097 27.822C8.66084 27.822 7.21283 27.8805 5.76876 27.7562C4.26567 27.6245 3.44723 27.0245 3.40788 24.098C3.37247 22.1226 3.54168 20.1106 3.57316 18.1278C3.61251 15.6257 3.1364 9.29703 4.36012 7.61427C5.08412 6.61925 6.20946 7.11679 7.04363 7.14606C8.22407 7.18264 9.44781 7.14606 10.6479 7.14606L31.7266 7.2192L67.2028 7.33625L112.485 7.48258L162.937 7.65084L214.089 7.81915L260.941 7.98009L299.03 8.1045L323.72 8.18497H329.591C329.937 8.18497 330.303 8.12644 330.654 8.18497H330.713C331.362 8.31666 332.373 8.66784 332.853 9.64823C333.333 10.6286 333.093 11.4261 333.105 12.3699C333.152 15.6988 332.932 19.1009 332.845 22.4298C332.782 24.9247 332.365 26.4319 330.768 26.8196C330.231 26.894 329.692 26.9135 329.154 26.8782L324.543 27.0538C323.492 27.0538 323.484 30.1193 324.543 30.0827C327.148 29.9876 332.531 31.6777 334.073 26.527C334.777 24.1712 334.533 20.5276 334.6 17.9669C334.671 15.2306 335.072 11.631 334.49 9.01171C333.522 4.62192 330.835 5.19256 328.726 5.18524L309.48 5.11942L274.193 5.00233L227.959 4.84872L175.717 4.68041L122.805 4.50483L74.5766 4.34389L35.8503 4.2122L12.0605 4.13901C10.4866 4.13901 8.88513 4.13901 7.2994 4.13901C5.71368 4.13901 4.04532 3.64884 2.8216 5.99007C1.59787 8.33129 1.99526 12.5748 1.95985 15.5598C1.9205 18.9473 1.48378 22.7737 1.84971 26.1027C2.55798 32.4898 7.51186 30.8436 10.0813 30.8802C11.1319 30.8802 11.1398 27.8659 10.0813 27.8513L10.097 27.822Z" fill="#6C58A8"/>
<path opacity="0.43" d="M8.64512 26.9732L8.58609 26.8342C8.32214 26.4848 8.09085 26.0572 7.90143 25.5685C7.80306 25.3709 7.71254 25.1661 7.62597 24.9612C7.61919 24.925 7.60996 24.8906 7.59845 24.8588C7.59845 24.7198 7.59845 24.5734 7.59845 24.4344C7.54206 24.0833 7.51547 23.718 7.51972 23.3516C7.54357 22.6919 7.6219 22.0429 7.75191 21.4274C7.81487 20.6299 7.88568 19.8398 7.93683 19.0423C8.09816 16.5547 8.14144 14.0599 8.23194 11.565C8.27523 10.8334 8.2713 10.0578 8.33819 9.31158C8.3618 9.0994 8.39326 8.89456 8.42081 8.68238C8.50137 8.31156 8.52044 7.9044 8.47556 7.51326C8.43069 7.12212 8.32391 6.76489 8.16897 6.48748C7.76505 5.76386 7.24874 5.29536 6.69342 5.14858L6.0324 5.04614C4.95033 5.04614 3.92726 5.95339 3.64789 7.17522C3.16784 10.292 3.29376 13.4746 3.10882 16.6206C3.05767 19.4813 2.60516 22.3273 2.65237 25.188C2.74103 26.2576 3.00166 27.2523 3.4 28.0414C3.6428 28.6247 3.92442 29.1483 4.23811 29.5998C4.124 29.8046 4.01384 30.0168 3.91154 30.229C3.73596 30.6573 3.57809 31.1098 3.43933 31.5825C3.31303 32.319 3.21702 33.0723 3.1521 33.8359C2.86845 36.3608 2.75216 38.9407 2.80584 41.5181C2.80584 43.7569 2.73107 46.0396 2.95142 48.271C3.01238 48.3334 3.07152 48.4018 3.12852 48.4759C4.13976 49.8148 5.0959 51.2049 6.00877 52.6389C6.12931 52.6242 6.25025 52.6242 6.37079 52.6389C6.9733 52.6523 7.57438 52.7501 8.16897 52.9315C8.35067 52.6967 8.50025 52.386 8.60573 52.0243C7.71647 50.5611 7.34659 48.7174 7.81877 46.9541C7.74401 45.4908 7.76368 44.0861 7.76368 42.6448C7.72432 40.2846 7.77958 37.9222 7.92896 35.5772C7.89399 34.788 7.93261 33.9935 8.04308 33.2287C8.32245 31.3776 9.4045 29.9217 10.7738 29.2047C9.95485 28.8998 9.20934 28.1183 8.64512 26.9732Z" fill="#6C58A8"/>
<path d="M323.847 18.0253C324.409 18.0253 324.968 18.0253 325.527 18.0984C325.743 18.0984 325.956 18.1496 326.168 18.1789C326.38 18.2082 326.652 18.3179 326.302 18.1789C326.526 18.3146 326.757 18.4126 326.99 18.4716C327.258 18.4716 326.495 17.9521 326.892 18.4716C326.614 18.2112 326.388 17.7936 326.247 17.279C326.377 17.6943 326.525 18.0905 326.687 18.4643C326.864 18.9106 326.687 17.879 326.727 18.574C326.656 17.5058 326.707 18.274 326.683 18.5228C326.624 19.2909 326.594 20.066 326.593 20.8421C326.495 26.3074 331.051 26.3293 331.149 20.886C331.189 18.6911 331.338 16.8327 330.791 14.7695C330.504 13.6872 330.124 12.6988 329.666 11.843C328.218 9.3408 325.688 9.59686 323.874 9.58954C320.935 9.58954 320.915 18.0546 323.847 18.0619V18.0253Z" fill="#6C58A8"/>
<g clip-path="url(#clip0_0_7110)">
<path d="M3.63187 11.2232L329.799 7.51386C330.921 7.47728 331.342 22.2343 332.058 23.6098C332.452 24.3414 332.558 25.5047 332.53 26.9534L332.432 40.8983C332.432 40.8983 332.172 42.9542 331.645 43.4883C330.944 44.2199 329.984 45.5295 328.127 45.5807L5.67794 47.8268C1.52673 47.9512 1.56213 42.7054 1.48343 36.6768L1.37723 28.5337C1.32846 27.4484 1.36823 26.3557 1.49525 25.2925C1.82184 23.7781 2.29797 11.2671 3.63187 11.2232Z" fill="#EDC9A9"/>
<path d="M3.62786 12.7377L13.1304 12.6353L38.7381 12.3426L76.3352 11.911L121.979 11.3915L171.408 10.8281L220.262 10.2721L264.608 9.76726L300.45 9.36487L323.378 9.10149L328.784 9.03563C329.098 8.94058 329.418 8.94058 329.732 9.03563C329.886 9.18195 329.382 8.56007 329.622 8.99173C329.666 9.06489 329.988 12.3792 330.071 13.2352C330.401 16.5642 330.464 20.2443 331.082 23.4781C331.346 24.795 331.676 25.673 331.696 27.2167C331.696 28.4239 331.696 29.6458 331.668 30.8749C331.668 33.9478 331.912 37.5547 331.601 40.5764C331.318 43.298 329.304 44.0736 327.816 44.1687C326.451 44.2565 325.062 44.1687 323.716 44.1687L302.685 44.315L268.298 44.5565L224.713 44.8564L175.921 45.2003L126.374 45.5441L80.4824 45.8587L42.2637 46.1294L15.8493 46.3123C12.4615 46.3123 9.05393 46.5538 5.66606 46.3782C3.32879 46.2612 2.51823 44.2418 2.3333 40.0861C2.21132 37.0572 2.23494 33.977 2.19559 30.9407C2.18229 28.1954 2.29949 25.4534 2.54579 22.7465C2.65597 21.4149 2.96679 13.045 3.80097 12.7304C4.83189 12.3353 4.4148 9.4088 3.40749 9.80388C2.02638 10.3233 1.7234 14.1936 1.49125 16.2642C1.13711 19.4687 0.814484 22.8489 0.582331 26.0607C0.350177 29.2726 0.605905 32.6454 0.645253 35.8427C0.684601 39.0399 0.56263 42.5225 1.34172 45.3539C2.49462 49.612 5.02472 49.3852 7.2164 49.3706L24.1596 49.2535L56.1929 49.034L98.8461 48.7341L147.638 48.3975L198.149 48.0463L245.89 47.7098L286.399 47.4318L315.209 47.2342C319.427 47.2342 323.649 47.3366 327.863 47.1464C329.437 47.0733 331.59 46.327 332.585 43.8029C333.372 41.8421 333.203 39.413 333.219 37.1157C333.242 33.8526 333.305 30.5749 333.29 27.3045C333.29 24.517 332.503 22.388 332.251 19.6736C331.901 16.0886 331.79 12.2768 331.153 8.81615C330.834 7.07486 330.413 6.13839 329.473 6.0067C325.263 5.40676 320.879 6.10178 316.665 6.15299L287.89 6.48223L247.507 6.94317L199.896 7.48457L149.4 8.05526L100.574 8.61131L57.3851 9.10149L24.3997 9.48196L5.98087 9.68679H3.59246C2.58515 9.72337 2.57727 12.7523 3.62786 12.7377Z" fill="#46248A" stroke="#46248A"/>
<path d="M8.38899 25.278L4.06071 25.2121C-0.090507 25.139 1.02304 20.1931 1.06239 14.1645L1.13324 8.0919C1.13324 6.91397 1.00339 4.08255 1.72346 2.97047C3.04162 0.914583 3.91908 1.50722 5.26478 1.56575L329.06 2.64123C330.181 2.64123 331.086 2.94851 331.629 4.14839C332.084 5.13956 332.316 6.41784 332.278 7.71876L331.956 20.0687C331.885 22.4026 330.634 24.2464 329.103 24.2683L322.878 24.5024" fill="#EDC9A9"/>
<path d="M8.38879 23.7636C6.95259 23.7636 5.50458 23.8222 4.06051 23.6978C2.55741 23.5661 1.73898 22.9662 1.69963 20.0396C1.66421 18.0642 1.83343 16.0522 1.86491 14.0695C1.90425 11.5673 1.42814 5.23868 2.65187 3.55592C3.37587 2.5609 4.5012 3.05844 5.33538 3.08771C6.51582 3.12429 7.73956 3.08771 8.93967 3.08771L30.0184 3.16086L65.4946 3.2779L110.776 3.42423L161.228 3.59249L212.381 3.7608L259.232 3.92174L297.321 4.04615L322.012 4.12662H327.883C328.229 4.12662 328.595 4.06809 328.945 4.12662H329.004C329.654 4.25831 330.665 4.60949 331.145 5.58988C331.625 6.57027 331.385 7.36773 331.397 8.31154C331.444 11.6405 331.224 15.0426 331.137 18.3715C331.074 20.8664 330.657 22.3735 329.059 22.7613C328.523 22.8356 327.984 22.8552 327.446 22.8198L322.835 22.9954C321.784 22.9954 321.776 26.061 322.835 26.0244C325.439 25.9293 330.822 27.6194 332.365 22.4687C333.069 20.1128 332.825 16.4693 332.892 13.9085C332.963 11.1722 333.364 7.57261 332.782 4.95337C331.814 0.563566 329.126 1.13421 327.017 1.12689L307.772 1.06107L272.485 0.943985L226.251 0.790371L174.009 0.622065L121.097 0.44648L72.8684 0.285542L34.1421 0.153853L10.3523 0.0806631C8.77833 0.0806631 7.17688 0.0806631 5.59115 0.0806631C4.00543 0.0806631 2.33707 -0.40951 1.11335 1.93172C-0.110377 4.27294 0.287013 8.51643 0.251599 11.5015C0.212251 14.889 -0.224475 18.7154 0.141462 22.0443C0.849726 28.4315 5.80361 26.7853 8.37304 26.8218C9.42363 26.8218 9.4315 23.8076 8.37304 23.7929L8.38879 23.7636Z" fill="#46248A" stroke="#46248A"/>
<path opacity="0.43" d="M6.93705 22.9147L6.87802 22.7757C6.61407 22.4264 6.38278 21.9988 6.19337 21.51C6.095 21.3125 6.00447 21.1076 5.9179 20.9028C5.91112 20.8665 5.90189 20.8321 5.89038 20.8003C5.89038 20.6613 5.89038 20.515 5.89038 20.3759C5.83399 20.0248 5.80741 19.6595 5.81165 19.2931C5.8355 18.6334 5.91383 17.9844 6.04384 17.3689C6.1068 16.5715 6.17761 15.7813 6.22877 14.9838C6.39009 12.4963 6.43338 10.0014 6.52388 7.50655C6.56716 6.77491 6.56323 5.99937 6.63012 5.2531C6.65373 5.04093 6.68519 4.83608 6.71274 4.62391C6.7933 4.25309 6.81237 3.84593 6.7675 3.45479C6.72262 3.06365 6.61584 2.70642 6.46091 2.42901C6.05698 1.70539 5.54067 1.23689 4.98535 1.09011L4.32433 0.987671C3.24226 0.987671 2.21919 1.89492 1.93982 3.11675C1.45978 6.23351 1.58569 9.41609 1.40076 12.5621C1.3496 15.4228 0.897087 18.2689 0.944305 21.1296C1.03296 22.1992 1.29359 23.1939 1.69193 23.9829C1.93473 24.5662 2.21635 25.0898 2.53004 25.5413C2.41593 25.7461 2.30578 25.9583 2.20347 26.1705C2.02789 26.5988 1.87002 27.0513 1.73127 27.524C1.60496 28.2606 1.50895 29.0139 1.44403 29.7775C1.16038 32.3023 1.0441 34.8822 1.09777 37.4596C1.09777 39.6984 1.023 41.9811 1.24335 44.2126C1.30431 44.2749 1.36345 44.3433 1.42045 44.4174C2.43169 45.7563 3.38783 47.1464 4.3007 48.5804C4.42124 48.5657 4.54219 48.5657 4.66272 48.5804C5.26523 48.5938 5.86631 48.6916 6.46091 48.8731C6.6426 48.6382 6.79218 48.3275 6.89766 47.9659C6.0084 46.5026 5.63853 44.6589 6.1107 42.8956C6.03594 41.4324 6.05561 40.0276 6.05561 38.5863C6.01625 36.2261 6.07151 33.8637 6.22089 31.5188C6.18592 30.7295 6.22454 29.935 6.33501 29.1702C6.61438 27.3192 7.69643 25.8632 9.06574 25.1462C8.24678 24.8413 7.50127 24.0598 6.93705 22.9147Z" fill="#46248A" stroke="#46248A"/>
<path d="M322.139 13.9669C322.701 13.9669 323.26 13.9669 323.819 14.0401C324.035 14.0401 324.248 14.0913 324.46 14.1206C324.672 14.1498 324.944 14.2596 324.594 14.1206C324.818 14.2563 325.049 14.3543 325.282 14.4132C325.55 14.4132 324.787 13.8938 325.184 14.4132C324.906 14.1528 324.68 13.7352 324.539 13.2207C324.669 13.6359 324.817 14.0321 324.979 14.4059C325.156 14.8522 324.979 13.8206 325.019 14.5157C324.948 13.4475 324.999 14.2157 324.975 14.4645C324.916 15.2326 324.886 16.0076 324.885 16.7837C324.787 22.249 329.343 22.271 329.441 16.8276C329.481 14.6327 329.63 12.7744 329.083 10.7112C328.796 9.62882 328.416 8.64045 327.958 7.78464C326.51 5.28245 323.98 5.53851 322.166 5.53119C319.227 5.53119 319.207 13.9962 322.139 14.0035V13.9669Z" fill="white"/>
</g>
<defs>
<clipPath id="clip0_0_7110">
<rect width="333.349" height="49.3779" fill="white"/>
</clipPath>
</defs>
</svg>
