<svg width="27" height="20" viewBox="0 0 27 20" fill="none" xmlns="http://www.w3.org/2000/svg">
<path d="M0 15.4392V13.2839C0.0154986 13.1756 0.0338262 13.068 0.0465069 12.9597C0.142317 12.1535 0.197965 11.3411 0.339566 10.5432C0.903153 7.37193 2.18953 4.48449 4.01344 1.81436C4.08158 1.71743 4.17494 1.63984 4.28397 1.5895C5.94838 0.856217 7.6993 0.32527 9.49715 0.00866946C9.64298 -0.0180662 9.7254 0.0141537 9.79021 0.145775C9.95647 0.484426 10.1516 0.811424 10.2995 1.15693C10.3841 1.35505 10.4884 1.38933 10.6941 1.37014C11.4972 1.29336 12.3031 1.18298 13.1069 1.18983C14.1848 1.19875 15.2619 1.3002 16.3384 1.37355C16.5194 1.38589 16.6167 1.3578 16.6942 1.18024C16.847 0.826511 17.0394 0.489907 17.2084 0.142344C17.2725 0.0100372 17.3578 -0.0160082 17.5022 0.0100419C19.2748 0.321403 21.0018 0.841894 22.6449 1.56001C22.7929 1.62693 22.92 1.73077 23.0134 1.86097C26.0694 6.29497 27.4044 11.1629 26.8937 16.4922C26.8812 16.5975 26.8277 16.6941 26.7443 16.7623C24.7744 18.1716 22.5788 19.2544 20.2462 19.9671C20.0722 20.0206 19.9911 19.9754 19.9059 19.8424C19.5854 19.3426 19.255 18.8484 18.9365 18.3472C18.8133 18.1539 18.7125 17.9476 18.6026 17.7488L20.852 16.6958C20.5301 16.2509 20.3666 16.1995 19.9538 16.3736C16.9647 17.6357 13.8678 18.0189 10.6546 17.4471C9.37645 17.2182 8.13021 16.8446 6.94128 16.3338C6.83702 16.2893 6.68907 16.2386 6.60454 16.2783C6.43828 16.3558 6.30302 16.4949 6.08252 16.6643L8.43549 17.7707C7.95996 18.4981 7.49711 19.2007 7.04061 19.9075C6.9455 20.0542 6.83491 19.9911 6.71938 19.9555C4.4112 19.2487 2.23787 18.178 0.286025 16.7863C0.186892 16.701 0.122205 16.5841 0.103557 16.4566C0.0535387 16.1179 0.0331107 15.7772 0 15.4392ZM20.4575 10.9593C20.3871 10.6357 20.3518 10.2998 20.2412 9.98997C19.653 8.3447 17.6917 7.82165 16.4405 8.96168C15.2873 10.0112 15.2795 11.9519 16.425 13.0111C17.3542 13.8707 18.7167 13.8543 19.6156 12.9679C20.1757 12.4161 20.4131 11.7367 20.4575 10.9593ZM11.5106 10.9593C11.3993 10.5596 11.3387 10.1367 11.1661 9.76443C10.4426 8.19868 8.49607 7.87373 7.32593 9.10289C6.30795 10.1716 6.36501 11.9979 7.44639 13.0063C8.37279 13.8701 9.73033 13.8577 10.6356 12.9713C11.1992 12.4209 11.4366 11.7415 11.512 10.9593H11.5106Z" fill="#46248A"/>
</svg>
