<svg width="20" height="20" viewBox="0 0 20 20" fill="none" xmlns="http://www.w3.org/2000/svg">
<path d="M20 5.6V14.4C19.9981 15.8846 19.4076 17.3079 18.3578 18.3578C17.3079 19.4076 15.8846 19.9981 14.4 20H5.6C4.11536 19.9981 2.69205 19.4076 1.64225 18.3578C0.592445 17.3079 0.00185233 15.8846 0 14.4V5.6C0.00185233 4.11536 0.592445 2.69205 1.64225 1.64225C2.69205 0.592445 4.11536 0.00185233 5.6 0H14.4C15.8846 0.00185233 17.3079 0.592445 18.3578 1.64225C19.4076 2.69205 19.9981 4.11536 20 5.6ZM14.8 10C14.8 9.05065 14.5185 8.12262 13.9911 7.33326C13.4636 6.54391 12.714 5.92868 11.8369 5.56538C10.9598 5.20208 9.99468 5.10702 9.06357 5.29223C8.13246 5.47744 7.27718 5.9346 6.60589 6.60589C5.9346 7.27718 5.47744 8.13246 5.29223 9.06357C5.10702 9.99468 5.20208 10.9598 5.56538 11.8369C5.92868 12.714 6.54391 13.4636 7.33326 13.9911C8.12262 14.5185 9.05065 14.8 10 14.8C11.273 14.8 12.4939 14.2943 13.3941 13.3941C14.2943 12.4939 14.8 11.273 14.8 10ZM16.4 4.8C16.4 4.56266 16.3296 4.33066 16.1978 4.13332C16.0659 3.93598 15.8785 3.78217 15.6592 3.69134C15.4399 3.60052 15.1987 3.57676 14.9659 3.62306C14.7331 3.66936 14.5193 3.78365 14.3515 3.95147C14.1837 4.11929 14.0694 4.33311 14.0231 4.56589C13.9768 4.79867 14.0005 5.03995 14.0913 5.25922C14.1822 5.47849 14.336 5.66591 14.5333 5.79776C14.7307 5.92962 14.9627 6 15.2 6C15.5183 6 15.8235 5.87357 16.0485 5.64853C16.2736 5.42348 16.4 5.11826 16.4 4.8Z" fill="#46248A"/>
</svg>
