<svg width="21" height="20" viewBox="0 0 21 20" fill="none" xmlns="http://www.w3.org/2000/svg">
<path d="M0.00199695 18.1818V17.9691C0.122422 17.8894 0.254008 17.8319 0.391497 17.7989C1.87296 17.7771 3.32709 17.36 4.62732 16.5841C5.07135 16.3181 5.48611 15.9969 5.93209 15.6905C5.48026 15.5884 5.06545 15.5352 4.67401 15.4012C3.60851 15.0324 2.69931 14.2588 2.11116 13.2205C1.81319 12.7227 2.07999 12.1993 2.58634 12.2099C2.91712 12.195 3.24648 12.1538 3.57178 12.0865V12.0291L3.44122 11.9865C2.79618 11.8108 2.19265 11.4873 1.67059 11.0377C1.14853 10.588 0.719876 10.0224 0.412893 9.37823C0.258143 9.02462 0.12031 8.66249 0 8.29324V7.97838C0.0934801 7.72095 0.222019 7.4784 0.490774 7.42947C0.672394 7.40905 0.855843 7.42052 1.03414 7.46349C1.34963 7.52093 1.66125 7.60177 1.97479 7.67624L1.99429 7.61453L1.79954 7.43798C1.72553 7.37203 1.64951 7.30822 1.5794 7.23801C0.798082 6.44049 0.300623 5.36641 0.175256 4.20633C0.0819133 3.49525 0.125099 2.77073 0.30192 2.07883C0.41098 1.65333 0.734266 1.4193 1.08092 1.54057C1.22614 1.60581 1.35842 1.70114 1.47042 1.82136C2.07999 2.39579 2.65443 3.02129 3.29906 3.54253C4.93494 4.85707 6.83935 5.71654 8.84754 6.04659C9.28183 6.12105 9.72392 6.1551 10.166 6.20828C10.166 6.14871 10.1757 6.12744 10.1757 6.10617C10.1757 6.08489 10.1757 6.0317 10.1621 5.99553C9.95355 4.88079 10.1071 3.72151 10.5964 2.71708C11.3754 1.12146 12.6062 0.193841 14.2558 0.0257688C14.922 -0.0495908 15.5952 0.0408563 16.2249 0.290303C16.8547 0.539751 17.4245 0.941725 17.8917 1.46609C17.9282 1.49827 17.9704 1.52188 18.0156 1.53543C18.0609 1.54897 18.1082 1.55218 18.1547 1.54483C18.824 1.39707 19.4742 1.15983 20.0905 0.838487C20.2424 0.759769 20.4001 0.685307 20.5423 0.838487C20.6844 0.991666 20.6104 1.19163 20.5092 1.34481C20.2864 1.70142 20.0452 2.04381 19.7866 2.37027C19.5344 2.63891 19.2685 2.89179 18.9901 3.12767C19.5101 3.03832 20.0262 2.91493 20.5384 2.76388C20.7019 2.7192 20.8519 2.69155 20.957 2.87239C20.9969 2.94447 21.0097 3.03059 20.9926 3.11272C20.9755 3.19484 20.93 3.26652 20.8656 3.31274C20.3748 3.82759 19.8802 4.34244 19.3796 4.84666C19.3344 4.88347 19.2979 4.93178 19.2735 4.98736C19.2491 5.04295 19.2374 5.10416 19.2394 5.16578C19.3059 7.45702 18.8713 9.7326 17.9716 11.8036C17.0733 13.9707 15.6894 15.8556 13.948 17.284C11.9352 18.9237 9.51588 19.861 7.00711 19.9732C4.89045 20.1163 2.77427 19.6851 0.847183 18.718C0.551162 18.5627 0.282437 18.3605 0.00199695 18.1818Z" fill="#46248A"/>
</svg>
