<svg width="179" height="53" viewBox="0 0 179 53" fill="none" xmlns="http://www.w3.org/2000/svg">
<path d="M45.5205 15.6559C46.5793 15.2387 47.7023 15.0072 48.84 14.9716C50.6355 14.9754 52.9293 15.7516 55.7213 17.3002L60.2289 19.7502L60.2073 28.2004C60.2003 32.2076 60.28 34.6789 60.4465 35.6143C60.5238 36.0743 60.7 36.5123 60.9628 36.8979C61.2256 37.2835 61.5688 37.6078 61.9689 37.8483C63.0939 38.7286 63.6553 40.0659 63.6531 41.8601C63.6694 42.9978 63.3866 44.1198 62.833 45.114C62.2459 46.0756 61.0758 46.5537 59.3228 46.5482C57.8664 46.5289 56.4286 46.2179 55.0945 45.6336C53.6544 45.0281 52.5173 44.2433 51.6831 43.279C51.5485 43.0687 51.3634 42.8952 51.1447 42.7745C50.9259 42.6538 50.6805 42.5896 50.4306 42.5878C50.0084 42.5874 49.0475 42.8165 47.5477 43.275C46.5034 43.6607 45.4023 43.8703 44.2891 43.8954C43.1013 43.9027 41.9446 43.5156 41.0008 42.7947C40.0203 42.0622 39.0095 40.8603 37.9685 39.189C36.3842 36.7228 35.5945 33.9247 35.5995 30.7948C35.5863 28.4487 36.1267 26.1326 37.177 24.0345C38.0596 22.3665 39.3474 20.6891 41.0403 19.0021C42.7332 17.3151 44.2266 16.1997 45.5205 15.6559ZM50.074 26.3073C50.0746 25.723 49.8849 25.4394 49.5103 25.4296C48.9672 25.4279 48.1728 26.0734 47.1269 27.3661C46.0803 28.7417 45.5563 29.9926 45.5548 31.1189C45.5529 31.8296 45.7822 32.1837 46.2422 32.1854C46.7023 32.1871 47.4549 31.3844 48.5021 29.7775C49.5493 28.1706 50.0765 27.0164 50.0782 26.3078L50.074 26.3073Z" fill="#6C58A8"/>
<path d="M59.3155 48.2792C57.6288 48.2599 55.9629 47.9041 54.4157 47.2326C52.866 46.6163 51.4797 45.6505 50.3651 44.4105L50.3009 44.3348C49.5474 44.4851 48.8035 44.6797 48.0731 44.9178C46.8553 45.3587 45.5732 45.5965 44.2781 45.6217C42.7169 45.6287 41.1971 45.1197 39.9552 44.174C38.7886 43.3059 37.654 41.9715 36.4889 40.0974C34.7409 37.381 33.8575 34.2412 33.8592 30.7839C33.848 28.17 34.451 25.59 35.6196 23.2516C36.5939 21.4055 37.989 19.5709 39.8063 17.7689C41.681 15.8984 43.3299 14.6889 44.8484 14.0556L44.9238 14.0272C46.3852 13.4941 47.6656 13.2376 48.8413 13.2398C50.9521 13.2431 53.4808 14.076 56.5669 15.7858L61.9711 18.7214L61.954 28.2121C61.9376 33.3088 62.0841 34.859 62.1679 35.3274C62.2033 35.55 62.2878 35.7619 62.4153 35.9478C62.5428 36.1337 62.71 36.289 62.9049 36.4023L63.0271 36.4875C64.5921 37.7081 65.3854 39.5179 65.3793 41.8672C65.3944 43.303 65.0343 44.7179 64.3345 45.972L64.3048 46.0231C63.3874 47.522 61.7092 48.2827 59.3155 48.2792ZM53.03 42.1872C53.7926 42.9986 54.7271 43.6295 55.7651 44.0336C56.8871 44.5276 58.0965 44.793 59.3223 44.8141C59.9325 44.8138 61.0018 44.7392 61.3373 44.2272C61.7331 43.5004 61.9319 42.683 61.9141 41.8557C61.9067 40.2579 61.376 39.6017 60.9435 39.2512C60.369 38.8769 59.8781 38.3879 59.5017 37.815C59.1253 37.242 58.8716 36.5975 58.7564 35.922C58.6304 35.2541 58.4831 33.727 58.4909 28.201L58.5033 20.7833L54.8939 18.8233C52.358 17.4178 50.3226 16.7069 48.8303 16.7044C47.9095 16.7388 47.0012 16.9298 46.1446 17.2691C45.0689 17.7247 43.7597 18.7202 42.2506 20.2238C40.6887 21.7777 39.4922 23.3297 38.707 24.835C37.7915 26.6815 37.3203 28.7163 37.3309 30.7772C37.3264 33.5949 38.0121 36.0324 39.4229 38.2311C40.3575 39.7327 41.2277 40.7838 42.0336 41.3844C42.679 41.8813 43.4722 42.1481 44.2868 42.1421C45.2074 42.1131 46.1172 41.9348 46.9805 41.6142L47.0398 41.5965C49.2363 40.9272 49.9719 40.8374 50.4301 40.8368C50.9394 40.8408 51.4405 40.9653 51.8923 41.2C52.3442 41.4347 52.7341 41.773 53.03 42.1872ZM46.2432 33.9174C45.0379 33.9157 43.8204 33.0495 43.8241 31.1156C43.8264 29.6075 44.4757 27.9921 45.7511 26.3173L45.784 26.2751C47.2476 24.4661 48.3656 23.6952 49.5181 23.6966C50.6242 23.6983 51.8161 24.5169 51.8114 26.3094C51.8096 27.3998 51.2383 28.7678 49.9599 30.7144C48.435 33.0535 47.4305 33.9275 46.2432 33.9174Z" fill="#6C58A8"/>
<path d="M69.5754 18.6403C71.2912 17.6018 73.6317 17.0844 76.5968 17.0884C78.7018 17.0694 80.7961 17.3906 82.7987 18.0394C84.6761 18.6697 85.8228 19.5064 86.2388 20.5495C86.5355 21.3297 86.6833 22.1585 86.6746 22.993C86.6704 24.4945 86.1882 25.6826 85.228 26.5573C84.4745 27.267 83.471 27.6201 82.2174 27.6164C81.4417 27.6045 80.6677 27.5403 79.9006 27.4244C79.1535 27.3123 78.4 27.2487 77.6447 27.2338C76.685 27.2324 76.2043 27.3983 76.2026 27.7314C76.2022 28.232 77.1406 29.0681 79.018 30.2399C81.099 31.5811 82.7263 33.0036 83.8998 34.5075C85.1919 36.0533 85.8367 37.6192 85.8344 39.2053C85.8309 41.5844 84.5218 43.6171 81.907 45.3032C79.2923 46.9894 76.0223 47.8319 72.0969 47.8308C71.513 47.8294 70.6358 47.7879 69.4653 47.7062C63.8277 47.0705 61.0116 45.1645 61.0168 41.9882C61.0194 40.2784 61.4393 39.0662 62.2763 38.3516C63.1134 37.637 64.5341 37.2851 66.5384 37.2959L67.1717 37.2965L71.0563 37.4289L68.8029 34.9835C67.3037 33.3959 66.2619 32.0065 65.6777 30.8154C65.0893 29.5971 64.7909 28.2595 64.8057 26.907C64.8148 25.258 65.2607 23.6408 66.0979 22.2198C66.9229 20.7426 68.1222 19.5082 69.5754 18.6403Z" fill="#6C58A8"/>
<path d="M72.0884 49.5531C71.4551 49.5525 70.5279 49.506 69.3342 49.4129L69.2678 49.4045C64.7055 48.8903 59.2696 47.1805 59.2777 41.9668C59.2819 39.7312 59.91 38.0667 61.15 37.0181C62.3319 36.0276 64.0822 35.5461 66.537 35.5511L66.9593 35.5501C65.6313 34.0771 64.6883 32.7629 64.1004 31.5614C63.3955 30.1035 63.0367 28.5028 63.0521 26.8838C63.0695 24.9359 63.599 23.0268 64.5876 21.348C65.5635 19.6198 66.9746 18.1766 68.6808 17.1613C70.6623 15.9605 73.3257 15.3549 76.5974 15.3607C78.8887 15.3421 81.168 15.6933 83.3474 16.4005C85.7569 17.2077 87.2299 18.3553 87.8505 19.9132C88.2277 20.898 88.4172 21.9446 88.4092 22.9989C88.4051 25.0025 87.7349 26.6321 86.3941 27.8429C85.3334 28.8426 83.921 29.3566 82.2154 29.3543C81.7636 29.3537 81.2502 29.3241 80.6788 29.2681C82.4059 30.4122 83.9474 31.8139 85.2497 33.4244C86.7909 35.279 87.5708 37.2264 87.5677 39.2047C87.5641 42.1977 85.9757 44.7376 82.8494 46.7544C79.9616 48.6224 76.3435 49.5619 72.0884 49.5531ZM69.6218 45.9647C70.7178 46.0453 71.5487 46.0858 72.0953 46.088C75.6625 46.0935 78.6448 45.3387 80.9615 43.8431C83.0664 42.485 84.0898 40.9658 84.0872 39.1977C84.0895 38.0208 83.5888 36.8474 82.5555 35.6124L82.5154 35.5629C81.4766 34.2218 79.9811 32.9194 78.0685 31.6925C75.4049 30.0303 74.4546 28.9893 74.4578 27.7219C74.4589 27.0512 74.7698 25.4897 77.6363 25.4944C78.47 25.5085 79.3019 25.5779 80.1264 25.7022C80.818 25.8069 81.5156 25.8663 82.215 25.8799C83.0171 25.8809 83.6116 25.6887 84.0318 25.2909C84.6527 24.7266 84.9331 24.0008 84.9339 22.9841C84.9422 22.3648 84.8345 21.7493 84.6164 21.1695C84.5244 20.9468 84.0939 20.2992 82.2415 19.677C80.415 19.0894 78.506 18.7991 76.5875 18.8169C73.9595 18.8131 71.9024 19.2491 70.4701 20.1171C69.2719 20.8249 68.2826 21.8371 67.6028 23.0508C66.9074 24.2146 66.5375 25.5437 66.5316 26.8992C66.5131 27.9888 66.7509 29.0675 67.2258 30.0486C67.7281 31.0767 68.6792 32.3435 70.0557 33.7847L75.1289 39.2834L66.533 39.0102C64.3946 39.0076 63.6252 39.4622 63.3946 39.6649C62.862 40.1159 62.7489 41.1689 62.7475 41.9746C62.748 44.1074 65.0624 45.4446 69.6281 45.9655L69.6218 45.9647Z" fill="#6C58A8"/>
<path d="M95.4691 8.2948C96.5571 7.21279 97.7069 6.67238 98.9186 6.67356C99.922 6.6749 100.965 7.05263 102.049 7.80672C103.052 8.51822 103.551 9.60436 103.548 11.0651C103.547 11.7682 103.526 12.373 103.484 12.8796L103.225 16.6438L107.486 16.7777C112.456 16.8291 114.939 18.4816 114.933 21.7353C114.932 23.4044 114.282 24.6345 112.985 25.4254C111.688 26.2163 109.495 26.7102 106.405 26.9071L100.952 27.3363L101.073 31.0919C101.191 35.8885 101.792 38.2899 102.878 38.2961C103.422 38.2951 104.341 37.7956 105.636 36.7977C106.851 35.8823 107.917 35.4254 108.834 35.4271C109.795 35.43 110.756 35.8907 111.715 36.809C112.237 37.2718 112.651 37.8417 112.932 38.4797C113.212 39.1177 113.351 39.8086 113.339 40.5051C113.337 42.0097 112.708 43.5116 111.451 45.0109C109.568 47.2601 107.143 48.3827 104.177 48.3786C102.773 48.3728 101.377 48.1586 100.036 47.743C97.0286 46.8197 94.8586 45.2822 93.5256 43.1307C92.1925 40.9792 91.3416 37.6073 90.9728 33.0149L90.5439 26.9396L88.1629 26.9356C86.5754 26.9344 85.4796 26.5985 84.8754 25.928C84.2712 25.2575 83.9704 24.0673 83.9731 22.3575C83.9761 20.6886 84.4795 19.4061 85.4833 18.5103C86.487 17.6144 87.9105 17.1687 89.7538 17.173C90.842 17.1711 91.5635 16.9818 91.9184 16.6051C92.2732 16.2285 92.6611 15.2063 93.082 13.5386C93.5855 11.3779 94.3812 9.62997 95.4691 8.2948Z" fill="#6C58A8"/>
<path d="M104.176 50.1124C102.603 50.1051 101.04 49.866 99.5368 49.4029C96.1268 48.3627 93.6113 46.5653 92.0597 44.047C90.566 41.6374 89.6541 38.0763 89.2529 33.1584L88.9361 28.6711L88.1698 28.6705C86.059 28.6672 84.552 28.1502 83.5957 27.0895C82.6853 26.0832 82.2429 24.5354 82.2462 22.3567C82.2495 20.1779 82.9549 18.4537 84.3348 17.2183C85.664 16.0334 87.4884 15.4349 89.7574 15.4393C90.0681 15.4476 90.3785 15.4163 90.6813 15.3462C90.7964 15.1225 91.0456 14.5256 91.4003 13.1173C91.9561 10.7285 92.8765 8.72574 94.1277 7.1913L94.246 7.0587C95.6676 5.64513 97.2408 4.93016 98.9233 4.93158C100.28 4.93582 101.665 5.42031 103.04 6.37406C104.076 7.10943 105.289 8.50869 105.284 11.0586C105.282 11.803 105.26 12.4625 105.212 13.0155L105.079 14.952L107.542 15.0296C110.932 15.0632 116.68 15.9837 116.67 21.7225C116.668 23.9962 115.705 25.7826 113.89 26.8908C112.338 27.8383 109.926 28.4063 106.519 28.6302L102.74 28.9269L102.808 31.0323C102.882 34.0964 103.148 35.5817 103.349 36.2781C103.775 36.0156 104.186 35.7292 104.579 35.4203C106.13 34.249 107.52 33.6856 108.839 33.6872C110.255 33.6905 111.626 34.3167 112.916 35.5529C113.61 36.1755 114.161 36.9396 114.534 37.7936C114.906 38.6476 115.09 39.5714 115.074 40.5027C115.071 42.4136 114.301 44.3025 112.784 46.1174C110.561 48.7769 107.667 50.1187 104.176 50.1124ZM96.7582 9.46109C95.8711 10.5736 95.2039 12.0813 94.7701 13.9435C94.1117 16.5577 93.6148 17.3424 93.1755 17.8074C92.2364 18.7973 90.7716 18.9101 89.7521 18.9088C88.3634 18.9048 87.3177 19.2081 86.6461 19.806C86.0224 20.3594 85.7168 21.2001 85.7161 22.3645C85.7116 24.1718 86.0938 24.6846 86.1697 24.7681C86.2456 24.8516 86.6399 25.2035 88.1746 25.2051L92.1699 25.2145L92.7109 32.8947C93.0541 37.1744 93.8273 40.317 95.0076 42.2205C96.125 44.0211 97.9375 45.2879 100.552 46.0917C101.728 46.4548 102.95 46.6426 104.18 46.6491C106.626 46.653 108.569 45.7552 110.121 43.9025C111.102 42.7282 111.603 41.5853 111.609 40.5061C111.622 40.0485 111.532 39.5939 111.348 39.1749C111.163 38.7559 110.888 38.3831 110.542 38.0832C109.898 37.4654 109.333 37.1634 108.839 37.1616C108.542 37.1616 107.868 37.2931 106.689 38.1827C105.01 39.477 103.866 40.0337 102.881 40.0304C99.8181 40.026 99.4551 35.4379 99.3441 31.1414L99.1729 25.7444L106.275 25.1858C109.777 24.9572 111.368 24.3837 112.089 23.9441C112.608 23.6285 113.205 23.0906 113.215 21.7313C113.216 20.7842 113.22 18.5676 107.483 18.507L101.384 18.3181L101.765 12.7679C101.805 12.2816 101.824 11.7207 101.825 11.0669C101.828 9.91966 101.415 9.47892 101.057 9.22441C100.281 8.68878 99.5666 8.41417 98.9271 8.4128C98.1974 8.40627 97.4906 8.75072 96.7582 9.46109Z" fill="#6C58A8"/>
<path d="M114.872 20.9766C115.709 20.0173 116.966 19.5405 118.643 19.5461C120.228 19.5471 121.459 20.0078 122.337 20.9283C123.005 21.6393 123.337 22.83 123.334 24.5003C123.336 25.5877 123.165 28.0706 122.819 31.9489C122.307 38.9617 122.05 42.634 122.048 42.9657C122.048 43.9277 121.522 44.9069 120.478 45.9067C119.435 46.9064 118.387 47.4058 117.332 47.4041C116.372 47.4027 115.248 46.8375 113.959 45.7084C113.27 45.0971 112.772 44.3014 112.522 43.4157C112.316 42.6019 112.215 41.0469 112.217 38.7506C112.232 34.876 112.513 31.0071 113.06 27.1713C113.556 23.8339 114.16 21.769 114.872 20.9766ZM117.463 6.96204C118.002 6.66511 118.601 6.49478 119.215 6.464C119.84 6.4649 120.717 6.73768 121.845 7.28234C122.887 7.78507 123.555 8.19298 123.849 8.50607C124.138 8.81931 124.284 9.39487 124.283 10.2301C124.283 10.479 124.24 11.1486 124.155 12.2326C124.026 13.9038 123.826 15.0407 123.555 15.6432C123.284 16.2457 122.727 16.7555 121.883 17.1724C121.007 17.6725 120.338 17.922 119.877 17.9208C119.416 17.9212 118.54 17.6049 117.252 16.9787C115.454 16.1869 114.389 15.1616 114.055 13.9025C113.987 13.5493 113.946 13.1915 113.932 12.8321C113.958 11.6165 114.306 10.4295 114.939 9.39106C115.619 8.22755 116.46 7.41648 117.463 6.95789L117.463 6.96204Z" fill="#6C58A8"/>
<path d="M117.333 49.1339C115.927 49.1318 114.447 48.4369 112.813 47.0093L112.762 46.9627C111.836 46.128 111.168 45.0459 110.838 43.8441C110.588 42.8714 110.473 41.2515 110.478 38.7501C110.49 34.7893 110.775 30.8342 111.33 26.9125C112.07 22.0409 112.917 20.5646 113.574 19.8299C114.203 19.1114 115.006 18.5665 115.906 18.2476C113.999 17.2598 112.82 15.9557 112.392 14.3443L112.359 14.1861C111.965 12.2314 112.356 10.2002 113.45 8.53232C114.294 7.05991 115.393 6.00604 116.717 5.39426C117.488 4.97913 118.346 4.75036 119.221 4.7263C120.131 4.72836 121.206 5.04257 122.604 5.71865C123.889 6.33811 124.665 6.8252 125.121 7.32212C125.73 7.97776 126.025 8.92668 126.017 10.2273C126.016 10.4381 126 10.858 125.882 12.3639C125.735 14.2755 125.498 15.5425 125.135 16.3507C124.698 17.3159 123.881 18.1062 122.708 18.6992C122.63 18.7442 122.553 18.785 122.48 18.8263C122.883 19.0825 123.252 19.3868 123.581 19.7324C124.581 20.7986 125.06 22.3554 125.057 24.5004C125.053 25.639 124.884 28.1257 124.536 32.0979C123.885 41.0141 123.778 42.7451 123.783 42.9715C123.78 44.4035 123.072 45.8131 121.678 47.1479C120.283 48.4826 118.834 49.1481 117.333 49.1339ZM115.123 44.4222C116.416 45.5447 117.104 45.6661 117.34 45.6667C117.916 45.6684 118.566 45.3251 119.273 44.6474C119.939 44.0108 120.309 43.4104 120.309 42.959C120.31 42.7755 120.309 42.3958 121.084 31.816C121.42 27.971 121.589 25.516 121.595 24.4978C121.593 22.8584 121.226 22.2864 121.067 22.11C120.537 21.553 119.738 21.2781 118.64 21.2753C117.486 21.2737 116.682 21.5489 116.188 22.1145L116.17 22.1355C116.099 22.217 115.431 23.0623 114.769 27.4311C114.239 31.1882 113.968 34.9773 113.956 38.7717C113.953 41.5643 114.113 42.612 114.209 42.9871C114.374 43.5418 114.691 44.0395 115.123 44.4242L115.123 44.4222ZM115.764 13.5275C115.981 14.2153 116.72 14.8433 117.963 15.3941L118.017 15.4199C119.281 16.0347 119.774 16.1608 119.906 16.186C120.301 16.0635 120.678 15.8888 121.027 15.6666L121.113 15.6227C121.564 15.3976 121.868 15.1515 121.968 14.9301C122.033 14.7823 122.263 14.1407 122.419 12.0997C122.53 10.6836 122.543 10.3181 122.543 10.2169C122.548 10.0155 122.532 9.81408 122.495 9.61591C122.048 9.31577 121.577 9.05382 121.086 8.83286C119.847 8.23402 119.333 8.18755 119.207 8.18826C118.861 8.21978 118.526 8.32771 118.227 8.50425L118.175 8.52722C117.503 8.83594 116.939 9.39904 116.448 10.252C115.968 11.0302 115.7 11.9202 115.669 12.8339C115.688 13.0667 115.72 13.2982 115.764 13.5275Z" fill="#6C58A8"/>
<path d="M131.797 16.5628C132.841 16.0223 134.345 15.7535 136.31 15.7564C139.126 15.7899 141.923 16.238 144.608 17.0865C147.511 17.9699 149.546 19.059 150.713 20.3541C151.673 21.4412 152.151 22.9028 152.147 24.7391C152.177 27.1062 151.375 29.4085 149.88 31.2449C147.333 34.6653 143.884 36.6867 139.533 37.3091C137.485 37.5979 136.46 37.951 136.459 38.3686C136.458 38.7861 137.734 39.1816 140.289 39.5552C142.836 39.8953 144.631 40.4518 145.675 41.2249C146.72 41.9979 147.239 43.1569 147.234 44.7017C147.231 46.4551 146.801 47.7069 145.944 48.4569C145.087 49.2069 143.632 49.5797 141.579 49.5754C141.157 49.5722 140.409 49.5316 139.324 49.4461C134.102 48.9351 129.98 47.2788 126.956 44.4772C123.933 41.6756 122.216 37.8952 121.807 33.1359C121.684 31.8819 121.622 30.8404 121.625 30.0054C121.626 28.2519 122.089 26.4368 123.012 24.5603C124.479 21.5999 127.407 18.9341 131.797 16.5628ZM139.99 26.2185C139.781 25.8375 138.924 25.648 137.417 25.65C136.163 25.6491 135.223 25.7936 134.596 26.0836C133.969 26.3327 133.655 26.6239 133.655 26.9572C133.656 27.5016 134.22 27.7745 135.345 27.776C136.447 27.7937 137.545 27.6494 138.605 27.3477C139.564 27.0565 140.044 26.7444 140.046 26.4113C140.05 26.3771 140.047 26.3424 140.037 26.3094C140.028 26.2763 140.012 26.2454 139.99 26.2185Z" fill="#6C58A8"/>
<path d="M141.578 51.3073C141.101 51.3076 140.317 51.2625 139.188 51.1735C133.575 50.6245 129.074 48.7998 125.779 45.747C122.442 42.6573 120.526 38.4639 120.08 33.283C119.952 31.982 119.89 30.9024 119.89 30.0017C119.893 27.9896 120.413 25.902 121.454 23.7965C123.08 20.5167 126.28 17.5726 130.971 15.038L130.999 15.0225C132.307 14.3456 134.046 14.0209 136.311 14.0248C139.298 14.059 142.264 14.5324 145.113 15.4297C148.351 16.412 150.605 17.6444 152.001 19.1937C153.257 20.6195 153.886 22.4801 153.88 24.7408C153.91 27.4911 152.981 30.1657 151.252 32.306C149.195 35.1176 146.302 37.2085 142.985 38.281C144.588 38.6604 145.816 39.1756 146.704 39.833C147.74 40.598 148.971 42.0713 148.966 44.7055C148.963 46.9686 148.33 48.6705 147.085 49.7606C145.883 50.8056 144.083 51.3124 141.578 51.3073ZM132.606 18.0985C128.567 20.2818 125.86 22.7233 124.567 25.3325C123.769 26.9542 123.361 28.5308 123.358 30.0092C123.359 30.7835 123.418 31.7783 123.534 32.9681C123.911 37.345 125.415 40.6883 128.14 43.2086C130.865 45.7288 134.684 47.2536 139.495 47.7234C140.749 47.8221 141.323 47.8426 141.591 47.8451C143.701 47.8504 144.506 47.413 144.803 47.1535C145.378 46.6509 145.501 45.5421 145.501 44.711C145.501 43.4178 145.01 42.9016 144.64 42.6266C144.092 42.2193 142.851 41.656 140.061 41.2834C137.029 40.8316 134.73 40.3339 134.732 38.3659C134.735 36.2378 137.479 35.8513 139.295 35.5956C143.198 35.0384 146.209 33.281 148.496 30.229L148.532 30.1808C149.784 28.6453 150.45 26.7158 150.412 24.7354C150.415 23.3244 150.094 22.2667 149.413 21.4985C148.773 20.7841 147.317 19.7208 144.106 18.744C141.581 17.9487 138.953 17.5263 136.306 17.4902C134.236 17.4857 133.155 17.8162 132.606 18.0964L132.606 18.0985ZM135.348 29.5105C132.169 29.5061 131.924 27.5551 131.925 26.9646C131.927 26.3741 132.188 25.205 133.916 24.4992C134.78 24.1115 135.927 23.9245 137.424 23.9254C139.054 23.9223 140.658 24.093 141.414 25.2357C141.659 25.5808 141.789 25.9946 141.785 26.4179C141.783 28.2045 139.77 28.8106 139.108 29.0111C137.886 29.3606 136.619 29.5282 135.348 29.5084L135.348 29.5105Z" fill="#6C58A8"/>
<path d="M167.551 30.401C165.671 29.2289 164.732 28.3928 164.736 27.8925C164.736 27.5572 165.222 27.3933 166.176 27.3926C166.931 27.4073 167.685 27.4716 168.431 27.5853C169.199 27.7002 169.974 27.7645 170.75 27.7775C171.979 27.7794 172.968 27.4386 173.716 26.7549C173.19 26.2606 172.812 25.6286 172.627 24.9308C172.442 24.2329 172.457 23.4973 172.67 22.8074C171.758 22.6978 170.914 22.2675 170.291 21.5936C169.667 20.9196 169.303 20.046 169.265 19.1289C169.204 19.1212 169.143 19.1387 169.08 19.137C168.413 19.1356 167.758 18.9622 167.179 18.6337C166.599 18.3051 166.113 17.8325 165.77 17.2615C165.56 17.2558 165.349 17.2501 165.128 17.2492C162.163 17.2439 159.823 17.7613 158.108 18.8014C156.655 19.6646 155.454 20.8934 154.624 22.3654C153.788 23.7868 153.343 25.4037 153.332 27.0526C153.317 28.4051 153.616 29.7428 154.204 30.9609C154.787 32.1505 155.83 33.5407 157.331 35.1314L159.583 37.5765L155.698 37.4441L155.065 37.4415C153.06 37.4389 151.639 37.7915 150.803 38.4992C149.966 39.2069 149.547 40.4191 149.543 42.1358C149.537 45.3078 152.353 47.2138 157.992 47.8539C159.161 47.9425 160.038 47.984 160.623 47.9784C164.549 47.9853 167.823 47.1468 170.444 45.4628C173.066 43.7789 174.374 41.7462 174.37 39.3646C174.373 37.7787 173.729 36.2121 172.435 34.6648C171.265 33.1626 169.636 31.7414 167.551 30.401Z" fill="#6C58A8"/>
<path d="M36.2961 25.2807C37.5917 24.4909 38.2412 23.2609 38.2444 21.5906C38.25 18.3341 35.7667 16.6815 30.7947 16.6327L26.5367 16.497L26.7928 12.7325C26.8356 12.2316 26.8578 11.6269 26.8595 10.9183C26.8613 9.45737 26.3615 8.37123 25.36 7.65991C24.2766 6.90582 23.2333 6.52809 22.2299 6.52675C21.017 6.52401 19.8672 7.06442 18.7804 8.14799C17.6926 9.48178 16.8965 11.2332 16.392 13.4021C15.9695 15.0711 15.5809 16.0932 15.2263 16.4685C14.8716 16.8437 14.1507 17.0331 13.0637 17.0366C11.2262 17.0316 9.80544 17.4777 8.80152 18.3749C7.7976 19.2722 7.2942 20.5546 7.29132 22.2221C7.28746 23.9416 7.58754 25.1317 8.19158 25.7923C8.79562 26.453 9.89146 26.7889 11.4791 26.8L13.8601 26.804L14.2889 32.8793C14.4044 34.4217 14.6077 35.9562 14.8979 37.4755C15.8402 37.5506 16.7226 37.9675 17.3786 38.6476C18.0347 39.3277 18.4192 40.2241 18.4597 41.1678L18.6444 41.1597C19.2505 41.1603 19.848 41.303 20.3889 41.5763C20.9299 41.8496 21.3991 42.2458 21.7589 42.7332C22.1188 43.2207 22.3592 43.7856 22.4608 44.3827C22.5624 44.9797 22.5224 45.5923 22.3441 46.1711C22.9341 46.2418 23.4998 46.4475 23.9974 46.7721C24.495 47.0968 24.911 47.5317 25.2132 48.043C25.9637 48.171 26.7235 48.2375 27.4848 48.2419C30.4497 48.2472 32.8744 47.1247 34.7588 44.8742C36.0142 43.3734 36.6434 41.8714 36.6464 40.3684C36.6585 39.6719 36.5197 38.981 36.2395 38.343C35.9593 37.705 35.5444 37.1351 35.0233 36.6723C34.061 35.7523 33.1007 35.2916 32.1424 35.2904C31.2221 35.2884 30.1561 35.7453 28.9444 36.661C27.6474 37.6601 26.7279 38.1596 26.1861 38.1594C25.0992 38.1615 24.4968 35.76 24.3789 30.9549L24.2685 27.2006L29.7217 26.7715C32.8074 26.5686 34.9989 26.0716 36.2961 25.2807Z" fill="#6C58A8"/>
<path d="M32.1482 33.557C30.8268 33.5552 29.4396 34.1188 27.8884 35.2902C27.4942 35.5991 27.0827 35.8854 26.6559 36.1477C26.4575 35.4516 26.1909 33.9662 26.1149 30.902L26.0498 28.7968L29.8287 28.5001C33.2352 28.2762 35.6469 27.7082 37.1993 26.7586C39.0145 25.6525 39.9749 23.8658 39.9694 21.591C39.9774 15.8478 34.2292 14.9315 30.8386 14.8979L28.3804 14.8208L28.5133 12.8843C28.5582 12.3331 28.5832 11.6739 28.5834 10.9271C28.5875 8.37723 27.3749 6.9759 26.3409 6.24287C24.9657 5.28912 23.5791 4.80437 22.2222 4.80014C20.5337 4.79584 18.9644 5.51341 17.5469 6.92752L17.4266 7.05984C16.1762 8.58805 15.255 10.597 14.6992 12.9859C14.3442 14.3962 14.095 14.9931 13.9926 15.2163C13.6899 15.2865 13.3794 15.3178 13.0687 15.3095C10.7997 15.305 8.98151 15.9043 7.64615 17.0884C6.26418 18.3235 5.56032 20.0522 5.55755 22.2268C5.55478 24.4014 5.99663 25.9534 6.90706 26.9597C7.86335 28.0203 9.35966 28.5381 11.479 28.5403L12.2474 28.5413L12.5642 33.0117C12.6841 34.595 12.8906 36.1707 13.1828 37.7315C13.7787 37.4969 14.4238 37.4142 15.0597 37.4909C15.6957 37.5675 16.3026 37.8011 16.8257 38.1706C16.4201 36.3897 16.1518 34.5804 16.023 32.7586L15.4802 25.0761L11.4867 25.069C9.95202 25.0674 9.54815 24.708 9.48183 24.632C9.41551 24.556 9.02371 24.0357 9.02614 22.2281C9.02888 21.064 9.33398 20.2274 9.9582 19.6699C10.6298 19.0721 11.6734 18.7684 13.0621 18.7725C14.0817 18.7738 15.5478 18.6675 16.4878 17.6693C16.9269 17.2063 17.4218 16.4213 18.0802 13.8072C18.5139 11.9449 19.1832 10.4375 20.0703 9.325C20.7944 8.61357 21.5095 8.27018 22.2273 8.27097C22.8606 8.27154 23.5875 8.54775 24.3554 9.08232C24.7153 9.33917 25.1281 9.77783 25.1254 10.9251C25.1247 11.5768 25.1036 12.1395 25.0648 12.6261L24.6845 18.1763L30.7829 18.3652C36.5199 18.4258 36.516 20.6424 36.5135 21.5892C36.5111 22.9496 35.9147 23.4874 35.3869 23.802C34.6658 24.2417 33.0768 24.8154 29.5747 25.044L22.4731 25.6026L22.6443 30.9995C22.7485 35.2994 23.1178 39.8883 26.1811 39.8886C27.1666 39.8919 28.3101 39.3352 29.9889 38.0409C31.1581 37.1499 31.8429 37.0115 32.1374 37.0195C32.6312 37.0213 33.1986 37.3236 33.8419 37.9414C34.1881 38.2413 34.4634 38.6141 34.648 39.0331C34.8326 39.452 34.9219 39.9067 34.9095 40.3643C34.9073 41.4419 34.4152 42.5859 33.4209 43.7607C31.8715 45.6136 29.9287 46.5114 27.4823 46.5075C26.2522 46.501 25.0298 46.3132 23.8545 45.9501C23.3903 45.8068 22.9338 45.6395 22.487 45.4488C22.4602 45.6934 22.4104 45.935 22.338 46.1702C23.2525 46.2802 24.0979 46.7122 24.7225 47.3888C25.347 48.0653 25.7098 48.9421 25.7457 49.8618C26.3197 49.9314 26.8973 49.9683 27.4755 49.9726C30.9666 49.9789 33.8633 48.6374 36.0827 45.9838C37.5995 44.1711 38.37 42.2842 38.3734 40.3692C38.3905 39.4378 38.2066 38.5136 37.8342 37.6594C37.4619 36.8053 36.9098 36.0413 36.2155 35.4193C34.935 34.1866 33.5644 33.5604 32.1482 33.557Z" fill="#6C58A8"/>
<path d="M169.211 29.4227C169.782 29.4808 170.298 29.5086 170.747 29.5089C172.452 29.5153 173.867 28.9975 174.928 27.9998C175.05 27.8888 175.157 27.7718 175.269 27.6552C174.693 27.4822 174.165 27.1779 173.727 26.7661C173.288 26.3544 172.951 25.8466 172.743 25.2827C172.687 25.3409 172.631 25.4013 172.571 25.4569C172.149 25.8524 171.554 26.0446 170.754 26.0438C170.055 26.031 169.357 25.9724 168.665 25.8682C167.841 25.7439 167.009 25.6745 166.175 25.6605C163.309 25.6537 162.998 27.2152 162.997 27.888C162.994 29.1533 163.944 30.1963 166.609 31.8588C168.52 33.0854 170.015 34.3878 171.057 35.7272L171.095 35.7763C172.128 37.0134 172.628 38.1869 172.626 39.3616C172.625 41.1292 171.599 42.6482 169.501 44.007C167.186 45.5009 164.202 46.2554 160.634 46.252C160.09 46.2521 159.257 46.2113 158.161 46.1307C153.595 45.6098 151.281 44.2685 151.279 42.1461C151.281 41.3404 151.394 40.2853 151.924 39.8361C152.16 39.6405 152.924 39.1851 155.065 39.1817L163.659 39.4546L158.59 33.9502C157.215 32.4965 156.263 31.2381 155.76 30.2141C155.286 29.2329 155.048 28.1543 155.066 27.0647C155.073 25.714 155.44 24.3895 156.13 23.228C156.81 22.0117 157.801 20.9975 159.002 20.2885C160.433 19.4162 162.489 18.9822 165.117 18.9882C166.518 18.9836 167.915 19.1334 169.283 19.4348C169.272 19.3364 169.266 19.2365 169.262 19.1347C169.202 19.127 169.14 19.1445 169.077 19.1428C168.095 19.1412 167.15 18.7665 166.433 18.0947C165.717 17.4229 165.283 16.5041 165.219 15.5246L165.13 15.5132C161.857 15.5178 159.194 16.113 157.211 17.3157C155.505 18.3313 154.095 19.7736 153.118 21.5002C152.13 23.1847 151.604 25.1 151.595 27.0525C151.58 28.6717 151.939 30.2726 152.645 31.7303C153.233 32.9318 154.176 34.246 155.515 35.7203L155.092 35.7213C152.64 35.7166 150.879 36.1967 149.705 37.1884C148.468 38.2351 147.837 39.9035 147.833 42.135C147.825 47.3508 153.261 49.0585 157.823 49.5726L157.89 49.5811C159.084 49.6701 160.011 49.7145 160.646 49.7215C164.893 49.7292 168.511 48.7877 171.398 46.926C174.526 44.9094 176.113 42.3692 176.118 39.3765C176.121 37.3896 175.341 35.4422 173.8 33.5962C172.494 31.9781 170.946 30.5705 169.211 29.4227Z" fill="#6C58A8"/>
<path d="M174.861 13.4672L174.111 14.3821C174.023 14.4675 173.968 14.5817 173.956 14.7041C173.974 14.8277 174.034 14.9413 174.126 15.0253L175.162 16.1446C175.233 16.2573 175.345 16.338 175.475 16.3694C175.604 16.4009 175.741 16.3808 175.856 16.3132L177.275 15.8169C177.372 15.7937 177.46 15.7417 177.528 15.6678C177.58 15.5785 177.601 15.4737 177.585 15.3713C177.527 14.7428 177.241 14.1572 176.781 13.7252C176.32 13.2933 175.717 13.045 175.086 13.0276L174.861 13.4672Z" fill="#6C58A8"/>
<path d="M166.229 11.2275L166.866 12.0112L167.944 11.5241L167.846 10.3494L166.278 10.5419L166.229 11.2275Z" fill="#6C58A8"/>
<path d="M11.8441 48.4798C11.296 49.3339 10.7338 50.3993 11.1904 51.3055C11.5508 52.0223 12.4621 52.3262 13.2591 52.2021C14.0561 52.078 14.7579 51.6401 15.4162 51.1798C15.9366 50.8242 16.4985 50.341 16.4971 49.7059C16.4707 49.3939 16.3718 49.0924 16.2083 48.8252C15.9078 48.2455 15.5931 47.6723 15.2642 47.1058L11.8441 48.4798Z" fill="#6C58A8"/>
<path d="M6.71361 42.2377L6.00022 42.0539L4.77161 42.9141L5.06822 44.4792C5.09244 44.6063 5.16443 44.7194 5.26941 44.7951C5.37439 44.8709 5.5044 44.9036 5.63276 44.8866L6.15478 44.816C6.29847 44.7955 6.43631 44.7454 6.55955 44.6688C6.6828 44.5923 6.78877 44.4909 6.87073 44.3713C6.95269 44.2516 7.00886 44.1162 7.03566 43.9736C7.06246 43.8311 7.05931 43.6846 7.02641 43.5433L6.71361 42.2377Z" fill="#6C58A8"/>
<path d="M44.1316 12.8882C45.1906 12.4688 46.3147 12.2366 47.4535 12.2021C49.2491 12.2046 51.5429 12.9808 54.3348 14.5308L58.8406 16.9785L58.8186 25.4307C58.8116 29.4379 58.8914 31.9092 59.0579 32.8446C59.1343 33.301 59.3078 33.7357 59.5666 34.1195C59.8254 34.5033 60.1635 34.8272 60.5582 35.0694C61.6849 35.9472 62.247 37.2846 62.2445 39.0816C62.2608 40.2192 61.978 41.3412 61.4243 42.3354C60.8376 43.2943 59.6669 43.7722 57.9121 43.7693C56.4562 43.7508 55.0189 43.4391 53.6861 42.853C52.2461 42.2475 51.1089 41.4626 50.2748 40.4984C50.1397 40.2885 49.9545 40.1156 49.7357 39.9952C49.517 39.8749 49.2717 39.8109 49.022 39.8092C48.5998 39.8088 47.6388 40.0379 46.1391 40.4964C45.0937 40.8806 43.9921 41.0901 42.8784 41.1165C41.6913 41.1221 40.5358 40.7344 39.5924 40.0141C38.6116 39.2843 37.6 38.083 36.5578 36.4102C34.9735 33.944 34.1845 31.146 34.1908 28.0162C34.1866 25.6706 34.7354 23.3572 35.7928 21.2632C36.6723 19.5977 37.9594 17.9202 39.654 16.2306C41.3487 14.541 42.8412 13.4269 44.1316 12.8882ZM48.6851 23.5397C48.6878 22.9557 48.498 22.672 48.1235 22.6622C47.5804 22.6605 46.7859 23.306 45.7401 24.5987C44.6934 25.9743 44.1693 27.2259 44.1677 28.3536C44.1661 29.0622 44.3951 29.4184 44.8554 29.418C45.3157 29.4176 46.066 28.6167 47.115 27.0122C48.1641 25.4077 48.6873 24.2509 48.6872 23.5399L48.6851 23.5397Z" fill="#FCDC97"/>
<path d="M57.9265 45.5114C56.239 45.4933 54.5723 45.1373 53.0247 44.4646C51.346 43.7548 49.9842 42.8112 48.9777 41.6471L48.9156 41.5717C48.162 41.7228 47.418 41.9182 46.6875 42.1568C45.4694 42.5964 44.1875 42.8341 42.8926 42.8606C41.3311 42.8649 39.8114 42.3561 38.5676 41.4127C37.4116 40.5439 36.2687 39.2084 35.1015 37.334C33.3556 34.6179 32.4701 31.4779 32.4715 28.0226C32.4611 25.4079 33.0649 22.8274 34.2343 20.4885C35.2085 18.6424 36.6036 16.8077 38.421 15.0058C40.2936 13.135 41.9423 11.9276 43.4628 11.2945L43.5364 11.2638C44.9975 10.7329 46.2803 10.4745 47.456 10.4767C49.5668 10.48 52.0954 11.3129 55.1815 13.0227L60.5855 15.9604L60.5684 25.4511C60.552 30.5478 60.6988 32.0959 60.7803 32.5661C60.8162 32.7886 60.9011 33.0003 61.029 33.1859C61.1569 33.3715 61.3245 33.5263 61.5196 33.6392L61.6394 33.7262C63.2045 34.9468 63.9977 36.7566 63.9917 39.1059C64.0078 40.5419 63.6476 41.957 62.9469 43.2107L62.9174 43.2597C61.9985 44.7542 60.3179 45.5167 57.9265 45.5114ZM51.6349 39.4186C52.3981 40.2296 53.3323 40.861 54.3697 41.2671C55.4919 41.7604 56.7014 42.0251 57.9271 42.0455C58.5391 42.0476 59.6067 41.9706 59.9442 41.4588C60.3392 40.7318 60.538 39.9146 60.521 39.0874C60.5134 37.4916 59.9806 36.8351 59.5502 36.4849C58.9756 36.1104 58.4845 35.6214 58.1078 35.0485C57.7311 34.4755 57.4768 33.8311 57.3609 33.1555C57.2352 32.4855 57.0876 30.9605 57.0977 25.4327L57.1084 18.0127L53.5091 16.056C50.9709 14.6523 48.9355 13.9414 47.4453 13.9392C46.5246 13.9734 45.6166 14.1637 44.7598 14.5018C43.6859 14.9598 42.377 15.9532 40.8658 17.4566C39.3036 19.0126 38.1092 20.5648 37.3222 22.0677C36.4018 23.9207 35.9287 25.9636 35.9411 28.0325C35.9366 30.8502 36.62 33.2895 38.0329 35.4885C38.9671 36.9872 39.8421 38.0396 40.6439 38.6397C41.2892 39.1366 42.0824 39.4034 42.8971 39.3973C43.8156 39.3661 44.7229 39.1853 45.5832 38.8622L45.6427 38.8424C47.839 38.1752 48.5728 38.0831 49.0328 38.0848C49.541 38.0864 50.0417 38.2081 50.4939 38.4399C50.9461 38.6717 51.337 39.007 51.6349 39.4186ZM44.854 31.1517C43.6466 31.1497 42.4314 30.2818 42.4349 28.3499C42.4371 26.8418 43.0844 25.2262 44.3622 23.5495L44.3927 23.5091C45.8586 21.6983 46.9766 20.9274 48.1292 20.9288C49.2352 20.9306 50.4248 21.7509 50.4224 23.5416C50.4207 24.632 49.8493 26 48.5709 27.9466C47.0494 30.2925 46.0424 31.1535 44.854 31.1517Z" fill="#3F270E"/>
<path d="M68.1863 15.8749C69.9007 14.8361 72.2405 14.3187 75.2056 14.3227C77.3106 14.3027 79.4051 14.6238 81.4075 15.2736C83.2867 15.9014 84.4341 16.7382 84.8496 17.784C85.1455 18.5638 85.2933 19.3917 85.2858 20.2255C85.2812 21.7297 84.7989 22.9185 83.8388 23.7918C83.0854 24.5016 82.0819 24.8546 80.8283 24.8509C80.0526 24.8379 79.2787 24.7738 78.5114 24.6589C77.7646 24.5453 77.0111 24.4809 76.2559 24.4663C75.2932 24.4659 74.8141 24.6306 74.8135 24.9659C74.813 25.4665 75.7515 26.3027 77.6289 27.4745C79.7101 28.8142 81.3367 30.236 82.5089 31.7398C83.7992 33.2881 84.444 34.8547 84.4432 36.4396C84.4397 38.8187 83.1313 40.8514 80.5179 42.5378C77.9046 44.2242 74.635 45.0632 70.7091 45.0549C70.1224 45.0533 69.2445 45.0117 68.0755 44.9301C62.4381 44.293 59.6219 42.387 59.6269 39.2121C59.6295 37.5023 60.0494 36.2901 60.8864 35.5755C61.7235 34.8609 63.145 34.5084 65.1508 34.518L65.7839 34.5206L69.6602 34.652L67.4081 32.2132C65.9061 30.6252 64.8643 29.2358 64.2829 28.045C63.6923 26.8275 63.3938 25.4894 63.4109 24.1367C63.4204 22.4879 63.8655 20.8709 64.701 19.4492C65.5294 17.9732 66.7312 16.7407 68.1863 15.8749Z" fill="#FCDC97"/>
<path d="M70.7055 46.7885C70.0725 46.7859 69.145 46.7415 67.9493 46.6481L67.8828 46.6396C63.3226 46.1258 57.8864 44.418 57.8948 39.2022C57.8966 36.9685 58.5271 35.3022 59.7671 34.2536C60.949 33.263 62.6991 32.7836 65.152 32.7862L65.5845 32.7886C64.2543 31.3154 63.3134 30.0014 62.7256 28.8C62.0192 27.3418 61.6605 25.7401 61.6775 24.1203C61.6877 22.1688 62.2121 20.2544 63.1979 18.5699C64.1733 16.8463 65.5807 15.4059 67.2819 14.3905C69.2656 13.1878 71.9291 12.5823 75.2008 12.588C77.492 12.5707 79.7711 12.9218 81.9508 13.6279C84.3603 14.435 85.8309 15.5845 86.4518 17.1403C86.8285 18.1259 87.018 19.1731 87.0103 20.2281C87.0084 22.2298 86.336 23.8613 84.9972 25.0723C83.9493 26.0716 82.5321 26.5891 80.825 26.5825C80.3753 26.5821 79.8616 26.5546 79.2905 26.4965C81.1941 27.794 82.7255 29.1959 83.8598 30.6653C85.401 32.5199 86.1809 34.4672 86.1778 36.4456C86.1721 39.4383 84.5857 41.9784 81.4595 43.9953C78.5728 45.8549 74.9547 46.7944 70.7055 46.7885ZM68.239 43.2001C69.3331 43.2784 70.1658 43.3213 70.7106 43.3211C74.2797 43.3289 77.2619 42.5742 79.5768 41.0762C81.6817 39.7181 82.7072 38.1991 82.7025 36.4308C82.7045 35.256 82.2018 34.0823 81.1708 32.8455L81.1307 32.796C80.0916 31.4569 78.5943 30.1522 76.6835 28.9277C74.0277 27.2706 73.0776 26.2276 73.0785 24.962C73.0799 24.2893 73.3929 22.728 76.257 22.7345C77.0907 22.7487 77.9226 22.8181 78.7471 22.9423C79.4388 23.0464 80.1366 23.1051 80.836 23.1179C81.636 23.1186 82.2306 22.9265 82.6526 22.531C83.2734 21.9667 83.552 21.2386 83.5549 20.2222C83.5619 19.6027 83.4535 18.9872 83.2353 18.4073C83.1433 18.1846 82.7129 17.537 80.8601 16.9168C79.0346 16.3284 77.1261 16.038 75.2082 16.0571C72.5805 16.0511 70.5211 16.489 69.0909 17.3572C67.8882 18.0628 66.8945 19.0746 66.211 20.2894C65.5207 21.4506 65.1529 22.775 65.1456 24.1258C65.1299 25.2192 65.3708 26.3012 65.8491 27.2848C66.3514 28.3129 67.3046 29.5799 68.679 31.0209L73.7483 36.5338L65.1545 36.261C63.0164 36.2563 62.247 36.7109 62.014 36.9154C61.4838 37.3646 61.3704 38.4197 61.369 39.2254C61.3594 41.3379 63.6754 42.6795 68.239 43.2001Z" fill="#3F270E"/>
<path d="M94.0799 5.52936C95.1681 4.44597 96.318 3.90555 97.5295 3.90812C98.5328 3.90946 99.5763 4.28649 100.66 5.0392C101.66 5.75173 102.16 6.83787 102.159 8.29763C102.157 9.00899 102.135 9.61439 102.092 10.1138L101.834 13.8781L106.096 13.9995C111.068 14.0511 113.551 15.7037 113.546 18.9574C113.543 20.6277 112.893 21.8578 111.598 22.6475C110.302 23.4372 108.108 23.9345 105.015 24.1393L99.5637 24.5667L99.6822 28.3241C99.8011 33.1209 100.404 35.5182 101.491 35.5161C102.034 35.5179 102.953 35.0191 104.249 34.0198C105.461 33.1027 106.527 32.6451 107.447 32.6471C108.408 32.6487 109.368 33.1099 110.326 34.0309C110.847 34.4934 111.263 35.0633 111.543 35.7013C111.824 36.3394 111.963 37.0305 111.951 37.7272C111.947 39.2287 111.318 40.7299 110.064 42.231C108.179 44.4912 105.752 45.6184 102.782 45.6124C101.377 45.6071 99.9815 45.3936 98.6399 44.9789C95.6357 44.0559 93.4665 42.5178 92.1323 40.3647C90.798 38.2117 89.947 34.8398 89.5794 30.2489L89.1503 24.1757L86.7813 24.1775C85.1941 24.1734 84.0983 23.8376 83.4938 23.1698C82.8892 22.5021 82.5884 21.3119 82.5914 19.5994C82.5929 17.9316 83.0963 16.6492 84.1016 15.7521C85.1069 14.855 86.5276 14.4089 88.3638 14.4138C89.4493 14.4115 90.1701 14.2222 90.5264 13.8457C90.8826 13.4692 91.2712 12.4471 91.6921 10.7793C92.1963 8.61314 92.9922 6.86315 94.0799 5.52936Z" fill="#FCDC97"/>
<path d="M102.784 47.3468C101.212 47.3396 99.65 47.1006 98.1477 46.6375C94.7385 45.5911 92.2238 43.7876 90.6691 41.2773C89.1751 38.8697 88.2634 35.3065 87.8622 30.3886L87.5454 25.9182L86.7773 25.9152C84.6662 25.914 83.1616 25.3952 82.205 24.3366C81.2946 23.3304 80.8525 21.7804 80.8558 19.6017C80.8591 17.423 81.5642 15.7008 82.9441 14.4654C84.2732 13.2805 86.0977 12.682 88.3646 12.6862C88.6759 12.6936 88.9869 12.6624 89.2906 12.5933C89.4039 12.3672 89.6528 11.7725 90.0076 10.3642C90.5634 7.97535 91.484 5.97052 92.735 4.43815L92.8553 4.30583C94.2751 2.88991 95.8483 2.17494 97.5305 2.17845C98.8878 2.18061 100.274 2.66536 101.649 3.62118C102.683 4.35629 103.896 5.75555 103.892 8.30544C103.892 9.05012 103.867 9.70933 103.822 10.2626L103.689 12.197L106.149 12.2744C109.54 12.31 115.288 13.2284 115.28 18.9696C115.275 21.2431 114.315 23.0298 112.499 24.1358C110.945 25.0831 108.535 25.6535 105.129 25.8774L101.35 26.174L101.415 28.2771C101.491 31.3435 101.758 32.8289 101.956 33.5229C102.383 33.2623 102.794 32.9758 103.187 32.6651C104.738 31.4937 106.127 30.9304 107.448 30.9343C108.863 30.9353 110.235 31.5638 111.524 32.7977C112.218 33.4204 112.769 34.1849 113.142 35.0393C113.514 35.8937 113.698 36.818 113.682 37.7496C113.679 39.6604 112.908 41.5494 111.391 43.3642C109.171 46.0178 106.276 47.3531 102.784 47.3468ZM95.3673 6.69342C94.482 7.8083 93.8127 9.31568 93.3792 11.1759C92.7205 13.7921 92.2257 14.577 91.7866 15.04C90.8452 16.0317 89.3807 16.1425 88.3611 16.1412C86.9722 16.1392 85.9288 16.4407 85.257 17.0407C84.6333 17.594 84.3276 18.4347 84.3249 19.5989C84.3225 21.4064 84.7047 21.9193 84.7806 22.0028C84.8565 22.0863 85.251 22.4361 86.7854 22.4398L90.779 22.4468L91.3218 30.1293C91.6653 34.407 92.4385 37.5496 93.6188 39.4531C94.7338 41.2555 96.5466 42.5202 99.1634 43.3243C100.339 43.6863 101.561 43.8741 102.791 43.8817C105.238 43.8856 107.181 42.9857 108.73 41.1348C109.713 39.9608 110.212 38.8176 110.218 37.7384C110.23 37.281 110.14 36.8267 109.955 36.4079C109.771 35.989 109.496 35.6161 109.151 35.3156C108.507 34.6998 107.94 34.3975 107.446 34.3958C107.15 34.396 106.475 34.5272 105.297 35.4171C103.619 36.7114 102.476 37.266 101.49 37.2648C98.4272 37.2583 98.0639 32.6723 97.9529 28.3758L97.7817 22.9788L104.883 22.4202C108.386 22.1895 109.974 21.6179 110.696 21.1782C111.215 20.8605 111.812 20.3227 111.822 18.9655C111.825 18.0186 111.829 15.802 106.092 15.7414L99.9933 15.5504L100.356 9.99369C100.396 9.50738 100.417 8.94679 100.418 8.29504C100.421 7.1478 100.008 6.70705 99.6482 6.45021C98.8717 5.91666 98.1575 5.63997 97.5201 5.63886C96.8086 5.63887 96.1017 5.98332 95.3673 6.69342Z" fill="#3F270E"/>
<path d="M113.483 18.2109C114.318 17.2529 115.576 16.7754 117.254 16.7784C118.841 16.7825 120.073 17.244 120.95 18.163C121.615 18.875 121.947 20.0649 121.945 21.7326C121.947 22.8187 121.776 25.3023 121.432 29.1835C120.92 36.1936 120.663 39.8659 120.661 40.2004C120.66 41.1594 120.136 42.1389 119.089 43.139C118.043 44.1391 116.998 44.6388 115.955 44.638C114.993 44.6376 113.868 44.0724 112.582 42.9423C111.893 42.3319 111.394 41.5359 111.146 40.6496C110.937 39.834 110.835 38.2789 110.839 35.9843C110.853 32.1096 111.135 28.2407 111.682 24.4049C112.17 21.068 112.771 19.0034 113.483 18.2109ZM116.074 4.19642C116.612 3.89928 117.212 3.72895 117.826 3.69838C118.452 3.69946 119.329 3.97293 120.456 4.5188C121.501 5.02189 122.168 5.4298 122.459 5.74253C122.75 6.05526 122.896 6.62935 122.896 7.46478C122.896 7.71577 122.851 8.38298 122.768 9.46721C122.639 11.1384 122.439 12.2759 122.166 12.8797C121.893 13.4834 121.339 13.9936 120.503 14.4102C119.625 14.9099 118.956 15.1594 118.497 15.1586C118.039 15.1578 117.164 14.843 115.873 14.2144C114.078 13.423 113.012 12.3983 112.676 11.1403C112.609 10.7869 112.568 10.4291 112.553 10.0698C112.58 8.85352 112.928 7.66604 113.562 6.62703C114.234 5.46245 115.075 4.65062 116.085 4.19152L116.074 4.19642Z" fill="#FCDC97"/>
<path d="M115.944 46.3685C114.536 46.3662 113.058 45.6715 111.424 44.2439L111.373 44.1973C110.445 43.363 109.777 42.2797 109.449 41.0767C109.199 40.104 109.085 38.4841 109.089 35.9827C109.105 32.0221 109.393 28.0674 109.952 24.1464C110.691 19.2769 111.535 17.8087 112.193 17.0636C112.824 16.3462 113.627 15.8017 114.527 15.4815C112.62 14.4958 111.442 13.1896 111.014 11.5782L110.979 11.4198C110.588 9.46506 110.98 7.43537 112.069 5.76596C112.915 4.2959 114.013 3.23969 115.336 2.62791C116.109 2.21498 116.967 1.98712 117.843 1.9623C118.752 1.96435 119.827 2.27856 121.225 2.95256C122.508 3.57176 123.286 4.05912 123.742 4.55603C124.351 5.21167 124.646 6.16267 124.638 7.46331C124.637 7.67406 124.623 8.09425 124.506 9.5981C124.359 11.5096 124.121 12.7788 123.757 13.5846C123.321 14.5521 122.504 15.3425 121.329 15.9352C121.252 15.9781 121.176 16.0212 121.102 16.0602C121.505 16.3168 121.875 16.6219 122.204 16.9686C123.202 18.0346 123.681 19.5914 123.678 21.7363C123.676 22.8753 123.507 25.3599 123.159 29.3341C122.506 38.2501 122.401 39.9814 122.406 40.2077C122.405 41.64 121.696 43.0473 120.301 44.3821C118.907 45.7168 117.446 46.3723 115.944 46.3685ZM113.734 41.6568C115.025 42.777 115.712 42.9005 115.949 42.9011C116.525 42.9007 117.177 42.5598 117.884 41.882C118.55 41.2434 118.918 40.6427 118.918 40.1913C118.918 40.0099 118.921 39.6283 119.693 29.0504C120.031 25.2057 120.201 22.7486 120.203 21.7322C120.202 20.0907 119.835 19.5187 119.676 19.3444C119.145 18.7874 118.347 18.5105 117.249 18.5097C116.092 18.5078 115.291 18.7812 114.796 19.3489L114.779 19.3678C114.706 19.4491 114.04 20.2946 113.378 24.6634C112.847 28.4204 112.575 32.2096 112.565 36.004C112.562 38.7966 112.722 39.8464 112.817 40.2215C112.984 40.7762 113.301 41.2739 113.734 41.6589L113.734 41.6568ZM114.376 10.7559C114.59 11.4456 115.331 12.0738 116.572 12.6243L116.628 12.6504C117.893 13.2631 118.385 13.3892 118.517 13.4145C118.912 13.2928 119.29 13.1188 119.639 12.8972L119.723 12.8509C120.173 12.6278 120.477 12.3817 120.577 12.1582C120.645 12.0128 120.874 11.3712 121.029 9.32787C121.142 7.91408 121.153 7.54631 121.155 7.44535C121.159 7.24391 121.143 7.04255 121.107 6.84435C120.659 6.54575 120.188 6.28454 119.697 6.06337C118.456 5.46427 117.945 5.41806 117.816 5.41644C117.471 5.44981 117.138 5.55772 116.838 5.73268L116.787 5.75773C116.114 6.06437 115.548 6.62929 115.06 7.48044C114.578 8.25882 114.31 9.1498 114.281 10.0644C114.297 10.2968 114.329 10.5278 114.376 10.7559Z" fill="#3F270E"/>
<path d="M130.408 13.7953C131.452 13.2548 132.956 12.9866 134.918 12.9907C137.736 13.0245 140.532 13.472 143.219 14.319C146.122 15.2009 148.156 16.29 149.322 17.5863C150.281 18.6747 150.759 20.1364 150.756 21.9713C150.786 24.3387 149.984 26.6415 148.491 28.4794C145.944 31.897 142.495 33.9149 138.143 34.533C136.096 34.8219 135.072 35.1752 135.071 35.5927C135.07 36.0103 136.343 36.4089 138.892 36.7886C141.438 37.1288 143.234 37.6846 144.278 38.4563C145.323 39.2279 145.843 40.3877 145.838 41.9355C145.834 43.6873 145.404 44.9383 144.547 45.6883C143.69 46.4383 142.235 46.8111 140.182 46.8068C139.76 46.8057 139.014 46.7633 137.927 46.6775C132.705 46.1679 128.583 44.5117 125.561 41.7089C122.539 38.9061 120.825 35.1246 120.418 30.3642C120.296 29.1125 120.235 28.0689 120.235 27.2335C120.239 25.4817 120.701 23.6674 121.623 21.7907C123.088 18.8329 126.016 16.1677 130.408 13.7953ZM138.599 23.4528C138.391 23.0761 137.535 22.8868 136.032 22.8851C134.779 22.8814 133.837 23.0272 133.212 23.3166C132.584 23.5685 132.27 23.8604 132.27 24.1923C132.269 24.7335 132.832 25.0058 133.961 25.009C135.062 25.0277 136.159 24.8832 137.218 24.5804C138.18 24.291 138.661 23.9789 138.661 23.6443C138.664 23.6098 138.66 23.5751 138.649 23.5422C138.639 23.5093 138.622 23.4789 138.599 23.4528Z" fill="#FCDC97"/>
<path d="M140.199 48.543C139.722 48.5413 138.938 48.4962 137.81 48.4071C132.194 47.8579 127.693 46.0352 124.4 42.9827C121.063 39.893 119.147 35.6996 118.701 30.5187C118.583 29.4288 118.52 28.3337 118.511 27.2374C118.515 25.2253 119.034 23.1356 120.075 21.0301C121.699 17.7522 124.901 14.8063 129.593 12.2717L129.62 12.2583C130.928 11.5813 132.665 11.2543 134.932 11.2585C137.914 11.2958 140.873 11.7683 143.718 12.6612C146.956 13.6456 149.21 14.876 150.606 16.4252C151.86 17.8508 152.488 19.7113 152.485 21.9744C152.513 24.7245 151.584 27.3986 149.857 29.5396C147.797 32.3512 144.902 34.4418 141.583 35.5138C143.186 35.8932 144.425 36.4077 145.304 37.064C146.341 37.829 147.569 39.302 147.565 41.9363C147.561 44.2014 146.929 45.9012 145.685 46.9916C144.486 48.0389 142.694 48.5447 140.199 48.543ZM131.227 15.3342C127.186 17.5193 124.481 19.959 123.186 22.5679C122.387 24.1918 121.982 25.7665 121.979 27.247C121.977 28.021 122.036 29.0158 122.153 30.2057C122.53 34.5825 124.036 37.924 126.759 40.4461C129.482 42.9682 133.305 44.4893 138.116 44.9592C139.37 45.0599 139.944 45.0803 140.212 45.0808C142.322 45.0861 143.127 44.6508 143.424 44.3913C143.997 43.8884 144.12 42.7796 144.121 41.9381C144.124 40.6453 143.63 40.1288 143.26 39.8537C142.712 39.4485 141.483 38.8868 138.68 38.5126C135.649 38.0608 133.353 37.5613 133.352 35.5951C133.355 33.467 136.101 33.0787 137.928 32.8243C141.831 32.2671 144.841 30.5118 147.126 27.4575L147.164 27.4095C148.413 25.8797 149.081 23.9579 149.049 21.9836C149.051 20.5726 148.73 19.5149 148.047 18.7485C147.407 18.0341 145.951 16.9709 142.74 15.994C140.216 15.1972 137.589 14.7742 134.943 14.7384C132.848 14.7203 131.764 15.0483 131.217 15.3288L131.227 15.3342ZM133.967 26.748C130.788 26.7415 130.545 24.7929 130.544 24.2021C130.543 23.6114 130.806 22.4425 132.534 21.7388C133.399 21.3491 134.549 21.1519 136.042 21.165C137.675 21.1622 139.279 21.3329 140.033 22.4732C140.279 22.819 140.409 23.2336 140.405 23.6578C140.401 25.4441 138.39 26.0505 137.729 26.2489C136.503 26.5982 135.232 26.7645 133.957 26.7426L133.967 26.748Z" fill="#3F270E"/>
<path d="M166.16 27.6332C164.282 26.4628 163.344 25.6267 163.345 25.1247C163.345 24.7914 163.826 24.6255 164.787 24.6271C165.542 24.6418 166.295 24.7061 167.042 24.8198C167.81 24.9341 168.584 24.9975 169.359 25.0097C170.591 25.012 171.579 24.6718 172.325 23.9891C171.8 23.4935 171.423 22.8611 171.238 22.1633C171.054 21.4654 171.068 20.7299 171.279 20.0396C170.369 19.9298 169.527 19.5013 168.903 18.83C168.28 18.1588 167.914 17.2884 167.872 16.3735C167.81 16.3762 167.751 16.3812 167.689 16.3818C167.023 16.3781 166.369 16.2026 165.79 15.8724C165.211 15.5421 164.727 15.0682 164.385 14.4966C164.175 14.4888 163.964 14.4851 163.753 14.4835C160.785 14.4793 158.445 14.9973 156.732 16.0375C155.278 16.8997 154.077 18.1289 153.25 19.6018C152.413 21.0227 151.967 22.6399 151.958 24.289C151.942 25.6415 152.241 26.9792 152.83 28.1973C153.412 29.3882 154.454 30.7776 155.955 32.3655L158.208 34.8108L154.308 34.6848L153.675 34.6843C151.669 34.6804 150.249 35.0323 149.413 35.7399C148.576 36.4476 148.157 37.6598 148.153 39.3765C148.147 42.5485 150.963 44.4545 156.602 45.0946C157.772 45.1804 158.649 45.222 159.233 45.2191C163.159 45.2288 166.428 44.3897 169.042 42.702C171.656 41.0142 172.964 38.9801 172.968 36.5996C172.97 35.0135 172.325 33.4469 171.034 31.8998C169.872 30.389 168.248 28.9668 166.16 27.6332Z" fill="#FCDC97"/>
<path d="M155.96 46.7529C153.051 46.3821 150.873 45.6825 149.297 44.6146C147.407 43.3421 146.422 41.5289 146.435 39.3767C146.439 37.1411 147.069 35.4768 148.307 34.428C149.478 33.4361 151.239 32.956 153.694 32.9609L154.116 32.9599C152.783 31.4799 151.843 30.1704 151.247 28.97C150.542 27.512 150.183 25.9113 150.199 24.2924C150.211 22.3409 150.739 20.4275 151.729 18.7453C152.707 17.0159 154.119 15.5715 155.827 14.5551C157.799 13.3594 160.465 12.752 163.739 12.758C163.971 12.7581 164.201 12.7641 164.428 12.7699C164.718 12.7778 165.002 12.8586 165.252 13.0048C165.503 13.1511 165.713 13.3581 165.862 13.6068C166.049 13.9211 166.314 14.1819 166.632 14.364C166.949 14.546 167.308 14.643 167.674 14.6457L167.691 14.6478L167.795 14.6421C168.023 14.6318 168.251 14.6665 168.465 14.7442C168.68 14.822 168.877 14.9412 169.045 15.0951C169.213 15.2491 169.349 15.4346 169.446 15.6412C169.542 15.8478 169.597 16.0714 169.606 16.2991C169.625 16.8014 169.822 17.2807 170.161 17.6519C170.5 18.0231 170.96 18.262 171.459 18.3263L171.497 18.3311C171.747 18.3626 171.988 18.4487 172.202 18.5833C172.416 18.7178 172.598 18.8975 172.736 19.1098C172.873 19.3221 172.962 19.5619 172.996 19.8121C173.031 20.0624 173.01 20.3172 172.935 20.5586C172.819 20.9405 172.812 21.3472 172.915 21.733C173.017 22.1187 173.226 22.4683 173.516 22.7422C173.688 22.9057 173.825 23.1027 173.917 23.321C174.01 23.5392 174.056 23.7741 174.055 24.0112C174.053 24.2482 174.002 24.4823 173.906 24.699C173.81 24.9157 173.67 25.1104 173.496 25.271C172.419 26.2518 171.027 26.7494 169.358 26.7454C168.908 26.7451 168.393 26.7152 167.821 26.6593C169.549 27.8029 171.09 29.2046 172.392 30.8155C173.933 32.6701 174.713 34.6175 174.71 36.5958C174.696 39.6044 173.116 42.1453 169.991 44.1518C167.104 46.0156 163.486 46.9551 159.237 46.9471C158.603 46.9465 157.676 46.9001 156.483 46.8069L156.416 46.7985L155.96 46.7529ZM154.278 36.4127L153.678 36.4102C151.54 36.4076 150.771 36.8622 150.54 37.0648C150.008 37.5159 149.894 38.5689 149.893 39.3746C149.891 40.3827 150.305 41.1147 151.24 41.7444C152.407 42.526 154.265 43.073 156.77 43.3587C157.866 43.4393 158.697 43.4798 159.244 43.482C162.811 43.4875 165.793 42.7348 168.11 41.2371C170.215 39.879 171.238 38.3598 171.236 36.5917C171.238 35.4148 170.737 34.2435 169.704 33.0064C169.691 32.99 169.676 32.9733 169.666 32.9572C168.627 31.6181 167.134 30.3139 165.227 29.092C162.551 27.4219 161.603 26.3813 161.606 25.1159C161.607 24.4452 161.918 22.8837 164.785 22.8884C165.618 22.9025 166.45 22.9719 167.275 23.0962C167.966 23.201 168.664 23.2603 169.363 23.2739C169.509 23.2735 169.649 23.2681 169.788 23.2563C169.534 22.627 169.397 21.9569 169.383 21.2787C168.688 20.9565 168.067 20.4944 167.559 19.9215C167.051 19.3485 166.666 18.6769 166.43 17.9488C165.3 17.688 164.28 17.0791 163.514 16.208C160.997 16.2289 159.023 16.6649 157.632 17.5064C156.43 18.216 155.437 19.2306 154.755 20.4474C154.064 21.6086 153.697 22.9333 153.692 24.2841C153.673 25.3737 153.911 26.4525 154.386 27.4336C154.888 28.4617 155.839 29.7284 157.216 31.1696L157.23 31.1863L159.466 33.6546C159.698 33.906 159.85 34.2203 159.904 34.5579C159.957 34.8954 159.91 35.2412 159.767 35.5518C159.624 35.8624 159.393 36.1238 159.102 36.3032C158.81 36.4826 158.473 36.572 158.131 36.5601L154.278 36.4127Z" fill="#3F270E"/>
<path d="M34.9053 22.513C36.2007 21.7246 36.8502 20.4946 36.8536 18.8228C36.8588 15.5692 34.3762 13.9167 29.4059 13.8652L25.144 13.7438L25.4022 9.97958C25.445 9.47874 25.4666 8.87325 25.467 8.16309C25.4687 6.70351 24.9696 5.61745 23.9696 4.90493C22.8832 4.15325 21.839 3.77613 20.8372 3.77358C19.6257 3.77101 18.4766 4.31151 17.3898 5.39509C16.302 6.72887 15.5052 8.48017 14.9993 10.649C14.5796 12.3182 14.1917 13.3404 13.8357 13.7155C13.4796 14.0906 12.7592 14.2766 11.6744 14.2733C9.83377 14.2707 8.41226 14.7174 7.4099 15.6134C6.40754 16.5095 5.90414 17.7919 5.8997 19.4607C5.89707 21.1705 6.19854 22.3607 6.80412 23.0314C7.40969 23.7021 8.50553 24.038 10.0916 24.0391L12.4726 24.043L12.9017 30.1163C13.0162 31.6592 13.2188 33.1944 13.5084 34.7143C14.4513 34.7885 15.3344 35.205 15.991 35.8854C16.6476 36.5657 17.0322 37.4626 17.0722 38.4068C17.1325 38.4145 17.1938 38.397 17.2548 38.3984C17.7642 38.3992 18.2684 38.5003 18.7387 38.6958C19.209 38.8913 19.6362 39.1774 19.9959 39.5379C20.3556 39.8983 20.6407 40.326 20.8349 40.7965C21.0292 41.2671 21.1288 41.7712 21.1281 42.2801C21.1265 42.6625 21.0688 43.0424 20.9569 43.408C21.5467 43.4792 22.1123 43.6851 22.6098 44.0097C23.1074 44.3343 23.5235 44.769 23.826 45.28C24.5764 45.409 25.3362 45.4755 26.0976 45.4789C29.0637 45.4858 31.4877 44.3631 33.3695 42.1109C34.6249 40.6101 35.254 39.1088 35.2569 37.6072C35.2692 36.9106 35.1305 36.2196 34.8503 35.5816C34.5702 34.9436 34.1551 34.3737 33.6337 33.9111C32.6742 32.9914 31.7147 32.5301 30.7552 32.5273C29.8348 32.5267 28.7687 32.9843 27.5569 33.9001C26.2599 34.8992 25.3399 35.3979 24.7968 35.3961C23.7099 35.3982 23.1077 33.0009 22.9902 28.2043L22.8717 24.4469L28.3225 24.0196C31.4152 23.8063 33.6095 23.3041 34.9053 22.513Z" fill="#FCDC97"/>
<path d="M24.1997 47.0827C23.9795 47.0546 23.7593 47.0266 23.5386 46.9858C23.29 46.9437 23.0534 46.848 22.8455 46.7053C22.6377 46.5626 22.4634 46.3763 22.335 46.1594C22.1694 45.8817 21.9435 45.6448 21.6739 45.4662C21.4043 45.2876 21.098 45.1719 20.7776 45.1275L20.7485 45.1238C20.498 45.0919 20.2575 45.0056 20.0438 44.8712C19.8301 44.7367 19.6484 44.5572 19.5114 44.3452C19.3743 44.1333 19.2852 43.894 19.2503 43.6441C19.2155 43.3941 19.2356 43.1396 19.3094 42.8983C19.3702 42.6969 19.4018 42.4878 19.4034 42.2775C19.4035 41.713 19.181 41.1712 18.784 40.7695C18.387 40.3678 17.8476 40.1387 17.2828 40.1317L17.1635 40.1397C16.9355 40.1503 16.7076 40.1158 16.4929 40.0382C16.2782 39.9606 16.0809 39.8414 15.9125 39.6874C15.744 39.5334 15.6076 39.3477 15.5111 39.141C15.4146 38.9342 15.3599 38.7104 15.3501 38.4825C15.3281 37.9601 15.1155 37.4637 14.7524 37.0871C14.3893 36.7105 13.9009 36.4796 13.3792 36.4381C13.0013 36.409 12.6433 36.2569 12.3601 36.0051C12.0769 35.7534 11.884 35.4159 11.8109 35.0442C11.5097 33.4595 11.2979 31.8591 11.1764 30.2506L10.8609 25.7698L10.0928 25.7668C7.98176 25.7656 6.47714 25.2468 5.52059 24.1882C4.61015 23.1819 4.15765 21.6307 4.17134 19.4533C4.18502 17.2759 4.88004 15.5503 6.25967 14.317C7.5888 13.1321 9.41113 12.5333 11.6801 12.5378C11.9914 12.5438 12.3023 12.5126 12.6061 12.4449C12.7194 12.2188 12.9657 11.6279 13.3111 10.2269C13.874 7.81574 14.7941 5.81507 16.0425 4.28659C16.0793 4.2396 16.1195 4.19537 16.1628 4.15426C17.5826 2.73835 19.1558 2.02338 20.838 2.02688C22.1932 2.02878 23.5797 2.51353 24.9547 3.46935C25.9905 4.20473 27.2034 5.60398 27.1992 8.15388C27.198 8.89206 27.1736 9.54712 27.1289 10.0962L26.9965 12.0454L29.4379 12.1225C32.284 12.1542 34.4165 12.6665 35.9537 13.6915C37.6799 14.8398 38.5899 16.6118 38.5852 18.8178C38.5825 21.0915 37.62 22.8779 35.8152 23.9853C34.2632 24.9308 31.8555 25.5014 28.4554 25.724L24.6635 26.0232L24.7311 28.1266C24.8067 31.193 25.0734 32.6784 25.2718 33.3745C25.6982 33.1117 26.1091 32.8246 26.5025 32.5146C28.0536 31.3432 29.4429 30.7799 30.7619 30.7835C32.1761 30.7866 33.5428 31.4102 34.8283 32.6373C35.5245 33.2608 36.0785 34.0265 36.4527 34.8826C36.8269 35.7387 37.0127 36.6651 36.9973 37.5991C36.9944 39.5099 36.2237 41.3989 34.7066 43.2137C32.4872 45.8673 29.5913 47.2026 26.0994 47.2025C25.4643 47.2026 24.8298 47.1626 24.1997 47.0827ZM22.8605 42.1697C23.6088 42.5208 24.2715 43.0308 24.8024 43.664C25.233 43.7136 25.666 43.7392 26.0994 43.7408C28.5477 43.747 30.4907 42.8471 32.0399 40.9963C33.0214 39.8219 33.5218 38.6791 33.5285 37.5998C33.538 37.143 33.4468 36.6897 33.2615 36.272C33.0761 35.8543 32.8011 35.4824 32.4559 35.1827L32.4331 35.1629C31.8103 34.5667 31.245 34.2647 30.7512 34.2629C30.4535 34.2629 29.7801 34.3943 28.6026 35.2842C26.9239 36.5785 25.7806 37.1331 24.7949 37.1319C23.8091 37.1307 22.4934 36.5875 21.8482 34.0139C21.5141 32.676 21.3207 30.7823 21.256 28.2426L21.138 24.4979C21.1235 24.0526 21.2814 23.6188 21.579 23.287C21.8765 22.9552 22.2907 22.7508 22.7353 22.7165L28.1864 22.287L28.2092 22.29C31.6882 22.0605 33.279 21.4892 34.0001 21.0495C34.5199 20.7318 35.1162 20.194 35.127 18.8347C35.1271 17.8896 35.1292 15.6707 29.3941 15.6124L29.3588 15.6079L25.0907 15.4689C24.8571 15.4603 24.6276 15.4045 24.4161 15.3051C24.2045 15.2056 24.0153 15.0644 23.8597 14.89C23.7039 14.7166 23.5843 14.5139 23.508 14.2937C23.4316 14.0735 23.4001 13.8402 23.4152 13.6077L23.6734 9.84346L23.6766 9.81855C23.714 9.35922 23.7333 8.79421 23.7366 8.13857C23.7375 6.98899 23.3247 6.55032 22.9669 6.29375C22.1904 5.76019 21.4762 5.4835 20.8387 5.4824C20.1189 5.48134 19.4121 5.82579 18.6797 6.53616C17.7944 7.65104 17.1251 9.15842 16.6916 11.0186C16.6913 11.0291 16.69 11.0395 16.6877 11.0497C16.0371 13.6354 15.5423 14.4203 15.1032 14.8833C14.1618 15.875 12.6973 15.9857 11.6778 15.9844C10.2888 15.9825 9.24334 16.2837 8.57149 16.8837C7.9478 17.437 7.64425 18.278 7.64151 19.4421C7.63909 21.2497 8.01948 21.7602 8.0972 21.846C8.17493 21.9319 8.56557 22.2791 10.1 22.2828L12.4752 22.2987C12.914 22.2992 13.3363 22.4658 13.657 22.7651C13.9777 23.0643 14.173 23.4739 14.2035 23.9113L14.6326 29.9845C14.725 31.1481 14.8551 32.2469 15.0156 33.2567C15.8346 33.5377 16.5776 34.0038 17.1869 34.6186C17.7963 35.2334 18.2554 35.9804 18.5286 36.8014C19.7449 37.0882 20.831 37.7716 21.6155 38.7437C22.3999 39.7158 22.838 40.9213 22.8605 42.1697Z" fill="#3F270E"/>
<path d="M30.7569 30.7913C29.4378 30.7877 28.0486 31.3511 26.4974 32.5224C26.1047 32.8326 25.6939 33.119 25.267 33.3802C25.0663 32.6859 24.8003 31.2112 24.726 28.1345L24.6585 26.0311L28.4395 25.7347C31.846 25.5108 34.2558 24.9404 35.8101 23.9931C37.6233 22.8868 38.5857 21.1004 38.5802 18.8256C38.5903 13.0826 32.8424 12.1642 29.4518 12.1307L26.9915 12.0533L27.122 10.1186C27.1693 9.5656 27.1919 8.90819 27.1942 8.1617C27.1983 5.61181 25.9857 4.21047 24.9496 3.47718C23.5746 2.52135 22.1902 2.03687 20.833 2.03471C19.1445 2.03041 17.5755 2.74591 16.1577 4.16208L16.0374 4.29441C14.787 5.82263 13.8658 7.8316 13.31 10.2205C12.955 11.6308 12.706 12.2256 12.6034 12.4509C12.2996 12.5186 11.9887 12.5498 11.6774 12.5438C9.40842 12.5393 7.59024 13.1387 6.25696 14.323C4.87317 15.5558 4.1714 17.2847 4.16863 19.4593C4.16586 21.6339 4.60536 23.1877 5.51787 24.1942C6.47443 25.2528 7.96839 25.7724 10.0901 25.7728L10.8582 25.7758L11.1737 30.2566C11.2918 31.8402 11.4983 33.4159 11.7923 34.9765C12.3876 34.7405 13.0325 34.657 13.6684 34.7337C14.3043 34.8103 14.9109 35.0446 15.4331 35.4153C15.0246 33.6301 14.754 31.8163 14.6237 29.9897L14.0809 22.3072L10.0853 22.2999C8.55089 22.2963 8.1491 21.9371 8.08252 21.8632C8.01593 21.7893 7.62466 21.2648 7.62683 19.4593C7.62956 18.2952 7.93259 17.4583 8.5568 16.9008C9.22866 16.3009 10.2741 15.9996 11.6631 16.0016C12.6826 16.0029 14.1466 15.8963 15.0885 14.9004C15.5276 14.4375 16.0224 13.6525 16.6811 11.0363C17.1146 9.17609 17.7839 7.66872 18.6692 6.55383C19.3933 5.8424 20.1084 5.49901 20.8282 5.50007C21.4615 5.50064 22.1861 5.77866 22.9563 6.31142C23.3142 6.56799 23.727 7.00666 23.7261 8.15625C23.7233 8.80773 23.7043 9.37067 23.6637 9.8549L23.2854 15.4054L29.3836 15.5964C35.1208 15.6549 35.1167 17.8736 35.1163 18.8207C35.1141 20.179 34.5177 20.7168 33.9897 21.0334C33.2686 21.4731 31.6778 22.0445 28.1754 22.2751L21.0737 22.8338L21.245 28.2307C21.3513 32.5308 21.7208 37.1177 24.7839 37.12C25.7697 37.1212 26.9129 36.5666 28.5916 35.2723C29.7608 34.3814 30.4436 34.2427 30.7402 34.251C31.234 34.2527 31.7993 34.5548 32.4449 35.1708C32.79 35.4716 33.0645 35.8446 33.249 36.2633C33.4335 36.6821 33.5235 37.1362 33.5126 37.5936C33.51 38.6734 33.0179 39.8173 32.0239 40.99C30.4748 42.8409 28.5317 43.7408 26.0832 43.7366C24.8532 43.729 23.631 43.5412 22.4554 43.1792C21.97 43.0287 21.5221 42.8493 21.0882 42.6758C21.0633 42.9207 21.0141 43.1624 20.9413 43.3975C21.8554 43.5079 22.7003 43.9401 23.3244 44.6165C23.9485 45.293 24.311 46.1695 24.3469 47.0888C24.9215 47.1591 25.4996 47.1969 26.0785 47.202C29.5697 47.2083 32.4642 45.8665 34.6857 43.2132C36.2025 41.4004 36.9733 39.5115 36.9765 37.5985C36.9925 36.667 36.8081 35.7428 36.4359 34.8885C36.0637 34.0342 35.5122 33.2697 34.8188 32.6466C33.5458 31.4211 32.1734 30.7926 30.7569 30.7913Z" fill="#3F270E"/>
<path d="M167.821 26.6572C168.393 26.7132 168.906 26.7428 169.358 26.7434C171.063 26.7498 172.476 26.2317 173.536 25.2341C173.658 25.123 173.777 25.0052 173.878 24.8874C173.302 24.7147 172.774 24.4104 172.335 23.9986C171.897 23.5869 171.56 23.0789 171.352 22.5148C171.298 22.5761 171.24 22.6343 171.18 22.6891C170.759 23.0869 170.165 23.2791 169.363 23.278C168.663 23.2645 167.966 23.2051 167.274 23.1004C166.45 22.9761 165.618 22.9067 164.784 22.8926C161.918 22.8879 161.605 24.4492 161.606 25.1201C161.603 26.3855 162.553 27.4285 165.216 29.0907C167.129 30.3197 168.624 31.62 169.663 32.9611L169.703 33.0106C170.737 34.2456 171.237 35.419 171.235 36.5959C171.221 38.3619 170.208 39.8824 168.109 41.2413C165.793 42.7348 162.811 43.4875 159.243 43.4862C158.696 43.484 157.866 43.4435 156.77 43.3628C152.191 42.8404 149.89 41.5027 149.888 39.3782C149.89 38.5725 150.003 37.5196 150.533 37.0682C150.769 36.8747 151.534 36.4195 153.674 36.4138L162.269 36.6891L157.197 31.18C155.823 29.7242 154.871 28.4658 154.368 27.4439C153.893 26.4628 153.655 25.3841 153.673 24.2945C153.679 22.9437 154.046 21.6191 154.737 20.4578C155.417 19.2441 156.406 18.2319 157.604 17.5241C159.037 16.652 161.093 16.2201 163.721 16.2239C165.122 16.219 166.519 16.3695 167.887 16.6727C167.874 16.5719 167.868 16.472 167.864 16.3723C167.802 16.375 167.742 16.38 167.681 16.3807C166.699 16.3784 165.754 16.0032 165.037 15.3311C164.321 14.659 163.887 13.7401 163.823 12.7604L163.73 12.7591C160.461 12.7536 157.795 13.3589 155.814 14.5597C154.111 15.5766 152.704 17.0192 151.729 18.7454C150.743 20.4297 150.218 22.3439 150.207 24.2955C150.19 25.9146 150.549 27.5155 151.255 28.9731C151.843 30.1746 152.784 31.4885 154.124 32.9631L153.702 32.9641C151.249 32.9594 149.486 33.4393 148.315 34.4312C147.077 35.48 146.446 37.1463 146.443 39.3798C146.434 44.5936 151.87 46.3034 156.433 46.8175L156.499 46.826C157.693 46.9149 158.621 46.9593 159.253 46.9661C163.502 46.9741 167.12 46.0346 170.007 44.1708C173.116 42.1453 174.696 39.6044 174.709 36.6021C174.713 34.6155 173.944 32.6694 172.391 30.8218C171.09 29.2084 169.549 27.8039 167.821 26.6572Z" fill="#3F270E"/>
<path d="M173.996 14.6881C173.934 14.6802 173.873 14.6682 173.813 14.6521C173.492 14.56 173.206 14.3769 172.987 14.1249L171.952 13.0057C171.81 12.8757 171.696 12.7189 171.616 12.5445C171.536 12.37 171.491 12.1814 171.485 11.9896C171.478 11.7977 171.51 11.6065 171.578 11.427C171.646 11.2476 171.749 11.0834 171.881 10.9441L172.564 10.1051L172.755 9.75388C172.848 9.58425 172.985 9.44259 173.151 9.34361C173.317 9.24463 173.507 9.19192 173.701 9.19097C173.846 9.18907 173.992 9.19777 174.136 9.217C174.965 9.33268 175.729 9.72628 176.304 10.3332C176.878 10.94 177.23 11.7242 177.3 12.5567C177.337 12.8937 177.253 13.233 177.063 13.5134C176.872 13.7939 176.587 13.9971 176.26 14.0865L174.842 14.5828C174.575 14.6869 174.287 14.7261 174.001 14.6972L173.996 14.6881Z" fill="#FCDC97"/>
<path d="M174.001 10.282C174.576 10.367 175.106 10.6424 175.506 11.064C175.906 11.4856 176.154 12.0291 176.208 12.6075C176.223 12.7099 176.203 12.8143 176.151 12.904C176.084 12.9792 175.996 13.032 175.898 13.0552L174.479 13.5495C174.371 13.5974 174.252 13.6192 174.133 13.613L174.088 13.6071C173.967 13.5628 173.862 13.4849 173.785 13.3829L172.749 12.2657C172.656 12.1816 172.596 12.0669 172.579 11.9424C172.593 11.8212 172.648 11.7084 172.734 11.6225L173.484 10.7055L173.722 10.2696C173.82 10.2678 173.918 10.2732 174.015 10.2859L174.001 10.282ZM174.289 8.13743C174.096 8.11244 173.902 8.1011 173.708 8.1035C173.321 8.10574 172.942 8.21156 172.609 8.40996C172.277 8.60836 172.004 8.89209 171.819 9.23167L171.675 9.49398L171.648 9.52635L171.049 10.2537C170.616 10.7373 170.387 11.3688 170.409 12.0171C170.43 12.6653 170.701 13.2803 171.164 13.7344L171.374 13.9615L172.2 14.8536C172.556 15.2599 173.022 15.554 173.542 15.6999C173.648 15.7285 173.756 15.75 173.866 15.7643C174.317 15.8158 174.775 15.7584 175.2 15.5969L175.91 15.3477L176.619 15.1006C177.135 14.9343 177.588 14.6116 177.912 14.177C178.262 13.6857 178.428 13.0868 178.379 12.4856C178.301 11.4016 177.851 10.3775 177.107 9.58536C176.362 8.7932 175.367 8.2812 174.289 8.13535L174.289 8.13743Z" fill="#3F270E"/>
<path d="M165.394 9.89136C165.228 9.86993 165.076 9.78479 164.971 9.65383L164.334 8.87016C164.226 8.74272 164.171 8.57858 164.181 8.4119L164.231 7.72627C164.241 7.57615 164.304 7.43447 164.408 7.32567C164.512 7.21686 164.651 7.14774 164.801 7.13022L166.368 6.93773C166.422 6.93027 166.476 6.93005 166.529 6.93709C166.65 6.95252 166.764 7.00145 166.859 7.07836C166.927 7.13364 166.983 7.20226 167.024 7.27999C167.065 7.35771 167.089 7.44291 167.095 7.53033L167.192 8.70716C167.203 8.84042 167.172 8.97368 167.104 9.08881C167.036 9.20395 166.934 9.29538 166.812 9.35068L165.732 9.84576C165.625 9.89009 165.509 9.9058 165.394 9.89136Z" fill="#FCDC97"/>
<path d="M166.46 7.5822L166.554 8.75877L165.476 9.25411L164.839 8.47044L164.888 7.78481L166.458 7.59051L166.46 7.5822ZM166.623 6.30144C166.515 6.28806 166.406 6.2883 166.298 6.30216L164.732 6.48013C164.433 6.5168 164.156 6.65591 163.948 6.87373C163.741 7.09155 163.615 7.37459 163.593 7.67457L163.544 8.3602C163.519 8.68966 163.622 9.01599 163.831 9.27224L164.465 10.0577C164.647 10.2809 164.897 10.4378 165.177 10.504C165.457 10.5702 165.751 10.542 166.013 10.4238L167.094 9.92868C167.338 9.81767 167.542 9.63414 167.678 9.40309C167.814 9.17204 167.875 8.9047 167.854 8.63749L167.756 7.46273C167.732 7.1658 167.607 6.88614 167.401 6.67057C167.195 6.455 166.921 6.31662 166.626 6.2786L166.623 6.30144Z" fill="#3F270E"/>
<path d="M11.0937 50.5234C10.6226 50.4776 10.1698 50.3172 9.77506 50.0562C9.3803 49.7951 9.05556 49.4414 8.82926 49.0259C8.04456 47.464 9.09134 45.8275 9.53717 45.1291C9.65841 44.9388 9.83679 44.7918 10.0468 44.7089L13.4646 43.3368C13.7058 43.2405 13.9737 43.2339 14.2194 43.3183C14.4652 43.4026 14.6724 43.5723 14.8036 43.7965C15.1519 44.3767 15.471 44.9701 15.7769 45.5681C16.0226 45.9871 16.1624 46.4597 16.1841 46.9448C16.1873 48.2278 15.0758 49.0143 14.6434 49.3093C13.9203 49.8142 13.0636 50.3737 12.0193 50.5169C11.7117 50.5603 11.3997 50.5624 11.0916 50.5231L11.0937 50.5234Z" fill="#FCDC97"/>
<path d="M13.8704 44.3441C14.2011 44.908 14.5165 45.4812 14.8166 46.0637C14.9808 46.3303 15.0791 46.6321 15.1034 46.9441C15.105 47.5772 14.5397 48.0536 14.0245 48.4183C13.3662 48.8786 12.6612 49.3245 11.8653 49.4403C11.6552 49.4711 11.4419 49.473 11.2312 49.446C10.9365 49.4224 10.6519 49.3271 10.4024 49.1684C10.1529 49.0098 9.94603 48.7925 9.79975 48.5357C9.34261 47.6336 9.90542 46.5641 10.4514 45.7097L13.871 44.3399L13.8704 44.3441ZM14.1451 42.1894C13.7813 42.1447 13.412 42.1927 13.0717 42.3289L9.65421 43.699C9.23426 43.867 8.87763 44.1624 8.63448 44.5436C8.13391 45.3236 6.80764 47.3969 7.87055 49.5091C8.17695 50.0825 8.61935 50.5722 9.15903 50.9352C9.69871 51.2982 10.3192 51.5235 10.9662 51.5914C11.3714 51.6428 11.7816 51.6391 12.1858 51.5802C13.4053 51.4044 14.3956 50.8071 15.2766 50.1896C15.7727 49.8415 17.2839 48.7853 17.281 46.9369C17.2597 46.2791 17.0786 45.6363 16.7534 45.0639C16.4366 44.4518 16.1012 43.8374 15.7498 43.2483C15.5813 42.9634 15.3496 42.7208 15.0727 42.5392C14.7957 42.3576 14.4808 42.2419 14.1521 42.2008L14.1451 42.1894Z" fill="#3F270E"/>
<path d="M4.0018 42.974C3.71409 42.9379 3.44527 42.8114 3.23418 42.6128C3.02308 42.4141 2.88064 42.1535 2.82742 41.8687L2.5412 40.3049C2.50824 40.1413 2.52314 39.9717 2.58413 39.8163C2.64512 39.661 2.74961 39.5265 2.8851 39.429L4.11164 38.5685C4.2886 38.4446 4.50544 38.391 4.71983 38.4182C4.75617 38.4197 4.79232 38.4243 4.82786 38.432L5.54333 38.616C5.696 38.6554 5.83499 38.7358 5.94529 38.8484C6.05559 38.9609 6.133 39.1015 6.16916 39.2549L6.48196 40.5605C6.54395 40.8192 6.55095 41.088 6.50252 41.3495C6.45408 41.6111 6.35128 41.8596 6.20075 42.0789C6.05023 42.2983 5.85533 42.4837 5.62864 42.6231C5.40195 42.7625 5.1485 42.8528 4.88468 42.8883L4.36057 42.9586C4.24217 42.9747 4.12214 42.975 4.00366 42.9595L4.0018 42.974Z" fill="#FCDC97"/>
<path d="M4.60962 39.2818L5.32482 39.4679L5.63763 40.7735C5.66955 40.9143 5.67198 41.0601 5.64477 41.2019C5.61755 41.3436 5.56128 41.4782 5.47949 41.5972C5.3977 41.7161 5.29216 41.8169 5.16951 41.8931C5.04686 41.9693 4.90975 42.0193 4.7668 42.04L4.24478 42.1106C4.20066 42.1168 4.15589 42.1168 4.11178 42.1105C4.00602 42.0969 3.90729 42.0501 3.82976 41.9769C3.75223 41.9038 3.69989 41.8079 3.68023 41.7032L3.38362 40.1381L4.61015 39.2777L4.60962 39.2818ZM4.82926 37.5589C4.40106 37.5041 3.96787 37.6114 3.61496 37.8598L2.38684 38.7326C2.11371 38.9235 1.9015 39.189 1.77568 39.4974C1.64986 39.8058 1.61578 40.1439 1.67751 40.4712L1.97386 42.0384C2.08037 42.6012 2.39947 43.1016 2.86504 43.4358C3.33062 43.7701 3.907 43.9126 4.47478 43.8339L4.9968 43.7633C5.38106 43.7123 5.75031 43.5813 6.08073 43.3788C6.41115 43.1763 6.6954 42.9068 6.91512 42.5878C7.13485 42.2687 7.28517 41.9071 7.35638 41.5264C7.4276 41.1457 7.41812 40.7542 7.32857 40.3773L7.01576 39.0717C6.94191 38.7656 6.78626 38.4852 6.5654 38.2605C6.34455 38.0358 6.06679 37.8752 5.76177 37.7959L5.0463 37.6119C4.97869 37.5935 4.9099 37.5798 4.84041 37.5709L4.82926 37.5589Z" fill="#3F270E"/>
<path opacity="0.8" d="M20.2469 10.3074C19.6737 10.3127 19.1253 10.5417 18.7188 10.9455C18.3123 11.3493 18.0799 11.8959 18.0712 12.4686L18.0663 16.3496C18.0659 16.634 18.1216 16.9158 18.2302 17.1787C18.3388 17.4417 18.4982 17.6807 18.6993 17.8822C19.1053 18.289 19.6564 18.518 20.2314 18.5189C20.516 18.5193 20.798 18.4637 21.0612 18.3552C21.3243 18.2467 21.5635 18.0875 21.765 17.8867C21.9666 17.6858 22.1266 17.4473 22.2359 17.1846C22.3451 16.922 22.4016 16.6404 22.4019 16.3559L22.4066 12.4771C22.3989 11.9061 22.1692 11.3604 21.7662 10.9555C21.3631 10.5506 20.8183 10.3182 20.2469 10.3074Z" fill="white"/>
<path opacity="0.8" d="M29.9465 15.5542C28.4434 15.6308 26.9534 15.8724 25.5034 16.2746C22.8229 17.0298 23.9555 21.2119 26.6593 20.4554C27.7274 20.1415 28.8277 19.9498 29.9391 19.8841C31.1082 19.8222 32.1096 18.9394 32.115 17.7208C32.1117 16.6044 31.1199 15.4907 29.9465 15.5542Z" fill="white"/>
<path opacity="0.8" d="M51.8654 16.6948C49.1639 15.9918 48.0026 20.1661 50.6999 20.8686C52.1791 21.2555 51.722 23.6316 51.5592 24.71C51.3822 25.8666 51.845 27.0394 53.0684 27.3789C54.0881 27.6608 55.5614 27.0344 55.7374 25.8691C56.2847 22.3211 56.0951 17.7972 51.8654 16.6948Z" fill="white"/>
<path opacity="0.8" d="M46.2315 33.0975C45.6062 33.6802 44.6349 34.0289 43.934 33.929C42.7748 33.7643 41.6036 34.2078 41.2633 35.4365C40.9835 36.4556 41.6073 37.9379 42.7745 38.1057C45.209 38.452 47.4695 37.8605 49.2921 36.1668C51.3359 34.2609 48.2707 31.1952 46.2315 33.0975Z" fill="white"/>
<path opacity="0.8" d="M77.1006 17.0619L74.0484 17.0567C72.915 17.0535 71.8287 18.0394 71.8727 19.2179C71.8808 19.7899 72.111 20.3363 72.5146 20.742C72.9183 21.1477 73.4638 21.3809 74.0361 21.3923L77.0883 21.3975C78.2219 21.3986 79.3079 20.4148 79.2639 19.2362C79.2564 18.6641 79.0264 18.1174 78.6226 17.7116C78.2189 17.3058 77.6731 17.0728 77.1006 17.0619Z" fill="white"/>
<path opacity="0.8" d="M78.6373 32.763C77.6436 32.1448 76.2498 32.5452 75.6695 33.5365C75.4424 33.933 75.3466 34.3911 75.396 34.8453C75.4455 35.2996 75.6375 35.7265 75.9446 36.065C75.0476 36.3283 74.3144 37.1778 74.3563 38.1408C74.3644 38.7128 74.5945 39.2592 74.9982 39.6649C75.4018 40.0706 75.9473 40.3038 76.5196 40.3152C78.3203 40.3338 80.0365 39.1434 80.5315 37.3797C81.0266 35.6159 80.1786 33.7232 78.6373 32.763Z" fill="white"/>
<path opacity="0.8" d="M96.8053 10.1677C96.2328 10.1751 95.6856 10.4048 95.2796 10.8082C94.8736 11.2115 94.6405 11.7569 94.6297 12.3289L94.6286 13.9932C94.6278 15.1259 95.623 16.2126 96.792 16.1676C97.3645 16.1601 97.9117 15.9304 98.3177 15.5271C98.7237 15.1237 98.9568 14.5784 98.9676 14.0063L98.9687 12.342C98.9721 11.2054 97.9749 10.1185 96.8053 10.1677Z" fill="white"/>
<path opacity="0.8" d="M103.179 16.0008L100.96 15.9965C99.8267 15.9954 98.7394 16.9896 98.7847 18.1577C98.7923 18.7298 99.0223 19.2766 99.426 19.6824C99.8297 20.0882 100.376 20.3212 100.948 20.3321L103.169 20.3367C104.302 20.3378 105.389 19.3436 105.344 18.1755C105.337 17.603 105.106 17.0558 104.702 16.6499C104.298 16.244 103.752 16.0112 103.179 16.0008Z" fill="white"/>
<path opacity="0.8" d="M118.071 36.21C118.004 35.0792 117.122 33.9795 115.905 34.0353C114.784 34.0823 113.673 34.9848 113.729 36.1966C113.812 37.1392 113.649 38.087 113.258 38.9485C112.837 40.0044 113.713 41.3755 114.767 41.6175C116.019 41.9036 116.986 41.238 117.438 40.108C117.925 38.8687 118.141 37.5396 118.071 36.21Z" fill="white"/>
<path opacity="0.8" d="M118.331 6.91214C115.54 6.90659 115.528 11.2402 118.323 11.2442C121.118 11.2482 121.125 6.91614 118.331 6.91214Z" fill="white"/>
<path opacity="0.8" d="M118.73 22.0253C118.795 21.7393 118.782 21.4412 118.693 21.1619C118.618 20.8872 118.489 20.63 118.315 20.4049C118.14 20.1799 117.923 19.9914 117.675 19.8504C117.428 19.7093 117.155 19.6183 116.872 19.5827C116.589 19.5471 116.303 19.5676 116.028 19.6429C115.528 19.8049 114.951 20.1385 114.731 20.6379C114.613 20.8832 114.51 21.1357 114.424 21.394C114.355 21.6651 114.31 21.9417 114.289 22.2206C114.262 22.6091 114.289 22.9994 114.369 23.3805C114.443 23.8793 114.946 24.4329 115.363 24.6759C115.859 24.9665 116.45 25.0484 117.007 24.9038C117.563 24.7592 118.039 24.3998 118.33 23.9045L118.548 23.388C118.622 23.121 118.644 22.8421 118.611 22.5669C118.613 22.5588 118.614 22.5504 118.614 22.542C118.682 22.3776 118.721 22.2029 118.73 22.0253Z" fill="white"/>
<path opacity="0.8" d="M140.774 17.0386C140.202 17.0477 139.656 17.2779 139.25 17.6809C138.844 18.0839 138.611 18.6283 138.598 19.1999C138.596 20.3303 139.582 21.4221 140.762 21.3743C140.821 21.3697 140.879 21.3573 140.935 21.3373C140.994 21.3448 141.066 21.354 141.079 21.3556C141.125 21.3696 141.168 21.3927 141.206 21.4235C141.243 21.4544 141.274 21.4924 141.296 21.5353C141.302 21.5825 141.31 21.6293 141.321 21.6755C141.299 21.7375 141.291 21.8032 141.296 21.8685C141.245 21.938 141.073 22.1924 141.04 22.224C140.33 23.1566 140.889 24.6476 141.812 25.1894C142.924 25.8416 144.067 25.3524 144.78 24.418C147.135 21.343 144.52 16.8706 140.774 17.0386Z" fill="white"/>
<path opacity="0.8" d="M137.186 38.4761L134.13 37.8355C133.022 37.6035 131.733 38.1627 131.459 39.3451C131.212 40.4273 131.784 41.764 132.971 42.0123L136.027 42.6528C137.133 42.8846 138.422 42.3254 138.695 41.1451C138.943 40.0608 138.372 38.7265 137.186 38.4761Z" fill="white"/>
<path opacity="0.8" d="M167.698 33.9869C167.125 33.9964 166.579 34.227 166.173 34.6304C165.768 35.0337 165.534 35.5785 165.522 36.1502C165.52 36.1669 165.518 36.1793 165.517 36.1918L165.503 36.3018C165.476 36.3372 165.451 36.3742 165.429 36.4127L165.411 36.442C165.355 36.4981 165.27 36.6012 165.251 36.6199C165.225 36.6377 165.191 36.6587 165.154 36.6876C165.07 36.7143 164.984 36.7365 164.898 36.7542C163.792 37.0141 163.029 38.3322 163.378 39.4168C163.541 39.9643 163.909 40.4277 164.406 40.7104C164.903 40.9931 165.489 41.0731 166.044 40.9337C168.257 40.4163 169.777 38.3803 169.863 36.1468C169.905 35.0235 168.838 33.9382 167.698 33.9869Z" fill="white"/>
<path opacity="0.8" d="M162.349 16.7727C160.761 16.6127 159.166 16.9903 157.819 17.8448C156.861 18.4485 156.389 19.7996 157.038 20.8083C157.652 21.7664 158.967 22.2356 160.001 21.5912C160.795 21.0912 161.259 20.9795 162.343 21.105C163.473 21.2364 164.561 20.0208 164.519 18.9437C164.459 17.6577 163.562 16.9126 162.349 16.7727Z" fill="white"/>
</svg>
